<svg width="144" height="320" viewBox="0 0 144 320" fill="none" xmlns="http://www.w3.org/2000/svg">
<path opacity="0.5" d="M75.3438 319.793C112.715 319.793 143.011 314.197 143.011 307.293C143.011 300.389 112.715 294.793 75.3438 294.793C37.9723 294.793 7.67676 300.389 7.67676 307.293C7.67676 314.197 37.9723 319.793 75.3438 319.793Z" fill="#FDE0D5"/>
<path d="M110.344 127.806C112.065 130.073 113.699 132.098 115.023 133.712C116.578 135.622 117.708 136.973 118.098 137.533C120.023 140.294 122.983 138.689 126.169 140.167C128.336 143.603 127.742 143.231 130.261 143.554C132.777 143.887 136.97 140.332 137.134 138.152C137.301 135.962 135.657 130.555 133.027 129.881C130.4 129.196 123.855 129.556 121.844 129.852C121.594 129.891 121.251 129.515 120.855 128.862C120.412 128.138 119.897 127.085 119.353 125.864L110.344 127.806Z" fill="#FFC7A8"/>
<path d="M128.712 130.311C130.737 130.954 131.733 131.256 133.728 133.292C135.405 135.003 133.276 136.414 132.135 135.161C130.994 133.908 129.716 134.127 127.502 135.094C126.571 135.501 124.582 136.316 123.17 135.162" stroke="#E29986" stroke-width="0.4141" stroke-miterlimit="10" stroke-linecap="round" stroke-linejoin="round"/>
<path d="M135.897 139.785C135.897 139.785 134.924 140.342 132.811 139.86C130.334 139.295 129.167 137.12 129.167 137.12" stroke="#E29986" stroke-width="0.4141" stroke-miterlimit="10" stroke-linecap="round" stroke-linejoin="round"/>
<path d="M134.057 141.726C134.057 141.726 132.285 142.747 130.358 141.755C128.43 140.762 128.227 138.359 128.227 138.359" stroke="#E29986" stroke-width="0.4141" stroke-miterlimit="10" stroke-linecap="round" stroke-linejoin="round"/>
<path d="M131.955 143.03C131.955 143.03 130.183 144.051 128.256 143.058C126.329 142.065 126.125 139.662 126.125 139.662" stroke="#E29986" stroke-width="0.4141" stroke-miterlimit="10" stroke-linecap="round" stroke-linejoin="round"/>
<path d="M115.344 134.084L120.948 128.959L120.531 128.167L115.344 134.084Z" fill="#EFAB89"/>
<path d="M5.56563 56.3968C5.56563 56.3968 6.12463 50.6398 6.36163 49.5768C6.59863 48.5138 5.62062 45.8288 5.03662 43.9968C8.75762 42.0668 15.9536 39.3408 15.9536 39.3408C15.9536 39.3408 12.8246 47.0798 13.4686 48.8548C13.9286 50.1228 14.7186 54.4178 14.7186 54.4178L5.56563 56.3968Z" fill="#FFC7A8"/>
<path d="M6.6436 46.0178C7.8976 46.7128 13.0296 46.3688 14.7876 42.0118C16.4156 37.9758 17.5436 37.3357 18.3316 34.2427C19.0136 31.5647 17.2666 33.1868 15.6556 34.7398C14.0446 36.2928 13.7816 37.2927 12.7686 35.5657C11.7556 33.8387 10.8006 25.4338 9.37559 23.7308C7.95059 22.0278 9.14859 32.7147 9.14859 32.7147C9.14859 32.7147 6.6506 23.9028 5.3876 23.7208C3.8756 23.5038 6.00859 33.0687 6.00859 33.0687C6.00859 33.0687 2.8156 25.8897 2.2386 26.0667C1.1186 26.4107 3.1736 34.0617 3.1736 34.0617C3.1736 34.0617 0.723602 29.2328 0.0946023 29.9768C-0.533398 30.7208 2.0006 41.1148 6.6436 46.0178Z" fill="#FFC7A8"/>
<path d="M3.7475 36.402C3.7545 36.393 3.76249 36.383 3.77049 36.375C3.91249 36.227 7.3055 32.759 11.5015 34.142C11.6575 34.193 11.7425 34.362 11.6905 34.518C11.6385 34.674 11.4705 34.759 11.3145 34.707C7.47949 33.443 4.2315 36.753 4.1995 36.787C4.0855 36.905 3.89749 36.909 3.77849 36.795C3.66949 36.69 3.6575 36.52 3.7475 36.402Z" fill="#F2B699"/>
<path d="M6.46875 49.0838L13.5197 46.8828L13.3848 48.1668L6.46875 49.0838Z" fill="#EFBA9E"/>
<path d="M110.876 302.024L106.2 291.043C106.2 291.043 107.469 298.976 106.835 301.105C106.209 303.234 101.524 305.89 98.3588 307.368C90.0918 310.95 86.2338 309.831 86.1928 308.838C86.1848 308.654 86.3018 308.471 86.5518 308.329C96.1798 301.29 96.1208 291.311 95.0108 285.441C94.4598 282.518 93.6418 280.615 93.6418 280.615C98.0838 280.381 103.946 273.292 103.98 273.292L116.121 299.487L110.876 302.024Z" fill="#191919"/>
<path d="M101.54 283.72V288.58C100.83 293.832 98.8678 298.909 95.8788 303.285C95.1438 304.362 94.3338 305.406 93.2818 306.166C92.1048 307.018 90.7018 307.469 89.3158 307.895C88.2968 308.212 87.2868 308.521 86.2678 308.822C86.2428 308.83 86.2178 308.839 86.1928 308.839C86.1848 308.655 86.3018 308.472 86.5518 308.33C96.1798 301.291 96.1208 291.312 95.0108 285.442C96.0208 284.214 97.2488 283.187 98.7268 282.603C99.2948 282.378 99.9288 282.219 100.522 282.378C101.106 282.543 101.624 283.111 101.54 283.72Z" fill="#2B2B2B"/>
<path d="M65.7184 308.097L59.7894 308.456L59.6553 296.281C59.6553 296.281 57.7593 304.247 56.3403 306.009C54.9203 307.771 49.4684 308.456 45.9194 308.614C39.5734 308.723 36.0744 307.537 34.6384 306.476C33.6114 305.716 33.6284 305.031 34.4044 304.923C46.4124 301.992 50.1694 292.306 51.3474 286.369C51.9064 283.538 51.8813 281.559 51.8813 281.559C56.1903 283.079 64.5654 278.611 64.4734 278.686L65.7184 308.097Z" fill="#191919"/>
<path d="M57.3594 288.115C56.5744 289.835 55.7893 291.564 55.0043 293.284C54.1863 295.088 53.3593 296.9 52.2153 298.52C48.4073 303.898 41.4933 306.361 34.9053 306.478H34.6384C33.6114 305.718 33.6284 305.033 34.4044 304.925C46.4124 301.994 50.1694 292.308 51.3474 286.371C52.9674 285.903 54.6204 285.619 56.3324 285.561L57.3594 288.115Z" fill="#2B2B2B"/>
<path opacity="0.15" d="M74.7534 48.7691C62.3934 62.0291 53.0534 52.8791 50.9434 50.4291C51.5134 50.3591 53.0733 50.0491 54.3533 48.9291C54.5233 49.0291 54.6933 49.1491 54.8533 49.2691C55.1933 49.5391 55.4733 49.8791 55.8533 50.0891C56.1133 50.2391 56.4034 50.3191 56.6934 50.3991C57.1634 50.5191 57.6333 50.6391 58.1033 50.7691C58.5133 50.8691 58.9334 50.8591 59.3634 50.8691C60.0634 50.8891 60.7633 50.8991 61.4333 50.6891C61.7333 50.5891 62.0234 50.4491 62.3434 50.3791C63.1134 50.2091 63.9233 50.4991 64.7133 50.4291C66.0133 50.2991 67.0234 49.2291 68.2834 48.8991C68.6034 48.8091 68.9234 48.7791 69.2334 48.7091C69.9034 48.5591 70.5334 48.2591 71.1434 47.9591C71.3734 47.8491 71.6034 47.7291 71.8334 47.6191C72.6234 48.0191 73.5834 48.3991 74.7534 48.7691Z" fill="#FFC3A4"/>
<path d="M39.2185 35.5341C39.1735 35.0861 39.2935 34.6141 39.6535 34.1131C42.3105 30.4141 44.3995 26.6871 45.9655 22.3891C46.0675 22.1091 46.1675 21.8281 46.2665 21.5471C47.8065 17.1661 48.5165 11.8821 50.7575 7.83506C52.4225 4.82806 55.4305 2.21406 58.6185 0.958058C61.0915 -0.0159416 63.8325 -0.247942 66.4385 0.265058C67.4745 0.469058 68.5035 0.783062 69.4555 1.24406C69.6485 1.33806 71.3215 2.52406 71.3605 2.50706C74.6465 1.14206 83.8085 5.68706 86.6735 15.5941C89.3825 24.9601 96.0555 21.1561 101.949 31.4121C100.507 34.0781 96.7415 40.3241 91.0165 44.8631C89.9695 43.4531 87.2175 39.7461 86.9795 39.4481L89.9505 45.6731C86.1135 48.4471 81.4735 50.3811 76.1225 50.0621C66.4735 49.4871 56.5855 47.7321 48.7005 43.5511C49.3065 41.5521 50.2785 38.3351 50.3615 38.0241L47.7165 43.0121C45.7105 41.8711 43.8065 40.5431 42.0875 39.0011C40.9475 37.9811 39.3525 36.8641 39.2185 35.5341Z" fill="#2B2B2B"/>
<path d="M80.0327 30.8402C79.7057 29.8232 79.2037 29.1762 78.5927 28.8002C76.9677 27.8012 75.8567 26.1492 75.8777 24.2422C75.8967 22.4502 75.8957 21.0322 76.1347 20.0412C76.8097 17.2522 66.8167 11.9212 63.5097 11.4122C54.2507 9.98818 51.9228 12.9232 51.3228 20.8312C50.7228 28.7392 49.5437 38.4052 53.9467 42.9902C57.7357 46.9352 67.8367 46.2372 72.3207 40.5402C73.2057 39.4162 74.4387 38.5672 75.8547 38.3642C76.1587 38.3202 76.4647 38.2492 76.7617 38.1532C78.8947 37.4682 80.9117 33.5752 80.0327 30.8402Z" fill="#1C1C1C"/>
<path d="M75.3834 77.0388L52.3234 76.4588L50.7134 50.4588C50.7134 50.4588 50.7934 50.4488 50.9434 50.4288C51.5134 50.3588 53.0734 50.0488 54.3534 48.9288C55.4434 47.9788 56.3334 46.4588 56.3034 44.0088C56.3034 43.8288 56.3034 43.6388 56.2834 43.4388C55.8434 36.7888 68.5634 42.4688 68.5634 42.4688C68.5634 42.4688 68.3134 42.9388 68.3534 43.6588C68.4034 44.6788 69.0534 46.2088 71.8334 47.6188C72.6234 48.0188 73.5834 48.3988 74.7534 48.7688C74.9534 48.8288 75.1634 48.8988 75.3834 48.9588C75.3034 68.1288 75.3834 77.0388 75.3834 77.0388Z" fill="#FFBD9D"/>
<path opacity="0.15" d="M68.5636 42.4688C68.5636 42.4688 68.3136 42.9388 68.3536 43.6588C64.3736 45.5288 59.4836 45.6188 56.3036 44.0088C56.3036 43.8288 56.3036 43.6388 56.2836 43.4388C55.8436 36.7888 68.5636 42.4688 68.5636 42.4688Z" fill="#FFC3A4"/>
<path d="M76.0936 18.8993C75.8036 20.0693 75.8636 21.8393 75.8236 24.1293C75.7636 27.2693 75.5336 31.3693 73.9736 36.2293C71.2336 44.7493 58.3036 46.4293 53.9036 41.8493C49.7336 37.4993 50.5736 28.5893 51.1836 20.9393C51.2236 20.5193 51.2536 20.0993 51.2836 19.6893C51.8836 11.7793 54.2136 8.83927 63.4636 10.2693C66.7736 10.7793 76.7636 16.1093 76.0936 18.8993Z" fill="#FFC3A4"/>
<path d="M76.0936 18.8993C75.8036 20.0693 75.8636 21.8393 75.8236 24.1293C61.0236 18.0393 53.9936 19.5993 51.1836 20.9393C51.2236 20.5193 51.2536 20.0993 51.2836 19.6893C51.8836 11.7793 54.2136 8.83927 63.4636 10.2693C66.7736 10.7793 76.7636 16.1093 76.0936 18.8993Z" fill="#F8B593"/>
<path d="M57.0865 27.458C57.0865 27.458 57.0745 30.625 55.7715 32.092C55.7715 32.092 56.3045 32.515 57.2175 33.048" stroke="#E2906D" stroke-width="0.5" stroke-miterlimit="10" stroke-linecap="round" stroke-linejoin="round"/>
<path d="M63.1588 27.3762C63.1088 28.0182 62.6988 28.5102 62.2428 28.4752C61.7868 28.4402 61.4568 27.8912 61.5058 27.2482C61.5558 26.6062 61.9658 26.1142 62.4218 26.1492C62.8778 26.1852 63.2078 26.7342 63.1588 27.3762Z" fill="#382F2C"/>
<path d="M54.2757 27.1663C54.2267 27.8083 53.8157 28.3003 53.3597 28.2653C52.9037 28.2303 52.5737 27.6813 52.6237 27.0383C52.6727 26.3963 53.0837 25.9043 53.5397 25.9393C53.9957 25.9753 54.3257 26.5243 54.2757 27.1663Z" fill="#382F2C"/>
<path d="M66.6805 24.4682C66.8255 24.4852 66.9755 24.4382 67.0875 24.3292C67.2735 24.1462 67.2885 23.8512 67.1205 23.6502C67.0215 23.5332 64.6615 20.7982 60.2065 22.1992C59.9595 22.2772 59.8135 22.5302 59.8685 22.7832C59.9235 23.0362 60.1605 23.2062 60.4195 23.1722C60.4605 23.1672 64.5045 22.6802 66.4085 24.3482C66.4875 24.4172 66.5825 24.4572 66.6805 24.4682Z" fill="#2B2B2B"/>
<path d="M50.1605 23.2881C50.2855 23.3021 50.4155 23.2691 50.5225 23.1871C50.6085 23.1221 52.4075 21.7831 55.2265 22.5931C55.4795 22.6641 55.7425 22.5311 55.8325 22.2861C55.9235 22.0411 55.8105 21.7671 55.5735 21.6581C55.4465 21.6011 52.4525 20.2581 49.8955 22.4091C49.6865 22.5841 49.6565 22.8941 49.8285 23.1061C49.9145 23.2121 50.0345 23.2741 50.1605 23.2881Z" fill="#2B2B2B"/>
<path d="M79.9908 29.6944C80.8708 32.4294 78.8528 36.3224 76.7208 37.0084C74.5888 37.6944 72.0307 37.1674 72.5667 33.7804C73.0157 30.9424 72.7028 28.2714 74.8348 27.5864C76.9668 26.9004 79.1108 26.9584 79.9908 29.6944Z" fill="#FFC3A4"/>
<path d="M57.5046 34.4931C56.3366 34.4691 55.2676 34.3072 54.4206 34.0562C54.3776 34.2792 54.3486 34.5081 54.3436 34.7451C54.3036 36.7541 55.7386 38.4132 57.5506 38.4492C59.3626 38.4862 60.8636 36.8862 60.9046 34.8772C60.9096 34.6162 60.8876 34.3612 60.8456 34.1142C59.9546 34.3732 58.7856 34.5191 57.5046 34.4931Z" fill="white"/>
<path d="M61.1285 30.8774C61.2535 31.7704 62.5135 32.3324 63.9425 32.1334C65.3715 31.9344 66.4295 31.0484 66.3045 30.1554C66.1795 29.2624 64.9205 28.7004 63.4915 28.8994C62.0615 29.0984 61.0045 29.9844 61.1285 30.8774Z" fill="#F8B593"/>
<path d="M53.9646 31.1933C54.0536 30.2963 52.9616 29.4533 51.5256 29.3113C51.2326 29.2823 50.9516 29.2923 50.6836 29.3213C50.6686 30.3973 50.6876 31.4563 50.7476 32.4863C50.8956 32.5183 51.0466 32.5453 51.2036 32.5603C52.6396 32.7033 53.8766 32.0903 53.9646 31.1933Z" fill="#F8B593"/>
<path d="M51.0377 12.7841C54.5177 7.29013 59.5217 5.09312 65.4117 5.68012C71.3017 6.26712 74.0867 8.42112 75.8457 13.2481C77.6057 18.0751 75.1627 26.2361 75.1627 26.2361C75.1627 26.2361 74.5217 23.2381 70.8197 21.0461C70.8197 21.0461 71.4327 18.5301 71.4907 17.4521C71.4907 17.4521 70.7907 20.4351 70.0707 20.7591C70.0707 20.7591 63.1317 17.8811 56.6617 18.6351C56.6657 18.1141 56.6927 17.0431 56.8287 15.8461C56.8287 15.8461 56.1887 17.3661 55.9047 18.7411C53.2667 19.1721 50.7557 20.2581 48.8877 22.4531C48.8877 22.4531 47.5577 18.2781 51.0377 12.7841Z" fill="#2B2B2B"/>
<path d="M64.1035 33.1357C66.5656 33.1357 68.5615 31.1398 68.5615 28.6777C68.5615 26.2156 66.5656 24.2197 64.1035 24.2197C61.6414 24.2197 59.6455 26.2156 59.6455 28.6777C59.6455 31.1398 61.6414 33.1357 64.1035 33.1357Z" stroke="#2E2E30" stroke-width="0.5" stroke-miterlimit="10"/>
<path d="M53.3535 31.2402C55.3323 31.2402 56.9365 29.636 56.9365 27.6572C56.9365 25.6784 55.3323 24.0742 53.3535 24.0742C51.3747 24.0742 49.7705 25.6784 49.7705 27.6572C49.7705 29.636 51.3747 31.2402 53.3535 31.2402Z" stroke="#2E2E30" stroke-width="0.5" stroke-miterlimit="10"/>
<path d="M59.8648 27.3453C59.8648 27.3453 58.4588 25.6573 56.8018 27.2203" stroke="#2E2E30" stroke-width="0.5" stroke-miterlimit="10"/>
<path d="M68.3955 27.7202L77.7285 27.4492" stroke="#2E2E30" stroke-width="0.5" stroke-miterlimit="10"/>
<path d="M63.4267 32.646C65.8888 32.646 67.8848 30.6501 67.8848 28.188C67.8848 25.7259 65.8888 23.73 63.4267 23.73C60.9647 23.73 58.9688 25.7259 58.9688 28.188C58.9688 30.6501 60.9647 32.646 63.4267 32.646Z" stroke="#2E2E30" stroke-width="0.5" stroke-miterlimit="10"/>
<path d="M52.6767 30.75C54.6556 30.75 56.2598 29.1458 56.2598 27.167C56.2598 25.1882 54.6556 23.584 52.6767 23.584C50.6979 23.584 49.0938 25.1882 49.0938 27.167C49.0938 29.1458 50.6979 30.75 52.6767 30.75Z" stroke="#2E2E30" stroke-width="0.5" stroke-miterlimit="10"/>
<path d="M59.1865 26.8551C59.1865 26.8551 57.7805 25.1671 56.1235 26.7301" stroke="#2E2E30" stroke-width="0.5" stroke-miterlimit="10"/>
<path d="M67.7178 27.23L77.0518 26.959" stroke="#2E2E30" stroke-width="0.5" stroke-miterlimit="10"/>
<path d="M33.3428 58.417L18.4678 75.625C18.4678 75.625 14.8848 51.167 13.3848 48.167C8.88481 48.667 6.3428 49.209 6.3428 49.209C6.3428 49.209 2.4218 84.34 6.4058 97.961C6.9068 99.674 8.6678 100.681 10.3988 100.246C18.5508 98.196 39.4678 79.417 39.4678 79.417L33.3428 58.417Z" fill="white"/>
<path d="M90.8137 56.729L90.6037 57.569L85.0137 80.329L83.5137 86.419C81.9137 92.589 80.5237 99.139 80.8137 105.559C80.8337 105.949 80.9137 106.339 80.9437 106.729C80.9737 107.039 81.2137 107.369 81.4437 107.599C81.3337 107.489 80.3237 107.669 80.1737 107.709C79.7937 107.809 79.4137 107.869 79.0237 107.929C78.5937 107.999 78.1537 108.059 77.7137 108.119C77.3037 108.179 76.8937 108.239 76.4837 108.289C76.0938 108.339 75.6937 108.399 75.3037 108.439C70.6237 109.029 65.8937 109.339 61.1737 109.369C60.1037 109.379 59.0237 109.369 57.9537 109.349C55.5437 109.309 53.1337 109.179 50.7437 108.879C49.5337 108.729 48.3237 108.529 47.1237 108.269C46.5437 108.149 46.0037 108.169 45.4337 108.009C45.2037 107.949 44.0037 107.699 43.8937 107.609C43.6937 107.429 43.7737 106.589 43.7637 106.349C43.7037 105.559 43.6437 104.759 43.5737 103.969C43.3837 101.659 43.1537 99.359 42.8737 97.059C42.8237 96.649 42.7737 96.239 42.7237 95.829C42.3337 92.849 41.8437 89.849 41.2337 87.609L39.0137 79.459L33.3237 58.509C33.3237 58.509 43.5337 51.359 50.7637 50.309C64.3437 59.419 75.4237 48.749 75.4237 48.749L80.8437 50.829C82.9137 51.619 84.8937 52.599 86.7937 53.769L87.0937 53.989L90.8137 56.729Z" fill="white"/>
<path d="M88.0938 55.042C88.0938 55.042 101.802 59.792 106.302 93.542C118.552 124.042 120.531 128.167 120.531 128.167L115.281 134.042C115.281 134.042 91.4678 110.042 84.7178 79.292C84.9688 52.042 88.0938 55.042 88.0938 55.042Z" fill="white"/>
<path d="M75.4838 48.7607C74.9888 48.5027 74.4938 48.2457 73.9988 47.9877C73.7678 47.8677 73.4428 47.6207 73.1888 47.6397C72.9278 47.6597 72.5338 47.9597 72.2968 48.0757C71.9758 48.2327 71.6548 48.3897 71.3328 48.5467C70.7168 48.8477 70.0938 49.1517 69.4248 49.3007C69.1088 49.3707 68.7848 49.4067 68.4718 49.4887C67.2108 49.8217 66.1958 50.8967 64.8968 51.0177C64.1068 51.0917 63.3008 50.7967 62.5258 50.9687C62.2128 51.0377 61.9218 51.1807 61.6168 51.2777C60.9548 51.4887 60.2448 51.4807 59.5498 51.4627C59.1198 51.4517 58.6998 51.4657 58.2848 51.3567C57.8168 51.2337 57.3488 51.1107 56.8808 50.9877C56.5908 50.9117 56.2968 50.8337 56.0358 50.6867C55.6608 50.4747 55.3778 50.1347 55.0428 49.8647C54.8018 49.6707 54.5348 49.5127 54.2688 49.3547C53.9238 49.1507 53.5728 48.9437 53.1888 48.8207C52.7888 48.6917 52.6098 48.6997 52.2808 48.9487C51.6928 49.3927 51.2178 49.9637 50.6758 50.4587C50.6758 50.4587 61.1088 64.8407 75.4838 48.7607Z" fill="white"/>
<path d="M50.7178 50.5131C51.6898 51.0641 52.6758 51.5701 53.7118 51.9591C54.2158 52.1811 54.7428 52.3481 55.2538 52.5441L56.8318 53.0061C58.9508 53.5441 61.1368 53.7881 63.2968 53.6321C65.4498 53.4881 67.6058 53.0451 69.6118 52.1761C70.6608 51.8421 71.5838 51.2341 72.5708 50.7391C73.5428 50.2141 74.4158 49.5271 75.3848 48.9551C74.9778 49.3341 74.5618 49.7091 74.1368 50.0751C73.7028 50.4281 73.3158 50.8531 72.8378 51.1511C71.8838 51.7431 70.9768 52.4421 69.9248 52.8801C67.9128 53.9511 65.6278 54.4591 63.3568 54.6301C61.0758 54.7691 58.7648 54.4781 56.6158 53.7401C54.4698 53.0151 52.4298 51.9611 50.7178 50.5131Z" fill="#2C3559"/>
<path opacity="0.1" d="M85.0938 80.542C85.0938 80.542 83.2808 75.854 82.9688 69.042" stroke="#2C3559" stroke-miterlimit="10"/>
<path opacity="0.1" d="M38.9756 79.669C38.9756 79.669 41.2186 69.73 42.2806 68.917" stroke="#2C3559" stroke-miterlimit="10"/>
<path opacity="0.1" d="M18.4674 75.626C18.4674 75.626 15.2184 82.334 15.3434 84.709" stroke="#2C3559" stroke-miterlimit="10"/>
<path opacity="0.1" d="M106.927 95.709C106.927 95.709 102.76 96.709 101.01 98.709" stroke="#2C3559" stroke-miterlimit="10"/>
<path d="M80.9835 187.509C82.6535 179.819 84.0935 172.059 85.6035 164.329C88.6235 149.019 93.0235 127.439 84.8435 112.539C83.8535 110.739 82.6835 109.039 81.3035 107.459C81.1035 107.229 62.9435 109.519 56.2135 108.729C49.1735 107.909 45.3035 107.609 44.1535 107.539C43.9035 107.519 43.7835 107.509 43.7835 107.509C43.7835 107.509 43.7135 113.629 43.5235 116.499C43.4535 117.389 43.3935 118.399 43.3135 119.519C42.2135 136.119 39.7935 175.809 40.6135 193.639C41.6635 216.489 40.2635 283.849 39.5635 287.109C49.3835 294.049 71.1435 291.599 77.8335 284.259C79.2335 289.969 79.2335 291.609 79.2335 291.609C79.2335 291.609 86.1935 291.889 94.3535 290.309C95.1935 290.139 96.0435 289.959 96.8835 289.759C97.1735 289.689 97.4535 289.619 97.7435 289.549C98.0335 289.469 98.3135 289.399 98.6035 289.319C98.6635 289.309 98.7335 289.289 98.8035 289.269C99.3135 289.129 99.8235 288.979 100.323 288.829C100.613 288.739 100.903 288.649 101.193 288.549C101.473 288.459 101.763 288.359 102.043 288.259C104.783 287.309 107.473 286.079 109.883 284.499C110.063 284.389 110.233 284.269 110.403 284.149C110.703 283.949 111.003 283.729 111.293 283.509C111.433 283.409 111.573 283.299 111.713 283.189C112.303 282.729 112.873 282.239 113.413 281.729C113.563 281.589 113.713 281.439 113.863 281.299C114.883 280.279 115.813 279.149 116.613 277.919C116.743 277.719 116.863 277.509 116.993 277.299C117.303 276.779 117.593 276.239 117.853 275.679C103.453 242.209 79.9335 192.419 80.9835 187.509ZM59.4735 156.299C59.3735 151.839 59.3035 147.369 59.2635 142.899L59.2735 142.909C59.3135 147.379 59.3835 151.839 59.4835 156.299C59.5435 160.079 59.6235 163.849 59.7335 167.619C59.6235 163.849 59.5435 160.079 59.4735 156.299ZM61.2335 193.349C61.1435 192.679 61.0735 191.999 61.0035 191.319C61.0735 191.999 61.1535 192.679 61.2435 193.349C61.2835 193.659 61.3435 193.979 61.3935 194.289C61.3435 193.979 61.2835 193.659 61.2335 193.349ZM63.0635 202.369C62.9235 201.699 62.7835 201.039 62.6535 200.379C62.7935 201.039 62.9335 201.699 63.0735 202.369L64.5335 209.849L63.0635 202.369ZM71.5235 247.799C71.3035 246.549 71.0835 245.299 70.8535 244.049C71.0835 245.299 71.3035 246.549 71.5335 247.799L71.8635 249.709L71.5235 247.799Z" fill="#2B2B2B"/>
<path d="M77.8338 284.257L74.3438 266.112L70.9038 247.958C68.6078 235.852 66.3858 223.726 64.0398 211.64L62.2948 202.573C61.9858 201.078 61.6938 199.554 61.3678 198.068C61.0338 196.592 60.7248 195.049 60.4908 193.495C60.3068 191.942 60.1238 190.398 60.0148 188.854C59.8728 187.301 59.7898 185.757 59.6978 184.204C59.5138 181.107 59.4058 178.01 59.3308 174.904C59.1638 168.71 59.0888 162.507 59.0718 156.313C59.0798 151.692 59.1048 147.081 59.1638 142.479C59.1808 140.887 59.2058 139.304 59.2308 137.722C59.2388 139.45 59.2558 141.168 59.2728 142.896V142.906C59.3148 147.372 59.3818 151.837 59.4818 156.303C59.5818 162.497 59.7238 168.691 59.9658 174.875C60.2498 181.059 60.4668 187.263 61.2438 193.35C61.4688 194.845 61.7698 196.321 62.1208 197.845C62.4628 199.35 62.7558 200.855 63.0728 202.369L64.8518 211.436C67.1318 223.542 69.3698 235.658 71.5318 247.803L74.7388 266.015L77.8338 284.257Z" fill="#1C2730"/>
<path opacity="0.2" d="M77.8335 284.257C71.1614 291.606 49.3925 294.053 39.5645 287.111C54.2105 293.043 70.9615 280.81 68.7655 269.161C66.5775 257.511 57.8095 198.884 57.8095 194.146C57.8095 189.418 59.0625 142.081 59.0625 142.081L59.1625 142.479L59.2715 142.896V142.906C59.3135 147.372 59.3805 151.837 59.4805 156.303C59.5805 162.497 59.7225 168.691 59.9645 174.875C60.2485 181.059 60.4655 187.263 61.2425 193.35C61.4675 194.845 61.7685 196.321 62.1195 197.845C62.4615 199.35 62.7545 200.855 63.0715 202.369L64.8505 211.436C67.1305 223.542 69.3685 235.658 71.5305 247.803L74.7375 266.015L77.8335 284.257Z" fill="black"/>
<path d="M70.1074 120.591C70.6024 123.003 73.6264 126.816 75.6084 128.277C77.5904 129.738 79.9504 130.61 82.3454 131.182" stroke="#0F0F0F" stroke-miterlimit="10"/>
<path d="M48.7188 121.459C48.7188 121.459 48.0938 125.834 45.4688 127.834" stroke="#0F0F0F" stroke-miterlimit="10"/>
</svg>
