<svg width="712" height="538" viewBox="0 0 712 538" fill="none" xmlns="http://www.w3.org/2000/svg">
<path d="M497.67 32.5293C367.59 69.7892 331.71 37.8993 288.62 17.2993C218.58 -16.1807 129.31 0.779251 70.9001 52.2793C12.4901 103.779 -13.4199 190.109 6.80011 265.809C27.0201 341.509 92.3901 402.839 168.47 417.519C260.33 435.239 355.05 449.629 446.92 431.919C538.78 414.209 627.23 360.619 664.52 271.419C721.11 136.039 633.69 -6.43075 497.67 32.5293Z" fill="#E2F6FE"/>
<path d="M250.89 203.769C247.23 204.549 242.93 204.999 240.16 201.359C238.66 199.409 237.57 196.319 237.03 192.959C236.58 190.179 236.52 187.329 236.92 184.829C237.47 179.579 239.81 176.819 243.45 173.479C247.07 169.989 251.77 165.829 254.66 160.229C257.25 155.299 258.1 149.379 257.3 144.419L256.78 142.419C255.34 137.139 251.42 133.739 246.52 132.969C244.89 132.709 243.11 132.779 241.38 133.149C237.92 133.879 234.64 135.789 232.3 138.549C229.47 142.019 228.3 147.099 228.9 150.899L229.35 152.469C230.34 156.189 233.58 157.769 236.24 159.469C237.84 160.789 239.42 161.969 239.7 163.719C239.84 164.589 239.79 165.509 239.18 166.699C237.31 169.969 232.32 174.799 226.74 175.979L226.16 176.099C220.34 177.029 214.3 174.079 210.56 166.869C209.16 164.299 208.05 161.059 207.51 157.699C206.55 151.709 207.25 144.919 210.31 139.129C215.2 129.939 226.4 122.879 237.83 119.709L240.33 119.179C250.91 116.939 261.4 117.879 268.64 120.879C276.31 124.089 280.18 129.609 282.05 136.309L283.23 141.199C284.1 146.609 283.85 152.549 282.34 157.999C280.48 165.039 276.71 171.279 272.07 175.879C267.44 180.479 261.95 183.459 259.79 187.389C257.83 191.279 259.01 196.159 258.3 199.179C257.57 202.049 254.54 202.989 250.89 203.769ZM254.2 231.909C261.99 229.659 267.36 222.169 266.35 215.889C265.79 212.389 263.78 209.789 260.96 208.279C257.27 206.339 254.6 207.059 249.56 207.829C246.67 208.439 243.67 209.529 241.38 211.379C237.69 214.419 236.14 218.379 236.69 223.089C237.2 226.299 239.3 229.489 242.35 231.109C245.2 232.769 249.4 232.939 252.87 232.199L254.2 231.909Z" fill="#6BC9ED"/>
<path d="M469.09 150.789C466.12 151.379 462.63 151.679 460.35 148.539C459.11 146.859 458.21 144.209 457.75 141.339C457.37 138.969 457.3 136.539 457.6 134.419C458.01 129.969 459.9 127.669 462.83 124.899C465.75 122.009 469.54 118.559 471.85 113.859C473.92 109.719 474.57 104.709 473.89 100.469L473.45 98.7593C472.24 94.2393 469.03 91.2793 465.04 90.5293C463.71 90.2793 462.27 90.3093 460.86 90.5793C458.05 91.1393 455.4 92.6893 453.51 94.9893C451.24 97.8793 450.31 102.179 450.83 105.419L451.21 106.759C452.04 109.939 454.68 111.349 456.86 112.839C458.17 113.989 459.46 115.019 459.71 116.519C459.83 117.269 459.8 118.049 459.31 119.039C457.81 121.779 453.79 125.789 449.26 126.689L448.79 126.779C444.07 127.459 439.13 124.829 436.04 118.629C434.88 116.419 433.95 113.649 433.49 110.779C432.67 105.669 433.19 99.9093 435.63 95.0593C439.54 87.3493 448.6 81.5693 457.87 79.0893L459.9 78.6893C468.49 76.9893 477.02 77.9993 482.93 80.6893C489.19 83.5593 492.37 88.3293 493.94 94.0593L494.94 98.2293C495.68 102.839 495.52 107.879 494.33 112.489C492.87 118.439 489.84 123.659 486.11 127.489C482.37 131.309 477.93 133.739 476.21 137.039C474.64 140.299 475.63 144.479 475.08 147.029C474.51 149.459 472.05 150.209 469.09 150.789ZM471.97 174.769C478.29 173.009 482.6 166.749 481.74 161.389C481.26 158.399 479.61 156.159 477.3 154.809C474.29 153.089 472.12 153.649 468.02 154.199C465.68 154.669 463.24 155.529 461.39 157.059C458.41 159.569 457.17 162.909 457.66 166.919C458.1 169.659 459.83 172.409 462.32 173.839C464.65 175.309 468.07 175.529 470.88 174.969L471.97 174.769Z" fill="#6BC9ED"/>
<path d="M590.25 71.6493C587.86 70.9393 585.18 69.8293 584.72 66.6893C584.46 64.9993 584.81 62.7393 585.57 60.4993C586.2 58.6393 587.08 56.8593 588.11 55.4493C590.11 52.3893 592.37 51.4493 595.58 50.5693C598.82 49.5893 602.91 48.5493 606.4 46.0293C609.5 43.8293 611.89 40.4493 613.01 37.1293L613.35 35.7293C614.2 32.0093 612.98 28.6393 610.35 26.5693C609.48 25.8793 608.41 25.3493 607.27 25.0093C605 24.3393 602.47 24.4493 600.21 25.3993C597.44 26.6193 595.12 29.3793 594.27 31.9093L594.03 33.0193C593.42 35.6293 594.81 37.6593 595.83 39.5693C596.35 40.8993 596.9 42.1393 596.5 43.3093C596.3 43.8893 595.98 44.4393 595.24 44.9793C593.1 46.3893 588.62 47.7493 584.97 46.6693L584.59 46.5593C580.88 45.2493 578.28 41.4693 578.39 35.8093C578.39 33.7693 578.77 31.4093 579.53 29.1693C580.88 25.1693 583.47 21.1993 587.11 18.6293C592.92 14.5493 601.75 13.8293 609.48 15.5793L611.12 16.0593C618.05 18.1093 623.9 22.0893 627.19 26.2893C630.67 30.7593 631.17 35.4193 630.12 40.1493L629.25 43.5493C628.03 47.1593 625.98 50.7493 623.35 53.6193C620.01 57.3593 615.79 59.9793 611.6 61.3193C607.41 62.6593 603.23 62.7093 600.71 64.4393C598.31 66.1993 597.44 69.5993 596.06 71.2293C594.73 72.7593 592.64 72.3593 590.25 71.6493ZM583.19 90.0793C588.48 91.2193 594.03 88.3392 595.45 84.1393C596.24 81.7993 595.9 79.5493 594.72 77.6893C593.17 75.2993 591.38 74.8793 588.17 73.7093C586.28 73.1493 584.16 72.8493 582.23 73.2393C579.09 73.9193 576.91 75.8593 575.73 78.9393C575 81.0893 575.22 83.7293 576.48 85.7193C577.62 87.6693 580.04 89.1293 582.3 89.7993L583.19 90.0793Z" fill="#6BC9ED"/>
<path d="M136.83 57.3891C134.93 57.8891 132.68 58.2391 131.09 56.3191C130.23 55.2891 129.54 53.6291 129.13 51.8091C128.79 50.3091 128.65 48.7491 128.77 47.3791C128.87 44.4991 130 42.9491 131.79 41.0391C133.57 39.0591 135.89 36.6791 137.2 33.5691C138.38 30.8191 138.61 27.5791 138.01 24.8891L137.66 23.8091C136.71 20.9591 134.51 19.1891 131.9 18.8791C131.03 18.7691 130.1 18.8491 129.2 19.0891C127.4 19.5691 125.75 20.6791 124.61 22.2391C123.25 24.1891 122.82 26.9891 123.28 29.0491L123.58 29.8891C124.24 31.8891 126 32.6891 127.47 33.5491C128.36 34.2391 129.24 34.8391 129.45 35.7891C129.56 36.2591 129.56 36.7691 129.29 37.4191C128.43 39.2391 125.98 41.9891 123.08 42.7591L122.78 42.8391C119.75 43.4791 116.46 41.9991 114.22 38.1491C113.38 36.7791 112.68 35.0391 112.27 33.2191C111.54 29.9791 111.66 26.2591 113.05 23.0291C115.29 17.9091 120.93 13.8091 126.83 11.8291L128.13 11.4891C133.62 10.0291 139.19 10.3191 143.11 11.7891C147.27 13.3691 149.52 16.2991 150.75 19.9091L151.55 22.5491C152.21 25.4791 152.3 28.7191 151.7 31.7291C150.98 35.6091 149.22 39.0991 146.95 41.7091C144.68 44.3191 141.9 46.0691 140.91 48.2591C140.02 50.4191 140.82 53.0591 140.56 54.7191C140.29 56.3091 138.73 56.8891 136.83 57.3891ZM139.62 72.6691C143.64 71.2691 146.19 67.0691 145.43 63.6691C145.01 61.7691 143.85 60.3991 142.3 59.6391C140.28 58.6591 138.9 59.1191 136.27 59.6491C134.77 60.0491 133.23 60.7091 132.09 61.7691C130.26 63.5091 129.59 65.6991 130.05 68.2591C130.44 69.9991 131.67 71.6891 133.33 72.5091C134.89 73.3491 137.12 73.3491 138.91 72.8691L139.62 72.6691Z" fill="#6BC9ED"/>
<path d="M338.57 78.049C336.91 78.489 334.96 78.819 333.69 77.379C333 76.609 332.49 75.339 332.23 73.949C332.01 72.799 331.97 71.599 332.14 70.529C332.37 68.309 333.42 67.069 335.06 65.549C336.69 63.969 338.81 62.069 340.09 59.629C341.25 57.469 341.6 54.959 341.22 52.899L340.97 52.069C340.29 49.889 338.49 48.589 336.27 48.419C335.53 48.359 334.72 48.4491 333.94 48.6591C332.37 49.0791 330.89 49.979 329.84 51.219C328.57 52.769 328.06 54.939 328.35 56.519L328.56 57.1591C329.03 58.6891 330.5 59.249 331.72 59.879C332.45 60.389 333.18 60.829 333.31 61.559C333.38 61.919 333.36 62.309 333.09 62.829C332.26 64.259 330.01 66.449 327.48 67.129L327.22 67.199C324.58 67.779 321.82 66.729 320.09 63.809C319.44 62.769 318.92 61.449 318.66 60.049C318.2 57.559 318.48 54.679 319.85 52.149C322.03 48.129 327.09 44.809 332.26 43.119L333.39 42.819C338.19 41.539 342.96 41.609 346.26 42.639C349.76 43.749 351.54 45.949 352.42 48.709L352.98 50.7291C353.4 52.9791 353.31 55.479 352.65 57.819C351.84 60.839 350.15 63.5791 348.07 65.659C345.99 67.739 343.51 69.169 342.54 70.889C341.67 72.589 342.22 74.599 341.92 75.899C341.6 77.119 340.22 77.6091 338.57 78.049ZM340.2 89.779C343.73 88.589 346.13 85.2691 345.65 82.659C345.38 81.1991 344.46 80.179 343.16 79.629C341.47 78.929 340.27 79.319 337.98 79.799C336.67 80.149 335.31 80.6991 334.28 81.549C332.62 82.9491 331.93 84.659 332.2 86.619C332.45 87.959 333.42 89.229 334.81 89.809C336.11 90.419 338.02 90.349 339.59 89.939L340.2 89.779Z" fill="#6BC9ED"/>
<path d="M39.4101 187.249C37.8501 187.969 35.9901 188.639 34.4801 187.439C33.6601 186.799 32.9401 185.639 32.4401 184.309C32.0301 183.209 31.7801 182.039 31.7601 180.959C31.6001 178.729 32.4201 177.329 33.7601 175.549C35.0901 173.709 36.8401 171.469 37.6801 168.839C38.4401 166.519 38.3501 163.979 37.6201 162.009L37.2301 161.239C36.1801 159.219 34.1801 158.239 31.9601 158.459C31.2201 158.529 30.4401 158.759 29.7001 159.099C28.2301 159.789 26.9301 160.929 26.1101 162.329C25.1301 164.079 25.0101 166.309 25.5701 167.809L25.8901 168.409C26.6201 169.839 28.1701 170.129 29.4801 170.539C30.2901 170.909 31.0801 171.219 31.3401 171.919C31.4701 172.269 31.5201 172.649 31.3401 173.209C30.7701 174.769 28.9401 177.309 26.5701 178.419L26.3201 178.529C23.8201 179.559 20.9201 178.999 18.7101 176.439C17.8901 175.529 17.1501 174.319 16.6501 172.989C15.7601 170.619 15.5401 167.739 16.4401 165.009C17.8901 160.669 22.2901 156.519 27.0901 153.949L28.1501 153.459C32.6501 151.369 37.3601 150.599 40.7901 151.039C44.4301 151.519 46.5701 153.369 47.9101 155.939L48.8101 157.829C49.6101 159.969 49.9701 162.449 49.7201 164.869C49.4501 167.979 48.2601 170.979 46.5801 173.389C44.8901 175.799 42.7001 177.639 42.0501 179.499C41.4801 181.319 42.3901 183.209 42.3101 184.539C42.2301 185.799 40.9601 186.529 39.4101 187.249ZM43.0601 198.509C46.3301 196.719 48.1201 193.029 47.1801 190.549C46.6601 189.159 45.5701 188.309 44.2001 187.999C42.4201 187.609 41.3001 188.199 39.1301 189.069C37.9001 189.639 36.6601 190.419 35.7901 191.439C34.4001 193.099 34.0201 194.909 34.6301 196.799C35.1101 198.069 36.2801 199.149 37.7501 199.489C39.1401 199.859 41.0101 199.469 42.4801 198.779L43.0601 198.509Z" fill="#6BC9ED"/>
<path d="M648.74 222.06C647.07 221.69 645.18 221.08 644.72 219.21C644.46 218.21 644.6 216.85 645.01 215.49C645.35 214.37 645.87 213.29 646.51 212.42C647.74 210.55 649.24 209.94 651.4 209.35C653.58 208.7 656.33 207.99 658.6 206.42C660.62 205.04 662.1 202.98 662.71 200.97L662.87 200.12C663.27 197.88 662.28 195.89 660.39 194.71C659.76 194.32 659 194.02 658.21 193.84C656.62 193.48 654.89 193.6 653.39 194.21C651.55 195 650.09 196.69 649.62 198.22L649.51 198.89C649.22 200.46 650.27 201.65 651.05 202.77C651.47 203.56 651.9 204.29 651.69 204.99C651.58 205.34 651.39 205.68 650.91 206.01C649.51 206.89 646.5 207.8 643.95 207.23L643.69 207.17C641.08 206.46 639.12 204.26 638.94 200.87C638.84 199.65 639 198.23 639.41 196.88C640.15 194.46 641.73 192.04 644.11 190.43C647.9 187.88 653.92 187.27 659.29 188.16L660.43 188.42C665.27 189.5 669.47 191.77 671.92 194.21C674.51 196.81 675.08 199.58 674.58 202.44L674.14 204.49C673.47 206.67 672.24 208.86 670.57 210.63C668.46 212.93 665.69 214.58 662.88 215.47C660.07 216.35 657.21 216.47 655.56 217.55C654 218.65 653.56 220.7 652.69 221.7C651.86 222.64 650.41 222.44 648.74 222.06ZM644.77 233.22C648.45 233.79 652.12 231.96 652.89 229.43C653.32 228.01 652.98 226.68 652.09 225.59C650.92 224.19 649.67 223.98 647.41 223.35C646.09 223.05 644.62 222.92 643.32 223.19C641.2 223.66 639.8 224.86 639.13 226.73C638.73 228.03 639 229.6 639.97 230.77C640.84 231.91 642.57 232.74 644.15 233.09L644.77 233.22Z" fill="#6BC9ED"/>
<path d="M274.75 509.359C281.85 458.619 263.04 404.959 225.97 370.199" stroke="#5D9AD5" stroke-miterlimit="10"/>
<path d="M231.13 375.289C226.44 358.689 212.39 345.199 195.76 341.329C200.23 357.599 213.77 370.939 231.13 375.289Z" fill="#5D9AD5"/>
<path d="M242.8 387.8C237.57 380.94 235.5 372 235.64 363.32C235.79 354.64 237.99 346.13 240.59 337.85C246.6 353.66 247.86 371.28 242.8 387.8Z" fill="#5D9AD5"/>
<path d="M256.77 410.01C251.53 393.21 256.01 373.66 268.03 360.85C270.01 377.4 266.35 394.59 256.77 410.01Z" fill="#5D9AD5"/>
<path d="M266.67 432.56C267.33 413.04 278.16 394.14 294.6 383.85C293.8 404.82 282.58 425.15 266.67 432.56Z" fill="#5D9AD5"/>
<path d="M274.29 459.61C278.21 439.46 294 422.13 313.54 416.56C306.93 435.33 292.93 451.35 274.29 459.61Z" fill="#5D9AD5"/>
<path d="M276.11 488.799C284.92 471.879 303.88 460.909 322.73 461.819C311.11 476.259 294.98 486.939 276.11 488.799Z" fill="#5D9AD5"/>
<path d="M236.4 381.31C229.52 377.84 221.59 376.85 213.91 377.5C206.24 378.15 198.77 380.36 191.51 383C205.04 391.39 223.48 390.77 236.4 381.31Z" fill="#5D9AD5"/>
<path d="M251.52 401.919C244.14 396.329 234.39 395.049 225.41 396.899C216.43 398.749 208.11 403.469 200.52 409.049C216.45 414.069 234.25 412.329 251.52 401.919Z" fill="#5D9AD5"/>
<path d="M263.09 423.489C244.1 420.169 224.04 422.859 207.56 430.949C216.67 435.089 227.2 436.669 237.16 435.399C247.12 434.119 256.44 429.989 263.09 423.489Z" fill="#5D9AD5"/>
<path d="M271.27 450.049C252.25 443.369 230.18 444.749 212.82 453.699C230.26 462.259 252.67 461.369 271.27 450.049Z" fill="#5D9AD5"/>
<path d="M275.27 474C258.25 465.15 236.78 471.28 222.25 489.14C238.79 495.53 258.27 489.73 275.27 474Z" fill="#5D9AD5"/>
<path d="M116.88 488.869C107.34 445.029 75.3499 406.699 33.9199 389.459" stroke="#5D9AD5" stroke-miterlimit="10"/>
<path d="M39.77 392.069C30.82 379.869 15.01 373.079 0 374.979C8.67 386.969 24 393.789 39.77 392.069Z" fill="#5D9AD5"/>
<path d="M53.2802 398.779C46.8402 394.739 42.4002 388.029 39.8702 380.859C37.3502 373.689 36.5902 366.019 36.2402 358.429C46.0502 369.569 52.4702 383.659 53.2802 398.779Z" fill="#5D9AD5"/>
<path d="M71.6703 412.749C62.2003 400.549 59.9703 383.119 66.0803 368.929C72.7603 381.919 74.9503 397.159 71.6703 412.749Z" fill="#5D9AD5"/>
<path d="M86.7699 428.249C81.3699 412.019 84.6399 393.179 95.1699 379.709C100.9 397.169 97.7499 417.309 86.7699 428.249Z" fill="#5D9AD5"/>
<path d="M101.34 448.139C98.4598 430.399 106.33 411.339 120.89 400.789C121.11 418.229 114.34 435.659 101.34 448.139Z" fill="#5D9AD5"/>
<path d="M111.75 471.559C113.93 454.969 126.36 440.169 142.32 435.159C137.05 450.569 126.88 464.259 111.75 471.559Z" fill="#5D9AD5"/>
<path d="M45.9902 395.399C39.2102 394.649 32.3102 396.259 26.1202 399.139C19.9302 402.019 14.3902 406.109 9.16016 410.499C22.9602 413.249 38.1202 407.109 45.9902 395.399Z" fill="#5D9AD5"/>
<path d="M64.8303 407.71C56.9903 405.38 48.4903 407.3 41.5803 411.56C34.6703 415.82 29.1903 422.24 24.5703 429.14C39.3603 428.4 53.6403 421.53 64.8303 407.71Z" fill="#5D9AD5"/>
<path d="M81.0296 421.889C64.2096 424.959 48.3496 433.299 37.0996 444.979C45.9396 445.599 55.1896 443.679 63.0796 439.589C70.9796 435.499 77.4796 429.259 81.0296 421.889Z" fill="#5D9AD5"/>
<path d="M95.9204 441.209C78.0604 441.529 60.1204 449.409 48.4004 462.059C65.5204 463.769 83.9004 456.189 95.9204 441.209Z" fill="#5D9AD5"/>
<path d="M106.54 459.659C89.69 457.589 73.69 469.179 67.04 488.289C82.75 488.489 97.19 477.769 106.54 459.659Z" fill="#5D9AD5"/>
<path d="M605.79 484.47C611.08 439.91 639.25 398.69 678.83 377.56" stroke="#5D9AD5" stroke-miterlimit="10"/>
<path d="M673.26 380.719C681 367.719 696.08 359.439 711.21 359.899C703.73 372.659 689.13 380.919 673.26 380.719Z" fill="#5D9AD5"/>
<path d="M660.45 388.69C666.47 384.05 670.25 376.95 672.08 369.57C673.91 362.19 673.92 354.48 673.54 346.89C664.85 358.92 659.82 373.57 660.45 388.69Z" fill="#5D9AD5"/>
<path d="M643.49 404.359C651.75 391.309 652.29 373.749 644.86 360.209C639.45 373.779 638.74 389.159 643.49 404.359Z" fill="#5D9AD5"/>
<path d="M629.95 421.239C633.76 404.569 628.71 386.129 616.93 373.729C612.91 391.659 617.97 411.399 629.95 421.239Z" fill="#5D9AD5"/>
<path d="M617.35 442.429C618.51 424.489 608.85 406.279 593.35 397.169C594.81 414.559 603.22 431.259 617.35 442.429Z" fill="#5D9AD5"/>
<path d="M609.24 466.749C605.48 450.449 591.69 436.899 575.32 433.449C582.04 448.279 593.47 460.939 609.24 466.749Z" fill="#5D9AD5"/>
<path d="M667.39 384.629C674.07 383.229 681.09 384.179 687.53 386.449C693.97 388.719 699.87 392.269 705.5 396.129C692.03 400.189 676.35 395.529 667.39 384.629Z" fill="#5D9AD5"/>
<path d="M649.81 398.69C657.39 395.62 666.04 396.71 673.32 400.29C680.61 403.87 686.68 409.73 691.94 416.16C677.15 416.85 662.28 411.38 649.81 398.69Z" fill="#5D9AD5"/>
<path d="M635.05 414.359C652.08 415.809 668.68 422.589 680.99 433.129C672.25 434.589 662.86 433.569 654.61 430.259C646.36 426.949 639.29 421.359 635.05 414.359Z" fill="#5D9AD5"/>
<path d="M622.08 435.019C639.89 433.629 658.51 439.749 671.38 451.219C654.51 454.559 635.49 448.779 622.08 435.019Z" fill="#5D9AD5"/>
<path d="M613.28 454.41C629.86 450.73 646.89 460.74 655.35 479.12C639.73 480.81 624.33 471.53 613.28 454.41Z" fill="#5D9AD5"/>
<path d="M474.14 522.299C457.9 468.769 456.5 410.949 470.15 357.529" stroke="#5D9AD5" stroke-miterlimit="10"/>
<path d="M468.37 364.509C463.76 350.179 468.03 333.489 478.8 323.739C481.8 338.549 477.71 354.499 468.37 364.509Z" fill="#5D9AD5"/>
<path d="M465.15 381.66C462.32 366.67 453.04 352.92 440.31 344.85C441.27 359.98 451.25 374.37 465.15 381.66Z" fill="#5D9AD5"/>
<path d="M461.83 409.719C457.94 401.799 453.98 393.759 448.18 387.159C442.38 380.559 434.39 375.459 425.86 375.239C429.96 382.569 434.1 389.979 439.7 396.199C445.3 402.409 452.56 407.429 461.83 409.719Z" fill="#5D9AD5"/>
<path d="M460.32 436.989C452.6 422.529 438.09 411.999 422.38 409.449C429.55 424.549 444.82 435.419 460.32 436.989Z" fill="#5D9AD5"/>
<path d="M462.8 466.83C452.27 453.7 436.3 445.32 419.99 444.35C429.53 457.98 446.19 466.04 462.8 466.83Z" fill="#5D9AD5"/>
<path d="M467.63 495.02C457.16 482.47 439.9 476.339 424.49 479.709C437.87 488.969 453.94 493.97 467.63 495.02Z" fill="#5D9AD5"/>
<path d="M467.14 372.36C473.22 361.83 483.83 354.27 495.63 352.06C491.6 364.16 479.85 372.91 467.14 372.36Z" fill="#5D9AD5"/>
<path d="M462.97 398.399C470.72 384.739 485.99 376.089 501.56 376.559C493.77 390.509 478.66 399.699 462.97 398.399Z" fill="#5D9AD5"/>
<path d="M460.57 425.839C469.48 412.479 485.27 404.379 501.22 404.979C490.45 416.259 476.34 424.099 460.57 425.839Z" fill="#5D9AD5"/>
<path d="M461.66 454.689C469.17 440.659 484.67 431.719 500.43 432.339C491.4 445.009 476.76 453.179 461.66 454.689Z" fill="#5D9AD5"/>
<path d="M465 482.649C472.25 467.019 488.42 456.409 505.42 456.119C499.87 461.649 494.28 467.209 487.85 471.639C481.42 476.059 474.06 479.359 465 482.649Z" fill="#5D9AD5"/>
<path d="M133.5 143.999C133.5 143.999 128.43 124.409 112.33 126.759C96.2404 129.109 92.1704 140.609 93.1004 153.989C94.0304 167.369 93.8304 183.209 76.2004 193.099C58.5704 202.989 76.6004 215.619 79.6104 223.339C82.6104 231.069 80.0204 241.409 71.5804 247.629C63.1404 253.849 61.3004 276.279 90.3504 274.579C119.4 272.879 129.85 252.389 124.25 245.409C118.64 238.439 108.84 223.319 118.66 220.309C128.48 217.289 146.86 185.239 141.48 168.289C136.11 151.349 133.5 143.999 133.5 143.999Z" fill="#17194D"/>
<path d="M118.21 159.21C123.833 159.21 128.39 154.921 128.39 149.63C128.39 144.339 123.833 140.05 118.21 140.05C112.588 140.05 108.03 144.339 108.03 149.63C108.03 154.921 112.588 159.21 118.21 159.21Z" fill="#EBCDC5"/>
<path d="M216.77 535.46C199.49 535.2 189.41 535.46 180.57 535.72C178.52 527.25 176.54 518.93 174.54 510.53C169.37 488.74 164.13 466.44 157.69 439.73C157.66 439.58 157.61 439.42 157.58 439.27C157.58 473.49 159.11 497.63 160.45 537.69C146.27 535.22 136.51 534.29 122.49 535.69C107.09 461.58 96.4504 428.84 100.34 394.85C101.73 382.72 104.97 370.44 110.5 356.07C112.69 350.35 115.26 344.3 118.22 337.79C144.93 342.71 171.39 348.21 197.7 352.12C197.7 352.2 197.71 352.29 197.71 352.36C198.59 366.01 197.9 364.78 198.31 380.69C199.11 385.9 199.88 390.93 200.6 395.78C209.65 456.57 212.78 490.91 216.77 535.46Z" fill="#3C64AD"/>
<path d="M200.59 395.8C167.74 403.49 133.04 403.17 100.33 394.86C101.72 382.73 104.96 370.45 110.49 356.08C139.55 354.53 168.62 353.29 197.7 352.38C198.58 366.03 197.89 364.8 198.3 380.71C199.1 385.92 199.86 390.95 200.59 395.8Z" fill="#2C529E"/>
<path d="M174.54 510.539C169.37 488.749 164.13 466.449 157.69 439.739C157.68 439.529 157.67 439.329 157.67 439.119C157.58 436.619 157.49 434.099 157.81 431.119C163.1 428.429 168.38 425.739 173.35 422.909C172.34 452.099 172.73 481.369 174.54 510.539Z" fill="#2C529E"/>
<path d="M162.72 385.6C164.93 400.1 164.77 414.97 162.25 429.42" stroke="#1F2F7A" stroke-miterlimit="10" stroke-linecap="round"/>
<path d="M170.3 384.459C170.4 393.929 173.16 403.619 170.47 412.709C169.98 414.379 169.28 416.039 168.08 417.299C166.88 418.559 165.1 419.369 163.39 419.059" stroke="#1F2F7A" stroke-miterlimit="10" stroke-linecap="round"/>
<path d="M114.29 366.449C108.59 383.179 106.81 401.059 107.36 418.719C107.91 436.379 110.75 453.889 114.08 471.249C118.19 492.639 123.08 513.869 128.72 534.909" stroke="#1F2F7A" stroke-miterlimit="10"/>
<path d="M118.77 375.3C119.16 381.99 118.83 388.71 117.77 395.33C117.5 397 117.17 398.71 116.2 400.09C114.41 402.63 111.03 403.37 107.97 403.9" stroke="#1F2F7A" stroke-miterlimit="10"/>
<path d="M171.85 237.339C171.85 237.339 181.35 237.389 190.32 245.359C196.99 251.289 204.81 266.489 225.33 305.439C225.33 305.439 217.58 336.879 212.35 332.609C163.23 292.609 171.85 237.339 171.85 237.339Z" fill="#35BAB4"/>
<path d="M225.33 297.109C220.12 295.049 210.99 298.709 207.36 302.979C203.56 307.439 201.88 314.769 202.6 320.589C203.32 326.409 207.27 332.169 212.82 334.029C218.38 335.889 227.17 333.829 229.86 328.619C232.07 324.329 231.32 319.139 230.02 314.489C228.71 309.839 227.59 302.709 225.33 297.109Z" fill="#75EBDB"/>
<path d="M252.18 276.099C252.25 277.229 249.8 279.509 249.48 282.329C247.97 295.959 239.33 324.229 230.19 329.829C227.86 331.249 225.79 332.109 223.95 332.529C223.95 332.529 219.74 333.209 213.95 330.269C212.67 329.229 211.69 328.069 210.94 327.249C208.84 324.969 205.91 313.839 218.28 303.499C219.07 302.849 219.81 302.169 220.51 301.499C232.23 290.159 233 275.829 233 275.829L242.81 275.379L252.11 275.479C252.14 275.639 252.16 275.839 252.18 276.099Z" fill="#F69887"/>
<path d="M233 275.819C233 275.819 231.51 263.499 242.23 258.009C252.95 252.519 260.36 252.669 261.23 253.369C262.1 254.069 256.91 259.139 251.07 260.909C251.07 260.909 256.16 263.059 264.38 260.079C272.6 257.099 275.39 252.869 277.9 253.579C280.42 254.289 275.01 262.169 262.33 266.059C262.33 266.059 268.51 266.159 274.73 264.029C280.95 261.899 281.36 266.229 276.67 268.159C276.67 268.159 278.97 268.689 278.51 270.949C278.05 273.199 273.94 273.269 273.94 273.269C273.94 273.269 275.86 274.309 274.57 276.329C273.27 278.349 264.83 279.139 257.04 279.149C249.25 279.149 241.81 277.459 241.81 277.459L233 275.819Z" fill="#F69887"/>
<path d="M251.65 262.439C251.65 262.439 252.04 267.989 243.48 269.879" stroke="#AE3838" stroke-width="0.75" stroke-miterlimit="10" stroke-linecap="round"/>
<path d="M276.67 268.149C276.67 268.149 269.77 269.929 262.88 269.829" stroke="#AE3838" stroke-width="0.75" stroke-miterlimit="10" stroke-linecap="round"/>
<path d="M273.95 273.26C273.95 273.26 268.47 274.49 260.03 274.13" stroke="#AE3838" stroke-width="0.75" stroke-miterlimit="10" stroke-linecap="round"/>
<path d="M202.44 391.859C189.92 399.839 139.01 396.049 111.22 387.839C111.14 381.329 111.16 375.719 112.05 367.939C108.01 375.429 106.06 379.229 103.84 385.319C101.73 384.489 99.8701 383.629 98.3201 382.739C98.3201 382.739 116.41 333.239 114.37 321.639C112.24 309.529 94.4101 268.909 98.3201 260.379C101.98 252.399 108.41 246.719 116.14 242.819C131.12 235.239 151 234.269 165.05 235.839C170.25 236.419 174.66 237.359 177.73 238.429C186.86 241.629 197.18 281.049 197.97 296.289C198.74 311.539 202.44 391.859 202.44 391.859Z" fill="#41D8D3"/>
<path d="M165.04 235.85C165.27 249.3 162.85 264.9 156.55 276.97C142.08 266.77 129.61 255.32 116.13 242.83C131.11 235.24 150.98 234.27 165.04 235.85Z" fill="#75EBDB"/>
<path d="M130.28 345.68C145.32 365.31 169.06 378.02 193.75 379.65C181.04 382.12 167.53 380.23 155.98 374.39C144.43 368.54 134.91 358.77 130.28 345.68Z" fill="#35BAB4"/>
<path d="M155.37 269.319C143.18 261.689 132.73 252.389 123.09 242.299C124.48 238.109 125.36 233.689 125.67 229.149C125.97 224.879 125.76 220.519 124.96 216.149C134.86 217.029 142.06 216.389 151.7 216.709C151.84 219.769 152.21 224.269 153.06 228.679C153.52 231.079 154.27 232.709 155.22 233.779C156.62 235.369 158.45 235.749 160.39 235.659C160.72 246.999 159.22 258.869 155.37 269.319Z" fill="#F69887"/>
<path d="M155.23 233.799C150.73 234.829 146.07 235.099 141.48 234.549C135.91 233.889 130.5 232.009 125.67 229.159C125.97 224.889 125.76 220.529 124.96 216.159C134.86 217.039 142.06 216.399 151.7 216.719C151.84 219.779 152.21 224.279 153.06 228.689C153.53 231.099 154.28 232.729 155.23 233.799Z" fill="#EB6C6A"/>
<path d="M140.71 366.34C138.78 366.2 137.62 364.82 135.92 362.76C135.19 361.9 134.41 360.92 133.4 359.84C129.98 356.22 124.66 356.26 124.66 356.26C124.88 356.32 128.95 357.57 132.74 362.42C136.67 367.4 139.12 377.05 136.79 376.97C134.45 376.85 131.5 372.82 131.5 372.82C132.04 374.68 132 378.91 130.14 379.39C129.95 379.47 129.77 379.49 129.54 379.45C127.21 379.16 125.59 376.42 125.4 376.07C125.95 378.33 124.56 382.28 121.74 380.01C118.92 377.74 114.01 370.54 114.01 370.54C114.01 370.54 114.01 370.54 113.99 370.55C113.97 370.56 113.96 370.58 113.92 370.6C113.08 371.23 106 374.64 98.7198 372.07C92.6098 369.91 90.3398 366.27 90.3398 366.27L98.7998 351.72C98.7998 351.72 104.15 353.44 110.19 351.69C111.02 351.46 111.87 351.16 112.71 350.76C112.75 350.75 112.79 350.73 112.83 350.71C115.14 349.88 117.13 349.27 118.4 349.03C121.02 348.55 123.49 348.66 125.45 349.27C127.92 350.06 130.02 350.95 131.76 351.86C137.25 354.78 139.44 358.06 140.01 359.4C140.78 361.23 143.47 366.54 140.71 366.34Z" fill="#F69887"/>
<path d="M124.97 375.46C124.97 375.46 121.02 367.48 117.42 365.79" stroke="#AE3838" stroke-width="0.75" stroke-miterlimit="10" stroke-linecap="round"/>
<path d="M131.19 372.08C131.19 372.08 128.28 364.14 123.15 361.72" stroke="#AE3838" stroke-width="0.75" stroke-miterlimit="10" stroke-linecap="round"/>
<path d="M101.94 352.71C97.6702 359.39 95.4502 363.81 93.2202 368.23C50.0002 338.98 48.8502 329.76 50.1002 325.15C50.2902 324.44 50.5302 323.85 50.6802 323.31C51.1302 321.76 57.0602 311.9 62.4102 306.9C64.4302 305 66.3702 303.81 67.8902 304.01C70.4302 304.34 71.7202 306.42 72.4802 309.22C73.8402 314.15 73.6002 321.32 75.7102 325.29C78.0802 328.26 80.5902 331.39 83.2102 334.48C89.1502 341.54 95.6002 348.43 101.94 352.71Z" fill="#F69887"/>
<path d="M83.1996 334.48C71.6996 333.57 60.3796 330.39 50.0996 325.14C50.2896 324.43 50.5296 323.84 50.6796 323.3C51.1296 321.75 57.0596 311.89 62.4096 306.89C65.7696 307.65 69.1196 308.42 72.4696 309.22C73.8296 314.15 73.5896 321.32 75.6996 325.29C78.0796 328.26 80.5896 331.39 83.1996 334.48Z" fill="#EB6C6A"/>
<path d="M124.97 284.14C122.71 272.33 118.06 245.26 106.1 250.56C96.4102 254.85 74.5002 280.61 56.9902 308.07C59.9702 315.03 77.2902 323.19 85.4002 329.19C105.35 307.39 112.28 305.82 124.97 284.14Z" fill="#41D8D3"/>
<path d="M56.7404 306.239C67.8704 314.669 77.8304 320.249 90.3404 325.769C87.8204 329.289 87.5104 331.179 84.9904 334.699C60.2604 324.879 50.6904 318.759 50.6904 318.759C50.6904 318.759 51.7804 312.179 56.7404 306.239Z" fill="#75EBDB"/>
<path d="M110.49 304.42C114.4 300.36 117.93 295.86 120.34 290.77C122.75 285.68 124.01 279.95 123.32 274.35C125.64 280.04 125.56 286.66 123.11 292.3C120.65 297.92 115.85 302.49 110.49 304.42Z" fill="#35BAB4"/>
<path d="M117.13 298.84C123.89 295.56 129.87 290.71 134.46 284.77C130.5 293.99 121.87 301.06 112.06 303.14C114.15 301.56 115.82 299.48 117.13 298.84Z" fill="#35BAB4"/>
<path d="M186.25 196.609C188.18 200.439 185.13 205.599 179.44 208.129C173.75 210.659 167.58 209.599 165.66 205.769C163.74 201.939 166.78 196.779 172.47 194.249C178.15 191.719 184.33 192.779 186.25 196.609Z" fill="#EB6C6A"/>
<path d="M175.38 193.57C175.04 213.93 167.31 228.49 150.43 230.31C134.47 232.03 111.65 216.9 108.53 192.88C105.91 172.69 122.74 155.93 141.68 156.21C160.63 156.48 175.71 173.21 175.38 193.57Z" fill="#F69887"/>
<path d="M108.23 200.149C108.23 200.149 109.37 189.869 117.24 184.249C125.11 178.619 127.73 173.289 127.73 173.289C127.73 173.289 136.23 178.319 148.9 177.289C161.57 176.259 169.08 177.209 172.05 182.879C175.02 188.549 179.86 174.849 172.05 168.479C164.24 162.109 127.04 152.789 126.28 153.379C125.52 153.969 120.17 155.159 114.98 158.859C109.79 162.559 101.92 173.369 102.55 174.999L108.23 200.149Z" fill="#EB6C6A"/>
<path d="M181.54 170.44C181.56 185.89 175.17 199.44 175.17 199.44C174.33 177.13 166.56 173.38 151.45 173.17C136.34 172.98 124.8 165.47 124.8 165.47C125.64 172.38 117.79 177.73 113.71 186.31C109.8 194.53 107.58 199.46 107.58 199.46C103.04 190.07 98.9096 181.29 98.3996 170.35C98.1796 166.09 98.6296 162.12 100.05 158.75C105.08 146.71 118.31 146.32 118.31 146.32C135.51 126.57 171.4 134.27 178.95 154.8C180.84 159.94 181.54 165.3 181.54 170.44Z" fill="#271F64"/>
<path d="M181.54 170.439C181.54 170.439 175.63 150.749 157.31 143.789C138.98 136.839 121.82 151.039 121.82 151.039C121.82 151.039 99.8796 152.519 98.3996 170.369C98.1796 166.109 98.6296 162.139 100.05 158.769C105.08 146.729 118.31 146.339 118.31 146.339C135.51 126.589 171.4 134.289 178.95 154.819C180.84 159.939 181.54 165.299 181.54 170.439Z" fill="#473B8C"/>
<path d="M98.1197 193.959C96.0697 197.729 98.9497 202.979 104.55 205.669C110.15 208.359 116.35 207.489 118.4 203.709C120.45 199.939 117.57 194.689 111.97 191.999C106.37 189.309 100.17 190.189 98.1197 193.959Z" fill="#F69887"/>
<path d="M166.76 196.959C165.88 197.019 165.22 196.079 165.1 194.559C164.98 193.039 165.47 192.019 166.35 191.949C167.23 191.889 167.89 192.829 168.01 194.349C168.13 195.869 167.65 196.899 166.76 196.959Z" fill="#1C2B45"/>
<path d="M142.85 199.47C141.96 199.53 141.31 198.59 141.19 197.07C141.07 195.55 141.56 194.53 142.44 194.46C143.32 194.4 143.98 195.34 144.1 196.86C144.22 198.38 143.73 199.4 142.85 199.47Z" fill="#1C2B45"/>
<path d="M160.52 198.729C161.86 201.309 161.89 204.529 160.61 207.139" stroke="#A83B4F" stroke-miterlimit="10" stroke-linecap="round"/>
<path d="M150.7 210.469C147.07 210.499 142.46 214.739 145.66 217.049C147.5 218.369 149.15 216.039 151.31 216.839C153.22 217.549 156.02 220.659 157.36 217.229C158.29 214.839 156.67 210.419 150.7 210.469Z" fill="#A83B4F"/>
<path d="M159.09 181.169C162.14 178.939 166.6 178.85 169.74 180.96" stroke="#271F64" stroke-miterlimit="10" stroke-linecap="round"/>
<path d="M143.69 185.89C140.63 188.53 136.26 189.82 132.11 189.3" stroke="#271F64" stroke-miterlimit="10" stroke-linecap="round"/>
<path d="M322.53 498.92C332.95 500.32 343.44 501.3 353.95 501.9C357.06 471.22 360.22 445.37 362.93 434.27C362.94 434.21 362.96 434.15 362.97 434.1L366.87 489.03L367.82 502.47C370.8 502.55 373.78 502.6 376.75 502.62C390.36 502.7 403.99 502.42 417.6 501.79C419.44 464.99 421.48 414.61 420.51 388.28C420.47 387.44 420.44 386.62 420.4 385.83C420.33 384.73 420.28 383.72 420.21 382.73C419.98 379.15 419.66 376.25 419.24 374.18L387.72 370.71L383.88 370.29L310.67 361.72C310.67 361.72 310.2 366.52 309.99 370.47C309.98 370.68 309.97 370.91 309.95 371.14C309.89 372.17 309.83 373.31 309.76 374.56C309.45 380.46 309.01 388.72 308.51 398.77C307.29 423.32 305.68 458.52 304.46 496.03C310.48 497.06 316.48 498.11 322.53 498.92Z" fill="#3F65AE"/>
<path d="M420.52 388.29C384.23 398.53 346.08 402.1 308.52 398.78C309.02 388.73 309.46 380.47 309.77 374.57C322.13 376.02 334.73 375.01 347.17 374.01C360.69 372.91 374.21 371.82 387.73 370.72L419.25 374.19C419.67 376.26 419.99 379.16 420.22 382.74C420.29 383.73 420.34 384.74 420.41 385.84C420.45 386.63 420.48 387.45 420.52 388.29Z" fill="#2C529E"/>
<path d="M379 422.109C376.65 445.979 374.86 469.219 373.84 490.569C373.1 489.829 369.85 489.489 366.87 489.039L362.97 434.109C362.96 434.159 362.94 434.219 362.93 434.279C363.06 433.339 363.21 432.429 363.38 431.559C369.69 429.349 375.55 425.109 379 422.109Z" fill="#2C529E"/>
<path d="M368.03 375.619C369.45 393.459 369.07 411.439 366.9 429.209" stroke="#1F2F7A" stroke-miterlimit="10" stroke-linecap="round"/>
<path d="M377.83 375.919C378.83 385.509 379.83 395.259 378.03 404.719C377.53 407.329 376.79 409.969 375.21 412.109C373.63 414.249 371.07 415.819 368.42 415.599" stroke="#1F2F7A" stroke-miterlimit="10" stroke-linecap="round"/>
<path d="M317.01 381.609C316.83 385.549 316.69 389.979 316.37 392.659C315.74 397.909 315 404.429 309.02 405.259" stroke="#1F2F7A" stroke-miterlimit="10" stroke-linecap="round"/>
<path d="M411.84 380.579C411.84 385.799 411.87 387.689 411.97 391.089C412.07 394.489 412.15 397.969 413.23 401.149C414.31 404.319 416.63 407.179 419.59 407.649" stroke="#1F2F7A" stroke-miterlimit="10" stroke-linecap="round"/>
<path d="M470.61 308.869C467.41 324.629 418.25 367.689 418.06 367.729L406.82 349.619C406.82 349.619 430.89 322.489 437.13 306.679C437.13 306.669 437.15 306.649 437.15 306.639C436.83 306.249 436.52 305.859 436.21 305.439C435.26 304.189 434.38 302.999 433.56 301.859C429.02 295.579 426.28 290.959 424.63 287.629C423.86 286.059 423.32 284.769 422.96 283.729C423.99 282.069 425 280.669 425.43 280.419C425.57 280.319 426.02 280.119 426.67 279.859L433.19 279.779L453.57 279.549L454.34 279.029C454.34 279.029 457.86 282.939 461.65 288.149C466.46 294.779 471.7 303.499 470.61 308.869Z" fill="#F9978A"/>
<path d="M433.56 301.859C443.42 298.409 452.86 293.799 461.65 288.149C457.86 282.939 454.34 279.029 454.34 279.029L453.57 279.549L433.19 279.779C430.34 282.399 427.48 285.009 424.63 287.629" fill="#EB6C6A"/>
<path d="M389.11 218.139C390.42 211.719 410.14 216.679 422.45 230.859C434.76 245.039 457.34 277.489 457.34 277.489L422.95 303.749C422.95 303.749 384.72 239.729 389.11 218.139Z" fill="#CF3045"/>
<path d="M359.53 241.91C356.72 240.67 337.35 232.37 344.82 209.54C344.89 209.33 344.96 209.12 345.02 208.92C345.08 208.76 345.14 208.58 345.19 208.38C346.25 204.85 347.17 199.99 346.87 194.35L361.06 196.28H375.38C374.9 198.77 374.69 201.14 374.67 203.33C374.65 206.2 376.56 218.15 376.56 218.15C376.56 218.15 375.23 239.41 359.53 241.91Z" fill="#F9978A"/>
<path d="M374.68 203.319C372.04 205.629 362.34 212.659 345.02 208.909C345.08 208.749 345.14 208.569 345.19 208.369C346.25 204.839 347.17 199.979 346.87 194.339L361.06 196.269H375.38C374.91 198.769 374.7 201.139 374.68 203.319Z" fill="#EB6C6A"/>
<path d="M423.06 384.939C403.68 392.979 318.35 390.239 305.03 385.769C305.03 385.769 314.45 341.659 305.29 276.219C299.38 234.009 308.26 229.419 313.16 223.749C317.05 219.249 326.5 216.409 333.73 214.819C338.68 213.739 342.58 213.239 342.96 213.209C342.27 232.009 360.5 239.519 360.5 239.519C360.5 239.519 376.44 229.489 375.9 213.899C376.22 213.909 379.03 213.849 382.88 214.049C390.42 214.449 401.97 215.819 406.63 220.519C411.92 225.839 413.55 229.949 418.1 272.319C420.49 294.629 423.06 384.939 423.06 384.939Z" fill="#CF3045"/>
<path d="M382.88 214.049C382.13 222.849 378.74 231.439 373.2 238.319C370.68 241.459 367.53 244.359 363.61 245.289C358.33 246.539 352.87 243.939 348.63 240.559C340.69 234.239 335.33 224.829 333.73 214.819C338.68 213.739 342.58 213.239 342.96 213.209C342.27 232.009 360.5 239.519 360.5 239.519C360.5 239.519 376.44 229.489 375.9 213.899C376.22 213.909 379.03 213.849 382.88 214.049Z" fill="#941237"/>
<path d="M406.82 320.029C398.26 337.909 384.5 351.829 368.86 360.169C353.22 368.509 335.77 371.419 318.71 369.929C329.19 373.179 340.27 372.229 350.93 369.999C363.28 367.409 375.59 363.019 386.04 354.659C396.49 346.299 404.94 333.569 406.82 320.029Z" fill="#941237"/>
<path d="M410.9 355.81C386.09 373.45 353.77 380.15 323.99 373.84C334.89 379.4 347.6 380.16 359.81 379.39C369.39 378.79 379.02 377.28 387.86 373.55C396.71 369.82 404.76 363.7 410.9 355.81Z" fill="#941237"/>
<path d="M419.42 296.17C417.44 273.73 415.99 257.95 412.76 233.27C420.14 259.07 422.26 277.2 419.42 296.17Z" fill="#941237"/>
<path d="M419.11 283.999C423.07 269.299 423.34 254.709 424.11 238.699C426.76 252.469 425.58 277.579 419.42 295.839C419.03 293.309 418.7 285.509 419.11 283.999Z" fill="#941237"/>
<path d="M408.17 170.769C410.04 174.989 406.6 180.429 400.49 182.909C394.38 185.389 387.91 183.979 386.05 179.759C384.18 175.539 387.62 170.099 393.73 167.619C399.83 165.139 406.3 166.549 408.17 170.769Z" fill="#EB6C6A"/>
<path d="M315.51 165.009C313.18 168.999 316 174.779 321.79 177.939C327.59 181.089 334.17 180.419 336.49 176.429C338.82 172.439 336 166.659 330.21 163.499C324.42 160.349 317.84 161.029 315.51 165.009Z" fill="#EB6C6A"/>
<path d="M397.6 163.929C397.35 175.769 384.62 205.939 360.52 204.309C332.03 202.389 326.27 167.629 326.85 159.109C328.58 133.569 343.89 117.529 363.87 118.639C383.85 119.739 398.21 135.299 397.6 163.929Z" fill="#F9978A"/>
<path d="M328.11 164.979C329.43 160.999 332.43 157.839 335.13 154.629C337.83 151.419 340.08 145.169 340.7 141.479C344.77 144.689 349.52 146.949 353.97 147.589C358.78 148.279 363.33 148.059 364.62 143.729C367.08 146.549 372.36 148.539 376.44 148.509C378.45 148.489 380.54 147.639 381.86 146.119C385.26 150.009 390.01 151.099 390.01 151.099C390.01 151.099 395.8 162.509 396.47 167.129C396.84 158.859 396.55 149.029 395.34 140.699C377.56 132.469 358.33 127.399 339.08 125.619C331.81 137.139 327.67 150.599 328.11 164.979Z" fill="#EB6C6A"/>
<path d="M404.73 141.61C403.66 143.57 402.26 145.3 400.79 146.63C400.98 155.06 399.89 163.67 396.08 172.83C395.82 161.14 394.13 157.95 392.469 149.78C388.45 148.11 384.88 145.37 382.06 141.94C381.05 144.46 377.19 146.33 373.85 145.51C370.5 144.69 366.18 142.54 362.83 139.3C363.84 141.2 362.69 144.79 358.96 145.05C353.25 145.45 344.84 141.44 338.86 137.49C335.17 153.84 332.18 151.26 327.69 168.35C322.79 157.87 320.39 149.69 320.36 139.37C320.35 134.44 320.85 126.21 331.28 124.09C334.55 118.1 338.81 112.73 343.77 108.24C347.99 104.42 352.7 101.26 357.76 98.8896C360.75 97.4796 364.08 96.3296 367.26 97.1396C370.43 97.9496 373.17 101.41 372.2 104.72C377.9 102.37 384.24 101.88 390.17 103.32C393.71 104.18 397.259 105.84 399.41 108.95C401.549 112.04 399.74 117.38 397.18 120.89C401.68 123.04 406.41 128.02 406.77 133.24C406.99 136.17 406.13 139.09 404.73 141.61Z" fill="#302565"/>
<path d="M404.73 141.609C404.89 138.289 404.16 134.919 402.57 131.999C399.81 126.969 394.53 123.389 388.83 122.689C390.11 121.219 391.44 119.889 392.37 118.279C393.3 116.669 393.78 114.699 393.25 112.919C392.37 109.979 389.16 108.429 386.15 107.759C379.61 106.299 372.52 107.409 366.75 110.829C367.1 108.209 366.92 105.679 365.64 104.109C364.35 102.529 362.23 101.819 360.19 101.849C358.15 101.869 356.19 102.509 354.29 103.229C350.66 104.609 347.15 106.299 343.8 108.259C348.02 104.439 352.73 101.279 357.79 98.9092C360.78 97.4992 364.11 96.3492 367.29 97.1592C370.46 97.9692 373.2 101.429 372.23 104.739C377.93 102.389 384.27 101.899 390.2 103.339C393.74 104.199 397.29 105.859 399.44 108.969C401.58 112.059 399.77 117.399 397.21 120.909C401.71 123.059 406.44 128.039 406.8 133.259C406.99 136.169 406.13 139.089 404.73 141.609Z" fill="#473B8C"/>
<path d="M370.25 154.179C373.51 153.299 378.57 152.869 382.33 156.849" stroke="#302565" stroke-miterlimit="10" stroke-linecap="round"/>
<path d="M341.79 158.849C344.7 159.309 349.04 159.439 353.3 157.529" stroke="#302565" stroke-miterlimit="10" stroke-linecap="round"/>
<path d="M376.95 169.099C376.01 169.049 375.47 167.949 375.56 166.309C375.65 164.669 376.31 163.639 377.25 163.689C378.19 163.739 378.73 164.839 378.64 166.479C378.55 168.119 377.88 169.149 376.95 169.099Z" fill="#142843"/>
<path d="M351.35 167.349C350.41 167.379 349.77 166.339 349.7 164.689C349.63 163.039 350.2 161.959 351.13 161.929C352.07 161.899 352.71 162.939 352.78 164.589C352.85 166.239 352.29 167.319 351.35 167.349Z" fill="#142843"/>
<path d="M359.73 171.469C358.95 173.889 358.77 176.509 359.22 179.019" stroke="#AE3838" stroke-miterlimit="10" stroke-linecap="round"/>
<path d="M350.95 184.759C355.09 184.499 359.31 185.899 362.48 188.589" stroke="#AE3838" stroke-miterlimit="10" stroke-linecap="round"/>
<path d="M296.55 263.77C295.84 277.3 295.15 290.96 297.32 304.34C299.49 317.72 306.48 338.86 315.38 339.92C318.08 326.07 320.77 312.21 323.47 298.36C323.93 296.01 324.37 293.49 323.44 291.27C322.81 289.76 321.6 288.57 320.42 287.43C312.47 279.69 304.52 271.97 296.55 263.77Z" fill="#EB6C6A"/>
<path d="M321.8 218.159C312.13 219.119 302.07 228.869 298.42 241.219C292.64 260.799 291.3 276.669 289.42 301.169C301.77 302.929 315.72 305.229 328.08 304.009C332.57 276.599 331.14 216.869 321.8 218.159Z" fill="#CF3045"/>
<path d="M323.58 229.629C327.09 253.449 327.56 277.719 324.96 301.659C329.97 277.669 331.82 252.189 323.58 229.629Z" fill="#941237"/>
<path d="M347.89 246.909C347.89 246.909 344.56 290.959 339.85 315.639C335.14 340.319 315.89 341.169 313.39 339.809C305.99 335.779 302.81 321.809 306.68 311.989C313.61 294.419 329.14 254.419 331.37 243.539L347.89 246.909Z" fill="#FAA998"/>
<path d="M355.79 231.739C355.79 231.739 355.26 241.979 347.89 246.909L331.37 243.539L336.13 212.789C336.13 212.789 336.5 203.409 340.71 198.179C344.92 192.949 354.4 193.699 355.58 196.759C356.77 199.819 350.92 199.109 348.06 200.229C345.2 201.349 344.15 208.389 344.15 208.389C344.15 208.389 351.18 205.029 355.15 205.829C359.12 206.619 364.99 212.979 361.95 216.459C361.95 216.459 365.08 218.929 362.6 222.629C362.6 222.619 366.8 229.999 355.79 231.739Z" fill="#FAA998"/>
<path d="M355.02 224.729C355.02 224.729 354.58 225.969 356.24 227.329" stroke="#AE3838" stroke-width="0.75" stroke-miterlimit="10" stroke-linecap="round"/>
<path d="M362.6 222.619C362.6 222.619 360.67 218.869 355.6 219.899" stroke="#AE3838" stroke-width="0.75" stroke-miterlimit="10" stroke-linecap="round"/>
<path d="M361.95 216.45C361.95 216.45 356.35 211.73 350.94 214.95" stroke="#AE3838" stroke-width="0.75" stroke-miterlimit="10" stroke-linecap="round"/>
<path d="M357.88 225.779C356.55 227.039 355.79 228.889 355.84 230.719" stroke="#AE3838" stroke-width="0.75" stroke-miterlimit="10" stroke-linecap="round"/>
<path d="M592.76 156.749C602.02 145.299 606.22 194.059 600.3 207.919C599.27 210.339 598.08 212.719 597.54 215.299C597 217.879 597.17 220.739 598.68 222.889C600.52 225.509 603.88 226.519 606.32 228.579C609.51 231.269 610.94 235.689 610.7 239.879C610.46 244.069 608.71 248.039 606.46 251.569C600.03 261.629 586.23 267.459 574.81 270.679C563.39 273.899 551.23 273.699 539.54 271.729C531.2 270.319 522.43 267.649 517.17 260.969C511.66 253.979 511.5 243.219 516.79 236.059C519.42 232.509 523.34 229.799 524.89 225.649C526.99 220.019 521.89 216.659 520.63 211.949C517.01 198.379 527.54 199.199 521.4 168.089C520.95 165.829 535.29 168.459 537.59 168.349C556.22 167.419 574.97 169.019 593.01 173.469C594.78 169.149 590.1 160.029 592.76 156.749Z" fill="#17194D"/>
<path d="M535.83 248.699C533.92 242.409 531.18 236.369 528.28 231.319C521.33 231.879 510.48 233.849 505.88 239.099C501.51 244.079 501.35 251.329 500.81 257.929C499.21 277.579 495.47 295.569 495.16 315.279C495.07 320.649 495.62 326.389 498.97 330.589C501.75 334.069 507.17 335.919 510.75 333.269C513.95 330.899 514.25 326.329 514.42 322.349C515.45 297.029 522.29 271.969 535.83 248.699Z" fill="#EB8175"/>
<path d="M499.49 439.569C494.55 455.609 489.6 471.649 484.66 487.699C502.49 491.319 543.27 488.059 544.73 486.529C546.19 484.999 546.97 482.959 547.71 480.969C551.91 469.729 556.1 458.489 560.3 447.249C539.66 447.989 518.95 446.269 499.49 439.569Z" fill="#EB6C6A"/>
<path d="M618.67 424.499C615.2 443.289 610.28 461.829 603.97 479.949C602.33 484.669 600.23 489.779 595.6 492.169C592.74 493.649 589.35 493.829 586.08 493.949C571 494.519 555.9 494.489 540.83 493.869C545.84 480.759 548.78 466.959 549.53 453.049C572.58 444.939 595.64 436.829 618.67 424.499Z" fill="#F69887"/>
<path d="M610.72 469.099C565.13 475.339 517.66 473.359 488.31 466.819C493.65 446.209 512.18 378.759 512.92 372.369C513.11 370.769 513.31 368.339 513.51 365.369C513.62 363.969 513.71 362.459 513.79 360.859C514.27 352.609 514.68 342.029 514.71 333.329C514.72 333.039 514.72 332.749 514.72 332.479C543.65 331.479 570 334.359 596.71 330.709C602.22 335.749 606.67 341.319 610.2 347.309C610.49 347.809 610.79 348.319 611.07 348.819C630.2 382.999 620.86 430.059 610.72 469.099Z" fill="#3F65AE"/>
<path d="M611.07 348.829C597.74 355.269 565.6 369.409 513.51 365.379C513.62 363.979 513.71 362.469 513.79 360.869C514.27 352.619 514.68 342.039 514.71 333.339C514.72 333.049 514.72 332.759 514.72 332.489C543.65 331.489 570 334.369 596.71 330.719C602.22 335.759 606.67 341.329 610.2 347.319C610.49 347.819 610.78 348.319 611.07 348.829Z" fill="#2C529E"/>
<path d="M583.34 383.699C576.86 400.939 570.12 418.629 557.78 432.309C545.44 445.989 526.05 454.929 508.38 449.729C539.99 437.749 566.92 413.859 583.34 383.699Z" fill="#2C529E"/>
<path d="M515.94 365.549C548.3 367.949 580.44 362.539 610.13 349.439" stroke="#1F2F7A" stroke-miterlimit="10" stroke-linecap="round"/>
<path d="M604.33 352.379C613.35 369.319 615.75 389.159 614.35 408.289C612.95 427.429 607.17 450.299 602.11 468.809" stroke="#1F2F7A" stroke-miterlimit="10" stroke-linecap="round"/>
<path d="M595.49 355.709C596.16 358.279 596.84 360.879 598.04 363.249C599.24 365.619 601.02 367.789 603.39 368.979C605.77 370.169 608.8 370.249 611 368.749" stroke="#1F2F7A" stroke-miterlimit="10" stroke-linecap="round"/>
<path d="M550.64 365.329C552.37 378.729 552.58 392.319 551.25 405.769" stroke="#1F2F7A" stroke-miterlimit="10" stroke-linecap="round"/>
<path d="M558.7 364.599C559.71 371.619 560.19 378.709 560.13 385.799C560.11 387.769 560 389.889 558.78 391.429C557.19 393.429 554.67 393.749 552.12 393.909" stroke="#1F2F7A" stroke-miterlimit="10" stroke-linecap="round"/>
<path d="M602.32 334.439C586.08 347.369 516.59 346.519 512.91 338.959C511.1 335.249 510.56 322.179 511.03 306.409C511.9 276.129 516.44 235.939 522.68 233.089C534.92 227.489 566.9 228.689 589.05 239.109C597.16 242.929 605.3 247.089 608.85 255.319C610.15 258.339 610.7 262.289 610.73 266.769C610.89 283.979 603.3 308.849 600.9 317.699C599.57 322.619 609.45 328.759 602.32 334.439Z" fill="#FEE46B"/>
<path d="M602.32 334.439C586.08 347.369 516.59 346.519 512.91 338.959C511.1 335.249 510.56 322.179 511.03 306.409C523.92 313.269 538.41 316.959 552.71 314.769C569.76 312.149 584.73 301.459 595.88 288.309C601.54 281.639 606.36 274.339 610.72 266.749C610.88 283.959 603.29 308.829 600.89 317.679C599.57 322.619 609.45 328.759 602.32 334.439Z" fill="#F5CC53"/>
<path d="M546.41 257.149C556.75 262.509 574.57 266.089 578.75 264.239C586.47 260.829 588.14 239.079 586.55 236.369C584.3 232.519 579.64 229.869 575.18 229.779C564.69 240.429 554.76 244.329 546.41 257.149Z" fill="#FFF2A6"/>
<path d="M557.66 232.079C551.31 225.739 539.3 226.849 536.14 229.789C531.11 234.469 521.22 250.689 522 257.079C522.38 260.209 542.89 258.129 546.41 256.819C550.07 246.319 551.96 243.609 557.66 232.079Z" fill="#FFF2A6"/>
<path d="M544.22 267.719C545.435 267.719 546.42 266.734 546.42 265.519C546.42 264.304 545.435 263.319 544.22 263.319C543.005 263.319 542.02 264.304 542.02 265.519C542.02 266.734 543.005 267.719 544.22 267.719Z" fill="#EB9738"/>
<path d="M542.9 279.029C544.115 279.029 545.1 278.044 545.1 276.829C545.1 275.614 544.115 274.629 542.9 274.629C541.685 274.629 540.7 275.614 540.7 276.829C540.7 278.044 541.685 279.029 542.9 279.029Z" fill="#EB9738"/>
<path d="M546.18 257.819C560.11 251.119 581.06 242.159 580.79 238.079C580.63 235.579 578.52 228.229 578.21 223.459C577.91 218.969 578.12 214.379 578.91 209.789C569.02 210.719 561.83 210.049 552.19 210.379C552.05 213.599 551.68 218.339 550.84 222.969C550.38 225.499 549.63 227.209 548.68 228.339C547.28 230.009 544.98 229.049 543.51 230.319C540.41 233.029 542.54 246.259 546.18 257.819Z" fill="#F69887"/>
<path d="M548.69 228.329C553.18 229.409 557.84 229.699 562.42 229.119C567.98 228.419 573.39 226.449 578.21 223.449C577.91 218.959 578.12 214.369 578.91 209.779C569.02 210.709 561.83 210.039 552.19 210.369C552.05 213.589 551.68 218.329 550.84 222.959C550.38 225.489 549.64 227.209 548.69 228.329Z" fill="#EB6C6A"/>
<path d="M513.86 360.049C522.94 355.169 526.89 352.209 530.8 345.819C531.39 339.649 531.62 333.459 531.85 327.279C526.5 326.039 520.93 324.869 515.36 323.709C513.84 323.389 512.29 323.069 510.74 323.259C509.2 323.449 507.64 324.239 506.9 325.649C506.16 327.059 506.51 329.109 508.74 329.859C503.16 331.929 493.17 335.879 492.93 341.789C492.88 343.039 493.87 344.139 494.96 344.689C496.05 345.239 497.29 345.339 499 345.939C497.65 346.999 497.06 348.989 497.6 350.649C498.14 352.309 499.78 353.519 502.01 353.419C501.15 354.639 501.13 356.439 501.98 357.679C502.83 358.919 504.47 359.499 505.87 359.059C505.35 360.829 506.57 362.759 508.18 363.549C509.79 364.339 511.82 364.269 513.6 364.089C513.64 362.939 513.74 362.129 513.86 360.049Z" fill="#F69887"/>
<path d="M520.58 345.599C548.34 350.929 596.02 346.559 605.48 339.709C612.2 334.839 615.77 268.059 611.79 259.159C609.68 254.439 607.54 249.989 600.64 246.059C592.9 241.649 586.67 258.239 585.36 267.369C582.73 285.689 583.42 300.039 583.46 317.689C563.86 324.629 542.65 327.389 521.93 327.389C522.2 330.879 520.63 342.149 520.58 345.599Z" fill="#F69887"/>
<path d="M514.6 248.019C511.4 241.649 506.3 234.889 505.23 230.209C504.26 225.979 507.56 213.059 510.15 210.739C513.25 207.959 527.31 208.259 527.13 211.139C527.03 212.689 525.52 213.759 524.02 213.929C522.52 214.099 516.11 215.369 515.3 215.679C514.39 216.029 513.76 217.859 513.55 221.809C518.38 218.109 520.07 216.239 523.14 216.599C524.98 216.819 526.44 218.529 526.3 221.019C527.02 220.149 529.17 220.109 530.13 220.669C532.17 221.869 532.58 223.699 532.28 226.029C535.75 224.419 535.9 228.389 536.07 231.339C536.24 234.289 536.13 237.269 535.62 240.179C535.31 241.959 534.09 243.259 532.87 242.749C531.02 241.989 530.73 237.809 530.48 235.229C529.86 235.409 528.23 236.629 528.02 237.589C531.35 241.089 533.86 247.329 531.39 252.939C523.51 255.809 518.19 255.179 514.6 248.019Z" fill="#F69887"/>
<path d="M525.71 221.399C522.98 222.869 520.4 224.629 518.05 226.649" stroke="#A83B4F" stroke-miterlimit="10" stroke-linecap="round"/>
<path d="M531.58 226.159C529.02 227.489 526.69 229.259 524.72 231.359" stroke="#A83B4F" stroke-miterlimit="10" stroke-linecap="round"/>
<path d="M531.93 251.009C529.62 271.879 527.31 292.739 525 313.599C524.98 313.819 524.95 314.039 524.92 314.269C524.13 321.229 522.69 328.929 516.86 332.719C511.02 336.529 500.1 336.849 496.45 327.029C496.3 326.639 496.18 326.229 496.06 325.809C493.79 317.639 497.25 304.849 501.92 295.049C508.36 281.559 513.46 262.629 515.72 247.859C520.88 248.409 526.06 248.969 531.93 251.009Z" fill="#F69887"/>
<path d="M524.91 314.27C524.12 321.23 522.68 328.93 516.85 332.72C511.01 336.53 500.09 336.85 496.44 327.03C496.29 326.64 496.17 326.23 496.05 325.81C496.13 325.89 496.23 325.98 496.31 326.05C499.17 328.56 502.94 330.22 506.75 329.95C510.6 329.69 514.09 327.53 516.93 324.91C520.26 321.87 522.84 318.24 524.91 314.27Z" fill="#EB8175"/>
<path d="M513.52 186.489C511.49 190.529 514.7 195.969 520.7 198.639C526.7 201.309 533.21 200.189 535.24 196.149C537.27 192.109 534.06 186.669 528.06 183.999C522.07 181.329 515.56 182.449 513.52 186.489Z" fill="#EB6C6A"/>
<path d="M524.39 185.879C524.74 207.359 534.18 224.239 550.16 225.199C568.78 226.309 591.62 210.499 594.91 185.159C597.68 163.859 579.92 146.179 559.93 146.469C539.95 146.749 524.04 164.399 524.39 185.879Z" fill="#F69887"/>
<path d="M586.54 180.9C571.31 181.21 556.14 173.39 547.66 160.88C538 166.45 529.85 174.61 524.29 184.28C524.52 173.93 528.29 163.68 534.82 155.65C536.44 153.66 538.3 151.75 540.67 150.76C542.98 149.8 545.56 149.81 548.06 149.86C559.12 150.1 570.16 151.01 581.11 152.57C581.97 152.69 582.86 152.83 583.56 153.35C584.67 154.18 584.93 155.71 585.1 157.08C586.01 164.5 586.69 171.94 586.54 180.9Z" fill="#EB6C6A"/>
<path d="M540.07 191.319C538.66 194.049 538.62 197.439 539.97 200.199" stroke="#A83B4F" stroke-miterlimit="10" stroke-linecap="round"/>
<path d="M544.3 208.259C548.21 206.829 552.87 207.689 556.03 210.409" stroke="#A83B4F" stroke-miterlimit="10" stroke-linecap="round"/>
<path d="M533.48 191.129C534.41 191.199 535.1 190.199 535.23 188.599C535.36 186.999 534.84 185.919 533.91 185.849C532.98 185.779 532.29 186.779 532.16 188.379C532.03 189.989 532.55 191.069 533.48 191.129Z" fill="#1C2B45"/>
<path d="M557.41 192.609C558.34 192.679 559.03 191.679 559.16 190.079C559.29 188.479 558.77 187.399 557.84 187.329C556.91 187.259 556.22 188.259 556.09 189.859C555.96 191.459 556.48 192.539 557.41 192.609Z" fill="#1C2B45"/>
<path d="M528.61 179.239C532.14 180.229 536.9 178.609 538.79 176.029" stroke="#271F64" stroke-miterlimit="10" stroke-linecap="round"/>
<path d="M554.96 176.489C558.87 175.109 563.59 176.409 566.23 179.609" stroke="#271F64" stroke-miterlimit="10" stroke-linecap="round"/>
<path d="M597.91 194.859C594.41 198.719 593.95 198.299 589.85 200.549C587.49 194.209 585.39 188.699 583.11 182.549C566.69 179.439 557.41 168.949 548.43 155.469C537.85 161.969 528.48 171.409 524.38 186.809C520.61 180.569 518.93 173.429 518.91 166.169C518.9 163.189 519.18 160.189 519.69 157.229C520.38 153.339 521.56 149.479 523.71 146.169C525.87 142.869 529.06 140.119 532.85 139.049C538.97 137.299 545.39 138.619 551.18 141.249C559.72 138.209 568.66 137.819 577.34 140.289C580.24 141.109 583.09 142.319 585.75 143.879C591.09 146.949 595.69 151.409 598.39 156.769C603.6 167.069 601.12 183.079 597.91 194.859Z" fill="#17194D"/>
<path d="M585.77 143.879C574.74 140.629 562.55 141.309 552.02 145.949C543.41 143.109 533.58 146.569 527.18 152.989C523.49 156.709 520.8 161.269 518.92 166.169C518.91 163.189 519.19 160.189 519.7 157.229C520.39 153.339 521.57 149.479 523.72 146.169C525.88 142.869 529.07 140.119 532.86 139.049C538.98 137.299 545.4 138.619 551.19 141.249C559.73 138.209 568.67 137.819 577.35 140.289C580.25 141.109 583.1 142.329 585.77 143.879Z" fill="#2B356E"/>
<path d="M605.23 196.719C606.55 200.959 602.59 205.529 596.39 206.929C590.19 208.329 584.09 206.029 582.77 201.789C581.45 197.549 585.41 192.979 591.61 191.579C597.81 190.169 603.91 192.479 605.23 196.719Z" fill="#F69887"/>
</svg>
