<svg width="155" height="349" viewBox="0 0 155 349" fill="none" xmlns="http://www.w3.org/2000/svg">
<path d="M124.818 80.5444H78.9177C78.9177 80.5444 64.4607 63.0544 66.7797 28.4844H101.66C101.671 32.1944 102.063 39.6244 104.623 45.4444C106.126 48.8244 108.599 51.1744 111.683 52.8944C127.858 61.9054 124.818 80.5444 124.818 80.5444Z" fill="#6B2231"/>
<path d="M154.65 104.715C154.49 103.435 154.13 102.155 153.55 100.915C151.19 95.8253 145.64 92.7853 140.08 93.5053C134.82 94.1953 130.71 97.9353 129.3 102.715C128.28 104.265 126.94 106.285 126.35 107.135L120.55 115.165C118.92 117.445 117.28 119.775 115.7 122.175C115.35 122.695 115.01 123.215 114.67 123.745C114.22 124.435 113.77 125.135 113.32 125.845C117.24 129.645 124.58 134.005 136.93 132.355C137.33 132.025 137.72 131.685 138.12 131.345C139.46 130.195 140.9 128.945 142.35 127.595C148.93 121.525 155.799 113.624 154.65 104.715Z" fill="#FF8E6E"/>
<path d="M136.93 132.356C134.52 134.396 132.04 136.326 129.45 138.116C126.45 140.236 123.37 142.186 119.96 143.916C116.01 145.926 111.17 144.346 109.16 140.386C107.97 138.036 108.04 135.376 109.13 133.176L109.25 132.956C110.48 130.496 111.88 128.136 113.32 125.846C117.24 129.646 124.579 134.006 136.93 132.356Z" fill="#CE6042"/>
<path d="M78.395 59.583C71.342 60.084 61.683 64.966 56.06 70.779C56.06 70.779 48.936 78.951 44.998 84.126C44.847 83.896 44.699 83.668 44.548 83.437C40.708 77.688 36.716 71.893 32.138 66.394L32.056 66.295C30.413 64.351 27.85 63.251 25.136 63.593C20.871 64.129 17.849 68.022 18.386 72.286C19.298 79.536 20.901 86.444 22.804 93.332C23.789 96.761 24.822 100.185 26.047 103.616C27.622 108.029 29.163 112.77 32.04 116.532C33.576 118.541 35.563 120.201 37.875 121.244C41.855 123.041 46.486 122.896 50.47 121.186C53.043 120.082 55.277 118.322 57.361 116.481C59.223 114.835 60.578 113.418 61.962 112.006C64.631 109.175 67.016 106.428 69.271 103.591C71.527 100.767 73.661 97.906 75.662 94.961C77.664 91.998 79.544 89.05 81.247 85.795C84.171 80.191 85.019 59.112 78.395 59.583Z" fill="#FF8E6E"/>
<path d="M1.00596 47.562C2.19796 46.54 3.99397 46.669 5.01497 47.853L11.754 55.662C11.863 55.511 11.982 55.378 12.091 55.236L3.80797 42.071C2.97397 40.743 3.37394 38.984 4.70094 38.151C6.03694 37.317 7.78695 37.717 8.62095 39.044L16.7049 51.883C16.7479 51.865 16.782 51.846 16.825 51.828L17.17 51.706L11.9159 36.881C11.3919 35.406 12.169 33.777 13.643 33.253C15.126 32.728 16.7469 33.505 17.2709 34.98L22.6459 50.132C22.8279 50.119 23.0019 50.097 23.1839 50.084L21.3959 39.871C21.1219 38.32 22.1549 36.85 23.6969 36.577C25.2559 36.303 26.718 37.345 26.992 38.887L29.237 51.699C29.334 51.758 29.4319 51.833 29.5289 51.892C30.3559 48.469 31.53 45.986 31.612 45.819C32.29 44.401 33.989 43.81 35.407 44.488C36.817 45.175 37.416 46.865 36.729 48.283C35.977 49.851 34.5149 55.549 34.4389 60.194C34.3569 65.215 31.7499 69.316 27.2229 70.943L24.084 72.066C18.514 74.068 12.3319 71.143 10.3299 65.582C9.90894 64.401 9.72194 63.196 9.71794 62.004L0.711958 51.572C-0.315042 50.379 -0.178036 48.583 1.00596 47.562Z" fill="#FF8E6E"/>
<path d="M22.4658 64.6529C21.9388 63.6819 21.5348 62.5609 21.5438 61.3709C21.5188 60.7769 21.6218 60.1829 21.7448 59.5879C21.9438 59.0219 22.1068 58.4219 22.4378 57.9109C22.5788 57.6399 22.7458 57.3879 22.9298 57.1499C23.1098 56.9079 23.2748 56.6519 23.4928 56.4469C23.9028 56.0089 24.3528 55.6219 24.8188 55.2659C25.7938 54.5889 26.8058 54.0919 27.9928 53.8089L27.5438 54.2369C27.8098 53.8129 28.0658 53.3839 28.3748 52.9769C28.6738 52.5659 28.9528 52.1469 29.3028 51.7569L29.3168 51.7409C29.3388 51.7159 29.3778 51.7139 29.4018 51.7359C29.4208 51.7539 29.4268 51.7809 29.4178 51.8039L28.3228 54.5539C28.3138 54.5759 28.2968 54.5919 28.2768 54.6009L28.2718 54.6029C26.3278 55.3989 24.5788 56.7589 23.4618 58.5349C23.1658 58.9709 22.9758 59.4629 22.7668 59.9439C22.6328 60.4509 22.4538 60.9499 22.4218 61.4789C22.2528 62.5239 22.4018 63.5859 22.5868 64.6249C22.5928 64.6589 22.5708 64.6909 22.5368 64.6969C22.5098 64.7019 22.4838 64.6879 22.4718 64.6659L22.4658 64.6529Z" fill="#CE6042"/>
<path d="M79.83 62.3052L96.518 59.1192L92.384 41.2002L76.937 44.2132L79.83 62.3052Z" fill="#FF8E6E"/>
<path d="M79.83 62.3052L96.518 59.1192L92.384 41.2002L76.937 44.2132L79.83 62.3052Z" fill="black"/>
<path d="M75.2119 42.8551L77.3319 56.1351C78.4819 56.3751 79.6819 56.5052 80.9019 56.5052C87.0519 56.5052 92.4819 53.2651 95.5819 48.4151L93.4719 39.2852L75.2119 42.8551Z" fill="#CE6042"/>
<path d="M108.972 33.7283C106.166 36.7233 101.754 37.1483 99.1161 34.6783C96.4791 32.2073 96.6151 27.7763 99.4211 24.7813C102.227 21.7863 106.639 21.3613 109.277 23.8313C111.914 26.3023 111.778 30.7333 108.972 33.7283Z" fill="#FF8E6E"/>
<path d="M107.651 26.1844C107.651 26.1844 101.792 25.6104 101.023 31.6984L107.651 26.1844Z" fill="#CE6042"/>
<path d="M59.3571 33.7283C62.1631 36.7233 66.5751 37.1483 69.2131 34.6783C71.8501 32.2073 71.7141 27.7763 68.9081 24.7813C66.1021 21.7863 61.6901 21.3613 59.0521 23.8313C56.4151 26.3023 56.5511 30.7333 59.3571 33.7283Z" fill="#FF8E6E"/>
<path d="M60.6777 26.1844C60.6777 26.1844 66.5367 25.6104 67.3057 31.6984L60.6777 26.1844Z" fill="#CE6042"/>
<path d="M84.1638 52.0002C93.7268 52.0002 101.55 44.1762 101.55 34.6142V19.8142C101.55 10.2512 93.7258 2.42822 84.1638 2.42822C74.6008 2.42822 66.7769 10.2522 66.7769 19.8142V34.6142C66.7779 44.1762 74.6018 52.0002 84.1638 52.0002Z" fill="#FF8E6E"/>
<path d="M84.1641 2.04639C63.9551 2.04639 66.7771 23.1404 66.7771 23.1404C66.7771 23.1404 67.9421 15.0434 70.5181 12.3074H70.5501C70.0471 13.9814 69.6491 16.3674 69.6491 19.7544H73.0791L73.8991 15.2744V19.7544H75.9591L76.9791 15.2744V19.7544H91.2091V15.2744L92.3191 19.7544H96.9591C97.1391 16.6594 96.7131 14.1414 96.1791 12.2904H96.1981C96.1981 12.2904 99.4421 21.4824 101.55 23.1374C101.55 23.1374 104.374 2.04639 84.1641 2.04639Z" fill="#6B2231"/>
<path d="M101.477 23.1273C101.739 20.5243 101.594 17.8693 101.072 15.3043C100.54 12.7473 99.5798 10.2423 98.0008 8.15429C97.2178 7.11029 96.2928 6.17729 95.2578 5.38529C94.2158 4.59829 93.0517 3.99129 91.8467 3.49629C89.4057 2.56329 86.7768 2.19129 84.1638 2.19529C81.5498 2.19029 78.9207 2.56329 76.4807 3.49729C75.2757 3.99329 74.1128 4.60029 73.0698 5.38729C72.0348 6.18029 71.1098 7.11329 70.3268 8.15729C68.7478 10.2453 67.7887 12.7503 67.2567 15.3073C66.7347 17.8723 66.5908 20.5263 66.8528 23.1293C66.8568 23.1703 66.8268 23.2073 66.7858 23.2113C66.7478 23.2153 66.7118 23.1863 66.7038 23.1493C66.4198 21.8463 66.2918 20.5173 66.2678 19.1793C66.2358 17.8413 66.3058 16.4943 66.4828 15.1483C66.9018 12.4783 67.7898 9.79629 69.3928 7.46229C70.1848 6.29529 71.1558 5.22829 72.2778 4.34129C73.4008 3.45229 74.6588 2.75529 75.9598 2.18629C78.6007 1.12329 81.4168 0.722289 84.1628 0.696289C86.9088 0.718289 89.7248 1.12429 92.3668 2.18229C94.9788 3.28229 97.3817 5.08329 98.9377 7.45729C100.542 9.79229 101.428 12.4753 101.849 15.1453C102.026 16.4913 102.095 17.8393 102.062 19.1773C102.038 20.5153 101.91 21.8453 101.624 23.1473C101.617 23.1883 101.578 23.2153 101.537 23.2093C101.501 23.2033 101.475 23.1653 101.477 23.1273Z" fill="#E6B207"/>
<path d="M91.1602 28.4854C91.7442 28.4854 92.2221 28.0074 92.2221 27.4234V23.6084C92.2221 23.0244 91.7442 22.5464 91.1602 22.5464C90.5762 22.5464 90.0981 23.0244 90.0981 23.6084V27.4234C90.0981 28.0084 90.5762 28.4854 91.1602 28.4854Z" fill="#601222"/>
<path d="M77.1689 28.4854C77.7529 28.4854 78.2309 28.0074 78.2309 27.4234V23.6084C78.2309 23.0244 77.7529 22.5464 77.1689 22.5464C76.5849 22.5464 76.1069 23.0244 76.1069 23.6084V27.4234C76.1079 28.0084 76.5859 28.4854 77.1689 28.4854Z" fill="#601222"/>
<path d="M82.1992 26.1689C82.1992 26.1689 82.8162 29.9439 80.5342 31.6979L82.5542 33.7189" stroke="#CE6042" stroke-miterlimit="10" stroke-linecap="round" stroke-linejoin="round"/>
<path d="M77.9868 37.0576C77.9868 40.4696 80.7528 43.2356 84.1648 43.2356C87.5768 43.2356 90.3428 40.4696 90.3428 37.0576H77.9868Z" fill="white"/>
<path d="M116.852 323.18V345.912C116.852 347.288 117.966 348.401 119.341 348.401H149.497C151.299 348.401 152.369 347.058 152.5 345.628C152.544 344.995 152.413 344.34 152.063 343.794C150.371 341.064 148.438 338.488 146.975 335.627C146.091 333.891 143.438 328.694 143.438 328.694L141.604 323.224C141.779 323.999 144.104 334.906 135.948 335.791C123.796 337.09 116.852 323.18 116.852 323.18Z" fill="#6B2231"/>
<path d="M135.95 335.794C123.8 337.094 116.85 323.184 116.85 323.184H141.59C141.59 323.184 141.59 323.194 141.6 323.224C141.6 323.244 141.61 323.264 141.62 323.294C141.88 324.504 143.91 334.924 135.95 335.794Z" fill="#FF8E6E"/>
<path d="M141.609 323.225H141.599C141.589 323.195 141.589 323.185 141.589 323.185H116.859C116.859 323.185 115.659 318.945 113.869 312.385C124.649 312.415 134.119 311.845 140.689 311.285L141.609 323.225Z" fill="#FF8E6E"/>
<path d="M140.69 311.285C134.12 311.845 124.65 312.415 113.87 312.385C112.19 306.265 109.99 298.125 107.75 289.555L139.19 291.905L140.69 311.285Z" fill="#CE6042"/>
<path d="M141.599 323.226L116.859 323.186H141.589C141.589 323.186 141.589 323.195 141.599 323.226Z" fill="#FF8E6E"/>
<path d="M93.1992 323.18V345.912C93.1992 347.288 92.0852 348.401 90.7102 348.401H60.5542C58.7522 348.401 57.6822 347.058 57.5512 345.628C57.5072 344.995 57.6382 344.34 57.9882 343.794C59.6802 341.064 61.6132 338.488 63.0762 335.627C63.9602 333.891 66.6132 328.694 66.6132 328.694L68.4472 323.224C68.2722 323.999 65.9472 334.906 74.1032 335.791C86.2552 337.09 93.1992 323.18 93.1992 323.18Z" fill="#6B2231"/>
<path d="M93.2001 323.186C93.2001 323.186 86.2601 337.096 74.1001 335.796C66.1401 334.926 68.1701 324.506 68.4301 323.296C68.4401 323.266 68.4501 323.246 68.4501 323.226C68.4601 323.196 68.4601 323.186 68.4601 323.186H93.2001Z" fill="#FF8E6E"/>
<path d="M94.3687 311.655C93.6887 318.575 93.1988 323.185 93.1988 323.185H68.4588C68.4588 323.185 68.4588 323.195 68.4488 323.225L66.9688 308.085C73.5198 309.395 82.6397 310.805 94.3687 311.655Z" fill="#FF8E6E"/>
<path d="M68.4602 323.186H93.2002L68.4502 323.226C68.4602 323.195 68.4602 323.186 68.4602 323.186Z" fill="#FF8E6E"/>
<path d="M96.5198 288.715C95.7798 297.125 94.9898 305.345 94.3698 311.655C82.6398 310.805 73.5198 309.395 66.9698 308.085L64.8398 286.345L96.5198 288.715Z" fill="#CE6042"/>
<path d="M150.28 297.254C150.28 297.254 128.406 300.242 102.523 299.093C70.0289 297.651 54.2599 291.784 54.2599 291.784C42.0299 222.974 60.8799 119.874 60.8799 119.874C60.8799 119.874 81.2599 124.064 109.56 120.924L109.66 120.914L117.42 119.874C117.42 119.874 144.41 172.025 150.28 297.254Z" fill="#E6B207"/>
<path d="M150.28 297.254C150.28 297.254 128.406 300.242 102.523 299.093C70.0289 297.651 54.2599 291.784 54.2599 291.784C42.0299 222.974 60.8799 119.874 60.8799 119.874C60.8799 119.874 81.2599 124.064 109.56 120.924L109.66 120.914L117.42 119.874C117.42 119.874 144.41 172.025 150.28 297.254Z" fill="black"/>
<path d="M71.579 301.784L70.939 301.754C68.419 289.284 66.799 276.644 65.619 263.964L64.719 251.997C64.449 248.008 64.349 244.009 64.149 240.01L63.899 234.011L63.799 228.012C63.759 224.013 63.609 220.014 63.659 216.015C63.629 200.009 64.239 184.012 65.149 168.036C66.109 152.07 67.389 136.114 69.259 120.228L69.459 120.248C68.899 128.236 68.299 136.204 67.919 144.192L67.549 150.171L67.239 156.16C67.009 160.149 66.849 164.138 66.699 168.127C66.079 184.093 65.479 200.049 65.649 216.016C65.599 231.972 66.039 247.928 67.159 263.834C67.239 265.824 67.429 267.813 67.619 269.792L68.169 275.75L68.719 281.708L69.519 287.626L70.269 293.574L70.639 296.538C70.769 297.533 70.989 298.507 71.159 299.492C71.299 300.256 71.44 301.02 71.579 301.784Z" fill="#F6851B"/>
<path d="M95.3791 302.637L94.7891 302.617C92.5291 289.896 90.8191 277.085 89.4191 264.254C87.8091 248.459 86.6991 232.613 85.9091 216.757C85.2291 200.901 84.8791 185.026 84.8091 169.15C84.7691 153.274 84.9691 137.068 85.5991 121.212L85.7991 121.222C85.8691 129.16 85.8291 137.419 86.0091 145.356C86.0591 153.284 86.1691 161.222 86.3691 169.14C86.6191 177.068 86.6491 184.996 86.9491 192.913C87.1591 200.841 87.5591 208.749 87.9091 216.666C88.2991 224.574 88.5991 232.492 89.1791 240.399C89.4491 244.348 89.6491 248.307 90.0291 252.245C90.3891 256.184 90.6791 260.133 90.9591 264.092L92.0991 275.908C92.2991 277.877 92.4491 279.857 92.7091 281.826L93.4491 287.714L94.1191 293.622L94.4691 296.576L94.9091 299.51C95.0691 300.547 95.2301 301.592 95.3791 302.637Z" fill="#F6851B"/>
<path d="M118.22 303.461L117.68 303.441C117.34 298.106 117.04 292.77 116.54 287.445C116.23 283.466 116.01 279.487 115.67 275.518L114.65 263.601C113.2 247.725 111.88 231.839 110.03 216.004C109.65 212.035 109.22 208.066 108.8 204.107C108.38 200.138 107.96 196.179 107.5 192.22C107.03 188.261 106.61 184.292 106.11 180.343L105.39 174.405L104.73 168.457C103.82 160.539 102.87 152.621 101.87 144.704C100.98 136.776 99.9197 128.868 98.9897 120.941L99.1898 120.901C101.82 136.646 104.13 152.442 106.27 168.257C108.4 184.072 110.31 199.918 112.01 215.794C113.71 231.66 115.04 247.566 116.2 263.492C117.14 276.793 117.799 290.127 118.22 303.461Z" fill="#F6851B"/>
<path d="M140.579 304.265L140.079 304.245C139.989 302.587 139.899 300.929 139.829 299.271L139.529 293.202C139.419 291.182 139.209 289.163 139.059 287.143L138.199 275.035C137.859 271.006 137.399 266.987 137.009 262.957C136.249 254.909 135.219 246.88 134.309 238.852L132.599 226.845C132.299 224.845 132.049 222.836 131.719 220.846L130.719 214.858C129.549 206.86 128.099 198.902 126.679 190.944L124.339 179.037C123.969 177.047 123.489 175.088 123.089 173.109L121.879 167.161C121.079 163.192 120.149 159.253 119.299 155.304C118.409 151.355 117.439 147.426 116.509 143.488C114.669 135.6 112.619 127.763 110.489 119.946L110.679 119.876C115.639 135.32 119.749 151.015 123.399 166.81C124.269 170.769 125.199 174.718 126.029 178.677L128.469 190.594C129.949 198.562 131.469 206.53 132.689 214.548L133.649 220.547C133.969 222.557 134.209 224.566 134.489 226.576L136.109 238.624L137.429 250.722C137.639 252.732 137.899 254.751 138.059 256.771L138.549 262.83C139.839 276.603 140.339 290.428 140.579 304.265Z" fill="#F6851B"/>
<path d="M116.904 64.7773C113.019 62.3623 99.9401 59.1143 95.0301 59.1143H83.2701C81.6071 59.1143 79.9831 59.2793 78.4091 59.5853C78.4031 59.5853 78.3971 59.5843 78.3901 59.5843C74.9401 59.8243 70.8701 61.1143 66.9501 63.0543C64.7901 64.7783 62.4501 67.4113 61.6361 71.0433C58.6491 74.9343 54.6821 79.4903 54.6821 84.4343C54.6821 89.6943 58.5571 92.4893 58.5571 92.4893L60.8801 119.874C60.8801 119.874 81.2601 124.064 109.56 120.924L109.66 120.914L117.42 119.874L120.42 84.5043C120.42 75.3953 124.113 69.2573 116.904 64.7773Z" fill="#FFEBDB"/>
<path d="M116.904 64.7773C113.019 62.3623 99.9401 59.1143 95.0301 59.1143H83.2701C81.6071 59.1143 79.9831 59.2793 78.4091 59.5853C78.4031 59.5853 78.3971 59.5843 78.3901 59.5843C74.9401 59.8243 70.8701 61.1143 66.9501 63.0543C64.7901 64.7783 62.4501 67.4113 61.6361 71.0433C58.6491 74.9343 54.6821 79.4903 54.6821 84.4343C54.6821 89.6943 58.5571 92.4893 58.5571 92.4893L60.8801 119.874C60.8801 119.874 81.2601 124.064 109.56 120.924L109.66 120.914L117.42 119.874L120.42 84.5043C120.42 75.3953 124.113 69.2573 116.904 64.7773Z" fill="black"/>
<path d="M100.64 58.415C90.9902 62.755 76.3602 77.635 76.3602 77.635C76.3602 77.635 74.1602 62.6551 77.6602 59.1151L100.64 58.415Z" fill="#FF8E6E"/>
<path d="M116.904 64.7773C113.019 62.3623 99.9401 59.1143 95.0301 59.1143H83.2701C81.6071 59.1143 79.9831 59.2793 78.4091 59.5853C78.4031 59.5853 78.3971 59.5843 78.3901 59.5843C74.9401 59.8243 70.8701 61.1143 66.9501 63.0543C64.7901 64.7783 62.4501 67.4113 61.6361 71.0433C58.6491 74.9343 54.6821 79.4903 54.6821 84.4343C54.6821 89.6943 58.5571 92.4893 58.5571 92.4893L60.8801 119.874C60.8801 119.874 81.2601 124.064 109.56 120.924L109.66 120.914L117.42 119.874L120.42 84.5043C120.42 75.3953 124.113 69.2573 116.904 64.7773Z" fill="black"/>
<path d="M118.094 114.644L117.562 119.856L109.66 120.915L109.56 120.925C81.2601 124.065 60.5381 119.868 60.5381 119.868L60.2041 114.644C63.4541 115.244 83.5801 118.645 110.31 115.675L110.42 115.665L118.094 114.644Z" fill="#6B2231"/>
<path d="M154.183 104.755C153.704 100.824 151.676 97.0012 149.349 93.8802C147.926 91.9722 146.605 90.4312 145.3 88.9782C138.138 81.0702 130.07 73.9722 121.712 67.3582L121.623 67.2862C121.293 67.0262 120.949 66.7782 120.592 66.5432C113.668 61.9792 103.365 63.3322 99.7898 70.8152C95.0528 80.7312 103.461 91.3762 110.385 95.9412C111.582 96.7302 116.953 100.586 119.409 102.446C121.863 104.295 124.277 106.145 126.364 107.935C127.404 108.818 128.35 109.695 129.02 110.352C129.233 110.553 129.558 110.87 129.8 111.09C131.896 116.369 137.356 119.771 143.246 119.003C147.835 118.405 151.816 115.267 153.476 110.947C154.26 108.911 154.435 106.818 154.183 104.755Z" fill="#FF8E6E"/>
<path d="M119.44 102.406L124.777 106.566C125.671 107.255 126.565 107.942 127.373 108.734C128.201 109.501 129.042 110.256 129.847 111.041C129.854 111.047 129.861 111.058 129.865 111.066C130.221 111.978 130.684 112.85 131.242 113.656C131.258 113.678 131.252 113.709 131.23 113.724C131.211 113.737 131.187 113.735 131.171 113.721L131.161 113.713C130.766 113.385 130.434 112.999 130.113 112.597C129.781 112.201 129.51 111.76 129.274 111.3L129.42 111.511C128.962 111.166 128.499 110.81 128.046 110.49L126.744 109.442C125.926 108.695 125.021 108.029 124.165 107.306C122.449 105.865 120.822 104.317 119.383 102.485L119.374 102.474C119.357 102.453 119.361 102.422 119.382 102.405C119.398 102.392 119.423 102.393 119.44 102.406Z" fill="#CE6042"/>
</svg>
