<svg width="160" height="350" viewBox="0 0 160 350" fill="none" xmlns="http://www.w3.org/2000/svg">
<path d="M72.4021 285.566L81.4661 294.021L52.8661 348.916C51.5971 348.245 50.6771 346.888 50.9001 345.075L53.6891 325.261L53.2051 301.21L72.4021 285.566Z" fill="#55B6E0"/>
<path d="M81.4662 294.021L84.9462 295.834L58.1152 347.333C57.0532 349.372 54.8842 349.792 53.2112 349.076C53.0922 349.024 52.9812 348.976 52.8662 348.916L81.4662 294.021Z" fill="#FFEBDB"/>
<path d="M69.9384 266.879L46.1924 274.536L53.2054 301.21L72.4024 285.566L69.9384 266.879Z" fill="#FFEBDB"/>
<path d="M85.0674 323.982V345.401H120.662C120.593 345.124 120.48 344.865 120.325 344.623C118.622 341.892 116.695 339.316 115.234 336.455C114.344 334.718 111.69 329.505 111.69 329.505L109.84 323.982H85.0674Z" fill="#55B6E0"/>
<path d="M85.0674 345.402V346.742C85.0674 348.125 86.1824 349.24 87.5564 349.24H117.758C119.564 349.24 120.636 347.892 120.757 346.465C120.783 346.111 120.757 345.748 120.662 345.402H85.0674Z" fill="#FFEBDB"/>
<path d="M121.241 133.399C120.881 158.539 119.681 183.669 118.361 208.779L113.861 324.589L79.15 323.982L83.921 154.439L68.531 223.999L78.701 287.549L44.331 292.179L33.731 226.219C33.381 224.069 33.451 221.859 33.921 219.729L51.861 138.669L51.901 132.929C63.981 134.639 93.831 137.929 121.241 133.399Z" fill="#174566"/>
<path d="M121.261 132.059C121.251 132.509 121.251 132.949 121.241 133.399C93.8313 137.929 63.9814 134.639 51.9014 132.929V132.059L52.1913 85.3392C52.1913 71.3192 63.5514 59.9492 77.5814 59.9492H95.3214C109.351 59.9492 120.711 71.3192 120.711 85.3392C121.341 100.909 121.471 116.479 121.261 132.059Z" fill="#FFEBDB"/>
<path d="M99.2815 60.2592C96.2215 65.1792 90.5515 68.9192 85.2415 69.1492C79.4615 69.4092 76.0715 65.4292 76.9915 59.9592C77.1915 59.9492 77.3815 59.9492 77.5815 59.9492H95.3215C96.6715 59.9492 97.9915 60.0492 99.2815 60.2592Z" fill="#CE6042"/>
<path d="M122.071 104.969L121.351 68.2793C116.54 65.3783 107.241 61.0793 98.2112 60.1193C97.6812 59.9793 97.1912 59.9193 96.7512 59.9893C90.0312 60.9793 88.0511 69.7093 88.0511 69.7093L87.6812 141.759C87.6812 141.759 93.1912 143.049 99.5612 140.709C110.061 136.839 114.091 134.589 122.761 140.129L122.071 104.969Z" fill="#55B6E0"/>
<path d="M94.7421 133.14C95.8001 132.687 96.8561 132.272 97.8731 131.769C98.9081 131.323 99.9211 130.832 100.893 130.288C101.859 129.739 102.844 129.226 103.723 128.591C104.622 127.969 105.47 127.232 106.389 126.536C107.319 125.856 108.298 125.176 109.381 124.621C110.463 124.077 111.667 123.643 112.913 123.598C114.15 123.528 115.37 123.709 116.495 124.083C117.61 124.496 118.662 125.003 119.605 125.676L119.611 125.681C119.633 125.697 119.639 125.728 119.623 125.75C119.609 125.77 119.582 125.776 119.561 125.766C117.532 124.78 115.267 124.074 113.005 124.358C110.728 124.621 108.769 125.937 106.991 127.324C106.087 128.015 105.189 128.723 104.235 129.356C103.281 129.991 102.268 130.528 101.233 131.011C99.1551 131.964 96.9871 132.708 94.7651 133.238C94.7391 133.244 94.7121 133.228 94.7051 133.201C94.6991 133.177 94.7121 133.153 94.7341 133.144L94.7421 133.14Z" fill="#4192D9"/>
<path d="M124.631 146.699C124.631 146.699 122.781 151.309 120.521 156.019C118.711 155.669 109.261 153.569 104.531 147.689C104.531 147.689 104.531 147.689 104.531 147.679C104.391 147.369 104.231 147.149 104.061 147.069C103.341 146.719 102.261 148.029 102.011 148.339L98.5714 152.099C97.3214 153.609 95.1714 153.759 93.5414 152.669C90.9814 150.979 93.2014 148.569 93.7514 147.919C93.7514 147.919 94.2314 147.329 94.9014 146.489C96.1814 144.909 97.8714 141.399 99.0214 140.659C100.931 139.429 106.966 136.839 110.611 136.839L124.631 146.699Z" fill="#CE6042"/>
<path d="M120.811 156.149C119.108 156.371 117.429 156.2 115.792 155.861C114.148 155.53 112.56 154.96 111.029 154.244C109.526 153.469 108.078 152.54 106.829 151.363C105.598 150.169 104.551 148.739 104.004 147.118L104.126 147.031C105.1 148.318 106.264 149.443 107.542 150.425C108.846 151.373 110.239 152.191 111.688 152.898C113.134 153.61 114.633 154.219 116.162 154.738C117.692 155.251 119.253 155.693 120.836 156.001L120.811 156.149Z" fill="#6794CF"/>
<path d="M108.459 96.026L112.843 98.882C115.769 100.768 118.648 102.69 121.469 104.561C122.875 105.501 124.244 106.458 125.575 107.395C126.607 108.111 127.593 108.824 128.534 109.525C126.857 112.148 125.061 114.86 123.224 117.574C119.271 123.461 114.428 130.693 110.611 136.839C110.611 136.839 112.515 139.887 116.301 142.859C119.269 145.189 124.631 146.699 124.631 146.699C127.709 144.417 130.29 143.109 133.157 140.675L137.383 136.96L141.525 133.111C144.255 130.484 146.958 127.801 149.629 124.852C153.746 120.306 158.234 115.138 159.028 108.818C159.748 103.085 156.947 97.71 153.39 93.426C151.585 91.253 149.96 89.685 148.363 88.179C145.191 85.204 142.13 82.698 139.014 80.313C135.927 77.912 132.791 75.709 129.643 73.563C128.055 72.511 126.483 71.444 124.867 70.444C124.09 69.95 120.815 67.757 116.084 65.498L108.459 96.026Z" fill="#55B6E0"/>
<path d="M128.499 109.49C128.962 108.889 129.472 108.332 129.995 107.786C130.517 107.239 131.048 106.694 131.632 106.208C132.799 105.239 133.97 104.23 135.467 103.572C135.844 103.411 136.235 103.262 136.676 103.169C137.113 103.063 137.631 103.062 138.05 103.108C138.921 103.204 139.704 103.47 140.444 103.782C141.925 104.429 143.163 105.341 144.387 106.347C144.736 106.633 144.786 107.148 144.5 107.497C144.32 107.715 144.046 107.816 143.784 107.791C142.791 107.688 141.74 107.658 140.714 107.63C139.682 107.586 138.647 107.581 137.614 107.628C136.582 107.685 135.557 107.793 134.526 107.92C133.501 108.075 132.492 108.316 131.483 108.634L131.475 108.636C131.449 108.644 131.421 108.63 131.413 108.603C131.405 108.579 131.417 108.554 131.439 108.543C133.357 107.636 135.455 107.212 137.547 106.982C139.646 106.77 141.76 106.735 143.868 106.887L143.804 107.04C142.647 106.113 141.385 105.298 140.041 104.675C139.368 104.37 138.663 104.119 137.935 104.023C137.206 103.901 136.479 104.092 135.796 104.373C134.427 104.944 133.186 105.796 131.991 106.682C130.801 107.58 129.658 108.544 128.568 109.561C128.548 109.58 128.516 109.579 128.498 109.559C128.481 109.541 128.48 109.514 128.495 109.495L128.499 109.49Z" fill="#4192D9"/>
<path d="M110.558 75.7021C110.168 78.4641 110.115 81.2741 110.305 84.0561C110.499 86.8391 111.003 89.6042 111.86 92.2552C112.725 94.8992 113.971 97.4402 115.709 99.6212C117.423 101.823 119.639 103.604 122.094 104.924C122.118 104.937 122.127 104.967 122.114 104.991C122.102 105.014 122.07 105.021 122.047 105.012C120.736 104.497 119.464 103.833 118.288 103.011C117.138 102.161 116.047 101.2 115.101 100.104C113.176 97.9272 111.877 95.2722 110.909 92.5652C110.093 89.8012 109.582 86.9591 109.527 84.1101C109.51 82.6861 109.556 81.2662 109.685 79.8562C109.874 78.4502 110.056 77.0472 110.458 75.6862C110.463 75.6592 110.49 75.6412 110.517 75.6472C110.543 75.6512 110.559 75.6781 110.558 75.7021Z" fill="#4192D9"/>
<path d="M123.266 117.602L117.002 127.261L110.654 136.866C110.639 136.889 110.608 136.895 110.585 136.88C110.565 136.866 110.557 136.84 110.567 136.819L110.569 136.813C112.1 133.247 114.078 129.947 116.163 126.719C117.233 125.123 118.304 123.527 119.487 122.005L121.262 119.725C121.905 118.999 122.499 118.242 123.184 117.546L123.19 117.54C123.209 117.52 123.241 117.52 123.26 117.539C123.276 117.557 123.278 117.583 123.266 117.602Z" fill="#4192D9"/>
<path d="M69.7761 72.2914C65.5861 64.9764 58.663 62.4434 51.348 66.6334L51.1951 66.7214C47.2681 68.9704 39.0041 73.9124 34.5601 76.2934C33.7151 72.9734 32.7471 69.6394 31.5541 66.3174L31.5051 66.1804C30.6931 63.9554 28.9351 62.0944 26.5311 61.2354C22.2401 59.7004 17.5171 61.9344 15.9821 66.2254C13.7451 72.4784 12.3541 78.6904 11.2941 85.0244C10.7581 88.1954 10.3771 91.3754 10.0861 94.6874C9.95806 96.3544 9.86105 98.0294 9.83105 99.9154C9.84605 103.041 10.1411 106.2 11.5051 109.059C13.9551 114.192 19.202 117.68 24.915 117.81C26.577 117.848 28.2281 117.641 29.8281 117.188C32.8841 116.322 35.7861 114.69 38.4871 113.046C40.0281 112.108 41.463 111.247 42.834 110.325C45.59 108.522 51.183 104.672 53.712 102.757C58.744 98.8894 63.503 94.8924 67.816 90.1574C72.146 85.3904 73.1491 78.1824 69.7761 72.2914Z" fill="#55B6E0"/>
<path d="M34.608 76.2861C35.662 79.3181 36.2031 82.4291 36.6151 85.5531C36.7881 87.1191 36.9601 88.6851 37.0001 90.2651L37.056 92.6341C37.014 93.4301 37.0281 94.2191 36.9351 95.0191L36.934 95.0281C36.931 95.0551 36.906 95.0751 36.879 95.0711C36.856 95.0681 36.8381 95.0501 36.8361 95.0281L35.624 85.6691L34.5101 76.2981C34.5071 76.2711 34.526 76.2461 34.553 76.2431C34.577 76.2401 34.598 76.2541 34.606 76.2761L34.608 76.2861Z" fill="#4192D9"/>
<path d="M34.579 76.2472C35.284 76.4422 35.967 76.6992 36.638 76.9872C37.309 77.2762 37.986 77.5722 38.622 77.9552C39.26 78.3312 39.885 78.7472 40.471 79.2512C41.051 79.7612 41.629 80.3242 42.011 81.1722C42.311 82.1272 42.267 82.8322 42.287 83.6012C42.286 84.3532 42.237 85.0852 42.185 85.8182C42.13 86.5502 42.056 87.2752 41.975 88.0002C41.871 88.7232 41.746 89.4352 41.613 90.1612L41.612 90.1692C41.526 90.6352 41.079 90.9442 40.613 90.8592C40.239 90.7902 39.967 90.4882 39.917 90.1312C39.782 89.1472 39.5209 88.0722 39.2099 87.0632C38.8789 86.0492 38.5599 85.0232 38.1499 84.0282C37.7539 83.0252 37.263 82.0652 36.759 81.1022C36.276 80.1222 35.658 79.2242 35.073 78.2772L35.068 78.2702C35.054 78.2472 35.061 78.2162 35.084 78.2022C35.105 78.1892 35.132 78.1942 35.147 78.2122C36.6 79.8742 37.838 81.7282 38.791 83.7222C39.75 85.7122 40.4809 87.8162 40.8609 90.0052L40.677 90.0022C40.902 88.5832 41.0959 87.1562 41.2439 85.7272C41.3109 85.0122 41.376 84.2962 41.393 83.5792C41.402 82.8682 41.42 82.1322 41.222 81.4662C40.97 80.8102 40.492 80.2552 39.985 79.7602C39.473 79.2612 38.901 78.8252 38.307 78.4232C37.121 77.6162 35.848 76.9312 34.541 76.3392C34.516 76.3282 34.505 76.2982 34.516 76.2732C34.526 76.2502 34.551 76.2392 34.575 76.2462L34.579 76.2472Z" fill="#4192D9"/>
<path d="M0.911241 46.5069C2.06824 45.4449 3.86721 45.5129 4.92821 46.6609L11.9292 54.2359C12.0332 54.0819 12.1472 53.9439 12.2522 53.7989L3.52519 40.9239C2.64619 39.6259 2.98623 37.8539 4.28423 36.9749C5.59123 36.0959 7.3542 36.4359 8.2332 37.7339L16.7492 50.2909C16.7912 50.2709 16.8252 50.2519 16.8672 50.2319L17.2082 50.0989L11.4532 35.4619C10.8792 34.0059 11.6002 32.3509 13.0562 31.7769C14.5212 31.2019 16.1672 31.9239 16.7412 33.3799L22.6292 48.3399C22.8112 48.3199 22.9832 48.2929 23.1652 48.2729L21.0302 38.1269C20.7042 36.5869 21.6862 35.0819 23.2182 34.7559C24.7672 34.4289 26.2632 35.4209 26.5892 36.9519L29.2692 49.6799C29.3682 49.7349 29.4682 49.8079 29.5672 49.8629C30.2782 46.4139 31.3652 43.8919 31.4432 43.7219C32.0722 42.2819 33.7502 41.6339 35.1902 42.2629C36.6222 42.9009 37.2792 44.5699 36.6412 46.0109C35.9432 47.6029 34.6762 53.3479 34.7582 57.9929C34.8472 63.0139 32.3812 67.2009 27.9122 68.9819L24.8132 70.2109C19.3142 72.4009 13.0372 69.6889 10.8472 64.1979C10.3862 63.0319 10.1582 61.8339 10.1142 60.6429L0.758226 50.5239C-0.313774 49.3679 -0.236759 47.5679 0.911241 46.5069Z" fill="#CE6042"/>
<path d="M22.928 62.8615C22.274 61.9305 21.8161 60.8085 21.7471 59.5955C21.6911 58.9915 21.757 58.3765 21.858 57.7625C22.036 57.1755 22.172 56.5495 22.492 56.0135C22.626 55.7305 22.787 55.4665 22.966 55.2155C23.141 54.9615 23.299 54.6915 23.516 54.4755C23.922 54.0155 24.3691 53.6075 24.8331 53.2295C25.8121 52.5145 26.8251 51.9925 28.0411 51.6895L27.519 52.2215C27.787 51.7945 28.045 51.3635 28.35 50.9505C28.637 50.5305 28.968 50.1265 29.324 49.7315L29.343 49.7105C29.37 49.6805 29.4151 49.6785 29.4451 49.7055C29.4671 49.7255 29.474 49.7565 29.465 49.7835L28.468 52.5715C28.459 52.5985 28.439 52.6185 28.415 52.6295L28.409 52.6325C26.497 53.4945 24.806 54.9175 23.75 56.7205C23.469 57.1645 23.296 57.6605 23.103 58.1475C22.986 58.6575 22.824 59.1605 22.808 59.6885C22.673 60.7365 22.8561 61.7915 23.0751 62.8225C23.0831 62.8625 23.0581 62.9015 23.0181 62.9095C22.9881 62.9155 22.959 62.9035 22.943 62.8795L22.928 62.8615Z" fill="#993C21"/>
<path d="M78.621 60.0095L78.051 69.7095L73.421 143.289C73.421 143.289 58.0511 141.82 50.3311 136.27L52.071 103.979L50.3311 99.9495V67.2295C65.0911 58.7495 78.621 60.0095 78.621 60.0095Z" fill="#55B6E0"/>
<path d="M52.0253 103.977C51.4503 99.9645 51.3953 95.9635 51.4683 91.9665C51.5383 89.9685 51.6093 87.9705 51.8133 85.9755L52.1233 82.9835C52.2873 81.9875 52.3943 80.9905 52.6103 79.9955L52.6124 79.9865C52.6184 79.9595 52.6443 79.9425 52.6713 79.9485C52.6953 79.9535 52.7103 79.9745 52.7103 79.9975L52.4673 91.9895L52.1254 103.978C52.1244 104.005 52.1013 104.027 52.0743 104.026C52.0493 104.025 52.0304 104.007 52.0264 103.983L52.0253 103.977Z" fill="#4192D9"/>
<path d="M100.322 54.998H77.292L76.292 59.9601H100.314L100.322 54.998Z" fill="#4192D9"/>
<path d="M79.8135 61.4419H96.8015L96.1775 43.1309H80.4385L79.8135 61.4419Z" fill="#CE6042"/>
<path d="M79.8135 61.4419H96.8015L96.1775 43.1309H80.4385L79.8135 61.4419Z" fill="black"/>
<path d="M78.7803 53.2392C81.5193 55.0522 84.7963 56.1102 88.3103 56.1102C91.8233 56.1102 95.1013 55.0522 97.8403 53.2392L97.4433 41.6602H79.1683L78.7803 53.2392Z" fill="#993C21"/>
<path d="M77.2922 54.998L78.6252 59.629L72.8882 69.465L74.3652 60.566L77.2922 54.998Z" fill="#55B6E0"/>
<path d="M78.6254 59.6289L78.0463 69.7059L75.0693 65.7249L78.6254 59.6289Z" fill="#4192D9"/>
<path d="M78.6575 59.6483C78.3095 60.5443 77.8974 61.4023 77.5074 62.2733L76.2365 64.8273C75.7995 65.6703 75.3225 66.4914 74.8675 67.3244C74.4005 68.1504 73.9675 68.9963 73.4545 69.7953L71.5645 72.7424L72.2405 69.3573C72.5355 67.8823 72.7625 66.3963 73.1125 64.9303L73.6285 62.7303C73.8115 61.9993 74.0295 61.2734 74.2285 60.5444L74.2385 60.5083L74.2425 60.5023L74.6584 59.9283L74.7245 59.9633L74.4005 60.5854L74.4045 60.5733L72.9585 69.4763L72.8255 69.4283L78.5925 59.6104L78.6575 59.6483Z" fill="#4192D9"/>
<path d="M100.322 54.998L91.936 59.629L92.311 70.465L100.78 60.566L100.322 54.998Z" fill="#55B6E0"/>
<path d="M91.9359 59.6289L88.0459 69.7059L92.1059 64.5549L91.9359 59.6289Z" fill="#4192D9"/>
<path d="M91.9735 59.6279L92.3825 70.4619L92.2565 70.4179L100.751 60.5419L100.808 60.5909C100.218 61.5139 99.5725 62.3909 98.9425 63.2809L96.9705 65.8799L94.9095 68.4019C94.2175 69.2389 93.5425 70.0899 92.8075 70.8889L91.6835 72.1109L91.6585 70.4869L91.6165 67.7759C91.5905 66.8729 91.5975 65.9689 91.6295 65.0639C91.6585 63.2549 91.7265 61.4439 91.8975 59.6299L91.9735 59.6279Z" fill="#4192D9"/>
<path d="M113.115 34.5623C110.309 37.5573 105.897 37.9823 103.259 35.5123C100.622 33.0413 100.758 28.6103 103.564 25.6153C106.37 22.6203 110.782 22.1953 113.42 24.6653C116.057 27.1363 115.92 31.5673 113.115 34.5623Z" fill="#CE6042"/>
<path d="M111.794 27.0184C111.794 27.0184 105.935 26.4443 105.166 32.5333L111.794 27.0184Z" fill="#993C21"/>
<path d="M63.5002 34.5623C66.3062 37.5573 70.7181 37.9823 73.3561 35.5123C75.9931 33.0413 75.8572 28.6103 73.0512 25.6153C70.2452 22.6203 65.8332 22.1953 63.1952 24.6653C60.5582 27.1363 60.6942 31.5673 63.5002 34.5623Z" fill="#CE6042"/>
<path d="M64.8213 27.0184C64.8213 27.0184 70.6803 26.4443 71.4493 32.5333L64.8213 27.0184Z" fill="#993C21"/>
<path d="M88.3069 52.8337C97.8699 52.8337 105.693 45.0097 105.693 35.4477V20.6477C105.693 11.0847 97.8689 3.26172 88.3069 3.26172C78.7439 3.26172 70.9199 11.0857 70.9199 20.6487V35.4487C70.9209 45.0107 78.7449 52.8337 88.3069 52.8337Z" fill="#CE6042"/>
<path d="M105.07 3.46406L71.723 0.712059C70.88 0.642059 70.1591 1.31206 70.1671 2.15806L70.92 27.5701C70.92 27.5701 74.7721 24.0391 74.7351 22.6921C74.6971 21.3451 74.3971 19.0701 74.2791 17.7991C73.9731 14.5281 77.1311 9.47506 82.5051 10.1551C84.3721 10.3921 86.0401 13.4011 88.3071 13.4011C90.5741 13.4011 92.2421 10.3921 94.1091 10.1551C99.4841 9.47506 102.641 14.5281 102.335 17.7991C102.216 19.0701 101.917 21.3451 101.879 22.6921C101.841 24.0401 105.693 27.5701 105.693 27.5701L106.387 4.97706C106.431 4.20006 105.847 3.52906 105.07 3.46406Z" fill="#6B2231"/>
<path d="M95.3022 29.3199C95.8862 29.3199 96.3643 28.8419 96.3643 28.2579V24.4419C96.3643 23.8579 95.8862 23.3799 95.3022 23.3799C94.7182 23.3799 94.2402 23.8579 94.2402 24.4419V28.2579C94.2402 28.8419 94.7182 29.3199 95.3022 29.3199Z" fill="#601222"/>
<path d="M81.312 29.3199C81.896 29.3199 82.374 28.8419 82.374 28.2579V24.4419C82.374 23.8579 81.896 23.3799 81.312 23.3799C80.728 23.3799 80.25 23.8579 80.25 24.4419V28.2579C80.25 28.8419 80.728 29.3199 81.312 29.3199Z" fill="#601222"/>
<path d="M86.3422 27.0039C86.3422 27.0039 86.9592 30.7789 84.6772 32.5329L86.6972 34.5539" stroke="#993C21" stroke-miterlimit="10" stroke-linecap="round" stroke-linejoin="round"/>
<path d="M82.1289 37.8911C82.1289 41.3031 84.8949 44.0691 88.3069 44.0691C91.7189 44.0691 94.4849 41.3031 94.4849 37.8911H82.1289Z" fill="white"/>
</svg>
