<svg width="151" height="347" viewBox="0 0 151 347" fill="none" xmlns="http://www.w3.org/2000/svg">
<path opacity="0.5" d="M68 346.323C105.371 346.323 135.667 340.726 135.667 333.823C135.667 326.919 105.371 321.323 68 321.323C30.6286 321.323 0.333008 326.919 0.333008 333.823C0.333008 340.726 30.6286 346.323 68 346.323Z" fill="#FDE0D5"/>
<path d="M80.21 53.1588C80.21 53.1588 80.2 53.1588 80.19 53.1688C72.72 61.1988 54.79 59.7388 50.54 54.4888C51.02 54.3288 51.47 54.1388 51.87 53.9088C56.05 51.5788 56.54 45.6688 56.1 40.7288C55.72 36.5088 54.66 32.9888 54.66 32.9888C54.66 32.9888 54.92 33.1088 73.79 34.2388C73.22 37.1088 72.9 39.5188 72.78 41.5588C72.14 52.1188 76.81 52.4988 80.21 53.1588Z" fill="#FFC7A8"/>
<path d="M80.19 53.1689C72.72 61.1989 54.79 59.7389 50.54 54.4889C51.02 54.3289 51.47 54.1389 51.87 53.9089C66.81 59.0689 79.64 53.4189 80.19 53.1689Z" fill="#F7BA9C"/>
<path d="M48.9522 26.671C48.4592 29.502 50.9962 33.079 53.2022 33.463C55.4082 33.847 57.8692 32.972 56.8702 29.692C56.0332 26.943 56.0122 24.553 53.8912 23.834C51.9462 23.175 49.4452 23.84 48.9522 26.671Z" fill="#F7BA9C"/>
<path d="M80.4541 13.1224C81.0811 13.3864 81.3501 13.9734 81.5811 14.5724C82.0991 15.9184 82.0911 17.3494 82.0361 18.7684C81.9281 21.5604 81.0691 24.7434 78.9811 26.7284C78.8001 26.9004 78.6061 27.0604 78.3981 27.2004L66.0801 13.3144L71.2011 8.73242" fill="#7D451B"/>
<path d="M79.9122 26.0879C80.4052 28.9189 77.8682 32.4959 75.6622 32.8799C73.4562 33.2639 70.9952 32.3889 71.9942 29.1089C72.8312 26.3599 72.8902 23.6719 75.0972 23.2879C77.3032 22.9029 79.4192 23.2569 79.9122 26.0879Z" fill="#F7BA9C"/>
<path d="M54.6602 32.9888C54.6602 32.9888 55.7202 36.5088 56.1002 40.7288C58.2802 44.3288 61.3302 46.5688 64.7102 46.5688C67.8202 46.5688 70.6502 44.6688 72.7802 41.5588C72.9002 39.5188 73.2202 37.1088 73.7902 34.2388C54.9202 33.1088 54.6602 32.9888 54.6602 32.9888Z" fill="#F7BA9C"/>
<path d="M53.2061 26.0716C53.2061 36.7026 58.5791 45.3216 65.2061 45.3216C71.8331 45.3216 77.2061 36.7026 77.2061 26.0716C77.2061 15.4406 77.0621 6.67562 65.2061 6.82162C53.6071 6.96462 53.2061 15.4406 53.2061 26.0716Z" fill="#FFC7A8"/>
<path d="M57.6688 26.6335C57.7418 27.4715 58.2828 28.1095 58.8788 28.0575C59.4748 28.0055 59.8988 27.2845 59.8258 26.4465C59.7528 25.6085 59.2118 24.9705 58.6168 25.0225C58.0198 25.0745 57.5958 25.7955 57.6688 26.6335Z" fill="#382F2C"/>
<path d="M72.836 26.4255C72.763 27.2635 72.222 27.9015 71.627 27.8495C71.032 27.7975 70.607 27.0765 70.68 26.2385C70.753 25.4005 71.294 24.7625 71.889 24.8145C72.484 24.8665 72.909 25.5875 72.836 26.4255Z" fill="#382F2C"/>
<path d="M61.6381 22.7076C61.6381 22.7076 56.8651 21.3206 54.0391 23.3406" stroke="#673719" stroke-miterlimit="10" stroke-linecap="round"/>
<path d="M76.0398 23.4845C76.0398 23.4845 73.1198 20.3065 68.5078 22.3985" stroke="#673719" stroke-miterlimit="10" stroke-linecap="round"/>
<path d="M65.4009 26.251C65.4009 26.251 65.4549 30.387 67.1739 32.287C67.1739 32.287 66.4829 32.845 65.2969 33.553" stroke="#E2906D" stroke-width="0.653" stroke-miterlimit="10" stroke-linecap="round" stroke-linejoin="round"/>
<path d="M60.7521 31.9604C60.6951 32.7224 59.6591 33.2664 58.4391 33.1744C57.2191 33.0824 56.2761 32.3904 56.3341 31.6284C56.3911 30.8664 57.4271 30.3224 58.6471 30.4144C59.8661 30.5064 60.8091 31.1984 60.7521 31.9604Z" fill="#F4BDA2"/>
<path d="M70.1249 31.9546C70.1799 32.6856 71.1729 33.2076 72.3429 33.1196C73.5129 33.0316 74.4169 32.3676 74.3619 31.6366C74.3069 30.9056 73.3139 30.3836 72.1439 30.4716C70.9739 30.5586 70.0699 31.2226 70.1249 31.9546Z" fill="#F4BDA2"/>
<path d="M77.9399 9.84682C73.6459 0.283816 55.8709 1.25782 53.8969 8.14982C48.6749 8.43682 45.6409 17.9608 53.5989 25.0028C52.8929 18.6658 54.1839 15.3308 54.1839 15.3308C54.1839 15.3308 54.6919 16.4778 55.2679 17.3738C55.1449 16.5078 56.1799 14.2308 57.0249 14.5918C57.6709 14.8678 58.7499 16.3918 58.3719 16.5378C59.1979 16.2268 60.7989 15.2768 61.3209 14.4948C62.0999 16.1368 63.3169 17.5828 66.4279 17.6178C66.0069 17.3888 65.3929 14.7678 65.3929 14.7678C65.4029 15.4028 68.2489 18.1068 68.8869 17.0558C68.1709 16.1808 67.4569 15.3068 67.5239 14.5608C67.5239 14.5608 70.0379 17.6828 72.8199 17.5368C72.8199 17.5368 70.8379 15.3478 71.3199 14.1688C70.8299 15.9988 75.8349 18.5558 77.8679 17.2638C76.6049 16.9818 75.3589 15.5538 75.5389 14.7608C76.7539 16.4758 81.5699 16.5328 82.8669 15.0838C81.4549 14.9178 79.8379 14.0738 77.9399 9.84682Z" fill="#F4BDA2"/>
<path d="M80.7891 8.49772C75.9741 -2.22328 56.0481 -1.13228 53.8341 6.59572C47.9791 6.91772 44.5781 17.5947 53.5001 25.4897C52.7081 18.3857 54.1561 14.6457 54.1561 14.6457C54.1561 14.6457 54.7251 15.9317 55.3711 16.9357C55.2331 15.9647 56.3931 13.4117 57.3411 13.8167C58.0651 14.1257 59.2751 15.8347 58.8511 15.9987C59.7771 15.6507 61.5711 14.5847 62.1581 13.7077C63.0311 15.5487 64.3961 17.1697 67.8831 17.2097C67.4121 16.9527 66.7231 14.0147 66.7231 14.0147C66.7341 14.7267 69.9251 17.7577 70.6401 16.5797C69.8371 15.5987 69.0371 14.6187 69.1121 13.7827C69.1121 13.7827 71.9311 17.2837 75.0491 17.1197C75.0491 17.1197 72.8271 14.6657 73.3681 13.3437C72.8191 15.3957 78.4301 18.2627 80.7091 16.8127C79.2931 16.4967 77.8961 14.8957 78.0981 14.0067C79.4601 15.9297 84.8601 15.9927 86.3131 14.3697C84.7301 14.1827 82.9171 13.2357 80.7891 8.49772Z" fill="#7D451B"/>
<path d="M53.8479 7.14759C52.7199 5.31759 51.0989 3.80059 49.0879 3.28959C48.9919 3.26559 48.8999 3.42258 49.0039 3.47658C50.7949 4.41858 52.392 5.57958 53.578 7.34858C53.685 7.50958 53.9509 7.31459 53.8479 7.14759Z" fill="#7D451B"/>
<path d="M53.9062 7.10261C54.0912 5.42661 53.8782 3.63561 52.8422 2.29261C52.7332 2.15161 52.5332 2.27661 52.6082 2.44261C53.2792 3.93861 53.7832 5.41561 53.6372 7.10861C53.6222 7.28961 53.8872 7.27761 53.9062 7.10261Z" fill="#7D451B"/>
<path d="M63.6022 2.84377C66.4362 2.17977 69.3342 3.00676 71.9152 4.28276C73.2372 4.93576 74.5342 5.71577 75.7502 6.57277C76.6402 7.20077 77.4632 7.97476 77.6652 9.14476C77.6692 9.16676 77.6372 9.17677 77.6332 9.15377C77.3892 7.77377 76.1642 7.08877 75.1122 6.46677C73.9312 5.76877 72.7342 5.10777 71.4902 4.54377C68.9992 3.41377 66.3532 2.87377 63.6532 3.25177C63.4362 3.28377 63.3892 2.89377 63.6022 2.84377Z" fill="#703A12"/>
<path d="M63.3542 4.97295C66.2192 4.83795 68.8932 5.76095 71.2462 7.49395C71.2972 7.53095 71.2512 7.61895 71.1972 7.58295C68.8582 6.03895 66.0952 5.29195 63.3542 5.27495C63.1712 5.27495 63.1722 4.98195 63.3542 4.97295Z" fill="#703A12"/>
<path d="M60.686 6.84944C62.767 7.31844 64.68 8.17144 66.496 9.35044C66.532 9.37444 66.5 9.43345 66.463 9.41145C64.632 8.35145 62.655 7.58344 60.632 7.06144C60.503 7.02844 60.557 6.82044 60.686 6.84944Z" fill="#703A12"/>
<path d="M65.4152 35.4695C64.0682 35.4425 62.8342 35.2765 61.8572 35.0225C61.8082 35.2455 61.7762 35.4745 61.7712 35.7115C61.7312 37.7205 63.3922 39.3835 65.4812 39.4255C67.5712 39.4675 69.2972 37.8735 69.3382 35.8635C69.3432 35.6025 69.3172 35.3475 69.2672 35.1005C68.2402 35.3575 66.8932 35.4995 65.4152 35.4695Z" fill="white"/>
<path d="M59.2699 332.189C59.0599 332.699 58.7099 333.129 58.3499 333.529C57.3899 334.609 56.2599 335.559 54.9399 336.139C54.7699 336.209 54.6099 336.279 54.4399 336.339C51.6599 337.299 48.5299 336.579 45.7299 335.589C45.0199 335.339 44.2799 335.059 43.7499 334.519C41.6999 332.469 41.6499 327.869 41.2299 325.209C40.6399 321.429 40.0399 317.649 39.4499 313.869C39.0499 311.319 38.6499 308.709 39.1699 306.189C39.5499 304.319 41.0899 301.249 42.5799 299.989C44.2199 298.599 45.6599 299.259 47.5699 298.749C48.8399 298.419 50.1799 298.779 51.4699 299.319C52.3299 299.669 53.1599 300.099 53.9499 300.459C54.4599 300.689 54.9699 300.959 55.3199 301.389C58.0299 304.639 56.2699 308.919 56.7799 312.529C57.0999 314.769 57.0699 317.139 57.7199 319.319C58.7499 322.789 59.3499 326.389 59.4999 330.009C59.5399 330.739 59.5399 331.499 59.2699 332.189Z" fill="#F6F6FF"/>
<path opacity="0.25" d="M54.4369 336.421C54.1259 336.352 53.5299 336.586 53.2019 336.626C52.7279 336.683 52.2519 336.717 51.7749 336.728C50.8209 336.749 49.8639 336.678 48.9239 336.517C47.9829 336.356 47.0579 336.105 46.1649 335.766C45.3829 335.469 44.3449 335.125 43.7499 334.519C41.6999 332.469 41.6499 327.869 41.2299 325.209C40.6399 321.429 40.0399 317.649 39.4499 313.869C39.0499 311.319 38.6499 308.709 39.1699 306.189C39.5499 304.319 41.0899 301.249 42.5799 299.989C44.2199 298.599 45.6599 299.259 47.5699 298.749C48.8399 298.419 50.1799 298.779 51.4699 299.319L42.9379 304.614C42.4409 305.095 42.0549 307.675 42.1259 308.364C42.5629 312.606 43.0669 316.842 43.5819 321.076C43.8359 323.165 44.0959 325.252 44.3699 327.338C44.4719 328.114 44.5759 328.89 44.6869 329.664C45.0999 332.549 47.4319 333.784 49.8089 334.903C51.2779 335.595 52.8399 336.063 54.4369 336.421Z" fill="#E2E2F2"/>
<path d="M46.797 317.094C46.797 317.094 53.181 316.158 54.441 317.984C55.255 319.164 52.56 317.573 49.507 317.985C46.454 318.397 45.096 317.777 46.797 317.094Z" fill="#E2E2F2"/>
<path d="M46.9479 319.952C46.9479 319.952 53.3319 319.016 54.5909 320.842C55.4049 322.022 52.7099 320.431 49.6569 320.843C46.6049 321.255 45.2469 320.635 46.9479 319.952Z" fill="#E2E2F2"/>
<path d="M47.0988 322.809C47.0988 322.809 53.4828 321.873 54.7418 323.699C55.5558 324.879 52.8608 323.288 49.8078 323.7C46.7558 324.112 45.3978 323.492 47.0988 322.809Z" fill="#E2E2F2"/>
<path d="M55.06 294.769C54.95 296.289 54.92 297.699 54.92 298.949C49.42 299.759 45.4 298.599 42.96 297.459C42.98 296.859 42.98 296.229 42.99 295.559L55.06 294.769Z" fill="#FCB595"/>
<path fill-rule="evenodd" clip-rule="evenodd" d="M54.9198 298.949C54.9398 302.399 55.2598 304.689 55.2298 304.849C55.0998 305.629 50.6998 307.809 43.7398 306.119C43.7398 306.119 42.7598 305.809 42.8898 303.339C42.9098 302.919 42.9298 300.749 42.9598 297.459C45.3998 298.599 49.4198 299.759 54.9198 298.949Z" fill="#FFC3A4"/>
<path fill-rule="evenodd" clip-rule="evenodd" d="M54.6959 307.826C54.5319 307.016 54.9529 306.172 54.7839 305.363C54.5579 304.278 53.4079 303.691 52.3889 303.255C51.3859 302.827 50.3169 302.389 49.2399 302.555C48.8089 302.621 48.3989 302.783 47.9939 302.945C47.0699 303.315 46.1099 303.722 45.4779 304.491C44.5929 305.566 44.5499 307.082 44.5479 308.474" fill="#F6F6FF"/>
<path d="M141.696 60.4577C141.51 59.2197 143.097 56.2398 143.914 54.1868C139.802 51.6738 131.768 47.9688 131.768 47.9688C131.768 47.9688 134.734 57.0958 133.852 59.0798C133.223 60.4968 141.882 61.6957 141.696 60.4577Z" fill="#FFC7A8"/>
<path d="M141.908 56.3756C140.414 57.0716 134.556 56.2636 132.891 51.1256C131.349 46.3656 130.106 45.5406 129.452 41.9306C128.886 38.8046 130.758 40.8056 132.481 42.7166C134.203 44.6276 134.425 45.7956 135.726 43.8956C137.027 41.9956 138.799 32.4336 140.57 30.5956C142.341 28.7566 140.107 40.9176 140.107 40.9176C140.107 40.9176 143.682 31.0116 145.145 30.9056C146.897 30.7786 143.68 41.5766 143.68 41.5766C143.68 41.5766 147.92 33.5996 148.567 33.8496C149.823 34.3346 146.851 42.9436 146.851 42.9436C146.851 42.9436 150.05 37.6026 150.711 38.5066C151.371 39.4096 147.627 51.1256 141.908 56.3756Z" fill="#FFC7A8"/>
<path d="M146.004 45.5797C145.997 45.5687 145.988 45.5577 145.979 45.5467C145.828 45.3647 142.216 41.1147 137.293 42.3637C137.11 42.4097 136.999 42.5967 137.045 42.7797C137.092 42.9627 137.278 43.0737 137.461 43.0277C141.961 41.8867 145.42 45.9447 145.454 45.9857C145.575 46.1307 145.791 46.1497 145.936 46.0287C146.07 45.9157 146.097 45.7227 146.004 45.5797Z" fill="#F2B699"/>
<path d="M142.23 57.7383L135.34 92.2683C134.37 97.1183 131.9 101.588 128.14 104.818C127.74 105.158 127.35 105.468 126.98 105.738C124.33 105.688 121.04 104.808 118.05 103.758C115 102.688 112.26 101.448 110.81 100.768C110.12 100.438 109.73 100.238 109.73 100.238L111.22 97.1683L115.77 87.7983L118.35 82.4883L123.6 86.3683L133.81 59.1583L142.23 57.7383Z" fill="#FFC7A8"/>
<path fill-rule="evenodd" clip-rule="evenodd" d="M55.0602 294.769L42.9902 295.559C43.0202 293.709 43.0402 291.609 43.0802 289.339L55.4602 290.909C55.2702 292.249 55.1402 293.549 55.0602 294.769Z" fill="#FFC3A4"/>
<path fill-rule="evenodd" clip-rule="evenodd" d="M85.2303 301.369C85.2103 301.499 85.1902 301.629 85.1802 301.749C84.9902 303.079 84.8502 304.359 84.7402 305.559C84.2202 311.049 84.3502 314.959 84.3202 315.179C84.1902 315.959 79.7802 318.139 72.8202 316.449C72.8202 316.449 71.8503 316.139 71.9803 313.679C72.0003 313.129 72.0302 309.529 72.0902 304.359V304.279C72.1102 302.859 72.1303 301.309 72.1603 299.679L80.5103 300.759L83.9502 301.199L85.2303 301.369Z" fill="#FFC3A4"/>
<path d="M85.18 301.749C84.99 303.079 84.85 304.359 84.74 305.559C78.41 307.039 72.87 304.709 72.09 304.359C72.03 304.339 72 304.319 72 304.319L72.09 304.279L80.51 300.759L83.95 301.199L85.17 301.739C85.17 301.739 85.17 301.739 85.18 301.749Z" fill="#FCB595"/>
<path d="M102.12 334.869C99.95 337.269 93.16 339.269 85.98 335.419C78.86 331.609 70.21 326.669 69.03 325.069C67.98 323.659 70.46 318.849 71.05 317.079C71.13 316.839 71.18 316.659 71.18 316.539C71.17 315.569 71.43 314.469 72.6 314.459C72.6 314.459 79.19 317.049 85.42 315.339C85.42 315.339 85.61 315.199 86.35 315.779C88.07 317.139 90.82 323.359 93.79 324.979C96.75 326.599 102.08 330.189 102.79 332.999C102.94 333.589 102.69 334.239 102.12 334.869Z" fill="#F6F6FF"/>
<path d="M83.7022 323.504C83.7022 323.504 87.8312 319.776 89.6092 320.482C90.7582 320.938 88.0642 321.088 86.0722 322.846C84.0802 324.603 82.8092 324.809 83.7022 323.504Z" fill="#E2E2F2"/>
<path d="M85.1789 325.481C85.1789 325.481 89.3079 321.753 91.0849 322.459C92.2339 322.915 89.5399 323.065 87.5479 324.822C85.5559 326.58 84.2859 326.786 85.1789 325.481Z" fill="#E2E2F2"/>
<path d="M86.6548 327.457C86.6548 327.457 90.7838 323.729 92.5618 324.435C93.7108 324.891 91.0168 325.041 89.0248 326.798C87.0328 328.556 85.7618 328.762 86.6548 327.457Z" fill="#E2E2F2"/>
<path fill-rule="evenodd" clip-rule="evenodd" d="M86.259 316.514C86.095 315.704 86.516 314.86 86.347 314.051C86.121 312.966 84.971 312.379 83.952 311.943C82.949 311.515 81.88 311.077 80.803 311.243C80.372 311.309 79.962 311.471 79.557 311.633C78.633 312.003 78.383 312.304 77.751 313.073C76.866 314.148 77.253 315.764 77.251 317.156" fill="#F6F6FF"/>
<path opacity="0.25" d="M102.12 334.869C99.95 337.269 93.16 339.269 85.98 335.419C78.86 331.609 70.21 326.669 69.03 325.069C67.98 323.659 70.46 318.849 71.05 317.079C70.167 324.739 91.292 339.698 102.12 334.869Z" fill="#E2E2F2"/>
<path fill-rule="evenodd" clip-rule="evenodd" d="M94.8599 214.899C94.8599 215.109 94.8599 215.309 94.8499 215.509C94.7599 222.829 94.5799 230.139 94.5399 237.459V238.489C94.5399 242.429 92.1399 261.719 91.4799 265.799C91.0699 268.359 88.3999 286.829 86.4499 300.439C85.8499 304.549 82.3999 303.729 78.7899 303.609C75.2999 303.499 71.6299 304.209 71.6899 300.739C72.0099 281.829 72.5299 248.419 72.6199 245.959C72.7499 242.589 65.2599 179.829 64.4799 178.709C63.7599 177.689 57.6999 269.289 56.7099 293.989C56.7099 294.099 56.6999 294.209 56.6999 294.319H41.1299C41.1299 294.299 41.1299 294.269 41.1199 294.239C41.0699 293.729 41.0199 293.209 40.9599 292.669C40.9499 292.569 40.9399 292.469 40.9299 292.359C40.8899 291.929 40.8399 291.479 40.7999 291.019C40.7799 290.879 40.7699 290.739 40.7499 290.589C40.6999 290.059 40.6399 289.509 40.5899 288.959C40.5699 288.779 40.5499 288.599 40.5299 288.419C40.4899 288.019 40.4499 287.609 40.4099 287.199C40.3999 287.049 40.3799 286.899 40.3699 286.749C40.3099 286.139 40.2399 285.519 40.1799 284.889C40.1799 284.849 40.1699 284.809 40.1699 284.769C40.1199 284.279 40.0699 283.779 40.0199 283.269C39.9899 282.989 39.9599 282.699 39.9299 282.409C39.8899 281.949 39.8399 281.479 39.7999 281.019C39.7699 280.809 39.7499 280.609 39.7299 280.399C39.6799 279.849 39.6199 279.289 39.5699 278.719C39.5499 278.589 39.5399 278.459 39.5299 278.329C39.4799 277.819 39.4299 277.309 39.3799 276.789C39.3499 276.479 39.3099 276.159 39.2799 275.849C39.2399 275.399 39.1899 274.949 39.1499 274.499C39.1299 274.339 39.1199 274.179 39.0999 274.029C39.0499 273.439 38.9899 272.849 38.9299 272.259C38.9099 272.029 38.8899 271.809 38.8599 271.589C38.8199 271.139 38.7799 270.689 38.7299 270.239C38.7099 269.999 38.6799 269.759 38.6599 269.519C38.6199 269.089 38.5799 268.659 38.5399 268.229C38.4899 267.739 38.4399 267.239 38.3899 266.749C38.3599 266.439 38.3299 266.139 38.2999 265.829C38.2799 265.639 38.2599 265.439 38.2399 265.249C38.1899 264.689 38.1399 264.129 38.0799 263.579C38.0699 263.489 38.0599 263.399 38.0599 263.309C37.9999 262.759 37.9499 262.219 37.8999 261.679C37.8699 261.419 37.8499 261.149 37.8199 260.879C37.7699 260.389 37.7299 259.899 37.6799 259.409C37.6699 259.339 37.6699 259.269 37.6599 259.199C37.5999 258.579 37.5399 257.969 37.4799 257.369C37.4699 257.269 37.4599 257.179 37.4499 257.079C37.4099 256.629 37.3699 256.199 37.3299 255.759C37.3099 255.549 37.2899 255.339 37.2699 255.139C37.2199 254.639 37.1699 254.159 37.1299 253.679C37.1099 253.519 37.0999 253.359 37.0799 253.209C37.0499 252.819 37.0099 252.439 36.9799 252.059C36.9599 251.879 36.9399 251.689 36.9199 251.499C36.8799 251.059 36.8399 250.619 36.7999 250.189C36.7899 250.049 36.7699 249.919 36.7599 249.779C36.7299 249.419 36.6899 249.059 36.6599 248.709C36.6499 248.569 36.6299 248.429 36.6199 248.289C36.5799 247.869 36.5399 247.449 36.5099 247.049C36.4999 246.969 36.4899 246.889 36.4799 246.809C36.4499 246.469 36.4199 246.129 36.3899 245.809C36.3799 245.699 36.3699 245.599 36.3599 245.489C36.3299 245.119 36.2999 244.769 36.2699 244.429C36.2599 244.349 36.2499 244.279 36.2499 244.199C36.2199 243.939 36.1999 243.689 36.1799 243.449C36.1699 243.349 36.1599 243.249 36.1499 243.149C36.1299 242.849 36.0999 242.569 36.0799 242.309C36.0799 242.279 36.0699 242.259 36.0699 242.229C36.0499 241.989 36.0299 241.779 36.0199 241.569C36.0099 241.509 36.0099 241.449 35.9999 241.399C35.9899 241.179 35.9699 240.979 35.9599 240.809C35.9499 240.799 35.9499 240.789 35.9499 240.769C35.9399 240.619 35.9299 240.479 35.9199 240.359V240.269C35.9099 240.149 35.8999 240.049 35.8999 239.979C35.8899 239.709 35.8599 239.029 35.8199 238.019V237.929C35.7999 237.449 35.7799 236.879 35.7599 236.249C35.7499 236.239 35.7499 236.219 35.7499 236.209C35.7399 235.899 35.7299 235.579 35.7199 235.239C35.7099 235.129 35.7099 235.009 35.6999 234.899C35.6899 234.629 35.6799 234.349 35.6699 234.059V233.929C35.6599 233.609 35.6399 233.289 35.6299 232.959C35.6299 232.819 35.6199 232.679 35.6199 232.539C35.5899 231.749 35.5599 230.919 35.5199 230.039C35.5199 229.909 35.5099 229.779 35.5099 229.639C35.4599 228.199 35.3999 226.639 35.3399 224.979V224.769C35.3199 224.289 35.2999 223.799 35.2899 223.309C35.2799 223.199 35.2799 223.089 35.2699 222.979C35.2499 222.409 35.2399 221.829 35.2199 221.239C35.1699 220.029 35.1299 218.789 35.0899 217.519C35.0899 217.409 35.0899 217.299 35.0799 217.189C35.0399 215.929 34.9999 214.649 34.9599 213.339C34.9599 213.239 34.9499 213.139 34.9499 213.049C34.9299 212.439 34.9099 211.839 34.8899 211.229V211.069C34.8699 210.419 34.8499 209.779 34.8299 209.119V208.959C34.7899 207.599 34.7499 206.219 34.7099 204.829C34.7099 204.699 34.6999 204.559 34.6999 204.429C34.6799 203.839 34.6699 203.249 34.6499 202.649C34.6499 202.569 34.6399 202.479 34.6399 202.389C34.6099 200.989 34.5699 199.599 34.5299 198.199V197.819C34.5099 197.219 34.4999 196.629 34.4799 196.029V195.739C34.4399 194.349 34.4099 192.959 34.3799 191.579V191.229C34.3699 190.669 34.3499 190.109 34.3399 189.559V189.109C34.3199 188.479 34.3099 187.849 34.2999 187.229V187.149C32.7799 170.179 31.7799 161.699 32.8799 150.239C33.1199 147.779 33.9999 144.069 35.0299 140.399C35.6199 138.299 36.2599 136.209 36.8399 134.369C37.3199 132.839 37.7699 131.489 38.1299 130.449C38.4999 129.349 38.7799 128.609 38.8799 128.369C41.6199 128.369 93.6599 127.619 93.6599 127.619C93.7499 129.859 93.8399 132.099 93.9199 134.339V134.429C94.1799 140.949 94.3899 147.469 94.5799 153.999C95.1399 174.189 95.1199 194.619 94.8599 214.899Z" fill="#967D63"/>
<path d="M43.7902 291.238C43.7902 291.238 40.2902 249.488 39.7902 234.738C39.2902 219.988 36.5402 157.988 38.2902 146.738C40.0402 135.488 39.9572 136.821 39.9572 136.821" stroke="#B2967D" stroke-miterlimit="10"/>
<path d="M70.2711 300.108C70.2711 300.108 70.2711 303.199 71.5071 304.229C72.7431 305.259 86.7201 305.378 87.6471 304.451C88.2981 303.8 88.4431 301.315 88.4711 299.893C88.4821 299.332 88.0391 298.876 87.4781 298.874C83.4691 298.857 71.3201 298.578 70.7861 298.667C70.1681 298.769 70.2711 300.108 70.2711 300.108Z" fill="#7C6550"/>
<path d="M39.6881 292.692C39.6881 292.692 39.6881 295.783 40.9241 296.813C42.1601 297.843 56.1371 297.962 57.0641 297.034C57.7151 296.383 57.8601 293.898 57.8881 292.476C57.8991 291.915 57.4561 291.459 56.8951 291.457C52.8861 291.44 40.7371 291.161 40.2031 291.25C39.5851 291.353 39.6881 292.692 39.6881 292.692Z" fill="#7C6550"/>
<path opacity="0.25" d="M93.92 134.339C82.43 139.909 47.678 139.629 34.688 139.739C35.288 133.459 35.221 134.834 35.751 133.614C38.5 133.614 93.84 132.099 93.92 134.339Z" fill="#967D63"/>
<path d="M51.087 139.223C51.043 141.685 48.772 145.989 47.093 147.789C45.414 149.59 41.312 152.049 39.063 153.051" stroke="#77604A" stroke-miterlimit="10"/>
<path d="M87.1899 139.682C87.6769 142.901 89.0689 145.979 91.1649 148.471" stroke="#77604A" stroke-miterlimit="10"/>
<path d="M74.04 298.738C74.04 298.738 77.04 246.988 77.04 243.988C77.04 240.988 66.54 170.238 66.54 170.238" stroke="#B2967D" stroke-miterlimit="10"/>
<path d="M64.3311 178.656C64.3311 178.656 64.3311 175.531 65.5811 172.406C66.8311 169.281 68.7061 163.781 68.7061 163.781" stroke="#77604A" stroke-miterlimit="10"/>
<path d="M72.7639 142.615C72.5189 147.116 72.2739 151.618 72.0289 156.119C71.9519 157.537 71.8689 158.987 71.4609 160.291C70.8429 162.267 69.8979 162.726 68.6709 164.026C69.0089 157.165 69.3469 150.305 69.6849 143.444" stroke="#77604A" stroke-miterlimit="10" stroke-linecap="round" stroke-linejoin="round"/>
<path d="M123.33 86.3184C123.33 86.3184 120.52 98.5084 118.05 103.758C115 102.688 112.26 101.448 110.81 100.768C110.72 100.588 110.67 100.488 110.67 100.488L111.22 97.1684L112.67 88.4084L115.77 87.7984L123.33 86.3184Z" fill="#EFAF8F"/>
<path d="M125.35 81.7987C125.35 81.7987 116.71 102.989 113.87 105.159C110.71 105.319 99.0401 96.3187 99.0401 96.3187L98.0401 126.989C98.0401 126.989 98.2101 129.319 94.3701 134.319C94.2301 134.359 94.0801 134.389 93.9201 134.429C86.9401 135.869 54.1001 134.949 40.9801 134.509C39.2001 134.449 37.7801 134.399 36.8401 134.369C36.0001 134.339 35.5401 134.319 35.5401 134.319L35.2101 126.219L34.7101 113.819C34.7101 113.819 31.8601 113.939 26.9901 113.359C26.6801 113.319 26.3701 113.279 26.0401 113.239V113.279C26.0401 113.279 24.6401 113.159 22.2001 112.649C20.3201 112.309 15.9901 111.089 15.9601 110.969C14.4701 110.499 12.9301 109.919 11.2701 109.229C10.2501 108.799 9.18014 108.329 8.04014 107.819C6.48014 93.8287 32.1001 61.5187 32.1001 61.5187L32.0901 61.6287C32.1401 61.5387 32.1601 61.4887 32.1601 61.4887C32.1601 61.4887 44.0401 55.9887 50.5401 54.4887C66.0401 61.1587 80.2101 53.1587 80.2101 53.1587C104.29 57.9887 125.35 81.7987 125.35 81.7987Z" fill="#2B2B2B"/>
<path opacity="0.1" d="M98.915 95.8638L99.165 63.4888" stroke="#2C3559" stroke-miterlimit="10"/>
<path opacity="0.1" d="M34.54 112.989L34.706 68.8218" stroke="#2C3559" stroke-miterlimit="10"/>
<path opacity="0.25" d="M50.8128 140.989C50.6828 142.989 37.2298 142.429 37.2298 142.429L35.0298 140.399C35.6198 138.299 36.2598 136.209 36.8398 134.369C35.9998 134.339 35.5398 134.319 35.5398 134.319L35.2098 126.219C36.2198 127.689 37.2198 129.129 38.1298 130.449C39.2398 132.049 40.2298 133.459 40.9798 134.509C41.4698 135.199 41.8598 135.729 42.0998 136.049C45.7298 136.549 49.0828 138.427 50.8128 140.989Z" fill="#967D63"/>
<path d="M12.3331 100.656C12.3331 100.656 7.95813 112.614 7.58313 113.989C7.20813 115.364 8.70813 118.489 8.70813 118.489L35.0391 142.864C35.0391 142.864 40.2891 149.989 42.6641 151.489C45.1641 150.114 50.6641 142.989 50.7891 140.989C48.0391 138.989 43.5391 136.989 39.9141 136.489C37.7891 133.739 24.6241 114.364 24.6241 114.364L26.0391 109.739L16.0001 96.8218L12.3331 100.656Z" fill="#FFC7A8"/>
<path d="M25.792 110.362L24.552 114.422C24.242 114.382 23.932 114.342 23.602 114.302V114.342C23.602 114.342 22.202 114.222 19.762 113.712C17.882 113.372 13.552 112.152 13.522 112.032C12.032 111.562 10.492 110.982 8.83203 110.292C10.222 106.372 12.082 101.282 12.082 101.282L15.752 97.4517" fill="#EFAF8F"/>
<path d="M34.706 113.822C34.706 113.822 31.488 113.962 26.044 113.243L26.04 113.281C26.04 113.281 24.639 113.16 22.204 112.646C20.317 112.308 15.989 111.088 15.96 110.975C13.554 110.207 9.745 108.583 6.75 107.24C12.125 80.4897 32.102 61.5207 32.102 61.5207L32.09 61.6257C32.136 61.5417 32.165 61.4897 32.165 61.4897" fill="#2B2B2B"/>
<path d="M10.188 100.614C10.188 100.614 19.376 107.302 33.001 106.302" stroke="#B7B7B7" stroke-width="0.5" stroke-miterlimit="10"/>
<path d="M119.667 79.4058C119.667 79.4058 114.084 96.4058 109.25 100.239" stroke="#B7B7B7" stroke-width="0.5" stroke-miterlimit="10"/>
<path d="M7.93799 106.364L14.625 104.802L17.875 110.239L23.938 107.427L28.5 112.427L34.125 107.927" stroke="#B7B7B7" stroke-width="0.5" stroke-miterlimit="10"/>
<path d="M113.438 103.864L112.938 98.4268L117.375 97.2388L116.063 92.1768L120.438 90.1138L118.813 84.4268L124 82.1138" stroke="#B7B7B7" stroke-width="0.5" stroke-miterlimit="10"/>
<path d="M49.5 56.2388C49.5 56.2388 65 65.4888 80.625 54.7388" stroke="#B7B7B7" stroke-width="0.5" stroke-miterlimit="10"/>
</svg>
