<svg width="206" height="200" viewBox="0 0 206 200" fill="none" xmlns="http://www.w3.org/2000/svg">
<path d="M104.05 186.602C140.131 186.602 169.381 157.353 169.381 121.271C169.381 85.1901 140.131 55.9404 104.05 55.9404C67.9684 55.9404 38.7188 85.1901 38.7188 121.271C38.7188 157.353 67.9684 186.602 104.05 186.602Z" fill="#00A580"/>
<path d="M41.3661 20.4495C34.2821 26.5325 25.6201 35.7875 17.1071 46.0395C16.9811 46.1915 16.9121 46.3845 16.9141 46.5815C16.9221 47.3615 17.9001 47.7025 18.3941 47.1005C38.6351 22.4195 54.7771 9.58049 66.0491 9.16649C66.4701 9.15049 66.8381 8.8385 66.8651 8.4175C66.8961 7.9365 66.5071 7.54551 66.0381 7.56151C59.3631 7.78851 51.0621 12.1245 41.3661 20.4495Z" fill="#00A580"/>
<path d="M50.6282 13.7485C50.6282 13.7485 45.7531 9.14953 54.1741 0.894531C54.1741 0.894531 59.6392 10.0495 50.6282 13.7485Z" fill="#00CCA1"/>
<path d="M46.0664 17.7794C46.0664 17.7794 50.3874 12.6554 59.0984 20.6044C59.0984 20.6044 50.2604 26.5714 46.0664 17.7794Z" fill="#00CCA1"/>
<path d="M61.123 9.24947C61.123 9.24947 63.488 2.97846 74.351 7.56746C74.351 7.56746 68.008 16.1405 61.123 9.24947Z" fill="#00CCA1"/>
<path d="M36.6397 25.6075C36.6397 25.6075 30.4967 22.9285 35.6277 12.3115C35.6277 12.3115 43.8697 19.0785 36.6397 25.6075Z" fill="#00CCA1"/>
<path d="M32.6143 30.4187C32.6143 30.4187 35.9833 24.6247 45.9383 30.9467C45.9383 30.9467 38.2663 38.3527 32.6143 30.4187Z" fill="#00CCA1"/>
<path d="M26.4499 36.4576C26.4499 36.4576 20.2569 33.8956 25.1869 23.1836C25.1869 23.1836 33.5539 29.7926 26.4499 36.4576Z" fill="#00CCA1"/>
<path d="M182.873 120.673C184.345 129.894 184.97 142.554 184.837 155.879C184.835 156.077 184.763 156.268 184.633 156.417C184.123 157.007 183.156 156.635 183.169 155.856C183.683 123.941 179.669 103.71 171.336 96.1075C171.025 95.8235 170.946 95.3465 171.197 95.0085C171.484 94.6215 172.034 94.5755 172.381 94.8905C177.329 99.3795 180.858 108.053 182.873 120.673Z" fill="#00A580"/>
<path d="M180.138 109.574C180.138 109.574 186.831 109.217 185.744 97.4746C185.744 97.4746 175.654 100.926 180.138 109.574Z" fill="#00CCA1"/>
<path d="M181.013 115.599C181.013 115.599 181.029 108.897 169.245 109.329C169.245 109.329 172.129 119.595 181.013 115.599Z" fill="#00CCA1"/>
<path d="M175.04 99.3575C175.04 99.3575 177.29 93.0445 166.035 89.5225C166.035 89.5225 165.333 100.162 175.04 99.3575Z" fill="#00CCA1"/>
<path d="M183.144 127.665C183.144 127.665 189.563 129.592 192.512 118.174C192.512 118.174 181.85 118.01 183.144 127.665Z" fill="#00CCA1"/>
<path d="M183.105 133.937C183.105 133.937 184.28 127.339 172.598 125.726C172.598 125.726 173.664 136.337 183.105 133.937Z" fill="#00CCA1"/>
<path d="M183.905 142.531C183.905 142.531 190.286 144.58 193.451 133.22C193.451 133.22 182.793 132.854 183.905 142.531Z" fill="#00CCA1"/>
<path d="M168.164 61.5764C168.164 61.5764 164.266 42.5054 170.944 42.3274C177.623 42.1504 168.164 61.5764 168.164 61.5764Z" fill="#00CCA1"/>
<path d="M166.737 69.5165C166.529 69.4305 166.398 69.2095 166.435 68.9775L169.192 51.3985C169.235 51.1255 169.491 50.9395 169.763 50.9815C170.036 51.0235 170.222 51.2805 170.18 51.5525L167.423 69.1315C167.38 69.4045 167.124 69.5905 166.851 69.5475C166.811 69.5425 166.773 69.5315 166.737 69.5165Z" fill="#00A580"/>
<path d="M168.678 60.7146C168.678 60.7146 177.885 43.5646 183.131 47.7016C188.377 51.8386 168.678 60.7146 168.678 60.7146Z" fill="#00CCA1"/>
<path d="M168.113 61.4231C168.044 61.3951 167.98 61.3511 167.928 61.2911C167.746 61.0841 167.767 60.7681 167.975 60.5851L175.981 53.5491C176.189 53.3671 176.504 53.3871 176.687 53.5951C176.869 53.8021 176.849 54.1181 176.641 54.3011L168.634 61.3371C168.485 61.4671 168.283 61.4941 168.113 61.4231Z" fill="#00A580"/>
<path d="M18.8991 122.698C18.8991 122.698 18.0511 103.251 11.5291 104.7C5.00712 106.15 18.8991 122.698 18.8991 122.698Z" fill="#00CCA1"/>
<path d="M22.2097 130.055C22.3907 129.921 22.4637 129.675 22.3727 129.458L15.4317 113.074C15.3237 112.82 15.0307 112.701 14.7767 112.809C14.5217 112.916 14.4037 113.21 14.5117 113.464L21.4527 129.848C21.5607 130.102 21.8537 130.221 22.1077 130.113C22.1447 130.098 22.1787 130.078 22.2097 130.055Z" fill="#00A580"/>
<path d="M18.1915 121.987C18.1915 121.987 5.09652 107.584 1.01152 112.871C-3.07348 118.157 18.1915 121.987 18.1915 121.987Z" fill="#00CCA1"/>
<path d="M18.913 122.538C18.973 122.494 19.024 122.436 19.06 122.365C19.187 122.119 19.09 121.818 18.845 121.692L9.36903 116.81C9.12403 116.684 8.82203 116.78 8.69603 117.026C8.57003 117.271 8.66603 117.573 8.91203 117.699L18.387 122.581C18.561 122.671 18.765 122.647 18.913 122.538Z" fill="#00A580"/>
<path d="M140.84 14.0947C141.774 14.7047 143.026 14.4407 143.635 13.5057C144.244 12.5697 143.981 11.3167 143.047 10.7067C142.113 10.0967 140.861 10.3597 140.252 11.2957C139.642 12.2307 139.906 13.4837 140.84 14.0947Z" fill="#FF6129"/>
<path d="M174.121 174.173C175.055 174.783 176.306 174.519 176.916 173.584C177.525 172.648 177.262 171.395 176.328 170.784C175.394 170.174 174.142 170.437 173.533 171.373C172.923 172.31 173.186 173.563 174.121 174.173Z" fill="#FF6129"/>
<path d="M21.3087 149.322C22.2427 149.932 23.4937 149.669 24.1037 148.733C24.7127 147.797 24.4497 146.544 23.5157 145.933C22.5817 145.323 21.3297 145.586 20.7207 146.522C20.1117 147.458 20.3747 148.712 21.3087 149.322Z" fill="#FF6129"/>
<path d="M89.5978 10.6035C90.5318 11.2135 91.7838 10.9505 92.3928 10.0145C93.0018 9.07849 92.7388 7.82548 91.8048 7.21548C90.8708 6.60548 89.6187 6.86847 89.0097 7.80447C88.4007 8.73947 88.6638 9.99348 89.5978 10.6035Z" fill="#008661"/>
<path d="M31.5113 185.88C32.4453 186.49 33.6973 186.227 34.3063 185.291C34.9153 184.355 34.6523 183.102 33.7183 182.492C32.7843 181.882 31.5333 182.145 30.9233 183.081C30.3133 184.017 30.5773 185.27 31.5113 185.88Z" fill="#008661"/>
<path d="M41.7996 167.649C42.7336 168.259 43.9846 167.996 44.5946 167.06C45.2036 166.124 44.9406 164.871 44.0066 164.26C43.0726 163.65 41.8206 163.913 41.2116 164.849C40.6016 165.785 40.8646 167.039 41.7996 167.649Z" fill="#008661"/>
<path d="M202.673 161.47C203.607 162.08 204.858 161.816 205.468 160.881C206.077 159.945 205.814 158.692 204.88 158.082C203.946 157.472 202.694 157.735 202.085 158.671C201.475 159.607 201.739 160.86 202.673 161.47Z" fill="#008661"/>
<path d="M61.0322 81.9449C61.0322 83.0619 60.1282 83.9679 59.0122 83.9679C57.8972 83.9679 56.9922 83.0619 56.9922 81.9449C56.9922 80.8279 57.8962 79.9219 59.0122 79.9219C60.1282 79.9229 61.0322 80.8279 61.0322 81.9449Z" fill="#FF6129"/>
<path d="M18.9345 78.0288C18.9345 79.1458 18.0305 80.0518 16.9145 80.0518C15.7985 80.0518 14.8945 79.1458 14.8945 78.0288C14.8945 76.9118 15.7985 76.0059 16.9145 76.0059C18.0305 76.0059 18.9345 76.9108 18.9345 78.0288Z" fill="#008661"/>
<path d="M148.832 85.5077C148.926 86.6207 149.902 87.4477 151.013 87.3537C152.124 87.2597 152.95 86.2817 152.857 85.1677C152.763 84.0547 151.786 83.2277 150.675 83.3217C149.563 83.4167 148.738 84.3947 148.832 85.5077Z" fill="#FF6129"/>
<path d="M183.852 77.1356C183.946 78.2486 184.923 79.0756 186.034 78.9816C187.145 78.8876 187.97 77.9096 187.877 76.7956C187.783 75.6826 186.806 74.8557 185.695 74.9497C184.583 75.0437 183.758 76.0226 183.852 77.1356Z" fill="#008661"/>
<path d="M70.6938 64.2074C70.7878 65.3204 71.7648 66.1475 72.8758 66.0535C73.9868 65.9595 74.8118 64.9815 74.7188 63.8675C74.6248 62.7545 73.6478 61.9274 72.5368 62.0214C71.4248 62.1154 70.5998 63.0944 70.6938 64.2074Z" fill="#008661"/>
<path d="M154.512 165.204C154.512 165.204 176.442 124.245 165.612 118.25C154.908 112.325 139.705 162.199 139.705 162.199C139.705 162.199 147.853 168.69 154.512 165.204Z" fill="#E9981A"/>
<path d="M165.203 129.149C165.203 129.149 164.507 126.09 161.924 125.426C158.951 124.662 157.369 126.81 157.369 126.81L165.203 129.149Z" fill="#D27D21"/>
<path d="M162.593 135.664C162.593 135.664 161.897 132.605 159.314 131.941C156.341 131.177 154.759 133.325 154.759 133.325L162.593 135.664Z" fill="#D27D21"/>
<path d="M159.981 142.177C159.981 142.177 159.285 139.118 156.702 138.454C153.728 137.69 152.147 139.838 152.147 139.838L159.981 142.177Z" fill="#D27D21"/>
<path d="M157.371 148.691C157.371 148.691 156.675 145.632 154.092 144.968C151.119 144.204 149.537 146.352 149.537 146.352L157.371 148.691Z" fill="#D27D21"/>
<path d="M154.762 155.206C154.762 155.206 154.066 152.147 151.483 151.483C148.51 150.719 146.928 152.867 146.928 152.867L154.762 155.206Z" fill="#D27D21"/>
<path d="M152.15 161.719C152.15 161.719 151.454 158.66 148.871 157.996C145.897 157.232 144.316 159.38 144.316 159.38L152.15 161.719Z" fill="#D27D21"/>
<path d="M142.455 167.033C142.455 167.033 162.933 125.329 151.898 119.717C140.993 114.172 127.551 164.549 127.551 164.549C127.551 164.549 135.923 170.751 142.455 167.033Z" fill="#E9981A"/>
<path d="M151.871 130.628C151.871 130.628 151.068 127.595 148.463 127.022C145.465 126.362 143.959 128.566 143.959 128.566L151.871 130.628Z" fill="#D27D21"/>
<path d="M149.492 137.228C149.492 137.228 148.689 134.195 146.084 133.622C143.086 132.963 141.58 135.166 141.58 135.166L149.492 137.228Z" fill="#D27D21"/>
<path d="M147.111 143.83C147.111 143.83 146.308 140.797 143.703 140.224C140.705 139.564 139.199 141.768 139.199 141.768L147.111 143.83Z" fill="#D27D21"/>
<path d="M144.731 150.431C144.731 150.431 143.928 147.398 141.323 146.825C138.324 146.166 136.819 148.369 136.819 148.369L144.731 150.431Z" fill="#D27D21"/>
<path d="M142.351 157.034C142.351 157.034 141.548 154.001 138.943 153.428C135.944 152.769 134.439 154.972 134.439 154.972L142.351 157.034Z" fill="#D27D21"/>
<path d="M139.972 163.634C139.972 163.634 139.169 160.601 136.564 160.028C133.566 159.369 132.06 161.572 132.06 161.572L139.972 163.634Z" fill="#D27D21"/>
<path d="M154.404 50.9934C156.107 42.3219 136.489 31.1659 110.584 26.0758C84.6799 20.9857 62.2989 23.889 60.595 32.5605C58.8911 41.2321 78.5095 52.388 104.414 57.4781C130.319 62.5682 152.7 59.6649 154.404 50.9934Z" fill="#FF6129"/>
<path d="M83.1454 108.062C82.9304 108.197 82.3103 108.567 81.5583 109.012C80.1263 109.865 78.2034 110.995 77.7064 111.3C76.0694 112.308 74.1383 113.43 72.0263 114.595C71.8863 114.673 71.7433 114.75 71.6013 114.828C70.4013 115.483 69.1464 116.151 67.8563 116.82C67.3344 117.093 66.8044 117.365 66.2714 117.635C59.4714 121.08 51.9013 124.41 46.1263 125.993C45.5063 126.163 44.9134 126.303 44.3484 126.418C44.3414 126.418 44.3333 126.421 44.3283 126.423C32.2633 128.896 32.1103 119.76 41.8383 112.693C42.4933 112.216 43.2063 111.718 43.9713 111.201C44.1943 111.049 44.4264 110.894 44.6594 110.736C44.8094 110.636 44.9644 110.533 45.1194 110.429C45.5444 110.149 45.9813 109.864 46.4323 109.571C46.5203 109.514 46.6073 109.459 46.6953 109.401C46.7903 109.338 46.8854 109.279 46.9774 109.219C47.1924 109.081 47.4073 108.941 47.6273 108.801C48.0493 108.533 48.4794 108.261 48.9174 107.986C50.7554 106.831 52.7074 105.638 54.6974 104.451C55.4074 104.026 56.1223 103.601 56.8373 103.179C57.4703 102.807 58.1043 102.434 58.7343 102.064C58.9473 101.939 59.1663 101.811 59.3943 101.681C59.4543 101.646 59.5143 101.611 59.5743 101.576C60.5123 101.036 61.5544 100.446 62.6494 99.8343C62.6944 99.8093 62.7394 99.7843 62.7844 99.7593C65.9794 97.9713 69.5993 96.0023 72.3293 94.5063C73.4193 93.9083 74.3694 93.3893 75.0944 92.9893C76.6544 95.9213 78.3614 99.0343 79.8914 101.971C80.8924 103.892 82.1273 106.15 83.1454 108.062Z" fill="#FFB890"/>
<path d="M72.0256 114.595C71.8856 114.673 71.7426 114.75 71.6006 114.828C70.4006 115.483 69.1456 116.151 67.8556 116.82C64.7956 112.257 60.6536 104.178 59.3936 101.68C59.4536 101.645 59.5136 101.61 59.5736 101.575C60.5116 101.035 61.5536 100.445 62.6486 99.8335L72.0256 114.595Z" fill="#3B1034"/>
<path d="M45.4113 125.222C45.2773 125.306 45.1453 125.383 45.0153 125.458C41.7563 127.291 37.9013 127.032 34.9063 125.172C34.9023 125.169 34.8943 125.165 34.8903 125.162C33.5253 124.314 32.3383 123.128 31.4743 121.659C30.3593 119.772 29.3123 117.332 28.9303 114.471C27.7063 105.303 32.7483 82.4028 34.7293 73.9448C34.8463 73.4518 35.0403 72.9888 35.3013 72.5778C36.0463 71.4058 37.3203 70.6198 38.7653 70.5238C41.1853 70.3618 43.2863 72.1648 43.4943 74.5808C44.0853 81.4528 44.4893 94.5968 46.0873 101.602C47.2103 106.527 48.3833 111.693 48.5753 116.018C48.5743 116.023 48.5763 116.028 48.5753 116.033C48.5873 116.317 48.5933 116.602 48.5983 116.877C48.5983 116.879 48.5983 116.879 48.5973 116.882C48.6013 117.127 48.5993 117.369 48.5943 117.608C48.5893 118.016 48.5703 118.413 48.5403 118.798C48.3123 121.699 47.4113 123.99 45.4113 125.222Z" fill="#FFB890"/>
<path d="M48.915 107.985C48.852 111.787 47.813 118.455 47.813 118.455L47.625 108.8C48.047 108.532 48.477 108.26 48.915 107.985Z" fill="#3B1034"/>
<path d="M41.9133 75.6498C43.0863 75.3848 44.1353 74.7698 45.0983 73.4998C46.3693 71.8258 48.0293 69.0908 48.3903 67.2578C48.9323 64.5048 50.0863 56.3198 48.7073 54.4728C47.3283 52.6248 45.7873 59.6168 45.4433 61.0448C45.0993 62.4728 44.3393 63.3218 44.3393 63.3218C44.3393 63.3218 46.6363 47.0278 45.3773 45.6868C44.1173 44.3458 41.8833 53.5018 41.3463 55.7688C41.3463 55.7688 42.3963 43.4048 41.3253 42.8108C39.1743 41.6188 37.6123 55.3188 37.6123 55.3188C37.6123 55.3188 37.9663 44.8808 36.2513 44.8988C34.4333 44.9178 34.0823 56.0988 34.0823 56.0988C34.0823 56.0988 33.3203 49.2758 31.8433 48.6168C30.3663 47.9568 30.8603 62.4228 31.2043 64.6328C31.5483 66.8438 32.1943 73.9458 34.9483 75.5388C36.6633 76.5318 40.0983 76.0608 41.9133 75.6498Z" fill="#FFB890"/>
<path d="M39.2691 73.5894C35.0071 69.8644 38.4991 64.0594 38.5351 64.0004C38.6771 63.7694 38.9781 63.6974 39.2091 63.8394C39.4411 63.9824 39.5121 64.2834 39.3711 64.5134C39.2431 64.7224 36.2801 69.6734 39.9141 72.8494C39.9161 72.8514 39.9171 72.8544 39.9191 72.8534C40.1231 73.0314 40.1441 73.3414 39.9661 73.5454C39.7871 73.7524 39.4751 73.7614 39.2691 73.5894Z" fill="#FF8E69"/>
<path d="M33.1369 59.1507C32.9439 58.9817 32.9129 58.6897 33.0709 58.4827C33.2359 58.2677 33.5439 58.2277 33.7589 58.3927C37.7469 61.4557 42.1969 59.8586 42.2409 59.8426C42.4949 59.7486 42.7779 59.8777 42.8709 60.1317C42.9649 60.3857 42.8359 60.6677 42.5819 60.7617C42.3799 60.8367 37.5738 62.5597 33.1608 59.1707C33.1528 59.1637 33.1449 59.1567 33.1369 59.1507Z" fill="#FF8E69"/>
<path d="M90.7 108.202C83.542 114.252 71.408 118.972 71.408 118.972C71.198 118.705 70.99 118.432 70.783 118.155C70.425 117.68 70.071 117.192 69.723 116.697C64.566 109.397 60.418 100.522 60.418 100.522C71.761 92.6202 79.806 80.1992 79.806 80.1992C86.355 86.2672 90.7 108.202 90.7 108.202Z" fill="#F6B74C"/>
<path d="M72.8956 101.583L70.7836 118.156C70.4256 117.681 70.0716 117.193 69.7236 116.698L71.6686 101.428C71.7116 101.088 72.0216 100.85 72.3616 100.893C72.6976 100.936 72.9376 101.246 72.8956 101.583Z" fill="#E9981A"/>
<path d="M131.813 199.057C132.275 180.382 132.198 155.211 132.198 155.211L132.833 143.376L133.245 134.062C135.218 113.493 137.016 102.741 138.525 96.4336C139.272 93.3106 138.137 90.0406 135.632 88.0316C126.497 80.7066 120.181 77.0476 120.181 77.0476L104.552 76.5996C104.552 76.5996 93.0433 78.5176 80.4623 80.1506C77.9343 80.4786 73.8993 100.943 71.9763 111.467C71.9483 111.634 71.9163 111.802 71.8853 111.969C71.8373 112.233 71.7913 112.497 71.7403 112.763C71.7263 112.842 71.7123 112.925 71.6983 113.007C71.6673 113.174 71.6383 113.342 71.6073 113.509C71.5843 113.637 71.5623 113.767 71.5363 113.898C66.1873 143.546 58.7023 191.056 57.2783 198.822C57.2643 198.901 57.2503 198.978 57.2363 199.057H131.813Z" fill="#F6B74C"/>
<path d="M114.133 138.482C112.745 138.482 111.12 138.016 109.341 136.645C103.194 131.908 108.19 116.979 108.406 116.346C108.508 116.048 108.815 115.873 109.123 115.935L123.985 118.986C124.273 119.045 124.481 119.298 124.484 119.592C124.565 128.074 121.494 135.555 117.016 137.785C116.244 138.17 115.267 138.482 114.133 138.482ZM109.422 117.273C108.603 119.93 105.251 131.916 110.103 135.655C112.288 137.339 114.426 137.679 116.458 136.668C120.439 134.686 123.193 127.92 123.235 120.11L109.422 117.273Z" fill="#E9981A"/>
<path d="M123.664 124.21C123.626 124.21 123.587 124.207 123.548 124.199L107.765 121.251C107.426 121.188 107.202 120.861 107.266 120.522C107.329 120.183 107.656 119.959 107.995 120.022L123.778 122.97C124.117 123.033 124.341 123.36 124.278 123.699C124.222 124 123.959 124.21 123.664 124.21Z" fill="#E9981A"/>
<path d="M112.045 167.336C112.023 167.324 112.002 167.311 111.981 167.296C111.923 167.254 106.168 163.048 100.597 156.344C95.4336 150.131 89.3676 140.434 89.7926 129.522C89.8046 129.209 90.0686 128.965 90.3816 128.977C90.6956 128.989 90.9386 129.253 90.9266 129.566C90.5156 140.11 96.4236 149.542 101.452 155.598C106.932 162.198 112.59 166.336 112.647 166.377C112.901 166.561 112.957 166.916 112.773 167.17C112.605 167.403 112.292 167.469 112.045 167.336Z" fill="#E9981A"/>
<path d="M113.171 96.1845C113.477 96.2835 113.81 96.1285 113.929 95.8255C114.053 95.5105 113.898 95.1545 113.583 95.0305C100.878 90.0275 99.7589 81.3715 99.7499 81.2845C99.7119 80.9485 99.4089 80.7065 99.0729 80.7435C98.7369 80.7805 98.4949 81.0815 98.5309 81.4175C98.5719 81.8015 99.6959 90.8805 113.134 96.1715C113.146 96.1755 113.159 96.1805 113.171 96.1845Z" fill="#E9981A"/>
<path d="M106.78 97.8936C107.08 97.9906 107.41 97.8425 107.534 97.5455C107.664 97.2325 107.516 96.8745 107.203 96.7445C100.241 93.8485 99.3875 89.8675 99.3795 89.8275C99.3145 89.4955 98.9925 89.2785 98.6605 89.3435C98.3285 89.4085 98.1115 89.7305 98.1765 90.0625C98.2135 90.2515 99.1695 94.7296 106.732 97.8756C106.748 97.8826 106.764 97.8886 106.78 97.8936Z" fill="#E9981A"/>
<path d="M107.819 195.742C107.8 195.742 107.78 195.741 107.76 195.739C106.858 195.645 85.5815 193.339 78.3175 184.178C78.1225 183.932 78.1635 183.576 78.4095 183.381C78.6545 183.187 79.0115 183.227 79.2065 183.473C86.1745 192.26 107.661 194.588 107.878 194.611C108.19 194.644 108.416 194.922 108.384 195.234C108.353 195.525 108.106 195.742 107.819 195.742Z" fill="#E9981A"/>
<path d="M111.852 190.066C111.827 190.066 111.802 190.065 111.777 190.061C111.706 190.052 104.642 189.097 96.5503 185.859C89.0503 182.858 79.0963 177.224 74.2693 167.428C74.1313 167.147 74.2463 166.807 74.5273 166.668C74.8093 166.529 75.1483 166.645 75.2873 166.926C79.9513 176.391 89.6403 181.867 96.9473 184.794C104.911 187.984 111.857 188.926 111.926 188.935C112.237 188.976 112.455 189.261 112.414 189.572C112.376 189.858 112.132 190.066 111.852 190.066Z" fill="#E9981A"/>
<path d="M105.302 106.954C104.679 106.954 104.049 106.897 103.411 106.783C101.04 106.359 99.1974 105.092 97.9354 103.016C93.0744 95.0245 98.4354 77.4865 98.6664 76.7435C98.7894 76.3475 99.2094 76.1275 99.6054 76.2495C100.001 76.3725 100.222 76.7925 100.099 77.1885C100.045 77.3635 94.7074 94.8225 99.2184 102.237C100.261 103.952 101.72 104.956 103.676 105.306C106.109 105.742 108.426 105.199 110.565 103.696C119.016 97.7555 122.302 78.9235 122.335 78.7345C122.405 78.3265 122.793 78.0505 123.2 78.1205C123.609 78.1895 123.883 78.5765 123.814 78.9855C123.678 79.7845 120.391 98.6215 111.43 104.923C109.507 106.274 107.452 106.954 105.302 106.954Z" fill="white"/>
<path d="M107.798 84.6605C117.293 86.3555 120.698 79.2925 120.698 79.2925C119.429 75.1755 119.606 71.0635 119.715 67.3915C119.769 65.5345 119.895 64.3115 119.895 64.3115L102.336 72.2645L102.161 79.0455L102.119 80.7035C102.119 80.7035 102.127 83.6485 107.798 84.6605Z" fill="#FFB890"/>
<path d="M102.162 79.0465C111.254 77.7845 117.459 70.4685 119.752 66.4165C119.806 64.5595 119.896 64.3125 119.896 64.3125L102.337 72.2655L102.162 79.0465Z" fill="#3B1034"/>
<path d="M92.727 46.0806C92.727 46.0806 91.268 41.6106 86.868 42.5496C82.468 43.4886 82.7571 61.7116 93.5991 60.2366L92.727 46.0806Z" fill="#FF8E69"/>
<path d="M127.69 42.0251C127.69 42.0251 127.662 42.7401 127.537 43.9571C127.177 47.4841 126 55.2401 122.28 62.0821C119.15 67.8401 114.217 72.9541 106.462 74.3541C97.237 76.0191 91.322 70.0621 89.167 61.4391C88.97 60.6591 88.795 59.8691 88.637 59.0871C88.457 58.1741 88.297 57.2641 88.157 56.3641C88.044 55.6261 87.949 54.8991 87.862 54.1871C87.642 52.3291 87.505 50.5591 87.427 48.9741C87.427 48.9711 87.43 48.9691 87.427 48.9641C87.32 46.6511 87.335 44.7291 87.405 43.5041C87.445 42.7991 87.485 42.0891 87.542 41.3761C88.052 35.1061 89.822 28.7211 102.162 25.5791C105.17 24.8141 108.025 24.5461 110.662 24.7311C115.755 25.0861 120.037 27.1331 123.047 30.5541C125.602 33.4551 127.242 37.3421 127.69 42.0251Z" fill="#FFB890"/>
<path d="M127.69 42.025C127.69 42.025 127.662 42.7401 127.537 43.9571C124.437 44.6971 113.58 38.31 113.58 38.31C113.58 38.31 113.14 36.05 108.332 34.468C103.522 32.883 103.057 35.383 97.995 35.3C92.933 35.217 93.1399 32.718 91.9749 33.3C90.8079 33.882 90.258 40.7081 90.258 40.7081L87.543 41.378C88.053 35.108 89.823 28.723 102.163 25.581C105.171 24.816 108.026 24.5481 110.663 24.7331C115.668 26.1511 119.973 28.5211 123.048 30.5561C125.602 33.4551 127.242 37.342 127.69 42.025Z" fill="#3B1034"/>
<path d="M88.1593 56.3646C88.6103 56.3986 89.1003 56.4096 89.6133 56.3916C91.8043 56.3096 93.5633 55.7136 93.5383 55.0556C93.5143 54.4006 91.7193 53.9346 89.5273 54.0136C88.9303 54.0346 88.3663 54.0956 87.8623 54.1866C87.9493 54.9016 88.0453 55.6286 88.1593 56.3646Z" fill="#FF8E69"/>
<path d="M122.282 62.0826C119.151 67.8416 114.218 72.9546 106.464 74.3566C97.2387 76.0216 91.3227 70.0626 89.1697 61.4426C88.9707 60.6616 88.7967 59.8716 88.6397 59.0886C88.4577 58.1756 88.2987 57.2666 88.1597 56.3666C88.0467 55.6286 87.9517 54.9016 87.8647 54.1886C87.6427 52.3316 87.5057 50.5616 87.4297 48.9766C87.7777 50.2456 90.4497 59.8006 92.8317 61.2256C92.8317 61.2256 100.26 55.6156 108.947 60.8486C108.947 60.8486 116.736 63.4416 117.822 50.9046L122.907 50.4766C122.907 50.4766 123.562 55.9566 122.282 62.0826Z" fill="#3B1034"/>
<path d="M110.538 46.1152C110.723 46.0592 110.895 45.9502 111.029 45.7912C111.394 45.3552 111.336 44.7072 110.901 44.3422C110.753 44.2182 109.402 43.1302 107.593 43.1062C105.7 43.0812 104.535 43.6912 104.409 43.7612C103.912 44.0352 103.731 44.6612 104.004 45.1582C104.276 45.6522 104.896 45.8352 105.392 45.5672C105.424 45.5502 106.238 45.1442 107.566 45.1622C108.665 45.1772 109.572 45.9112 109.581 45.9182C109.856 46.1502 110.217 46.2122 110.538 46.1152Z" fill="#3B1034"/>
<path d="M96.0223 45.8622C96.1853 45.7572 96.3203 45.6052 96.4043 45.4152C96.6343 44.8962 96.4003 44.2882 95.8813 44.0582C95.7053 43.9802 94.1063 43.3072 92.3613 43.7832C90.5343 44.2812 89.5843 45.1902 89.4813 45.2922C89.0793 45.6932 89.0773 46.3442 89.4783 46.7462C89.8763 47.1462 90.5233 47.1512 90.9253 46.7562C90.9513 46.7312 91.6213 46.1162 92.9023 45.7672C93.9623 45.4782 95.0373 45.9332 95.0483 45.9382C95.3763 46.0842 95.7403 46.0432 96.0223 45.8622Z" fill="#3B1034"/>
<path d="M127.538 43.9576C127.538 43.9576 125.002 44.7946 123.618 47.0386C123.618 47.0386 123.055 54.4996 119.831 54.1026C116.607 53.7046 118.58 48.2506 117.09 46.1546C116.155 44.8396 113.721 42.4726 113.58 38.3086C113.58 38.3086 123.668 39.2646 127.538 43.9576Z" fill="#3B1034"/>
<path d="M90.2576 40.7075C90.2576 40.7075 90.2186 42.9305 88.8496 44.9385C88.1416 45.9765 87.6846 47.1645 87.5936 48.4175L87.4826 49.9445C87.4826 49.9445 86.2736 43.7435 87.5436 41.3775L90.2576 40.7075Z" fill="#3B1034"/>
<path d="M107.08 61.5322C107.08 61.5322 99.9038 62.2512 95.8548 61.6482C95.8548 61.6482 95.6999 66.5703 101.883 66.0703C106.997 65.6573 107.08 61.5322 107.08 61.5322Z" fill="white"/>
<path d="M108.236 53.8832C108.26 54.5392 110.056 55.0062 112.248 54.9252C114.44 54.8442 116.197 54.2472 116.172 53.5912C116.148 52.9352 114.352 52.4682 112.16 52.5492C109.969 52.6292 108.212 53.2262 108.236 53.8832Z" fill="#FF8E69"/>
<path d="M107.172 49.4527C107.215 50.6287 107.77 51.5627 108.411 51.5387C109.052 51.5157 109.537 50.5427 109.494 49.3667C109.451 48.1907 108.896 47.2567 108.255 47.2797C107.613 47.3047 107.129 48.2767 107.172 49.4527Z" fill="#3B1034"/>
<path d="M92.8376 50.5221C92.8806 51.6981 93.4356 52.6321 94.0766 52.6081C94.7176 52.5841 95.2026 51.6121 95.1596 50.4361C95.1166 49.2601 94.5616 48.3261 93.9206 48.3501C93.2796 48.3731 92.7946 49.3461 92.8376 50.5221Z" fill="#3B1034"/>
<path d="M101.648 57.8526C101.945 57.7796 102.164 57.5106 102.163 57.1926C102.162 56.8176 101.857 56.5156 101.483 56.5166C100.865 56.5186 100.362 56.4856 100.01 56.4506C100.165 54.1836 100.865 51.0697 100.873 51.0357C100.955 50.6707 100.726 50.3077 100.361 50.2247C99.9951 50.1427 99.6331 50.3716 99.5501 50.7356C99.5151 50.8936 98.6771 54.6207 98.6271 57.0267C98.6201 57.3567 98.8521 57.6446 99.1771 57.7066C99.2131 57.7136 100.079 57.8767 101.488 57.8717C101.543 57.8717 101.597 57.8646 101.648 57.8526Z" fill="#FF8E69"/>
<path d="M123.618 47.0394C123.618 47.0394 125.699 42.8234 129.92 44.3794C134.141 45.9354 133.294 62.0664 122.774 59.0604L123.618 47.0394Z" fill="#FFB890"/>
<path d="M125.167 55.9454C125.477 55.8694 125.698 55.5814 125.681 55.2504C125.418 50.3734 129.111 48.0664 129.148 48.0434C129.467 47.8484 129.569 47.4314 129.374 47.1114C129.179 46.7914 128.762 46.6904 128.442 46.8854C128.261 46.9954 124.021 49.6454 124.326 55.3234C124.346 55.6974 124.665 55.9834 125.039 55.9634C125.084 55.9614 125.126 55.9555 125.167 55.9454Z" fill="#FF8E69"/>
<path d="M128.8 52.5035C129.02 52.4495 129.208 52.2856 129.283 52.0536C129.398 51.6976 129.203 51.3155 128.847 51.2005C128.609 51.1235 126.486 50.4765 125.06 51.3935C124.745 51.5955 124.654 52.0155 124.856 52.3305C125.058 52.6455 125.477 52.7375 125.793 52.5345C126.549 52.0475 127.987 52.3475 128.43 52.4915C128.554 52.5295 128.682 52.5325 128.8 52.5035Z" fill="#FF8E69"/>
<path d="M152.319 152.963L149.574 152.798C149.583 152.654 150.425 138.227 149 122.964C147.152 103.162 142.412 90.9588 135.293 87.6738C132.638 86.4478 130.206 86.5358 127.859 87.9408C116.385 94.8088 110.23 130.588 108.892 152.962L106.147 152.798C106.913 139.983 109.021 125.624 111.785 114.389C115.62 98.8018 120.553 89.1098 126.447 85.5818C129.588 83.7018 132.952 83.5658 136.446 85.1778C144.625 88.9518 149.771 101.59 151.741 122.739C153.182 138.207 152.328 152.817 152.319 152.963Z" fill="#00A580"/>
<path d="M135.069 199.034H124.342C108.608 199.034 95.8535 186.279 95.8535 170.545V150.462H163.557V170.545C163.557 186.28 150.803 199.034 135.069 199.034Z" fill="#00A580"/>
<path d="M116.977 173.491L114.963 172.343L121.469 172.242L124.832 178.002L122.818 176.915L120.125 181.663C119.465 182.827 119.085 184.134 119.054 185.472C119.053 185.523 119.052 185.574 119.052 185.626L115.386 179.292C115.386 179.292 113.795 176.552 116.977 173.491Z" fill="#008661"/>
<path d="M134.978 188.995L134.94 191.313L131.724 185.657L135.157 179.938L135.172 182.227L140.63 182.306C141.968 182.325 143.296 182.029 144.485 181.413C144.53 181.39 144.575 181.366 144.621 181.341L140.83 187.601C140.83 187.601 139.193 190.313 134.978 188.995Z" fill="#008661"/>
<path d="M139.655 165.71L141.453 164.665L138.272 170.341L131.602 170.356L133.554 169.161L130.914 164.665C130.914 164.665 131.9 162.125 134.625 161.597C137.434 161.053 139.655 165.71 139.655 165.71Z" fill="#008661"/>
<path d="M129.121 182.162V188.898H123.23C123.23 188.898 120.651 188.839 120.239 185.908C119.897 183.473 121.266 182.162 121.266 182.162H129.121Z" fill="#008661"/>
<path d="M136.584 174.532L142.38 171.099L145.382 176.168C145.382 176.168 146.107 178.684 143.747 180.471C141.82 181.93 140.587 181.291 140.587 181.291L136.584 174.532Z" fill="#008661"/>
<path d="M119.897 168.135L122.928 162.828C122.928 162.828 123.895 161.227 125.405 161.227H132.525C132.525 161.227 131.055 162.345 129.574 164.681C128.067 167.059 125.767 171.438 125.767 171.438L119.897 168.135Z" fill="#008661"/>
<path d="M129.576 40.1691C129.576 40.1691 106.288 28.5321 86.8545 32.4581C86.8545 32.4581 88.9895 27.9531 92.9115 23.7501L92.9125 23.7481C93.6615 22.9451 94.4755 22.1551 95.3525 21.4071C99.0635 18.2431 103.901 15.8771 109.677 16.8551C117.734 18.2171 122.851 22.2931 125.884 27.3731C126.487 28.3831 127.007 29.4321 127.452 30.5071C128.738 33.6161 129.389 36.9431 129.576 40.1691Z" fill="#FF6129"/>
<path d="M127.451 30.5074C122.032 28.8484 108.554 24.6804 92.9121 23.7484C93.6611 22.9454 94.4751 22.1554 95.3521 21.4074C102.067 20.4914 116.274 23.0594 125.883 27.3734C126.486 28.3834 127.006 29.4324 127.451 30.5074Z" fill="#00A580"/>
<path d="M119.175 165.09C118.193 166.373 116.893 167.439 115.34 168.159C113.349 169.079 110.82 169.882 107.934 169.979C98.6911 170.288 76.4031 163.006 68.1811 160.197C67.7011 160.031 63.9981 158.925 63.6151 158.625C62.5201 157.77 63.7141 156.473 63.7611 155.024C63.8401 152.598 64.5441 150.43 66.9701 150.462C73.8661 150.556 89.6991 152.528 96.8271 151.631C101.819 151.003 107.056 150.35 111.369 150.583C111.386 150.583 111.401 150.586 111.418 150.586C111.707 150.601 111.997 150.623 112.276 150.645C112.882 150.699 113.468 150.771 114.024 150.865C114.078 150.875 114.13 150.882 114.182 150.892C117.045 151.404 119.236 152.529 120.265 154.643C120.334 154.784 120.399 154.922 120.458 155.061C121.96 158.483 121.319 162.296 119.175 165.09Z" fill="#FFB890"/>
<path d="M74.0264 150.707C74.0264 150.707 75.6824 149.707 76.6514 150.957C76.6514 150.957 78.1414 159.051 74.5234 162.303C74.5234 162.303 73.4744 162.925 72.4824 161.638C72.4824 161.638 76.2494 156.34 74.0264 150.707Z" fill="#FF6129"/>
<path d="M53.141 150.134C53.141 150.134 48.619 147.742 46.907 144.646C45.195 141.55 38.577 137.288 40.421 135.538C41.977 134.062 50.305 143.731 54.106 145.604C58.114 147.577 53.141 150.134 53.141 150.134Z" fill="#FF8E69"/>
<path d="M56.5392 147.628C56.5392 147.628 48.9462 146.096 46.3682 143.463C43.7902 140.83 37.4602 138.25 37.4202 136.891C37.3802 135.532 42.2282 136.914 45.9702 139.686C49.7122 142.459 56.5392 147.628 56.5392 147.628Z" fill="#FFB890"/>
<path d="M55.2503 146.006C55.2503 146.006 49.8513 141.902 50.2283 140.652C50.6053 139.402 55.2363 140.294 59.9413 144.878C61.3873 146.287 64.2853 147.012 67.2093 149.137C70.6653 151.649 70.0373 156.923 66.0763 158.524C66.0623 158.53 66.0473 158.536 66.0333 158.541C65.3833 158.8 64.6583 158.795 64.0083 158.536C61.0033 157.338 50.2103 152.846 47.3793 149.078C44.0803 144.687 36.2023 140.236 35.6523 138.561C35.1013 136.886 40.3663 138.492 43.7943 140.246C47.2223 142.001 55.2503 146.006 55.2503 146.006Z" fill="#FFB890"/>
<path d="M144.638 130.54C144.512 130.762 144.144 131.378 143.691 132.127C142.833 133.559 141.678 135.465 141.384 135.969C136.792 143.879 127.651 157.1 120.537 163.87C120.072 164.313 119.617 164.721 119.175 165.089C109.715 173.004 105.239 165.032 110.461 154.192C110.913 153.247 111.435 152.224 112.014 151.133C112.026 151.108 112.041 151.084 112.056 151.056C112.128 150.92 112.202 150.784 112.276 150.643C112.486 150.243 112.709 149.837 112.939 149.422C112.966 149.37 112.993 149.318 113.023 149.266C113.127 149.078 113.231 148.888 113.337 148.697C115.377 145.01 117.847 140.841 120.298 136.823C122.526 133.173 126.205 127.548 128.69 123.725C129.367 122.684 129.956 121.774 130.401 121.079C133.168 122.921 136.147 124.855 138.887 126.714C140.677 127.934 142.838 129.338 144.638 130.54Z" fill="#FFB890"/>
<path d="M116.801 155.567C115.191 153.512 113.362 151.997 112.056 151.059C111.806 150.881 111.574 150.723 111.369 150.584C111.386 150.584 111.401 150.587 111.418 150.587C111.707 150.602 111.997 150.624 112.276 150.646C112.486 150.246 112.709 149.84 112.939 149.425C113.293 149.838 113.663 150.335 114.024 150.867C115.426 152.911 116.739 155.445 116.801 155.567Z" fill="#3B1034"/>
<path d="M143.208 132.934L129.137 123.04C129.813 121.996 129.955 121.777 130.402 121.081C133.168 122.924 136.148 124.858 138.888 126.717C140.68 127.934 142.84 129.34 144.642 130.54C144.514 130.762 143.657 132.185 143.208 132.934Z" fill="#3B1034"/>
<path d="M136.148 88.4766C136.148 88.4766 146.041 95.4866 148.217 104.895C150.928 116.616 147.996 124.536 145.56 132.529L125.91 120.638L136.148 88.4766Z" fill="#F6B74C"/>
<path d="M126.339 119.907C126.277 119.907 126.214 119.898 126.151 119.878C125.826 119.774 125.646 119.427 125.75 119.101L131.253 101.816C131.356 101.49 131.704 101.311 132.029 101.414C132.354 101.518 132.534 101.865 132.43 102.191L126.927 119.476C126.845 119.739 126.601 119.907 126.339 119.907Z" fill="#E9981A"/>
<path d="M129.606 109.647C129.311 109.647 129.05 109.435 128.998 109.135L127.775 102.11C127.716 101.774 127.942 101.454 128.278 101.395C128.613 101.337 128.934 101.562 128.993 101.898L130.216 108.923C130.275 109.259 130.049 109.579 129.713 109.638C129.677 109.644 129.641 109.647 129.606 109.647Z" fill="#E9981A"/>
</svg>
