<svg width="206" height="209" viewBox="0 0 206 209" fill="none" xmlns="http://www.w3.org/2000/svg">
<path d="M138.587 162.29C164.1 136.777 164.1 95.4123 138.587 69.8992C113.074 44.3861 71.7087 44.3861 46.1956 69.8992C20.6825 95.4123 20.6825 136.777 46.1955 162.29C71.7086 187.803 113.074 187.803 138.587 162.29Z" fill="#00A580"/>
<path d="M64.107 83.0838C64.107 83.0838 45.74 80.3269 42.305 101.915C38.87 123.503 42.049 170.841 70.697 171.905C99.344 172.969 64.107 83.0838 64.107 83.0838Z" fill="#F6B74C"/>
<path d="M149.387 112.516C140.64 108.629 131.292 103.261 124.91 99.3939C124.52 99.1559 124.142 98.927 123.78 98.701C119.673 96.191 117.053 94.4609 117.053 94.4609V74.7939C117.053 74.7939 137.668 84.8619 151.58 92.9759C152.122 93.2889 152.652 93.6009 153.172 93.9109C153.51 94.1079 153.845 94.3109 154.169 94.5059C154.177 94.5109 154.182 94.513 154.189 94.518C154.561 94.745 154.927 94.9699 155.287 95.1849C159.299 97.6549 162.347 99.8019 163.51 101.218C168.595 107.436 164.637 119.296 149.387 112.516Z" fill="#00A580"/>
<path d="M154.191 94.5186L147.518 100.656L151.581 92.9756C152.123 93.2886 152.653 93.6006 153.173 93.9106C153.511 94.1076 153.846 94.3106 154.17 94.5056C154.178 94.5106 154.183 94.5136 154.191 94.5186Z" fill="#3B1034"/>
<path d="M124.91 99.3926C124.52 99.1556 124.143 98.9266 123.779 98.7026C123.226 94.9396 121.817 85.6366 120.918 82.1766C120.849 81.9036 121.012 81.6266 121.285 81.5546C121.558 81.4836 121.835 81.6486 121.904 81.9216C122.907 85.7786 124.477 96.3946 124.91 99.3926Z" fill="#008661"/>
<path d="M142.434 106.871C142.434 106.871 171.377 76.456 176.848 70.58C185.324 61.477 194.542 67.074 185.866 81.333C173.266 102.04 170.786 109.97 161.453 113.93C159.69 114.678 157.681 114.577 155.973 113.714L142.434 106.871Z" fill="#00A580"/>
<path d="M180.587 70.1538C179.808 69.2368 179.339 68.1158 179.331 66.5218C179.321 64.4198 179.635 61.2358 180.448 59.5538C181.667 57.0268 185.66 49.7898 187.873 49.1408C190.085 48.4918 187.119 55.0078 186.536 56.3558C185.953 57.7048 186.052 58.8398 186.052 58.8398C186.052 58.8398 194.001 44.4318 195.813 44.1158C197.625 43.8008 193.913 52.4628 192.981 54.5978C192.981 54.5978 199.566 44.0808 200.779 44.2498C203.215 44.5878 196.236 56.4808 196.236 56.4808C196.236 56.4808 202.221 47.9218 203.582 48.9668C205.024 50.0738 198.59 59.2248 198.59 59.2248C198.59 59.2248 203.296 54.2268 204.874 54.5868C206.451 54.9458 197.369 66.2158 195.767 67.7778C194.165 69.3388 189.383 74.6298 186.224 74.2498C184.255 74.0118 181.792 71.5728 180.587 70.1538Z" fill="#FFB890"/>
<path d="M183.938 70.0947C189.582 69.6757 190.277 62.9367 190.283 62.8687C190.308 62.5997 190.11 62.3606 189.841 62.3346C189.57 62.3096 189.332 62.5077 189.306 62.7767C189.283 63.0207 188.679 68.7587 183.865 69.1167C183.862 69.1167 183.859 69.1197 183.859 69.1177C183.589 69.1377 183.386 69.3726 183.406 69.6426C183.427 69.9136 183.671 70.1077 183.938 70.0947Z" fill="#FF8E69"/>
<path d="M197.514 62.2316C197.77 62.2126 197.97 61.9976 197.968 61.7376C197.965 61.4666 197.743 61.2496 197.472 61.2526C192.444 61.3066 189.845 57.3576 189.819 57.3176C189.673 57.0896 189.369 57.0226 189.141 57.1706C188.913 57.3166 188.847 57.6206 188.994 57.8486C189.111 58.0306 191.918 62.2936 197.482 62.2336C197.493 62.2326 197.503 62.2326 197.514 62.2316Z" fill="#FF8E69"/>
<path d="M59.4024 82.4886C59.4024 82.4886 42.4914 76.6467 53.7024 63.1537C64.9134 49.6617 91.0394 55.6747 95.1254 59.1387C104.118 66.7627 99.3703 72.6966 99.3703 72.6966C99.3703 72.6966 85.8163 86.8196 59.4024 82.4886Z" fill="#00A580"/>
<path d="M58.9242 69.6059C58.7222 69.6059 58.5262 69.4969 58.4252 69.3049C58.2792 69.0289 58.3842 68.6869 58.6602 68.5419C59.1162 68.2999 69.9702 62.6299 81.3682 63.6399C81.6792 63.6679 81.9082 63.9419 81.8812 64.2529C81.8532 64.5639 81.5792 64.7939 81.2682 64.7659C70.2052 63.7869 59.2982 69.4829 59.1892 69.5399C59.1042 69.5849 59.0142 69.6059 58.9242 69.6059Z" fill="#008661"/>
<path d="M74.6159 64.8876C74.4509 64.8876 74.2869 64.8156 74.1749 64.6766C72.3709 62.4336 66.7389 61.4626 66.6819 61.4526C66.3739 61.4006 66.1669 61.1096 66.2189 60.8016C66.2709 60.4936 66.5629 60.2866 66.8699 60.3386C67.1189 60.3806 72.9829 61.3916 75.0559 63.9686C75.2519 64.2116 75.2129 64.5676 74.9699 64.7626C74.8659 64.8476 74.7409 64.8876 74.6159 64.8876Z" fill="#008661"/>
<path d="M138.8 188.301H64.2969C64.1219 182.061 64.0139 174.899 63.9489 168.113C63.9119 164.166 63.8889 160.345 63.8739 156.916C63.8389 148.533 63.8559 142.461 63.8559 142.461C63.8559 142.461 63.6259 140.268 63.2439 136.981C62.9439 134.418 62.5509 131.189 62.1009 127.808C61.7909 125.503 61.4539 123.131 61.1009 120.851C60.9579 119.913 60.8079 118.994 60.6579 118.104C60.2199 115.489 59.7659 113.109 59.3129 111.249C57.0629 102.019 50.3249 83.8766 56.2399 79.0486C67.5379 69.4456 75.8169 64.6516 75.8169 64.6516L91.3739 64.2036C91.3739 64.2036 116.121 69.1636 119.422 78.2036C120.294 80.5856 121.889 88.4356 123.805 98.9116C123.832 99.0786 123.862 99.2466 123.892 99.4146C123.942 99.6766 123.987 99.9396 124.04 100.205C124.052 100.282 124.067 100.365 124.082 100.445C124.112 100.615 124.139 100.78 124.172 100.948C124.195 101.075 124.217 101.205 124.242 101.335C124.954 105.293 125.709 109.567 126.479 114.027V114.03C127.409 119.41 128.367 125.058 129.319 130.723V130.726C133.449 155.381 137.436 180.434 138.434 185.873C138.595 186.733 138.715 187.538 138.8 188.301Z" fill="#00A580"/>
<path d="M100.097 154.406L63.95 168.114C63.913 164.166 63.89 160.346 63.875 156.916C73.925 156.231 100.097 154.406 100.097 154.406Z" fill="#008661"/>
<path d="M95.3766 78.5869C95.1566 78.3279 94.7686 78.3199 94.5386 78.5579C91.4346 81.7669 87.4746 83.0579 82.7266 82.4239C82.3936 82.3799 82.0996 82.6409 82.0996 82.9769C82.0996 83.2559 82.3046 83.4949 82.5816 83.5309C87.6636 84.1879 92.0106 82.7839 95.3306 79.3649C95.5346 79.1549 95.5666 78.8119 95.3766 78.5869Z" fill="#008661"/>
<path d="M78.3496 130.212L78.1356 130.655L70.8446 145.805L63.2456 136.981C62.9446 134.418 62.5526 131.188 62.1016 127.81L67.7166 116.3L77.9856 129.735L78.3496 130.212Z" fill="#008661"/>
<path d="M77.752 130.211L85.811 113.693L96.444 127.603L88.938 143.196L77.752 130.211Z" fill="#008661"/>
<path d="M96.1768 127.721L104.237 111.202L114.87 125.112L107.363 140.706L96.1768 127.721Z" fill="#008661"/>
<path d="M129.322 130.722V130.725L125.648 138.352L114.645 125.579L114.462 125.368L114.696 124.887L122.522 108.851L126.481 114.027V114.03C127.411 119.409 128.369 125.056 129.322 130.722Z" fill="#008661"/>
<path d="M88.1246 182.807C87.8386 182.807 87.5936 182.591 87.5636 182.301C87.5316 181.991 87.7566 181.713 88.0666 181.681C88.2816 181.659 109.673 179.341 116.609 170.594C116.803 170.35 117.158 170.309 117.403 170.502C117.647 170.696 117.688 171.051 117.495 171.296C110.263 180.416 89.0826 182.712 88.1836 182.805C88.1646 182.806 88.1446 182.807 88.1246 182.807Z" fill="#008661"/>
<path d="M84.1118 177.158C83.8328 177.158 83.5898 176.951 83.5528 176.667C83.5118 176.358 83.7298 176.074 84.0388 176.033C84.1078 176.024 91.0218 175.087 98.9498 171.911C106.224 168.997 115.869 163.546 120.512 154.123C120.65 153.843 120.988 153.728 121.268 153.866C121.548 154.004 121.663 154.343 121.525 154.623C116.72 164.374 106.811 169.982 99.3438 172.97C91.2878 176.193 84.2558 177.144 84.1858 177.153C84.1608 177.156 84.1358 177.158 84.1118 177.158Z" fill="#008661"/>
<path d="M89.6015 150.478C89.9235 150.478 90.1815 150.211 90.1675 149.889C88.7945 118.106 79.1145 81.0047 79.0075 80.6007C78.9285 80.2987 78.6185 80.1187 78.3175 80.1987C78.0155 80.2777 77.8355 80.5867 77.9155 80.8887C78.0215 81.2917 87.6745 118.287 89.0395 149.94C89.0515 150.241 89.2995 150.478 89.6015 150.478Z" fill="white"/>
<path d="M109.007 148.546C109.329 148.546 109.587 148.278 109.573 147.957C108.178 116.204 98.5256 79.2107 98.4196 78.8067C98.3406 78.5047 98.0306 78.3247 97.7296 78.4047C97.4276 78.4837 97.2476 78.7927 97.3276 79.0947C97.4336 79.4967 107.059 116.386 108.445 148.008C108.458 148.31 108.705 148.546 109.007 148.546Z" fill="white"/>
<path d="M85.7381 78.9438C84.5041 78.9438 83.2121 78.8408 81.8631 78.6348C76.1741 77.7638 71.5681 75.3938 71.3751 75.2938C71.0981 75.1498 70.9901 74.8088 71.1341 74.5318C71.2781 74.2548 71.6191 74.1468 71.8961 74.2908C71.9421 74.3148 76.5521 76.6838 82.0611 77.5218C89.3231 78.6268 94.6371 76.6848 97.8551 71.7498C98.0251 71.4878 98.3751 71.4148 98.6371 71.5848C98.8981 71.7548 98.9721 72.1048 98.8021 72.3668C95.9701 76.7078 91.4971 78.9438 85.7381 78.9438Z" fill="#008661"/>
<path d="M88.9945 76.2497C81.9225 77.4667 74.8945 71.9447 74.8945 71.9447C75.8975 67.5707 75.9175 62.4017 75.5225 58.5937C75.3235 56.6687 75.0985 55.4077 75.0985 55.4077L93.9505 62.3257L94.6515 69.3577L94.8225 71.0767C94.8225 71.0767 94.9085 75.2327 88.9945 76.2497Z" fill="#FFB890"/>
<path d="M94.6516 69.3577C85.1096 68.7437 78.1017 61.6177 75.4087 57.5837C75.2097 55.6587 75.0977 55.4087 75.0977 55.4087L93.9497 62.3267L94.6516 69.3577Z" fill="#3B1034"/>
<path d="M102.491 34.256C102.491 34.256 103.664 29.5 108.307 30.138C112.95 30.776 114.046 49.731 102.67 49.029L102.491 34.256Z" fill="#FF8E69"/>
<path d="M106.802 50.0715C105.226 59.1915 99.5377 65.8345 89.8257 64.8125C68.6117 62.5765 65.2917 32.8485 65.2917 32.8485C63.6877 17.5155 75.7767 9.79451 90.3207 12.3735C104.865 14.9545 106.336 24.1565 107.261 31.3015C107.538 33.4395 107.82 37.6455 107.603 42.4335C107.568 43.1825 107.524 43.9445 107.462 44.7185C107.387 45.6645 107.294 46.6225 107.173 47.5845C107.07 48.4115 106.949 49.2435 106.802 50.0715Z" fill="#FFB890"/>
<path d="M94.1619 58.7489C94.9859 58.7959 96.0449 58.6529 97.0699 57.9279C97.2659 57.7899 97.3119 57.5189 97.1739 57.3229C97.0349 57.1279 96.7639 57.0809 96.5689 57.2189C94.8839 58.4099 93.0739 57.6609 92.9979 57.6279C92.7779 57.5339 92.5229 57.6359 92.4289 57.8549C92.3349 58.0739 92.4349 58.3289 92.6539 58.4239C92.7019 58.4449 93.3049 58.6999 94.1619 58.7489Z" fill="#FF8E69"/>
<path d="M91.4155 24.8857C91.4155 24.8857 95.2625 25.6867 97.7485 24.2817C100.046 22.9837 100.558 22.7697 101.488 22.8507C103.01 22.9837 104.083 27.9087 104.083 27.9087L107.39 30.0797C107.39 30.0797 106.402 23.5617 104.688 21.4757C102.974 19.3897 97.4825 18.1247 93.7215 21.2197C89.9605 24.3157 91.4155 24.8857 91.4155 24.8857Z" fill="#3B1034"/>
<path d="M94.6879 19.8029C96.2929 22.1439 94.2259 25.2779 91.4149 24.8859C88.1469 24.4299 83.6909 24.0679 82.2799 25.2029C79.9639 27.0669 80.4379 29.6009 79.1809 31.5958C77.9229 33.5898 68.5599 32.4018 68.5599 32.4018L67.7529 26.2238C67.7529 26.2238 87.5539 17.4819 92.2569 18.3249C93.4329 18.5359 94.1999 19.0899 94.6879 19.8029Z" fill="#3B1034"/>
<path d="M67.7526 34.9576C67.7526 34.9576 64.7656 37.9436 61.6616 37.9966C58.5576 38.0496 61.6616 31.7806 61.6616 31.7806C61.6616 31.7806 56.0576 30.7996 56.9326 26.7996C57.8076 22.7996 61.5396 22.7996 61.5396 22.7996C61.5396 22.7996 58.1316 14.4666 61.2196 11.8836C64.3076 9.29964 66.7336 13.6746 66.7336 13.6746C66.7336 13.6746 67.5306 1.92464 75.2426 1.04964C82.9546 0.174643 77.0576 8.79964 77.0576 8.79964C77.0576 8.79964 84.2196 -1.45036 91.1386 0.174643C98.0576 1.79964 90.1676 8.79964 90.1676 8.79964C90.1676 8.79964 100.902 1.04964 105.98 4.42464C111.058 7.79964 101.773 11.8836 101.773 11.8836C101.773 11.8836 111.683 12.9836 111.62 18.2666C111.557 23.5496 104.083 22.2996 104.083 22.2996C104.083 22.2996 75.2946 22.2566 67.7526 34.9576Z" fill="#3B1034"/>
<path d="M104.082 27.9087C104.082 27.9087 104.293 30.9197 105.869 32.9007C106.684 33.9247 107.25 35.1237 107.441 36.4187L107.673 37.9967C107.673 37.9967 108.453 31.4617 106.953 29.1007C106.238 28.2277 105.195 28.0007 104.082 27.9087Z" fill="#3B1034"/>
<path d="M76.6226 36.3296C76.4916 36.5456 76.3966 36.7926 76.3246 37.0596C76.2366 37.3976 76.1886 37.7736 76.1676 38.1676C76.0266 40.7636 76.9926 44.2786 74.3836 44.7976C71.3646 45.3996 70.1336 39.0786 69.9366 37.9286C69.9176 37.8136 69.9076 37.7506 69.9076 37.7506C69.7106 37.4766 69.4946 37.2266 69.2716 36.9966C67.6746 35.3696 65.5996 34.8506 65.5996 34.8506C69.2606 29.6776 79.6686 27.9116 79.6686 27.9116C79.8386 32.2476 77.4936 34.8916 76.6226 36.3296Z" fill="#3B1034"/>
<path d="M83.4264 35.5198C83.2294 35.4758 83.0424 35.3758 82.8914 35.2208C82.4794 34.7958 82.4894 34.1178 82.9144 33.7058C83.0584 33.5658 84.3784 32.3318 86.2564 32.1688C88.2214 31.9978 89.4784 32.5428 89.6154 32.6058C90.1534 32.8528 90.3894 33.4878 90.1424 34.0258C89.8974 34.5608 89.2674 34.7978 88.7314 34.5578C88.6964 34.5428 87.8204 34.1838 86.4424 34.3038C85.3024 34.4028 84.4154 35.2358 84.4064 35.2438C84.1374 35.5038 83.7664 35.5958 83.4264 35.5198Z" fill="#3B1034"/>
<path d="M98.4884 34.3124C98.3114 34.2164 98.1594 34.0684 98.0574 33.8774C97.7784 33.3554 97.9754 32.7064 98.4974 32.4274C98.6744 32.3324 100.284 31.5114 102.133 31.8724C104.069 32.2504 105.126 33.1214 105.241 33.2194C105.69 33.6044 105.741 34.2814 105.356 34.7304C104.973 35.1764 104.302 35.2314 103.853 34.8514C103.824 34.8274 103.081 34.2404 101.723 33.9754C100.599 33.7564 99.5184 34.3114 99.5074 34.3174C99.1764 34.4944 98.7944 34.4794 98.4884 34.3124Z" fill="#3B1034"/>
<path d="M87.5303 51.5984C87.5303 51.5984 95.9053 51.8184 100.544 50.7734C100.544 50.7734 101.144 56.4634 93.9393 56.4124C87.9793 56.3704 87.5303 51.5984 87.5303 51.5984Z" fill="white"/>
<path d="M86.4138 43.6796C86.4388 44.3636 84.6088 44.9856 82.3258 45.0696C80.0428 45.1536 78.1718 44.6676 78.1458 43.9846C78.1208 43.3006 79.9508 42.6786 82.2338 42.5946C84.5178 42.5096 86.3888 42.9956 86.4138 43.6796Z" fill="#FF8E69"/>
<path d="M107.461 44.7189C106.995 44.7889 106.487 44.8379 105.952 44.8589C103.669 44.9419 101.796 44.4569 101.772 43.7719C101.747 43.0899 103.576 42.4679 105.86 42.3819C106.481 42.3579 107.073 42.3789 107.603 42.4339C107.567 43.1839 107.524 43.9459 107.461 44.7189Z" fill="#FF8E69"/>
<path d="M87.2968 38.9C87.3418 40.125 86.8368 41.138 86.1688 41.163C85.5008 41.188 84.9228 40.215 84.8778 38.99C84.8328 37.765 85.3378 36.752 86.0058 36.727C86.6738 36.702 87.2518 37.675 87.2968 38.9Z" fill="#3B1034"/>
<path d="M102.348 38.6549C102.393 39.8799 101.888 40.8929 101.22 40.9179C100.552 40.9429 99.9736 39.9699 99.9286 38.7449C99.8836 37.5199 100.389 36.5069 101.057 36.4819C101.724 36.4569 102.302 37.4299 102.348 38.6549Z" fill="#3B1034"/>
<path d="M93.8182 48.1966C93.5042 48.1436 93.2562 47.8816 93.2332 47.5496C93.2062 47.1606 93.4992 46.8226 93.8882 46.7956C94.5312 46.7506 95.0502 46.6776 95.4142 46.6146C95.0802 44.2716 94.1142 41.0896 94.1032 41.0546C93.9892 40.6816 94.2002 40.2876 94.5732 40.1736C94.9462 40.0596 95.3412 40.2696 95.4552 40.6426C95.5042 40.8036 96.6602 44.6116 96.8962 47.1076C96.9282 47.4506 96.7092 47.7666 96.3772 47.8556C96.3402 47.8656 95.4532 48.1006 93.9882 48.2036C93.9292 48.2096 93.8732 48.2066 93.8182 48.1966Z" fill="#FF8E69"/>
<path d="M69.9072 37.7484C69.9072 37.7484 67.4222 33.5274 63.1552 35.4684C58.8892 37.4084 63.2652 55.8844 73.9652 51.9554L69.9072 37.7484Z" fill="#FFB890"/>
<path d="M68.9818 47.1198C68.6538 47.0638 68.4018 46.7818 68.3948 46.4378C68.2938 41.3508 64.2808 39.2368 64.2398 39.2158C63.8928 39.0378 63.7558 38.6128 63.9328 38.2648C64.1108 37.9178 64.5358 37.7798 64.8838 37.9588C65.0798 38.0588 69.6888 40.4878 69.8068 46.4098C69.8148 46.7998 69.5048 47.1218 69.1148 47.1298C69.0688 47.1308 69.0248 47.1278 68.9818 47.1198Z" fill="#FF8E69"/>
<path d="M64.9417 43.8229C64.7087 43.7839 64.5007 43.6279 64.4057 43.3929C64.2587 43.0319 64.4327 42.6199 64.7937 42.4729C65.0347 42.3749 67.1907 41.5399 68.7437 42.3829C69.0867 42.5689 69.2137 42.9979 69.0267 43.3399C68.8407 43.6829 68.4137 43.8099 68.0697 43.6239C67.2467 43.1759 65.7757 43.5979 65.3267 43.7809C65.1997 43.8319 65.0667 43.8439 64.9417 43.8229Z" fill="#FF8E69"/>
<path d="M85.4459 49.1538C83.6639 48.9208 82.0309 48.0878 80.7839 46.7608C79.3559 45.2408 78.6049 43.2568 78.6699 41.1728C78.7349 39.0888 79.6069 37.1548 81.1259 35.7268C82.6459 34.2988 84.6299 33.5478 86.7139 33.6128C88.7999 33.6778 90.7319 34.5498 92.1599 36.0698C93.5879 37.5888 94.3389 39.5738 94.2739 41.6578C94.2089 43.7418 93.3369 45.6758 91.8179 47.1038C90.2989 48.5318 88.3139 49.2828 86.2299 49.2178C85.9669 49.2088 85.7049 49.1868 85.4459 49.1538ZM87.3909 34.4898C87.1589 34.4598 86.9259 34.4408 86.6899 34.4338C84.8249 34.3758 83.0499 35.0478 81.6899 36.3248C80.3309 37.6028 79.5499 39.3328 79.4919 41.1978C79.4339 43.0628 80.1059 44.8378 81.3829 46.1968C82.6609 47.5568 84.3889 48.3378 86.2559 48.3948C88.1209 48.4528 89.8959 47.7808 91.2549 46.5038C92.6149 45.2258 93.3949 43.4958 93.4529 41.6308C93.5109 39.7668 92.8389 37.9908 91.5619 36.6318C90.4459 35.4438 88.9849 34.6978 87.3909 34.4898Z" fill="white"/>
<path d="M102.438 47.3169C100.753 47.0969 99.2099 46.3089 98.0309 45.0539C96.6809 43.6179 95.9719 41.7409 96.0329 39.7709C96.0939 37.8009 96.9189 35.9719 98.3549 34.6219C99.7909 33.2719 101.667 32.5619 103.638 32.6239C107.702 32.7509 110.911 36.1619 110.785 40.2289C110.659 44.2959 107.247 47.5019 103.18 47.3759C102.93 47.3689 102.682 47.3489 102.438 47.3169ZM104.263 33.4989C104.049 33.4709 103.832 33.4529 103.612 33.4459C101.861 33.3919 100.194 34.0219 98.9179 35.2219C97.6419 36.4209 96.9089 38.0459 96.8549 39.7969C96.8009 41.5479 97.4309 43.2149 98.6309 44.4909C99.8299 45.7669 101.455 46.4999 103.206 46.5539C106.82 46.6659 109.851 43.8169 109.964 40.2029C110.068 36.8109 107.561 33.9309 104.263 33.4989Z" fill="white"/>
<path d="M93.6372 40.4125C93.5072 40.3955 93.3833 40.3325 93.2923 40.2255C93.0973 39.9965 93.1203 39.6555 93.3473 39.4575C93.4053 39.4065 94.7893 38.2335 96.6713 39.2025C96.9403 39.3405 97.0463 39.6715 96.9083 39.9405C96.7703 40.2095 96.4393 40.3155 96.1703 40.1775C94.9623 39.5555 94.0993 40.2585 94.0633 40.2885C93.9403 40.3925 93.7852 40.4325 93.6372 40.4125Z" fill="white"/>
<path d="M79.8545 39.0957C79.7105 39.3617 79.3775 39.4607 79.1115 39.3167C79.0845 39.3037 77.8785 38.6647 76.1665 38.1667C74.3855 37.6447 72.0555 37.2777 69.9365 37.9267C69.9175 37.8117 69.9075 37.7487 69.9075 37.7487C69.7105 37.4747 69.4945 37.2247 69.2715 36.9947C71.6895 36.1317 74.3195 36.4917 76.3245 37.0587C78.1935 37.5857 79.5195 38.2937 79.6315 38.3527C79.8975 38.4967 79.9985 38.8297 79.8545 39.0957Z" fill="white"/>
<path d="M64.1067 181.55C63.6117 181.55 63.1207 181.342 62.7747 180.936C62.1477 180.201 62.2357 179.096 62.9707 178.469C98.6987 148.002 110.101 120.473 113.376 102.743C116.886 83.735 112.079 71.827 112.03 71.709C111.66 70.816 112.083 69.793 112.976 69.422C113.869 69.052 114.893 69.475 115.263 70.368C115.479 70.889 120.514 83.361 116.818 103.378C114.663 115.048 109.96 126.886 102.839 138.563C93.9817 153.089 81.3317 167.411 65.2417 181.131C64.9127 181.413 64.5087 181.55 64.1067 181.55Z" fill="#F6B74C"/>
<path d="M63.353 106.158C63.353 106.158 62.0241 113.302 59.9791 122.33C59.7101 123.516 59.428 124.737 59.135 125.978C58.2491 129.734 57.261 133.683 56.209 137.49C55.995 138.265 55.779 139.035 55.558 139.794C55.45 140.179 55.337 140.561 55.226 140.941C52.743 149.384 49.988 156.552 47.431 158.447C42.296 162.256 29.6351 161.689 35.5211 136.291C36.5071 132.031 37.6511 127.724 38.8691 123.503C39.5041 121.297 40.192 119.125 40.8281 116.981C47.819 93.3347 55.49 80.1787 55.49 80.1787L63.353 106.158Z" fill="#00A580"/>
<path d="M67.1522 101.738L65.1672 108.013L64.4172 110.376L61.1022 120.851C60.9592 119.913 60.8092 118.994 60.6592 118.104L63.2792 109.836L65.9622 101.363C66.0652 101.033 66.4172 100.851 66.7452 100.955C67.0752 101.058 67.2572 101.411 67.1522 101.738Z" fill="#008661"/>
<path d="M63.8748 110.65C63.7038 110.65 63.5348 110.581 63.4108 110.444C63.1788 110.188 63.1988 109.793 63.4548 109.561L67.3878 106.003C67.6438 105.772 68.0388 105.791 68.2708 106.047C68.5028 106.303 68.4828 106.698 68.2268 106.93L64.2938 110.487C64.1738 110.597 64.0238 110.65 63.8748 110.65Z" fill="#008661"/>
<path d="M95.7071 144.285L104.164 143.203L105.267 154.396L97.2241 154.345C97.2241 154.345 94.4441 150.547 95.7071 144.285Z" fill="#FFB890"/>
<path d="M104.164 143.203C104.164 143.203 109.876 138.251 112.724 137.901C116.391 137.45 117.89 141.827 117.89 141.827L104.164 143.203Z" fill="#FF8E69"/>
<path d="M113.104 151.076V143.162C113.104 140.261 115.464 137.901 118.365 137.901H125.067C127.968 137.901 130.328 140.261 130.328 143.162V151.076C130.328 153.977 127.968 156.337 125.067 156.337H118.365C115.464 156.337 113.104 153.977 113.104 151.076ZM118.365 140.602C116.954 140.602 115.805 141.75 115.805 143.162V151.076C115.805 152.487 116.953 153.636 118.365 153.636H125.067C126.478 153.636 127.627 152.488 127.627 151.076V143.162C127.627 141.751 126.479 140.602 125.067 140.602H118.365Z" fill="#E8311B"/>
<path d="M119.151 160.818C125.701 162.787 132.251 162.787 138.801 160.818V133.92C132.251 133.465 125.701 133.465 119.151 133.92V160.818Z" fill="#FF6129"/>
<path d="M128.579 153.185C128.579 153.185 138.65 142.034 134.28 139.296C129.908 136.559 128.579 153.185 128.579 153.185Z" fill="#E8311B"/>
<path d="M126.413 159.023C126.586 159.048 126.759 158.952 126.826 158.783L131.888 146.014C131.967 145.816 131.87 145.592 131.671 145.513C131.473 145.434 131.249 145.531 131.17 145.73L126.108 158.499C126.029 158.697 126.126 158.921 126.325 159C126.354 159.011 126.384 159.019 126.413 159.023Z" fill="#BE2D08"/>
<path d="M128.575 152.41C128.575 152.41 129.18 137.396 124.069 138.089C118.959 138.782 128.575 152.41 128.575 152.41Z" fill="#E8311B"/>
<path d="M128.673 153.104C128.73 153.112 128.789 153.107 128.847 153.088C129.049 153.022 129.16 152.803 129.093 152.601L126.529 144.782C126.463 144.579 126.244 144.469 126.042 144.535C125.839 144.601 125.729 144.82 125.795 145.022L128.359 152.841C128.407 152.986 128.532 153.084 128.673 153.104Z" fill="#BE2D08"/>
<path d="M104.497 154.682C104.497 154.682 115.203 159.116 118.678 154.649C123.163 148.885 122.533 142.254 116.939 139.391C113.502 137.632 106.95 143.099 102.644 143.317C102.644 143.317 100.15 152.753 104.497 154.682Z" fill="#FFB890"/>
<path d="M48.0086 140.26C48.0086 140.26 38.0716 141.247 35.5786 151.255C33.0856 161.263 48.5606 162.485 63.1956 160.096C77.8306 157.707 99.5576 154.885 99.5576 154.885C98.6516 151.631 98.3516 147.572 99.2266 143.546C99.2266 143.546 85.8036 143.749 75.0496 141.495C69.3276 140.294 55.5896 139.225 48.0086 140.26Z" fill="#00A580"/>
<path d="M56.2094 137.489C55.9954 138.264 55.7794 139.034 55.5584 139.793C51.6674 139.743 45.2754 140.478 41.3184 141.203C41.3184 141.203 47.8724 137.181 56.2094 137.489Z" fill="#3B1034"/>
<path d="M26.131 53.9019C24.861 63.1529 24.5141 75.8239 24.9391 89.1419C24.9451 89.3399 25.022 89.5289 25.154 89.6759C25.676 90.2539 26.6351 89.8619 26.6061 89.0829C25.3921 57.1869 28.962 36.8729 37.127 29.0889C37.432 28.7979 37.5 28.3199 37.242 27.9869C36.946 27.6059 36.396 27.5719 36.055 27.8949C31.207 32.4919 27.868 41.2409 26.131 53.9019Z" fill="#00A580"/>
<path d="M28.6199 42.7445C28.6199 42.7445 21.9209 42.5345 22.7509 30.7715C22.7509 30.7715 32.9139 34.0005 28.6199 42.7445Z" fill="#00CCA1"/>
<path d="M27.879 48.7866C27.879 48.7866 27.716 42.0866 39.507 42.2596C39.507 42.2596 36.848 52.5876 27.879 48.7866Z" fill="#00CCA1"/>
<path d="M33.4934 32.4196C33.4934 32.4196 31.1054 26.1566 42.2804 22.3896C42.2804 22.3896 43.2164 33.0116 33.4934 32.4196Z" fill="#00CCA1"/>
<path d="M26.0125 60.8964C26.0125 60.8964 19.6375 62.9644 16.4395 51.6144C16.4395 51.6144 27.0945 51.2164 26.0125 60.8964Z" fill="#00CCA1"/>
<path d="M26.1895 67.1675C26.1895 67.1675 24.8705 60.5965 36.5135 58.7285C36.5135 58.7285 35.6815 69.3595 26.1895 67.1675Z" fill="#00CCA1"/>
<path d="M25.5781 75.7767C25.5781 75.7767 19.2431 77.9657 15.8311 66.6777C15.8311 66.6777 26.4781 66.0767 25.5781 75.7767Z" fill="#00CCA1"/>
<path d="M168.767 152.452C164.238 160.618 156.921 170.968 148.597 181.374C148.473 181.528 148.299 181.634 148.105 181.672C147.34 181.822 146.808 180.933 147.299 180.327C167.39 155.524 176.709 137.124 174.841 126C174.771 125.585 175.003 125.161 175.409 125.049C175.874 124.921 176.335 125.224 176.414 125.687C177.538 132.271 174.965 141.276 168.767 152.452Z" fill="#00A580"/>
<path d="M173.462 142.029C173.462 142.029 178.95 145.876 185.337 135.963C185.337 135.963 175.267 132.456 173.462 142.029Z" fill="#00CCA1"/>
<path d="M170.433 147.309C170.433 147.309 174.58 142.044 165.038 135.115C165.038 135.115 160.976 144.975 170.433 147.309Z" fill="#00CCA1"/>
<path d="M175.751 130.843C175.751 130.843 181.416 127.262 174.73 117.548C174.73 117.548 167.613 125.489 175.751 130.843Z" fill="#00CCA1"/>
<path d="M164.668 158.121C164.668 158.121 168.531 163.598 177.895 156.43C177.895 156.43 169.604 149.723 164.668 158.121Z" fill="#00CCA1"/>
<path d="M160.768 163.034C160.768 163.034 165.763 158.565 157.563 150.091C157.563 150.091 151.857 159.099 160.768 163.034Z" fill="#00CCA1"/>
<path d="M156.097 170.291C156.097 170.291 159.855 175.84 169.353 168.851C169.353 168.851 161.191 161.989 156.097 170.291Z" fill="#00CCA1"/>
<path d="M132.005 51.4216C132.005 51.4216 128.107 32.3506 134.786 32.1736C141.465 31.9966 132.005 51.4216 132.005 51.4216Z" fill="#00CCA1"/>
<path d="M130.578 59.3617C130.369 59.2757 130.24 59.0547 130.276 58.8227L133.033 41.2437C133.076 40.9707 133.332 40.7847 133.604 40.8267C133.877 40.8687 134.062 41.1257 134.02 41.3977L131.264 58.9767C131.221 59.2497 130.964 59.4357 130.692 59.3927C130.652 59.3867 130.614 59.3767 130.578 59.3617Z" fill="#00A580"/>
<path d="M132.52 50.5588C132.52 50.5588 141.727 33.4088 146.973 37.5458C152.219 41.6828 132.52 50.5588 132.52 50.5588Z" fill="#00CCA1"/>
<path d="M131.953 51.2685C131.885 51.2405 131.821 51.1965 131.769 51.1365C131.587 50.9295 131.607 50.6135 131.815 50.4305L139.822 43.3945C140.03 43.2125 140.345 43.2335 140.528 43.4405C140.71 43.6475 140.69 43.9635 140.482 44.1465L132.475 51.1825C132.327 51.3115 132.124 51.3385 131.953 51.2685Z" fill="#00A580"/>
<path d="M23.5886 129.505C23.5886 129.505 22.7406 110.058 16.2186 111.507C9.69657 112.956 23.5886 129.505 23.5886 129.505Z" fill="#00CCA1"/>
<path d="M26.8982 136.862C27.0792 136.728 27.1532 136.482 27.0612 136.265L20.1202 119.881C20.0122 119.627 19.7192 119.508 19.4652 119.616C19.2102 119.723 19.0922 120.017 19.2002 120.271L26.1412 136.655C26.2492 136.909 26.5422 137.028 26.7962 136.92C26.8332 136.904 26.8672 136.885 26.8982 136.862Z" fill="#00A580"/>
<path d="M22.88 128.793C22.88 128.793 9.785 114.39 5.7 119.677C1.615 124.964 22.88 128.793 22.88 128.793Z" fill="#00CCA1"/>
<path d="M23.6006 129.344C23.6606 129.3 23.7106 129.242 23.7476 129.171C23.8736 128.926 23.7776 128.624 23.5326 128.498L14.0566 123.616C13.8116 123.49 13.5096 123.586 13.3836 123.831C13.2576 124.076 13.3536 124.378 13.5986 124.504L23.0746 129.386C23.2486 129.477 23.4526 129.454 23.6006 129.344Z" fill="#00A580"/>
<path d="M123.608 15.1787C124.542 15.7887 125.794 15.5257 126.403 14.5897C127.012 13.6537 126.749 12.4007 125.815 11.7907C124.881 11.1807 123.629 11.4437 123.02 12.3797C122.411 13.3147 122.674 14.5677 123.608 15.1787Z" fill="#FF6129"/>
<path d="M150.23 128.196C151.164 128.806 152.416 128.543 153.025 127.607C153.634 126.671 153.371 125.418 152.437 124.808C151.503 124.198 150.251 124.461 149.642 125.397C149.032 126.332 149.296 127.585 150.23 128.196Z" fill="#FF6129"/>
<path d="M6.09482 146.089C7.02882 146.699 8.28082 146.436 8.88982 145.5C9.49882 144.564 9.23583 143.311 8.30183 142.7C7.36783 142.09 6.11582 142.353 5.50682 143.289C4.89782 144.225 5.16082 145.479 6.09482 146.089Z" fill="#FF6129"/>
<path d="M190.78 106.781C191.714 107.391 192.966 107.127 193.575 106.192C194.184 105.256 193.921 104.003 192.987 103.392C192.053 102.782 190.801 103.045 190.192 103.981C189.582 104.917 189.846 106.171 190.78 106.781Z" fill="#008661"/>
<path d="M21.9966 166.874C22.9306 167.484 24.1826 167.221 24.7916 166.285C25.4006 165.349 25.1376 164.096 24.2036 163.485C23.2696 162.875 22.0176 163.139 21.4086 164.074C20.7986 165.01 21.0626 166.263 21.9966 166.874Z" fill="#008661"/>
<path d="M185.44 166.874C186.374 167.484 187.626 167.221 188.235 166.285C188.844 165.349 188.581 164.096 187.647 163.485C186.713 162.875 185.461 163.139 184.852 164.074C184.243 165.01 184.506 166.263 185.44 166.874Z" fill="#008661"/>
<path d="M31.6572 108.849C31.6572 109.966 30.7532 110.872 29.6372 110.872C28.5212 110.872 27.6172 109.966 27.6172 108.849C27.6172 107.732 28.5212 106.826 29.6372 106.826C30.7532 106.826 31.6572 107.732 31.6572 108.849Z" fill="#FF6129"/>
<path d="M15.333 92.0958C15.333 93.2128 14.429 94.1188 13.313 94.1188C12.198 94.1188 11.293 93.2128 11.293 92.0958C11.293 90.9788 12.197 90.0728 13.313 90.0728C14.429 90.0728 15.333 90.9788 15.333 92.0958Z" fill="#008661"/>
<path d="M149.321 62.7978C149.415 63.9108 150.392 64.7378 151.503 64.6438C152.615 64.5498 153.44 63.5718 153.346 62.4578C153.252 61.3448 152.275 60.5178 151.164 60.6118C150.052 60.7058 149.227 61.6838 149.321 62.7978Z" fill="#FF6129"/>
<path d="M164.182 44.7294C164.276 45.8424 165.253 46.6694 166.364 46.5754C167.475 46.4814 168.3 45.5034 168.207 44.3894C168.113 43.2764 167.136 42.4494 166.025 42.5434C164.913 42.6374 164.088 43.6154 164.182 44.7294Z" fill="#008661"/>
<path d="M34.4487 9.92863C34.5427 11.0416 35.5197 11.8686 36.6307 11.7746C37.7417 11.6806 38.5677 10.7026 38.4737 9.58863C38.3797 8.47563 37.4027 7.64863 36.2917 7.74263C35.1797 7.83663 34.3547 8.81563 34.4487 9.92863Z" fill="#008661"/>
</svg>
