<svg width="149" height="386" viewBox="0 0 149 386" fill="none" xmlns="http://www.w3.org/2000/svg">
<path d="M77.2397 96.8041L60.3467 95.8221L61.7867 79.0601L77.4997 79.9721L77.2397 96.8041Z" fill="#FF8E6E"/>
<path d="M77.2397 96.8041L60.3467 95.8221L61.7867 79.0601L77.4997 79.9721L77.2397 96.8041Z" fill="black"/>
<path d="M77.7588 79.3374L77.4598 91.8394C74.7058 92.6024 71.7348 92.7364 68.7638 92.0664C65.6378 91.3754 62.8948 89.8904 60.6768 87.8684L61.5538 78.3994L77.7588 79.3374Z" fill="#CE6042"/>
<path d="M47.4113 67.3001C49.7183 70.6951 54.0113 71.8001 57.0003 69.7691C59.9893 67.7381 60.5423 63.3391 58.2363 59.9451C55.9293 56.5511 51.6363 55.4451 48.6473 57.4761C45.6583 59.5081 45.1053 63.9061 47.4113 67.3001Z" fill="#FF8E6E"/>
<path d="M49.8887 60.0527C49.8887 60.0527 55.7657 60.3947 55.5797 66.5297L49.8887 60.0527Z" fill="#CE6042"/>
<path d="M96.4246 75.0048C93.1876 77.5278 88.7626 77.2628 86.5406 74.4128C84.3186 71.5628 85.1416 67.2068 88.3786 64.6838C91.6156 62.1608 96.0406 62.4258 98.2626 65.2758C100.485 68.1258 99.6616 72.4818 96.4246 75.0048Z" fill="#FF8E6E"/>
<path d="M96.2917 67.3472C96.2917 67.3472 90.5927 65.8702 88.8877 71.7652L96.2917 67.3472Z" fill="#CE6042"/>
<path d="M69.0806 89.203C59.6336 87.718 53.1196 78.774 54.6046 69.328L56.9026 54.707C58.3876 45.26 67.3316 38.746 76.7776 40.231C86.2246 41.716 92.7385 50.66 91.2535 60.107L88.9556 74.728C87.4716 84.174 78.5276 90.688 69.0806 89.203Z" fill="#FF8E6E"/>
<path d="M65.8227 64.8878C65.2457 64.7968 64.8477 64.2508 64.9387 63.6738L65.5307 59.9048C65.6217 59.3278 66.1677 58.9298 66.7447 59.0208C67.3217 59.1118 67.7197 59.6578 67.6287 60.2348L67.0367 64.0038C66.9457 64.5808 66.3997 64.9778 65.8227 64.8878Z" fill="#601222"/>
<path d="M79.6426 67.0601C79.0656 66.9691 78.6676 66.4231 78.7586 65.8461L79.3506 62.0771C79.4416 61.5001 79.9876 61.1021 80.5646 61.1931C81.1416 61.2841 81.5396 61.8301 81.4486 62.4071L80.8566 66.1761C80.7656 66.7531 80.2196 67.1511 79.6426 67.0601Z" fill="#601222"/>
<path d="M75.0338 63.9912C75.0338 63.9912 73.8377 67.6252 75.8197 69.7112L73.5107 71.3942" stroke="#CE6042" stroke-miterlimit="10" stroke-linecap="round" stroke-linejoin="round"/>
<path d="M77.5043 75.4014C76.9743 78.7714 73.8123 81.0744 70.4423 80.5454C67.0713 80.0154 64.7693 76.8534 65.2983 73.4834L77.5043 75.4014Z" fill="#FFEBDB"/>
<path d="M94.3736 41.7081C93.2176 40.3751 88.8465 41.8941 86.4395 42.4091C87.4585 40.6001 88.1656 37.5141 86.0565 36.6641C81.4615 34.8131 63.8035 40.0201 60.7635 42.2491C56.6695 45.2511 55.8936 61.1291 55.8936 61.1291C55.8936 61.1291 60.9576 58.2861 61.1566 56.9121C61.3556 55.5381 60.4376 53.0011 60.5416 51.6911C60.8076 48.3191 64.9006 43.7491 70.2336 45.3861C72.0866 45.9551 75.7245 48.6861 75.7245 48.6861C75.7245 48.6861 80.0706 47.3411 82.0066 47.4301C87.5796 47.6871 89.8926 53.3691 89.0066 56.6341C88.6616 57.9021 86.9425 59.9821 86.6675 61.3421C86.3915 62.7021 90.1646 67.0461 90.1646 67.0461C90.1646 67.0461 90.6346 65.8711 91.1216 64.0071C92.9806 57.8841 96.7116 44.4021 94.3736 41.7081Z" fill="#174566"/>
<path d="M49.6546 360.145V381.564H14.0596C14.1286 381.287 14.2416 381.028 14.3966 380.786C16.0996 378.054 18.0266 375.479 19.4876 372.618C20.3776 370.881 23.0316 365.668 23.0316 365.668L24.8816 360.145H49.6546Z" fill="#174566"/>
<path d="M49.6546 381.563V382.904C49.6546 384.287 48.5396 385.401 47.1656 385.401H16.9636C15.1576 385.401 14.0856 384.053 13.9646 382.626C13.9386 382.272 13.9646 381.909 14.0596 381.563H49.6546Z" fill="#FFEBDB"/>
<path d="M24.8804 360.144V336.217L52.4824 337.622L49.6544 360.144H24.8804Z" fill="#FF8E6E"/>
<path d="M86.9985 360.145V381.478H148.897C148.888 380.043 148.11 378.6 146.399 377.96L127.538 371.278L111.772 360.162L86.9985 360.145Z" fill="#174566"/>
<path d="M86.9985 381.478V385.402H145.068C147.367 385.402 148.742 383.673 148.88 381.858C148.889 381.728 148.897 381.607 148.897 381.478H86.9985Z" fill="#FFEBDB"/>
<path d="M86.9954 360.144L82.8984 336.217L110.739 337.622L111.771 360.161L86.9954 360.144Z" fill="#FF8E6E"/>
<path d="M114.527 344.641L79.9774 348.071L63.9574 185.881L54.7775 348.601L20.1274 346.631L29.3974 181.591L30.0275 170.681C39.6575 173.081 66.6474 178.951 98.2274 178.391L98.1774 179.191L114.527 344.641Z" fill="#8DB5EB"/>
<path d="M119.78 208.355C120.013 209.333 120.17 210.037 120.17 210.037C120.329 210.813 120.831 213.847 123.556 212.935C125.297 212.358 126.432 210.685 126.045 208.886L124.999 203.741C124.919 203.382 124.571 201.821 125.252 201.496C126.323 200.967 127.808 206.522 128.34 208.519C128.937 210.676 131.118 218.958 131.118 218.958C131.458 220.549 132.916 222.34 135.164 221.825L135.167 221.839C135.229 222.115 136.306 225.46 139.431 224.904C141.201 224.589 142.224 222.672 141.888 220.906C141.888 220.906 140.449 207.497 140.146 206.205C138.975 201.217 133.546 188.516 133.546 188.516L118.323 195.707C117.428 197.445 117.794 199.39 117.602 201.521C117.482 202.794 119.35 206.494 119.78 208.355Z" fill="#FF8E6E"/>
<path d="M132.845 201.879L136.084 211.106L136.088 211.122L137.096 216.88L137.344 218.323C137.416 218.822 137.344 219.327 137.184 219.796C136.864 220.743 136.102 221.505 135.193 221.886C135.166 221.897 135.135 221.885 135.124 221.858C135.114 221.835 135.122 221.809 135.142 221.795L135.15 221.789C135.95 221.211 136.499 220.442 136.624 219.605C136.707 219.203 136.697 218.77 136.598 218.439L136.233 217.039C136.008 216.088 135.778 215.138 135.591 214.18C135.407 213.221 135.205 212.266 135.062 211.3L135.1 211.447C134.585 209.901 134.111 208.34 133.714 206.753C133.502 205.964 133.327 205.162 133.161 204.357C133.02 203.543 132.836 202.745 132.744 201.914L132.743 201.902C132.74 201.873 132.761 201.847 132.789 201.844C132.815 201.841 132.838 201.856 132.845 201.879Z" fill="#CE6042"/>
<path d="M1.6145 11.091C3.0335 10.418 4.73251 11.015 5.40651 12.425L9.85651 21.731C10.0015 21.614 10.1515 21.517 10.2945 21.408L5.76251 6.52904C5.30651 5.02904 6.15451 3.43704 7.65451 2.98104C9.16351 2.52804 10.7465 3.37304 11.2025 4.87304L15.6275 19.385C15.6735 19.379 15.7115 19.37 15.7585 19.363L16.1235 19.336L14.9515 3.65204C14.8335 2.09104 16.0115 0.72404 17.5715 0.60604C19.1405 0.49004 20.4995 1.66604 20.6175 3.22604L21.8215 19.258C22.0005 19.293 22.1745 19.318 22.3535 19.353L23.3125 9.02904C23.4555 7.46104 24.8395 6.31404 26.3985 6.45504C27.9745 6.60004 29.1115 7.99004 28.9705 9.55004L27.7685 22.502C27.8465 22.584 27.9215 22.683 27.9995 22.765C29.6975 19.68 31.4825 17.593 31.6065 17.453C32.6335 16.263 34.4275 16.14 35.6175 17.166C36.7965 18.199 36.9305 19.987 35.8955 21.175C34.7575 22.49 31.8495 27.604 30.5555 32.066C29.1565 36.889 25.5635 40.16 20.7675 40.541L17.4435 40.799C11.5425 41.266 6.3475 36.82 5.8775 30.928C5.7815 29.678 5.91751 28.466 6.22751 27.315L0.279509 14.882C-0.400491 13.462 0.204501 11.765 1.6145 11.091Z" fill="#FF8E6E"/>
<path d="M17.8155 33.2214C17.4655 32.1384 17.3605 30.9314 17.6525 29.7524C17.7775 29.1584 18.0225 28.5914 18.2995 28.0334C18.6425 27.5244 18.9585 26.9674 19.4225 26.5494C19.6345 26.3184 19.8655 26.1134 20.1105 25.9264C20.3525 25.7354 20.5835 25.5244 20.8545 25.3824C21.3775 25.0624 21.9255 24.8044 22.4805 24.5814C23.6275 24.1874 24.7485 23.9884 26.0005 24.0584L25.3445 24.4124C25.7265 24.0834 26.1005 23.7484 26.5145 23.4434C26.9125 23.1274 27.3485 22.8384 27.8055 22.5674L27.8295 22.5534C27.8635 22.5324 27.9085 22.5444 27.9285 22.5784C27.9435 22.6044 27.9415 22.6364 27.9245 22.6584L26.1485 25.0264C26.1315 25.0494 26.1065 25.0624 26.0805 25.0664L26.0735 25.0674C23.9925 25.3254 21.9555 26.1854 20.4145 27.5954C20.0145 27.9364 19.7035 28.3594 19.3745 28.7674C19.1125 29.2194 18.8085 29.6524 18.6375 30.1524C18.1985 31.1134 18.0625 32.1754 17.9665 33.2254C17.9625 33.2654 17.9265 33.2954 17.8865 33.2914C17.8565 33.2884 17.8325 33.2684 17.8235 33.2414L17.8155 33.2214Z" fill="#CE6042"/>
<path d="M101.408 123.641L98.2583 177.781L98.2283 178.391C66.6483 178.951 39.6583 173.081 30.0283 170.681L30.0683 170.111L32.9883 119.671C33.8083 105.671 45.8083 94.9812 59.8083 95.7912L77.5283 96.8212C91.5273 97.6312 102.217 109.641 101.408 123.641Z" fill="#FFEBDB"/>
<path d="M101.408 123.641L98.2583 177.781L98.2283 178.391C66.6483 178.951 39.6583 173.081 30.0283 170.681L30.0683 170.111L32.9883 119.671C33.8083 105.671 45.8083 94.9812 59.8083 95.7912L77.5283 96.8212C91.5273 97.6312 102.217 109.641 101.408 123.641Z" fill="black"/>
<path d="M82.8774 95.3109C82.0174 103.061 75.5174 108.481 67.6174 107.671C59.1474 106.791 52.2874 99.0609 52.2974 90.4009L82.8774 95.3109Z" fill="#FF8E6E"/>
<path d="M31.9176 119.792V119.791C31.7556 119.682 31.8356 119.736 31.9176 119.792Z" fill="#174566"/>
<path d="M48.8472 91.951H48.4472C46.0872 90.131 42.6672 87.491 42.6672 87.491C40.1272 85.561 37.6272 83.551 35.8972 82.061L34.0972 80.461C34.0272 80.271 33.9572 80.091 33.8872 79.871C33.1072 77.531 32.4272 74.271 31.8472 70.991C31.2372 67.691 30.7172 64.211 30.1672 60.691C29.0972 53.671 28.0772 45.441 26.6272 38.231L10.5572 38.961C8.34723 45.961 6.87723 53.401 5.81723 60.621C5.25723 64.491 4.85723 68.4009 4.64723 72.4709C4.47723 76.5709 4.42723 80.691 5.05723 85.601C5.22723 86.831 5.46724 88.161 5.79724 89.591C9.19724 103.061 20.8572 112.441 31.9172 119.791C32.0902 119.908 32.0022 119.849 31.9172 119.792L29.7312 143.446C29.7312 143.446 26.9502 150.09 25.7372 152.707C23.6452 157.221 28.1022 160.295 28.1022 160.295L28.0452 162.189L54.4882 165.771C57.4082 142.281 60.3462 95.822 60.3462 95.822C56.9062 92.532 51.9182 91.951 48.8472 91.951Z" fill="#33658A"/>
<path d="M53.8867 170.202C53.0567 170.835 45.6537 169.9 39.3977 168.856C33.6077 167.89 27.4937 166.909 26.6317 165.771C26.0647 165.023 26.5917 160.909 27.3977 160.386C28.0917 159.935 33.1597 161.187 41.0437 162.194C50.8847 163.45 54.9717 163.431 55.1637 164.388C55.4287 165.717 54.8707 169.451 53.8867 170.202Z" fill="#174566"/>
<path d="M60.8008 90.5331C60.8008 90.5331 54.6207 90.4091 52.6257 92.5441C50.6647 94.6431 51.7757 101.29 52.6257 104.033C54.9397 111.504 58.9047 115.807 58.9047 115.807L60.3457 95.8221L60.8008 90.5331Z" fill="#174566"/>
<path d="M8.18867 44.1037C7.61467 43.6127 7.37568 39.1387 8.39168 38.0357C8.94868 37.4307 10.6167 38.2067 18.7217 37.9747C24.1417 37.8197 28.0297 36.9807 28.3787 37.1977C29.2647 37.7477 29.1107 41.8417 28.2687 43.0827C27.2847 44.5307 10.0497 45.6937 8.18867 44.1037Z" fill="#174566"/>
<path d="M133.548 188.511L118.328 195.711C115.318 189.541 111.498 182.281 108.948 176.001C107.638 172.871 106.448 169.711 105.198 166.581C103.438 161.961 102.174 158.397 100.124 153.967L100.05 156.95C100.05 156.95 102.329 162.707 102.557 164.851C102.892 168.011 99.7717 168.255 99.7717 168.255L99.7277 170.037C89.3737 169.503 75.8447 167.58 75.8447 167.58L77.2397 96.8052C77.3997 96.8152 77.8677 96.8542 78.8687 96.9322C92.4087 98.2022 109.469 105.152 113.569 113.772C116.509 119.972 117.539 121.972 120.209 128.312C121.579 131.472 122.809 134.682 124.119 138.012C126.799 144.862 128.379 152.262 129.709 159.552C130.328 162.921 132.928 181.651 133.548 188.511Z" fill="#33658A"/>
<path d="M77.3173 91.7578C77.3173 91.7578 83.6812 94.1008 84.8012 95.7468C86.3632 98.0418 85.0282 103.212 83.9342 105.868C80.9562 113.1 76.8643 115.806 76.8643 115.806L77.2383 96.8028L77.3173 91.7578Z" fill="#174566"/>
<path d="M117.259 195.929C115.807 195.553 114.143 191.91 114.683 190.511C114.979 189.744 119.582 188.407 124.003 186.44C128.598 184.396 132.942 181.529 133.322 181.685C134.71 182.254 135.086 186.222 134.758 187.685C134.375 189.393 118.577 196.271 117.259 195.929Z" fill="#174566"/>
<path d="M100.048 153.962L100.727 139.445L101.555 124.936C101.557 124.895 101.593 124.864 101.633 124.866C101.669 124.868 101.697 124.895 101.702 124.929L101.704 124.944C102.073 127.388 102.28 129.825 102.321 132.252C102.377 133.468 102.337 134.678 102.345 135.891L102.224 139.523C102.073 141.94 101.893 144.356 101.564 146.765C101.271 149.175 100.815 151.577 100.197 153.97L100.193 153.984C100.183 154.024 100.142 154.048 100.103 154.037C100.069 154.029 100.047 153.997 100.048 153.962Z" fill="#174566"/>
<path d="M103.313 154.342C103.573 153.632 103.893 152.952 104.229 152.278C104.563 151.603 104.909 150.928 105.323 150.294C105.728 149.653 106.15 149.02 106.62 148.407C107.088 147.793 107.591 147.188 108.232 146.674C108.552 146.415 108.888 146.162 109.292 145.955C109.695 145.732 110.196 145.61 110.607 145.544C111.468 145.416 112.289 145.47 113.081 145.579C114.672 145.82 116.098 146.374 117.536 147.024C117.947 147.209 118.13 147.693 117.945 148.104C117.829 148.362 117.59 148.531 117.331 148.575C116.345 148.734 115.323 148.98 114.326 149.221C113.318 149.448 112.318 149.713 111.333 150.028C110.352 150.352 109.39 150.725 108.428 151.116C107.479 151.533 106.568 152.029 105.677 152.599L105.67 152.603C105.647 152.618 105.616 152.611 105.601 152.588C105.587 152.567 105.592 152.539 105.611 152.523C107.226 151.147 109.14 150.191 111.1 149.422C113.071 148.669 115.103 148.085 117.177 147.681L117.155 147.845C115.802 147.255 114.377 146.798 112.924 146.547C112.198 146.428 111.456 146.367 110.73 146.46C109.995 146.525 109.347 146.896 108.771 147.354C107.62 148.278 106.685 149.453 105.806 150.644C104.936 151.846 104.133 153.1 103.4 154.391C103.387 154.415 103.356 154.423 103.332 154.41C103.31 154.398 103.302 154.372 103.31 154.35L103.313 154.342Z" fill="#174566"/>
<path d="M100.427 174.64C99.9296 175.086 92.9386 174.863 86.4956 174.281C80.4476 173.734 74.7906 172.893 74.5526 171.881C74.2086 170.423 74.6426 166.343 75.2656 165.953C75.9666 165.514 80.1536 166.287 88.5926 167.101C98.4676 168.054 100.717 168.025 101.026 168.952C101.312 169.813 101.221 173.928 100.427 174.64Z" fill="#174566"/>
</svg>
