<svg width="145" height="348" viewBox="0 0 145 348" fill="none" xmlns="http://www.w3.org/2000/svg">
<path opacity="0.5" d="M77.1279 347.644C114.499 347.644 144.795 342.048 144.795 335.144C144.795 328.24 114.499 322.644 77.1279 322.644C39.7565 322.644 9.46094 328.24 9.46094 335.144C9.46094 342.048 39.7565 347.644 77.1279 347.644Z" fill="#FDE0D5"/>
<path d="M97.856 309.271C97.856 309.271 97.392 315.965 97.856 319.311C98.095 321.034 88.658 320.873 86.289 319.311C86.392 313.677 86.083 304.306 86.083 304.306" fill="#EAA07F"/>
<path d="M101.968 328.46C100.798 330.07 92.198 335.09 85.108 338.97C76.088 343.92 67.598 339.52 68.278 336.71C68.378 336.29 68.588 335.86 68.878 335.41C70.488 332.85 74.698 330.01 77.208 328.6C80.158 326.96 82.858 320.71 84.558 319.34C85.298 318.74 85.478 318.89 85.478 318.89C88.828 319.77 92.268 319.42 94.738 318.9C96.878 318.46 98.298 317.89 98.298 317.89C99.458 317.89 99.738 318.99 99.738 319.95C99.738 320.91 103.138 326.85 101.968 328.46Z" fill="#2B2B2B"/>
<path d="M86.2389 327.056C86.2389 327.056 82.1099 323.328 80.3329 324.034C79.1839 324.49 81.8779 324.64 83.8699 326.398C85.8609 328.154 87.1319 328.361 86.2389 327.056Z" fill="#E2E2F2"/>
<path d="M84.7619 329.032C84.7619 329.032 80.6329 325.304 78.8549 326.01C77.7059 326.466 80.3999 326.616 82.3919 328.373C84.3849 330.131 85.6549 330.337 84.7619 329.032Z" fill="#E2E2F2"/>
<path d="M83.2858 331.009C83.2858 331.009 79.1568 327.281 77.3798 327.987C76.2308 328.443 78.9248 328.593 80.9168 330.351C82.9078 332.107 84.1788 332.313 83.2858 331.009Z" fill="#E2E2F2"/>
<path d="M101.968 328.46C100.798 330.07 92.198 335.09 85.108 338.97C76.088 343.92 67.598 339.52 68.278 336.71C68.378 336.29 68.588 335.86 68.878 335.41C82.998 340.68 91.088 327.54 94.738 318.9C96.878 318.46 98.298 317.89 98.298 317.89C99.458 317.89 99.738 318.99 99.738 319.95C99.738 320.91 103.138 326.85 101.968 328.46Z" fill="#191919"/>
<path d="M70.878 300.387C70.878 300.387 71.941 309.222 72.345 313.243C71.109 314.467 63.16 315.493 60.791 313.78C60.523 307.665 59.314 299.904 59.314 299.904" fill="#EAA07F"/>
<path d="M76.358 322.86C75.188 324.47 66.588 329.49 59.498 333.37C50.488 338.31 41.988 333.92 42.678 331.1C42.718 330.92 42.788 330.73 42.868 330.54C44.038 327.83 48.838 324.54 51.598 323C54.558 321.35 57.248 315.11 58.948 313.73C59.688 313.14 59.868 313.29 59.868 313.29C64.328 314.46 68.948 313.45 71.238 312.77C72.148 312.5 72.688 312.28 72.688 312.28C73.858 312.28 74.128 313.38 74.128 314.34C74.128 315.31 77.528 321.25 76.358 322.86Z" fill="#2B2B2B"/>
<path d="M60.632 321.45C60.632 321.45 56.503 317.722 54.725 318.428C53.576 318.884 56.27 319.034 58.262 320.792C60.255 322.549 61.525 322.755 60.632 321.45Z" fill="#E2E2F2"/>
<path d="M59.1559 323.427C59.1559 323.427 55.0269 319.699 53.2499 320.405C52.1009 320.861 54.7949 321.011 56.7869 322.768C58.7779 324.526 60.0489 324.732 59.1559 323.427Z" fill="#E2E2F2"/>
<path d="M57.6789 325.403C57.6789 325.403 53.5499 321.675 51.7719 322.381C50.6229 322.837 53.3169 322.987 55.3089 324.744C57.3009 326.502 58.5719 326.708 57.6789 325.403Z" fill="#E2E2F2"/>
<path d="M76.358 322.86C75.188 324.47 66.588 329.49 59.498 333.37C50.488 338.31 41.988 333.92 42.678 331.1C42.718 330.92 42.788 330.73 42.868 330.54C50.328 330.5 67.898 328.67 71.238 312.77C72.148 312.5 72.688 312.28 72.688 312.28C73.858 312.28 74.128 313.38 74.128 314.34C74.128 315.31 77.528 321.25 76.358 322.86Z" fill="#191919"/>
<path d="M23.2981 74.5401L16.4581 79.5501C16.4581 79.5501 14.9981 74.7401 14.5481 72.8901C14.4881 72.6601 14.4481 72.4901 14.4281 72.3601C14.3481 71.9101 13.9881 71.2901 13.4881 70.6101C12.7181 69.5301 11.6081 68.2901 10.7881 67.3101C13.7281 63.8301 19.8281 58.1001 19.8281 58.1001C19.8281 58.1001 19.8381 58.2201 19.8581 58.4401V58.4701C19.9781 59.5101 20.2881 62.6001 20.6481 65.3901C20.9081 67.4801 21.1881 69.4101 21.4081 70.1601C21.6781 71.0901 22.1081 72.1101 22.4981 72.9301C22.9281 73.8601 23.2981 74.5401 23.2981 74.5401Z" fill="#EAA07F"/>
<path d="M13.239 68.6723C14.787 68.8513 19.802 66.3783 19.762 61.2723C19.726 56.5423 20.594 55.4303 20.104 51.9963C19.679 49.0223 18.596 51.3763 17.621 53.6053C16.646 55.8333 16.796 56.9483 15.062 55.6313C13.328 54.3153 8.88499 46.2653 6.74799 45.1443C4.60999 44.0233 10.244 54.2663 10.244 54.2663C10.244 54.2663 4.081 46.4463 2.737 46.7873C1.128 47.1963 7.23499 55.9233 7.23499 55.9233C7.23499 55.9233 1.05098 50.0323 0.544984 50.4493C-0.438016 51.2593 4.79801 58.0963 4.79801 58.0963C4.79801 58.0963 0.334987 54.2593 0.0109875 55.2673C-0.312013 56.2753 6.54198 65.6693 13.239 68.6723Z" fill="#EAA07F"/>
<path d="M6.34399 60.209C6.34699 60.197 6.35099 60.184 6.35599 60.172C6.43799 59.964 8.41001 55.073 13.199 54.725C13.377 54.712 13.532 54.846 13.545 55.024C13.557 55.202 13.424 55.357 13.246 55.37C8.868 55.689 6.97598 60.362 6.95798 60.409C6.89298 60.575 6.705 60.657 6.539 60.591C6.385 60.53 6.30299 60.365 6.34399 60.209Z" fill="#DB8D6E"/>
<path d="M13.7778 71.0221C13.6878 70.8881 13.5908 70.7501 13.4878 70.6101C14.6078 69.1101 17.0478 66.3901 20.6478 65.3901C20.7118 65.9071 20.7778 66.4141 20.8428 66.8951" fill="#DD8B6B"/>
<path d="M134.918 163.7C134.778 165.21 134.518 173.1 131.178 173.61C131.158 173.62 131.148 173.62 131.128 173.62C131.078 173.69 130.998 173.8 130.878 173.93L130.798 174.01C130.328 174.5 129.428 175.16 128.478 174.71C128.448 174.69 128.418 174.68 128.388 174.66C128.338 174.69 128.288 174.72 128.238 174.76C127.448 175.29 126.858 175.6 126.178 174.85C126.148 174.82 126.108 174.78 126.078 174.74C126.048 174.79 126.008 174.83 125.958 174.87C125.708 175.11 125.378 175.22 125.068 175.2C124.888 175.2 124.718 175.15 124.558 175.08C124.398 175 124.248 174.88 124.148 174.72C124.048 174.57 123.988 174.4 123.978 174.19C123.968 173.67 123.828 172.74 123.688 171.85C123.538 170.96 123.388 170.11 123.358 169.75C121.278 169.02 120.088 166.94 119.668 165.8C119.378 164.97 119.548 162.41 120.108 160.27C120.428 159.04 120.678 157.78 120.798 156.51C120.838 156.09 120.868 155.67 120.878 155.25C120.888 154.77 120.928 154.45 120.958 154.25C120.778 153.67 120.548 152.91 120.278 152.02L129.628 147.76C130.338 151.25 130.788 153.77 130.858 154.15C130.888 154.2 130.928 154.24 130.958 154.29C131.128 154.53 131.278 154.79 131.398 155.1C131.398 155.1 131.618 155.52 131.948 156.18C131.968 156.22 131.988 156.27 132.018 156.32C133.048 158.41 135.028 162.57 134.918 163.7Z" fill="#EAA07F"/>
<path d="M126.575 169.422C126.573 169.168 126.537 168.81 126.48 168.384C126.456 168.211 126.428 168.026 126.397 167.833C126.252 166.929 126.038 165.834 125.822 164.803C125.89 164.785 125.958 164.767 126.026 164.751C126.244 165.796 126.462 166.908 126.608 167.828C126.636 168.008 126.662 168.181 126.684 168.343C126.746 168.783 126.781 169.155 126.783 169.42C126.793 170.835 126.661 173.169 126.175 174.851C126.144 174.818 126.111 174.78 126.079 174.74C126.043 174.786 126.004 174.829 125.96 174.869C126.453 173.211 126.588 170.847 126.575 169.422Z" fill="#272425"/>
<path d="M129.373 169.147C129.399 168.799 129.375 168.249 129.324 167.593C129.317 167.498 129.309 167.405 129.3 167.306C129.225 166.445 129.108 165.441 128.987 164.49C129.057 164.492 129.127 164.496 129.197 164.499C129.314 165.419 129.426 166.387 129.499 167.23C129.508 167.33 129.516 167.427 129.524 167.523C129.579 168.212 129.604 168.792 129.578 169.163C129.477 170.627 129.137 173.059 128.481 174.707C128.448 174.69 128.417 174.675 128.383 174.656C128.335 174.69 128.286 174.723 128.24 174.755C128.919 173.145 129.266 170.639 129.373 169.147Z" fill="#272425"/>
<path d="M132.121 169.15C132.246 168.37 132.221 166.544 132.158 164.81C132.228 164.82 132.298 164.829 132.368 164.839C132.43 166.568 132.454 168.386 132.325 169.184C132.139 170.352 131.746 172.134 131.179 173.613L130.879 173.927L130.801 174.01C131.459 172.482 131.916 170.438 132.121 169.15Z" fill="#272425"/>
<path d="M123.358 169.751C123.358 169.751 122.911 163.559 122.447 164.091C121.982 164.623 121.608 165.891 121.727 166.168C121.846 166.445 122.352 168.523 123.358 169.751Z" fill="#DDA68A"/>
<path d="M130.958 154.29C126.358 156.4 123.028 156.73 120.798 156.51C120.838 156.09 120.868 155.67 120.878 155.25C120.888 154.77 120.928 154.45 120.958 154.25C120.778 153.67 120.548 152.91 120.278 152.02L129.628 147.76C130.338 151.25 130.788 153.77 130.858 154.15C130.888 154.2 130.928 154.24 130.958 154.29Z" fill="#D38A6E"/>
<path d="M108.758 149.54C107.958 146.6 107.248 144.73 107.248 144.73L49.5581 142.06C49.3281 143.06 49.0982 144.07 48.8782 145.11C43.5682 170.42 43.5181 205.62 43.7081 221.95L44.6781 237.29C44.6781 237.3 44.6881 237.32 44.6881 237.33C47.5881 255.97 56.6781 302.24 56.6781 302.24C61.0781 302.94 75.2982 302.61 75.2982 302.61C75.2982 302.61 75.1181 301.37 74.8081 299.21C74.8051 299.189 74.8012 299.164 74.7982 299.143C73.0052 286.447 71.4872 242.041 67.5872 232.965C73.0052 210.394 74.2381 182.363 74.2381 182.363L73.3561 176.831C73.3571 176.825 73.8981 178.435 73.8981 178.435C73.8981 178.435 76.5571 215.05 77.5671 224.86C77.6271 225.49 77.6872 225.99 77.7372 226.37C77.9572 228.06 78.4772 234.49 79.1172 243.02C80.8772 266.4 83.5571 305.51 83.5571 305.51C88.6371 307.17 98.4071 305.99 98.4071 305.99C100.337 296.64 103.927 244.37 100.277 228.06C102.857 211.2 107.257 192.61 110.777 170.15C111.898 162.95 110.178 154.64 108.758 149.54Z" fill="#2B2B2B"/>
<path d="M100.271 305.054C100.271 305.054 100.271 308.145 99.035 309.175C97.799 310.205 83.822 310.324 82.895 309.397C82.244 308.746 82.099 306.261 82.071 304.839C82.06 304.278 82.503 303.822 83.064 303.82C87.073 303.803 99.222 303.524 99.756 303.613C100.374 303.715 100.271 305.054 100.271 305.054Z" fill="#353535"/>
<path d="M76.1 298.68C76.1 298.68 76.485 301.747 75.387 302.923C74.289 304.099 57.819 306.064 56.784 305.26C56.057 304.695 55.604 302.248 55.398 300.84C55.317 300.285 55.7 299.777 56.256 299.705C60.232 299.188 74.868 297.292 75.409 297.314C76.036 297.338 76.1 298.68 76.1 298.68Z" fill="#353535"/>
<path d="M53.088 231.44C53.088 235.81 50.088 239.48 45.998 240.59C45.528 239.46 45.088 238.37 44.688 237.33C44.688 237.32 44.678 237.3 44.678 237.29L43.708 221.95C48.918 222.09 53.088 226.28 53.088 231.44Z" fill="#353535"/>
<path d="M89.7949 234.17C89.7949 238.21 85.7459 241.65 80.0199 243.02C79.0079 234.49 78.1849 228.06 77.8369 226.37C77.7579 225.99 77.6629 225.49 77.5679 224.86C84.5429 225.74 89.7949 229.57 89.7949 234.17Z" fill="#353535"/>
<path d="M108.758 149.54C70.4579 154.05 54.9879 149.06 48.8779 145.11C49.0979 144.07 49.3279 143.06 49.5579 142.06L107.248 144.73C107.248 144.73 107.958 146.6 108.758 149.54Z" fill="#262626"/>
<path d="M91.6689 153.998C92.7079 156.231 96.53 159.243 98.795 160.207C101.061 161.171 103.559 161.475 106.021 161.479" stroke="#1C1D1E" stroke-miterlimit="10"/>
<path d="M52.8529 150.878C52.3659 154.097 50.9739 157.175 48.8779 159.667" stroke="#1C1D1E" stroke-miterlimit="10"/>
<path d="M74.3359 183.144C74.3359 183.144 74.3359 180.019 73.0859 176.894C71.8359 173.769 69.9609 168.269 69.9609 168.269" stroke="#1C1D1E" stroke-miterlimit="10"/>
<path d="M70.7369 61.504C70.7369 61.504 57.9878 59.608 64.5318 48.155C72.6758 33.902 88.7518 39.836 93.8438 43.139C98.9348 46.442 105.279 54.756 99.0288 60.544C89.5348 69.335 70.7369 61.504 70.7369 61.504Z" fill="#724628"/>
<path d="M88.6879 39.9102H72.3779V55.3102H88.6879V39.9102Z" fill="#EAA07F"/>
<path d="M132.515 149.712C132.595 150.849 131.903 151.889 130.826 152.26C126.907 153.61 121.003 157.102 118.128 155.64C113.163 153.116 109.588 118.96 109.298 113.31C108.918 123.97 109.388 136.25 109.648 141.66C109.738 143.45 108.538 145.03 106.798 145.46C104.448 146.03 100.488 146.74 94.1378 147.17H94.1278C84.9278 147.8 70.6978 147.86 49.0978 146.17C47.6578 146.06 46.5378 144.88 46.5278 143.44C46.4178 133.78 47.4578 102.3 47.4578 102.3C47.4578 102.3 38.1278 113.98 34.1278 113.81C30.1878 113.65 21.6078 103.16 12.4478 73.8601C12.1678 72.9801 12.4578 72.0101 13.1678 71.4301C15.5278 69.5501 18.3778 67.9501 20.0978 67.0701C20.9478 66.6301 21.9978 66.9201 22.4878 67.7501L32.1278 83.8101C32.1278 83.8101 41.6278 63.0301 51.7978 58.7001C55.6178 57.0801 67.1278 53.7301 69.7778 52.9701C70.1178 52.8701 70.5078 52.8201 70.8278 52.9901C71.2778 53.2301 71.7978 53.4701 72.3778 53.7001C76.3678 55.3101 83.0578 56.4601 88.6878 53.3401C88.8178 53.2701 88.9378 53.2001 89.0578 53.1301C89.4478 52.9001 89.8978 52.8001 90.3378 52.8701C95.1378 53.5701 116.458 60.1401 119.958 70.9801C121.958 78.3101 127.958 102.14 129.458 115.64C130.462 124.218 132.076 143.464 132.515 149.712Z" fill="#724628"/>
<path d="M53.9922 90.4731C56.7522 89.1861 59.9792 87.8931 62.7242 89.2111C64.9152 90.2641 66.0942 92.6891 68.0462 94.1381C69.4712 95.1971 71.3052 95.6901 73.0692 95.4901C75.6052 95.2021 77.7612 93.5981 79.9172 92.2321C82.0732 90.8661 84.6162 89.6521 87.0952 90.2611C89.0702 90.7461 90.5762 92.2851 92.2202 93.4811C93.8652 94.6781 95.7882 95.5841 97.8202 95.6741C99.8522 95.7631 101.991 94.9261 103.126 93.2391" stroke="#EFB9A8" stroke-miterlimit="10" stroke-linecap="round"/>
<path opacity="0.1" d="M103.328 95.6401C103.878 103.17 105.078 110.66 104.998 118.2C104.968 121.32 104.708 124.47 103.638 127.4C102.678 130.05 101.088 132.42 99.6578 134.85C98.2978 137.15 97.0679 139.54 95.9779 141.98C95.4479 143.18 94.8078 144.43 94.4578 145.7C94.0478 147.18 94.3578 147.13 95.8678 147.04C99.5078 146.82 103.248 146.34 106.798 145.46C108.538 145.03 109.738 143.45 109.648 141.66C109.388 136.25 108.918 123.97 109.298 113.31C109.298 112.58 104.668 89.9801 102.848 81.1401C102.848 81.1401 102.978 90.8201 103.328 95.6401Z" fill="#2C3559"/>
<path d="M62.7949 55.0601C64.1679 56.0491 65.6569 56.8471 67.1959 57.5091L68.3509 58.0021C68.7389 58.1571 69.1399 58.2831 69.5329 58.4251C70.3139 58.7251 71.1259 58.9321 71.9329 59.1451C75.1689 59.9771 78.5049 60.3391 81.8409 60.3281L84.3439 60.2471C85.1789 60.2161 86.0049 60.0671 86.8369 59.9911C88.5109 59.8811 90.1369 59.4561 91.7949 59.1901C93.4419 58.8711 95.0469 58.3591 96.6839 57.9561C98.2909 57.4551 99.8779 56.8861 101.503 56.3931C99.9659 57.0951 98.4049 57.7591 96.8389 58.4211C95.2199 58.9231 93.6219 59.5231 91.9709 59.9391C90.3129 60.3221 88.6579 60.7571 86.9559 60.9311C86.1079 61.0301 85.2649 61.1801 84.4109 61.2231L81.8469 61.3281C78.4289 61.3151 74.9889 60.9131 71.7209 59.8821C68.4739 58.8531 65.3109 57.3521 62.7949 55.0601Z" fill="#2C3559"/>
<path opacity="0.1" d="M47.4609 102.302C47.4609 102.302 48.2939 83.3101 51.7939 77.6431" stroke="#2C3559" stroke-miterlimit="10"/>
<path d="M88.688 57.0137C89.89 64.1267 92.451 73.0247 96.61 78.9187C100.769 84.8127 106.585 89.6197 113.362 92.0887" stroke="#4F301B" stroke-miterlimit="10"/>
<path d="M111.927 92.5717C112.031 93.5177 112.883 94.1997 113.829 94.0957C114.775 93.9917 115.457 93.1397 115.353 92.1937C115.249 91.2477 114.397 90.5657 113.451 90.6697C112.505 90.7737 111.823 91.6257 111.927 92.5717Z" fill="#4F301B"/>
<path d="M75.8792 56.6011C73.5012 64.2911 72.6252 72.5201 73.9692 80.5531C75.3132 88.5861 78.9482 96.4111 84.7872 102.421" stroke="#4F301B" stroke-miterlimit="10"/>
<path d="M82.6449 102.156C82.7489 103.102 83.6009 103.784 84.5469 103.68C85.4929 103.576 86.1749 102.724 86.0709 101.778C85.9669 100.832 85.1149 100.15 84.1689 100.254C83.2229 100.359 82.5399 101.21 82.6449 102.156Z" fill="#4F301B"/>
<path d="M88.6879 53.3398C87.5279 54.1998 86.3879 54.8398 85.2979 55.3098C81.0579 57.1298 77.4279 56.3298 75.0979 55.3098C73.5879 54.6498 72.6179 53.8998 72.3779 53.6998C76.3679 55.3098 83.0579 56.4598 88.6879 53.3398Z" fill="#DB8D6E"/>
<path d="M72.2949 92.3101C73.1233 92.3101 73.7949 91.6385 73.7949 90.8101C73.7949 89.9816 73.1233 89.3101 72.2949 89.3101C71.4665 89.3101 70.7949 89.9816 70.7949 90.8101C70.7949 91.6385 71.4665 92.3101 72.2949 92.3101Z" fill="#EFB9A8"/>
<path d="M85.8779 96.3101C86.7064 96.3101 87.3779 95.6385 87.3779 94.8101C87.3779 93.9816 86.7064 93.3101 85.8779 93.3101C85.0495 93.3101 84.3779 93.9816 84.3779 94.8101C84.3779 95.6385 85.0495 96.3101 85.8779 96.3101Z" fill="#EFB9A8"/>
<path d="M98.2109 92.8931C99.0394 92.8931 99.7109 92.2215 99.7109 91.3931C99.7109 90.5646 99.0394 89.8931 98.2109 89.8931C97.3825 89.8931 96.7109 90.5646 96.7109 91.3931C96.7109 92.2215 97.3825 92.8931 98.2109 92.8931Z" fill="#EFB9A8"/>
<path d="M59.2109 95.4771C60.0394 95.4771 60.7109 94.8055 60.7109 93.9771C60.7109 93.1486 60.0394 92.4771 59.2109 92.4771C58.3825 92.4771 57.7109 93.1486 57.7109 93.9771C57.7109 94.8055 58.3825 95.4771 59.2109 95.4771Z" fill="#EFB9A8"/>
<path d="M99.8819 27.6593C100.375 30.4903 97.8379 34.0673 95.6319 34.4513C93.4259 34.8352 90.9649 33.9603 91.9639 30.6803C92.8009 27.9313 92.8219 25.5413 94.9429 24.8223C96.8889 24.1633 99.3889 24.8282 99.8819 27.6593Z" fill="#DB8D6E"/>
<path d="M59.172 27.9092C58.679 30.7402 61.216 34.3172 63.422 34.7012C65.628 35.0852 68.089 34.2102 67.09 30.9302C66.253 28.1812 66.1939 25.4932 63.9879 25.1092C61.7809 24.7242 59.665 25.0782 59.172 27.9092Z" fill="#DB8D6E"/>
<path d="M88.6879 41.5601V45.1901C86.5079 46.5801 83.5979 47.4101 79.7479 47.5201C76.7179 47.6101 74.3079 46.7501 72.3779 45.7501V41.5601H88.6879Z" fill="#DB8D6E"/>
<path d="M94.959 25.7622C94.959 37.1182 92.968 45.9392 79.709 46.3252C65.341 46.7432 64.459 37.1192 64.459 25.7622C64.459 14.4062 71.287 5.19922 79.709 5.19922C88.131 5.19922 94.959 14.4062 94.959 25.7622Z" fill="#EAA07F"/>
<path d="M77.6841 25.7393C77.6841 25.7393 77.6291 29.8753 75.9111 31.7753C75.9111 31.7753 76.6021 32.3333 77.7881 33.0413" stroke="#E2906D" stroke-width="0.653" stroke-miterlimit="10" stroke-linecap="round" stroke-linejoin="round"/>
<path d="M85.6129 25.7048C85.5399 26.5428 84.9989 27.1808 84.4029 27.1288C83.8069 27.0768 83.3829 26.3558 83.4559 25.5178C83.5279 24.6798 84.0699 24.0418 84.6649 24.0938C85.2619 24.1458 85.6859 24.8668 85.6129 25.7048Z" fill="#382F2C"/>
<path d="M82.145 20.9941C82.145 20.9941 86.859 19.4161 89.763 21.3211C89.763 21.3211 86.538 18.4501 82.145 20.9941Z" stroke="#212020" stroke-width="1.2268" stroke-miterlimit="10" stroke-linecap="round" stroke-linejoin="round"/>
<path d="M78.3622 34.7502C76.6332 34.8122 75.0392 34.6852 73.7682 34.4252C73.7212 34.7192 73.6962 35.0202 73.7072 35.3292C73.8012 37.9522 76.0521 40.0002 78.7341 39.9042C81.4161 39.8082 83.5141 37.6042 83.4201 34.9812C83.4081 34.6402 83.3561 34.3102 83.2741 33.9912C81.9761 34.3992 80.2592 34.6822 78.3622 34.7502Z" fill="white"/>
<path d="M82.9731 30.5393C83.0611 31.7133 84.6561 32.5513 86.5361 32.4093C88.4151 32.2683 89.8671 31.2013 89.7791 30.0273C89.6911 28.8533 88.0961 28.0153 86.2161 28.1573C84.3361 28.2983 82.8841 29.3653 82.9731 30.5393Z" fill="#DB8D6E"/>
<path d="M66.2058 22.1508C66.3098 21.4738 66.4188 20.7838 66.7268 20.1728C67.0338 19.5648 67.5218 19.0698 68.0278 18.6138C68.8998 17.8288 69.8958 17.1118 71.0508 16.9018C72.5538 16.6288 74.2188 17.2328 75.5738 16.5268C75.7128 16.4548 75.8477 16.3688 76.0007 16.3388C76.2417 16.2918 76.4848 16.3918 76.7128 16.4838C80.1878 17.8898 84.1558 18.0388 87.7258 16.8988C88.0438 16.7968 88.3658 16.6848 88.6998 16.6758C89.1708 16.6638 89.6228 16.8598 90.0298 17.0958C91.8738 18.1668 93.0598 20.0598 94.1728 21.8788C94.8598 18.8918 95.5327 15.6888 94.4187 12.8338C93.7387 11.0918 92.4428 9.65181 90.9958 8.46581C89.7598 7.45281 88.3878 6.59081 86.8898 6.03281C84.0618 4.97981 80.9608 5.05682 77.9438 5.01282C76.5678 4.99282 75.1597 4.94882 73.8497 5.37182C72.1287 5.92682 70.7548 7.23082 69.6028 8.62382C67.1768 11.5568 65.4538 15.0678 64.6208 18.7818C64.2608 20.3888 64.0828 22.1318 64.5538 23.7358C64.6738 24.1438 65.0337 25.5088 65.6647 24.9278C65.9407 24.6738 65.9138 24.0368 65.9668 23.6938C66.0478 23.1798 66.1268 22.6658 66.2058 22.1508Z" fill="#DB8D6E"/>
<path d="M71.8522 25.7048C71.9252 26.5428 72.4662 27.1808 73.0622 27.1288C73.6572 27.0778 74.0822 26.3558 74.0092 25.5178C73.9362 24.6798 73.3952 24.0418 72.8002 24.0938C72.2042 24.1458 71.7802 24.8668 71.8522 25.7048Z" fill="#382F2C"/>
<path d="M75.3059 21.1573C75.3059 21.1573 70.4699 20.0583 67.7739 22.2433C67.7739 22.2433 70.6929 19.0653 75.3059 21.1573Z" stroke="#212020" stroke-width="1.2253" stroke-miterlimit="10" stroke-linecap="round" stroke-linejoin="round"/>
<path d="M74.4929 30.5393C74.4049 31.7133 72.8099 32.5513 70.9299 32.4093C69.0509 32.2683 67.5989 31.2013 67.6869 30.0273C67.7749 28.8533 69.3699 28.0153 71.2499 28.1573C73.1299 28.2983 74.5819 29.3653 74.4929 30.5393Z" fill="#DB8D6E"/>
<path d="M95.3531 24.7383C94.5941 25.0503 93.6151 26.2323 93.2281 26.8953L93.2021 22.1773C93.1961 21.1633 92.9321 20.1683 92.4341 19.2853L89.5801 14.2253C90.3691 13.5403 91.0361 12.7183 91.5441 11.8173C92.2861 10.5073 92.7661 9.05127 92.8781 7.57227C94.6971 9.23527 96.2691 11.5133 97.2421 12.8193C97.4991 13.7083 96.7181 20.7783 96.0081 23.9923C95.9321 24.3373 95.6811 24.6033 95.3531 24.7383Z" fill="#2B2B2B"/>
<path d="M75.089 6.997C75.089 6.997 72.052 11.074 76.342 14.725C77.43 15.651 79.092 16.009 80.464 16.197C82.347 16.455 84.3071 16.353 86.1341 15.82C91.1511 14.355 93.93 8.581 92.48 3.638C92.269 2.919 91.923 2.244 91.539 1.604C91.2771 2.703 91.148 3.412 90.313 4.29C90.578 3.51 90.688 1.089 90.036 0C89.002 1.473 86.397 3.353 82.904 3.461C83.607 2.996 83.819 1.578 83.786 0.733002C83.475 1.467 79.124 2.679 77.985 2.865L75.089 6.997Z" fill="#2B2B2B"/>
<path d="M72.5089 9.06494C72.4899 10.0659 72.5749 11.0199 72.9449 11.8589C73.1179 12.2809 73.3709 12.6669 73.6899 13.0059C73.9959 13.3629 74.3869 13.6399 74.7849 13.9579C74.2969 13.8489 73.8019 13.6579 73.3999 13.3199C73.1799 13.1719 73.0179 12.9609 72.8389 12.7649C72.6919 12.5449 72.5419 12.3229 72.4419 12.0769C72.2349 11.5889 72.1359 11.0609 72.1539 10.5439C72.1719 10.0279 72.2759 9.51694 72.5089 9.06494Z" fill="#323544"/>
<path d="M74.7149 7.77832C74.3099 8.75932 74.0869 9.75232 74.1929 10.7313C74.2459 11.2163 74.3459 11.7043 74.5419 12.1673C74.6159 12.4093 74.7509 12.6263 74.8509 12.8653C74.9649 13.0973 75.1069 13.3153 75.2209 13.5633C75.0149 13.3953 74.8119 13.2163 74.6289 13.0173C74.4689 12.8023 74.2749 12.6013 74.1569 12.3523C73.8619 11.8853 73.7159 11.3333 73.6489 10.7813C73.5949 10.2253 73.6659 9.65832 73.8529 9.14132C74.0339 8.62532 74.3209 8.14432 74.7149 7.77832Z" fill="#323544"/>
<path d="M92.7951 7.49889C91.8611 6.65589 90.8651 5.98088 89.8501 5.68788C87.6081 5.03688 82.1981 3.41688 77.9871 2.86188C76.5131 2.66788 75.1871 2.60488 74.1961 2.75788C70.3661 3.34988 67.5181 5.30089 65.5971 7.60689C63.6791 9.91089 63.1011 10.1909 63.1011 10.1909C63.1011 10.1909 63.3651 10.4629 64.5021 9.94688C62.5661 12.3909 61.7221 14.9489 61.6221 15.5749C61.0451 19.1919 61.9411 23.2719 62.2111 24.9979C62.7751 24.9539 63.3771 25.0009 63.9871 25.1069C64.8201 25.2519 65.3461 25.7259 65.7241 26.4069C65.7021 23.8239 65.6541 17.9849 66.7651 16.0319C68.9941 16.2729 71.2801 17.0199 74.7851 13.9559C74.9281 13.8319 75.0701 13.7019 75.2181 13.5609H75.2211C75.6281 13.1769 76.0541 12.7439 76.4951 12.2529C80.0711 12.7069 83.0961 13.1089 85.3201 13.4129C85.5511 13.4439 85.7741 13.4749 85.9891 13.5039C87.4991 13.7119 88.5631 13.8619 89.0841 13.9369C89.3021 13.9679 89.4241 13.9859 89.4451 13.9889C89.4481 13.9889 89.4481 13.9889 89.4481 13.9889L89.5781 14.2219C89.5781 14.2219 89.5781 14.2219 89.5811 14.2219C90.3701 13.5369 91.0371 12.7149 91.5451 11.8139C92.2871 10.5039 92.7671 9.04788 92.8791 7.56888C92.8491 7.54589 92.8231 7.52289 92.7951 7.49889Z" fill="#2B2B2B"/>
<path d="M92.8778 7.57227C92.7658 9.05127 92.2858 10.5073 91.5438 11.8173C91.0348 12.7173 90.3688 13.5403 89.5798 14.2253C89.5768 14.2253 89.5768 14.2253 89.5768 14.2253C89.2158 14.5363 88.8318 14.8173 88.4218 15.0663C87.1218 15.8603 85.6298 16.3113 84.1328 16.4263C83.3828 16.4993 82.6328 16.4783 81.8908 16.4343C81.5198 16.3953 81.1508 16.3383 80.7828 16.2943C80.4198 16.2263 80.0558 16.1543 79.6958 16.0763C80.0638 16.0943 80.4328 16.1183 80.7988 16.1493C81.1668 16.1543 81.5328 16.1673 81.9018 16.1653C82.6338 16.1553 83.3648 16.1293 84.0838 16.0093C85.5188 15.7993 86.9168 15.3583 88.1368 14.6003C88.4688 14.4033 88.7828 14.1823 89.0838 13.9413C89.9008 13.2873 90.6048 12.4833 91.1858 11.5983C91.5878 10.9963 91.9198 10.3453 92.1978 9.66827C92.3638 9.28927 92.5068 8.90027 92.6288 8.50327C92.7218 8.19727 92.8048 7.88627 92.8778 7.57227Z" fill="#1C1D1E"/>
<path d="M88.569 9.49316C88.209 10.5132 87.667 11.4722 87.009 12.3422C86.351 13.2152 85.555 13.9912 84.648 14.6242C83.746 15.2662 82.686 15.6832 81.605 15.8882C80.519 16.1372 79.4 15.9782 78.355 15.7552C78.627 15.7522 78.896 15.7532 79.163 15.7612C79.43 15.7712 79.695 15.7772 79.959 15.7292L80.746 15.6482L81.513 15.4712C82.516 15.1922 83.491 14.7882 84.339 14.1722C85.201 13.5832 85.976 12.8632 86.678 12.0732C87.371 11.2742 88.018 10.4212 88.569 9.49316Z" fill="#1C1D1E"/>
<path opacity="0.1" d="M32.1282 83.8101C32.1282 83.8101 31.8782 90.4351 32.1282 91.8101" stroke="#2C3559" stroke-miterlimit="10"/>
</svg>
