<svg width="195" height="199" viewBox="0 0 195 199" fill="none" xmlns="http://www.w3.org/2000/svg">
<path d="M87.3935 185.602C123.475 185.602 152.725 156.353 152.725 120.271C152.725 84.1901 123.475 54.9404 87.3935 54.9404C51.3122 54.9404 22.0625 84.1901 22.0625 120.271C22.0625 156.353 51.3122 185.602 87.3935 185.602Z" fill="#00A580"/>
<path d="M92.7231 52.4915C118.432 46.4853 137.644 34.6397 135.633 26.0335C133.623 17.4274 111.151 15.3198 85.4422 21.326C59.733 27.3322 40.5215 39.1778 42.5321 47.7839C44.5426 56.39 67.0139 58.4977 92.7231 52.4915Z" fill="#F6B74C"/>
<path d="M57.0694 102.303C57.0694 102.303 52.2744 91.989 38.4824 96.215C38.4824 96.215 45.5164 110.729 57.0694 102.303Z" fill="#00A580"/>
<path d="M46.3397 82.1058L61.4947 116.04C62.1067 115.949 62.6157 115.721 62.9997 115.368L47.8447 81.4339C47.6587 81.0179 47.1717 80.8319 46.7557 81.0169C46.3397 81.2029 46.1537 81.6898 46.3397 82.1058Z" fill="#00A580"/>
<path d="M50.9833 91.0178C50.9833 91.0178 61.9173 94.8647 64.3733 76.7607C64.3733 76.7607 47.7913 80.5108 50.9833 91.0178Z" fill="#00CCA1"/>
<path d="M56.6445 102.269C56.6445 102.269 67.9925 104.632 68.0255 86.3618C68.0255 86.3618 52.0875 92.2778 56.6445 102.269Z" fill="#00CCA1"/>
<path d="M56.9006 103.733C56.9006 103.733 51.8736 93.2886 37.3516 104.375C37.3516 104.375 51.7426 113.427 56.9006 103.733Z" fill="#00CCA1"/>
<path d="M51.724 90.0456C51.724 90.0456 46.954 79.4816 32.165 90.2086C32.165 90.2086 46.33 99.6096 51.724 90.0456Z" fill="#00CCA1"/>
<path d="M47.7071 84.276C47.7071 84.276 55.8511 76.028 40.5251 66.083C40.5251 66.083 36.8421 82.68 47.7071 84.276Z" fill="#00CCA1"/>
<path d="M79.4206 133.216L76.4926 160.918C76.4926 160.918 75.8426 161.648 74.9096 162.698C66.7396 164.568 56.3026 165.748 52.5576 160.918C52.1846 160.438 51.8346 159.838 51.5026 159.133C46.0026 147.486 45.5576 107.051 45.5576 107.051L55.4376 104.011L71.2996 99.1279L79.4206 133.216Z" fill="#F6B74C"/>
<path d="M79.42 133.216L76.492 160.918C76.492 160.918 75.842 161.648 74.909 162.698C66.739 164.568 56.302 165.748 52.557 160.918C52.184 160.438 51.834 159.838 51.502 159.133C55.327 158.681 58.498 156.733 60.415 153.301C63.67 147.466 60.394 115.396 60.394 115.396C57.307 112.363 55.984 107.233 55.437 104.011L71.299 99.1279L79.42 133.216Z" fill="#E9981A"/>
<path d="M108.936 26.9696C108.936 26.9696 120.711 37.7146 114.797 66.3496C113.902 70.6836 110.094 73.8006 105.669 73.8006H74.4487C69.2917 73.8006 64.9717 69.9516 64.3177 64.8366C63.8597 61.2606 62.8547 57.4316 63.6807 49.4346C66.0637 26.3666 78.6667 21.1526 78.6667 21.1526C86.8457 19.6806 104.105 19.7376 108.936 26.9696Z" fill="#3B1034"/>
<path d="M161.897 95.7364C161.897 95.7364 161.897 95.7364 161.897 95.7394C161.606 98.3054 159.71 100.452 157.126 101.041C155.432 101.427 153.648 101.833 153.623 101.838C153.596 101.841 153.575 101.843 153.56 101.846C153.53 101.849 153.517 101.851 153.517 101.851C150.626 102.317 147.601 102.786 144.597 103.216C143.835 103.324 143.074 103.432 142.317 103.534C139.476 103.92 136.684 104.258 134.069 104.511C131.879 104.724 129.812 104.874 127.943 104.945C124.362 105.078 122.047 105.12 122.047 105.12C122.047 105.12 116.986 98.5804 118.993 91.0414C118.993 91.0414 120.429 88.9614 122.143 89.0294C127.282 89.2244 136.209 88.0424 144.844 87.5814C145.871 87.5234 146.896 87.4784 147.908 87.4484C150.421 87.3684 152.867 87.3754 155.139 87.5214C155.259 87.5294 155.38 87.5394 155.5 87.5514C158.682 87.8724 161.458 89.7684 161.794 92.9664C161.797 92.9914 161.799 93.0164 161.802 93.0414C161.865 93.6734 161.907 94.2414 161.932 94.7604C161.947 95.0904 161.935 95.4154 161.897 95.7364Z" fill="#FFB890"/>
<path d="M171.67 59.2027C167.944 71.7337 165.852 85.4587 162.332 94.7627C162.204 95.0987 162.061 95.4237 161.898 95.7377C161.898 95.7377 161.901 95.7407 161.898 95.7407C159.503 100.447 153.662 102.396 148.869 99.8827L146.351 98.5647L143.976 97.3197C143.976 97.3197 144.758 94.7617 147.91 87.4497C148.915 85.1197 150.16 82.3056 151.701 78.9376C152.613 76.9406 153.949 74.4927 155.457 71.7747V71.7717C158.597 66.1067 162.478 59.2587 164.818 52.8497C168.283 43.3617 178.603 35.8857 171.67 59.2027Z" fill="#FFB890"/>
<path d="M155.236 83.3309C154.722 84.1599 153.12 86.7389 151.39 89.9529L146.744 98.9259L144.598 103.216C143.836 103.324 143.075 103.432 142.318 103.534C139.477 103.92 136.685 104.258 134.07 104.511L144.844 87.5809C145.871 87.5229 146.896 87.4779 147.908 87.4479C148.913 85.1179 150.158 82.3039 151.699 78.9359C152.611 76.9389 155.939 69.4309 157.447 66.7119C158.399 69.5669 158.331 78.3339 155.236 83.3309Z" fill="#FF8E69"/>
<path d="M176.164 40.6389C176.164 40.6389 172.894 41.7759 170.224 43.9419C170.858 43.1139 171.378 42.3729 171.645 41.6319C173.779 35.7049 177.401 32.9919 178.25 33.9149C179.099 34.8339 176.164 40.6389 176.164 40.6389Z" fill="#FF8E69"/>
<path d="M178.013 42.0549C178.013 42.0549 181.014 38.1739 181.281 34.7919C181.548 31.4099 185.638 25.0649 183.334 24.2679C181.39 23.5959 177.951 35.3399 175.374 38.4819C172.658 41.7929 178.013 42.0549 178.013 42.0549Z" fill="#FF8E69"/>
<path d="M174.366 41.3485C174.366 41.3485 180.085 36.6075 181.067 33.2135C182.05 29.8195 186.226 24.7666 185.643 23.6006C185.06 22.4346 181.592 25.8025 179.69 29.8425C177.788 33.8835 174.366 41.3485 174.366 41.3485Z" fill="#FFB890"/>
<path d="M173.505 53.3586C172.675 53.7166 171.909 53.9406 171.209 54.0606C170.383 54.1986 169.602 54.1276 168.9 53.8916C166.891 53.2146 165.539 51.2056 165.673 49.0506C165.674 49.0446 165.673 49.0366 165.674 49.0306C165.809 48.1556 166.152 47.1956 166.729 46.1756C166.756 46.1276 166.783 46.0806 166.812 46.0306C166.925 45.8436 167.038 45.6606 167.152 45.4816C169.606 41.7376 174.719 39.3937 174.719 39.3937C174.719 39.3937 179.682 32.3666 181.78 29.3276C183.88 26.2906 187.6 22.5416 187.895 24.2076C188.191 25.8736 183.556 33.2076 182.762 38.4146C181.97 43.6236 173.505 53.3586 173.505 53.3586Z" fill="#FFB890"/>
<path d="M100.548 62.0246C107.724 62.9256 112.279 58.0337 113.488 50.4537C114.007 47.2027 113.348 41.6147 113.162 39.6987C112.372 31.5947 107.837 17.5797 90.2745 18.0877C90.2745 18.0877 78.4325 18.1926 72.5755 26.0756C65.5705 35.5036 67.6745 41.4706 67.4715 47.4516C67.3765 50.2676 67.9225 53.0736 69.1965 55.5856C69.9905 57.1506 71.0615 58.7816 72.4795 60.0946C79.1195 67.2056 89.9145 64.4236 100.548 62.0246Z" fill="#3B1034"/>
<path d="M107.358 106.656C107.809 106.785 108.266 106.903 108.723 107.015C108.998 107.082 109.275 107.147 109.553 107.205C111.586 107.651 113.503 108.06 115.435 108.397C115.727 108.448 116.021 108.498 116.315 108.546C120.187 109.174 124.191 109.502 129.347 109.275C129.498 106.743 129.364 101.865 129.221 99.7196C129.199 99.3386 129.168 98.9626 129.131 98.5956C128.573 92.1526 127.104 88.0146 127.104 88.0146C116.094 87.9696 109.836 82.4326 109.836 82.4326C109.38 89.2536 107.358 106.656 107.358 106.656Z" fill="#00A580"/>
<path d="M115.436 108.397C115.728 108.448 116.022 108.498 116.316 108.546C115.495 104.425 115.688 101.329 115.691 101.29C115.705 101.06 115.534 100.861 115.304 100.844C115.074 100.833 114.878 101.004 114.858 101.231C114.847 101.399 114.665 104.36 115.436 108.397Z" fill="#008661"/>
<path d="M107.983 130.369C106.043 137.846 111.381 159.58 111.381 159.58C91.3746 173.84 64.0016 159.949 64.0016 159.949C64.0016 159.949 65.6196 150.444 66.3086 139.752C66.7136 133.493 65.8886 124.757 64.6906 116.836C64.6446 116.538 64.6006 116.248 64.5516 115.952C64.3976 114.961 64.2366 113.982 64.0726 113.025C64.0066 112.637 63.9386 112.251 63.8696 111.868C63.5716 110.194 63.2646 108.595 62.9566 107.115C62.8976 106.837 62.8416 106.561 62.7806 106.295C62.4756 104.862 62.1706 103.551 61.8796 102.402C59.6626 93.6828 59.1606 86.0177 66.2196 82.8347C71.7096 80.3617 78.1876 77.6278 80.8046 76.5348C81.5536 76.2198 81.9856 76.0417 81.9856 76.0417C81.9856 76.0417 96.4846 73.5718 100.154 76.5228C100.408 76.7258 100.676 76.9227 100.964 77.1187C104.911 79.8157 112.205 82.2817 115.734 88.8357C119.09 95.0648 113.1 92.8507 115.456 108.495C117.086 119.312 109.922 122.892 107.983 130.369Z" fill="#00A580"/>
<path d="M114.606 117.488C113.691 124.308 111.656 131.871 107.853 139.888C107.473 136.083 107.405 132.593 107.983 130.368C108.01 130.263 108.038 130.16 108.068 130.058V130.055C108.208 129.64 108.343 129.225 108.476 128.813C112.714 115.493 112.106 104.075 110.586 96.2627C108.551 85.8077 104.538 79.4747 104.499 79.4127C104.436 79.3147 104.386 79.2157 104.346 79.1127C104.041 78.3497 104.311 77.4547 105.026 76.9957C105.839 76.4727 106.921 76.7077 107.443 77.5227C107.533 77.6627 108.651 79.4247 110.013 82.5577C111.36 85.6497 112.945 90.0747 114.02 95.5927C114.373 97.4057 114.68 99.4027 114.895 101.565V101.578C115.058 103.183 115.168 104.878 115.208 106.656C115.288 109.993 115.128 113.621 114.606 117.488Z" fill="#F6B74C"/>
<path d="M95.1832 152.104C100.216 152.104 104.207 150.197 104.435 150.086C104.644 149.984 104.73 149.733 104.629 149.524C104.527 149.315 104.276 149.228 104.067 149.33C103.993 149.366 96.5782 152.9 89.4262 150.282C89.2082 150.202 88.9662 150.314 88.8872 150.532C88.8072 150.75 88.9192 150.992 89.1372 151.071C91.2022 151.828 93.2682 152.104 95.1832 152.104Z" fill="#008661"/>
<path d="M101.484 147.871C86.5416 147.871 73.7225 136.284 73.5855 136.158C73.4165 136.003 73.4055 135.74 73.5605 135.571C73.7155 135.402 73.9786 135.39 74.1476 135.545C74.2916 135.677 88.7446 148.731 104.65 146.856C104.877 146.829 105.084 146.992 105.111 147.22C105.138 147.448 104.975 147.654 104.747 147.681C103.651 147.81 102.561 147.871 101.484 147.871Z" fill="#008661"/>
<path d="M64.8195 156.196C64.3415 156.196 63.8655 156.001 63.5205 155.619C62.8725 154.902 62.9295 153.795 63.6465 153.147C80.0215 138.358 86.5525 121.635 83.0565 103.444C80.4425 89.8416 72.9565 80.5166 72.8805 80.4236C72.2705 79.6736 72.3845 78.5716 73.1335 77.9616C73.8825 77.3516 74.9855 77.4646 75.5955 78.2146C75.9255 78.6206 83.7145 88.3246 86.4925 102.782C88.1315 111.312 87.6665 119.711 85.1095 127.746C81.9305 137.738 75.4975 147.157 65.9915 155.743C65.6565 156.047 65.2375 156.196 64.8195 156.196Z" fill="#F6B74C"/>
<path d="M75.4272 118.765C75.4272 118.767 75.4252 118.77 75.4222 118.77C75.3102 118.912 75.1192 118.963 74.9532 118.897C70.5082 117.161 66.7272 114.872 64.0712 113.027C64.0052 112.639 63.9372 112.253 63.8682 111.87C66.4922 113.752 70.4882 116.269 75.2552 118.129C75.5132 118.23 75.6012 118.548 75.4272 118.765Z" fill="#008661"/>
<path d="M98.5904 102.165C103.302 102.165 106.829 100.31 108.88 96.7177C108.995 96.5157 108.925 96.2587 108.723 96.1437C108.522 96.0287 108.265 96.0987 108.149 96.3007C102.709 105.83 88.0144 98.8187 87.8664 98.7477C87.6584 98.6457 87.4064 98.7327 87.3044 98.9417C87.2024 99.1507 87.2894 99.4027 87.4984 99.5037C87.6554 99.5797 91.3944 101.384 95.9054 101.98C96.8384 102.104 97.7344 102.165 98.5904 102.165Z" fill="#008661"/>
<path d="M101.113 80.2836C101.098 80.6936 101.069 81.1007 101.029 81.5047C100.895 82.8307 100.642 84.1236 100.323 85.3476C100.25 85.6266 100.175 85.8996 100.096 86.1706C100.096 86.1736 100.093 86.1766 100.093 86.1796C99.9707 86.5926 99.8457 86.9967 99.7147 87.3887C99.5027 88.0167 99.2817 88.6127 99.0577 89.1737C98.9497 89.4407 98.8457 89.7027 98.7377 89.9527C97.7317 92.3217 96.7897 93.8457 96.7897 93.8457C96.3067 92.7907 95.2667 91.3596 93.9177 89.7616C93.7197 89.5266 93.5137 89.2847 93.3047 89.0437C93.0637 88.7677 92.8137 88.4856 92.5577 88.2006C92.2727 87.8806 91.9787 87.5587 91.6767 87.2327C91.4147 86.9507 91.1477 86.6656 90.8777 86.3776C90.6537 86.1396 90.4267 85.9006 90.1977 85.6626C89.6397 85.0836 89.0727 84.5027 88.4997 83.9277C88.2297 83.6517 87.9557 83.3787 87.6827 83.1077C85.0197 80.4537 82.4117 78.0146 80.8047 76.5376C81.5547 76.2236 81.9877 76.0437 81.9877 76.0437C81.9877 76.0437 96.4847 73.5727 100.157 76.5267C100.407 76.7277 100.677 76.9246 100.965 77.1196C101.116 78.1706 101.157 79.2346 101.113 80.2836Z" fill="#FFB890"/>
<path d="M101.112 80.2837C101.097 80.6937 101.068 81.1007 101.028 81.5047C100.662 81.8277 100.281 82.1357 99.8893 82.4237C99.0203 83.0657 98.1012 83.6247 97.1682 84.1037C96.7792 84.3067 96.3832 84.4927 95.9912 84.6677C94.2182 85.4637 92.4392 86.0077 90.8783 86.3767C90.6543 86.1387 90.4272 85.8997 90.1982 85.6617C91.5062 85.3647 93.0002 84.9497 94.5212 84.3597C94.9832 84.1797 95.4482 83.9847 95.9112 83.7697C97.7662 82.9177 99.5952 81.7837 101.112 80.2837Z" fill="#00A580"/>
<path d="M100.092 86.1787C99.9697 86.5917 99.8447 86.9957 99.7137 87.3877C98.9757 87.8117 98.2197 88.1817 97.4637 88.5067C97.0597 88.6837 96.6557 88.8467 96.2547 88.9947C95.4577 89.2967 94.6707 89.5467 93.9177 89.7587C93.7197 89.5237 93.5137 89.2817 93.3047 89.0407C93.7867 88.9127 94.2847 88.7677 94.7897 88.6017C95.2577 88.4507 95.7347 88.2817 96.2137 88.0957C97.5157 87.5947 98.8417 86.9667 100.092 86.1787Z" fill="#00A580"/>
<path d="M99.0578 89.1734C98.9498 89.4404 98.8458 89.7024 98.7378 89.9524C97.9298 89.5654 97.0978 89.2514 96.2548 88.9964C95.7668 88.8454 95.2778 88.7174 94.7898 88.6044C94.0368 88.4324 93.2898 88.2994 92.5568 88.2004C92.2718 87.8804 91.9778 87.5584 91.6758 87.2324C93.1298 87.3804 94.6758 87.6484 96.2138 88.0984C96.6328 88.2204 97.0478 88.3574 97.4638 88.5084C97.8588 88.6534 98.2518 88.8104 98.6378 88.9824C98.7788 89.0424 98.9188 89.1064 99.0578 89.1734Z" fill="#00A580"/>
<path d="M100.322 85.3476C100.249 85.6266 100.174 85.8996 100.095 86.1706C98.7806 85.4906 97.3826 85.0076 95.9896 84.6676C95.4956 84.5456 95.0046 84.4436 94.5186 84.3596C92.3066 83.9616 90.1816 83.8856 88.4986 83.9266C88.2286 83.6506 87.9546 83.3776 87.6816 83.1066C89.7946 83.0016 92.8186 83.0486 95.9086 83.7696C96.3276 83.8686 96.7486 83.9786 97.1676 84.1036C97.9646 84.3386 98.7576 84.6266 99.5336 84.9696C99.7976 85.0886 100.06 85.2136 100.322 85.3476Z" fill="#00A580"/>
<path d="M100.393 76.2196C100.393 76.2196 100.69 80.0156 95.3364 81.2556C88.9314 82.7436 82.2144 78.0656 82.2144 78.0656C82.8994 74.0116 82.6464 69.2826 82.0824 65.8226C81.7994 64.0716 81.5264 62.9326 81.5264 62.9326L81.5294 62.9346L99.1324 68.2626L99.8084 72.5436L100.143 74.6536L100.393 76.2196Z" fill="#FFB890"/>
<path d="M99.8093 72.5446C90.8253 72.8466 84.4613 68.2655 81.9273 64.9035C81.6613 63.2655 81.5413 62.9675 81.5303 62.9355L99.1333 68.2635L99.8093 72.5446Z" fill="#3B1034"/>
<path d="M105.329 44.6306C105.329 44.6306 105.995 41.0536 109.466 41.3286C112.936 41.6026 114.56 55.6116 106.094 55.5786L105.329 44.6306Z" fill="#FF8E69"/>
<path d="M109.785 61.5847C107.035 61.8407 104.59 59.8117 104.334 57.0617C104.078 54.3117 106.107 51.8667 108.857 51.6107C111.607 51.3547 114.052 53.3837 114.308 56.1337C114.564 58.8827 112.534 61.3287 109.785 61.5847ZM108.965 52.7677C106.853 52.9637 105.295 54.8417 105.492 56.9537C105.688 59.0657 107.566 60.6237 109.678 60.4267C111.789 60.2297 113.348 58.3527 113.151 56.2407C112.954 54.1287 111.076 52.5717 108.965 52.7677Z" fill="white"/>
<path d="M110.56 49.138C110.562 49.211 110.563 49.281 110.564 49.354C110.572 50.004 110.574 50.666 110.559 51.339C110.557 51.376 110.558 51.415 110.556 51.451C110.538 52.32 110.503 53.201 110.445 54.087C110.393 54.847 110.356 55.618 110.236 56.38C108.812 65.427 103.156 69.638 95.3434 69.349C80.9744 68.819 74.8404 55.268 72.5214 47.495C71.6884 44.705 71.3673 42.82 71.3673 42.82C70.3323 32.313 81.2144 22.961 91.0284 22.959C104.78 22.956 107.89 30.882 109.264 37.192C109.417 37.881 109.547 38.551 109.666 39.189C110.026 41.1 110.494 44.836 110.56 49.138Z" fill="#FFB890"/>
<path d="M99.266 63.0309C99.948 63.0699 100.824 62.9509 101.672 62.3519C101.834 62.2369 101.872 62.0129 101.758 61.8519C101.643 61.6899 101.419 61.6519 101.258 61.7659C99.864 62.7519 98.367 62.1309 98.304 62.1039C98.122 62.0259 97.911 62.1109 97.833 62.2919C97.755 62.4739 97.838 62.6839 98.019 62.7629C98.058 62.7799 98.558 62.9909 99.266 63.0309Z" fill="#FF8E69"/>
<path d="M76.0165 45.7038C74.5905 43.9698 71.7735 44.7218 71.7735 44.7218C66.6065 27.6678 81.1186 18.4358 95.4886 21.6208C109.859 24.8068 109.268 37.1948 109.268 37.1948C106.056 38.4348 101.741 37.6838 101.741 37.6838L100.068 32.7788L100.617 37.9938C97.8975 39.3068 92.5636 39.4618 92.5636 39.4618C91.6056 38.5778 90.7745 34.3728 90.7745 34.3728L90.6625 39.6238C87.9056 40.6248 80.5375 42.5268 80.5375 42.5268C80.4405 40.4438 80.4355 35.6748 80.4355 35.6748C80.4355 35.6748 78.7085 38.5608 79.5305 41.4518C79.5305 41.4518 81.3135 49.7058 79.9035 51.2888C78.4955 52.8718 76.0165 45.7038 76.0165 45.7038Z" fill="#3B1034"/>
<path d="M79.9044 43.4314C79.9044 43.4314 81.0824 47.2104 82.4324 51.1614C84.7084 57.8224 87.8094 67.3244 81.8974 68.7224C81.8974 68.7224 85.2824 64.0714 81.5264 56.9464C78.7264 51.6354 75.8484 46.4524 76.6204 42.6284C77.3914 38.8034 79.9044 43.4314 79.9044 43.4314Z" fill="#3B1034"/>
<path d="M93.2339 42.5036C93.4149 42.4226 93.5629 42.2716 93.6359 42.0706C93.7749 41.6806 93.5729 41.2526 93.1849 41.1126C91.6559 40.5606 88.3239 40.3406 86.6539 43.4486C86.4579 43.8146 86.5949 44.2696 86.9599 44.4656C87.3249 44.6626 87.7799 44.5246 87.9769 44.1596C89.4459 41.4226 92.5459 42.4806 92.6769 42.5266C92.8659 42.5926 93.0639 42.5796 93.2339 42.5036Z" fill="#3B1034"/>
<path d="M107.957 42.5876C108.155 42.5936 108.355 42.5226 108.507 42.3736C108.802 42.0836 108.807 41.6106 108.519 41.3146C107.384 40.1506 104.483 38.4976 101.624 40.5656C101.288 40.8086 101.213 41.2786 101.456 41.6136C101.698 41.9496 102.168 42.0246 102.504 41.7816C105.02 39.9606 107.348 42.2656 107.446 42.3646C107.587 42.5066 107.771 42.5806 107.957 42.5876Z" fill="#3B1034"/>
<path d="M106.617 36.8994C106.617 36.8994 106.931 38.9984 108.478 40.7264C109.277 41.6204 109.858 42.6864 110.101 43.8604L110.397 45.2914C110.397 45.2914 110.765 39.2744 109.269 37.1944L106.617 36.8994Z" fill="#3B1034"/>
<path d="M92.8955 57.1636C92.8955 57.1636 100.216 56.9336 104.213 55.7886C104.213 55.7886 105.023 60.7236 98.7315 61.0426C93.5275 61.3056 92.8955 57.1636 92.8955 57.1636Z" fill="white"/>
<path d="M90.36 50.9319C90.419 51.5559 88.778 52.2219 86.695 52.4189C84.612 52.6169 82.875 52.2709 82.816 51.6469C82.757 51.0229 84.398 50.3569 86.481 50.1599C88.564 49.9629 90.301 50.3079 90.36 50.9319Z" fill="#FF8E69"/>
<path d="M110.561 49.1364C110.562 49.2094 110.564 49.2794 110.565 49.3524C110.573 50.0034 110.575 50.6645 110.559 51.3375C110.245 51.3825 109.915 51.4185 109.572 51.4455C107.275 51.6175 105.353 51.2515 105.281 50.6255C105.21 50.0015 107.012 49.3555 109.308 49.1775C109.743 49.1455 110.164 49.1324 110.561 49.1364Z" fill="#FF8E69"/>
<path d="M92.4689 47.0585C92.5749 48.1765 92.1669 49.1295 91.5569 49.1875C90.9479 49.2455 90.3679 48.3855 90.2609 47.2685C90.1549 46.1505 90.5629 45.1975 91.1729 45.1395C91.7829 45.0815 92.3629 45.9405 92.4689 47.0585Z" fill="#3B1034"/>
<path d="M105.954 45.8837C106.06 47.0017 105.652 47.9547 105.042 48.0127C104.433 48.0707 103.853 47.2117 103.747 46.0937C103.641 44.9757 104.049 44.0227 104.659 43.9647C105.268 43.9067 105.848 44.7657 105.954 45.8837Z" fill="#3B1034"/>
<path d="M98.3231 55.0834C97.9541 55.1174 97.6221 54.8534 97.5751 54.4834C97.5261 54.1054 97.7931 53.7594 98.1721 53.7104C98.7321 53.6384 99.1861 53.5494 99.5121 53.4744C99.0781 51.3574 98.0421 48.5384 98.0301 48.5074C97.8981 48.1494 98.0811 47.7524 98.4381 47.6204C98.7961 47.4874 99.1931 47.6714 99.3251 48.0284C99.3791 48.1734 100.638 51.5984 100.987 53.8724C101.038 54.2054 100.841 54.5264 100.522 54.6324C100.489 54.6434 99.6861 54.9074 98.3481 55.0794C98.3391 55.0814 98.3311 55.0824 98.3231 55.0834Z" fill="#FF8E69"/>
<path d="M75.7038 46.9126C75.7038 46.9126 73.3538 43.4016 69.7768 45.2846C66.1998 47.1676 70.8868 62.8597 79.9058 58.9447L75.7038 46.9126Z" fill="#FFB890"/>
<path d="M78.6579 59.3698C78.8139 59.7258 78.9139 60.1138 78.9519 60.5218C79.1489 62.6348 77.5919 64.5108 75.4789 64.7078C73.3689 64.9038 71.4899 63.3478 71.2929 61.2348C71.1669 59.8768 71.7709 58.6158 72.7789 57.8388C73.2799 57.4508 73.8829 57.1818 74.5449 57.0818L74.4369 55.9238C73.4909 56.0528 72.6399 56.4438 71.9459 57.0168C70.7059 58.0338 69.9759 59.6288 70.1349 61.3428C70.3909 64.0928 72.8359 66.1218 75.5859 65.8658C78.3359 65.6098 80.3649 63.1648 80.1089 60.4148C80.0629 59.9168 79.9459 59.4428 79.7639 59.0018L78.6579 59.3698Z" fill="white"/>
<path d="M75.5041 55.1109C75.5001 55.1109 75.4971 55.1119 75.4931 55.1119C75.1131 55.1409 74.7811 54.8569 74.7511 54.4769C74.4151 50.1499 70.8981 48.5479 70.8631 48.5329C70.5141 48.3789 70.3561 47.9709 70.5101 47.6219C70.6641 47.2729 71.0721 47.1149 71.4201 47.2689C71.5961 47.3469 75.7281 49.2279 76.1281 54.3699C76.1581 54.7469 75.8791 55.0759 75.5041 55.1109Z" fill="#FF8E69"/>
<path d="M71.8606 52.4716C71.5806 52.4976 71.3006 52.3496 71.1726 52.0806C71.0086 51.7366 71.1556 51.3236 71.4996 51.1606C71.7056 51.0626 73.5546 50.2226 74.9656 50.8866C75.3106 51.0486 75.4586 51.4606 75.2966 51.8056C75.1346 52.1506 74.7226 52.2986 74.3776 52.1366C73.6746 51.8056 72.4616 52.2326 72.0926 52.4076C72.0176 52.4436 71.9396 52.4646 71.8606 52.4716Z" fill="#FF8E69"/>
<path d="M108.527 26.3705C108.527 26.3705 82.5141 25.3325 66.4121 36.9005C66.4121 36.9005 66.5071 31.9155 68.3541 26.4725V26.4695C68.7071 25.4295 69.1241 24.3745 69.6171 23.3325C71.6991 18.9225 75.1371 14.7775 80.8051 13.2945C88.7101 11.2245 95.0501 12.8375 99.9031 16.2215C100.868 16.8945 101.773 17.6365 102.62 18.4345C105.07 20.7405 107.032 23.5055 108.527 26.3705Z" fill="#F6B74C"/>
<path d="M102.62 18.4356C96.9985 19.1506 82.9985 20.8906 68.3555 26.4706C68.7085 25.4306 69.1255 24.3756 69.6185 23.3336C75.3645 19.7386 89.3715 16.2406 99.9035 16.2236C100.867 16.8956 101.772 17.6376 102.62 18.4356Z" fill="#FF6129"/>
<path d="M120.996 198.035C120.794 197.321 120.593 196.606 120.391 195.889C119.972 194.4 119.555 192.903 119.142 191.406C115.82 179.376 112.774 167.443 111.379 159.581C111.379 159.581 92.3493 170.647 64.0023 159.948C64.0023 159.948 63.3303 163.072 62.1853 168.151C62.0393 168.789 61.8883 169.458 61.7293 170.155C61.2033 172.477 60.5973 175.117 59.9283 177.991C59.5013 179.811 59.0513 181.724 58.5793 183.708C57.9443 186.376 57.2673 189.178 56.5593 192.051C56.5593 192.054 56.5593 192.056 56.5593 192.056C56.4913 192.324 56.4263 192.595 56.3563 192.866C56.3533 192.874 56.3533 192.882 56.3533 192.892C55.9363 194.585 55.5083 196.303 55.0723 198.035H120.996Z" fill="#FF6129"/>
<path d="M62.2125 168.545C62.2125 169.141 62.0355 169.696 61.7305 170.156C61.8895 169.458 62.0405 168.789 62.1865 168.152C62.2045 168.279 62.2125 168.412 62.2125 168.545Z" fill="#E8311B"/>
<path d="M74.6542 168.543C74.6542 170.164 73.3402 171.478 71.7192 171.478C70.0982 171.478 68.7842 170.164 68.7842 168.543C68.7842 166.922 70.0982 165.608 71.7192 165.608C73.3402 165.607 74.6542 166.922 74.6542 168.543Z" fill="#E8311B"/>
<path d="M84.1616 171.478C85.7825 171.478 87.0966 170.164 87.0966 168.543C87.0966 166.922 85.7825 165.608 84.1616 165.608C82.5406 165.608 81.2266 166.922 81.2266 168.543C81.2266 170.164 82.5406 171.478 84.1616 171.478Z" fill="#E8311B"/>
<path d="M96.6039 171.478C98.2249 171.478 99.5389 170.164 99.5389 168.543C99.5389 166.922 98.2249 165.608 96.6039 165.608C94.983 165.608 93.6689 166.922 93.6689 168.543C93.6689 170.164 94.983 171.478 96.6039 171.478Z" fill="#E8311B"/>
<path d="M109.046 171.478C110.667 171.478 111.981 170.164 111.981 168.543C111.981 166.922 110.667 165.608 109.046 165.608C107.425 165.608 106.111 166.922 106.111 168.543C106.111 170.164 107.425 171.478 109.046 171.478Z" fill="#E8311B"/>
<path d="M62.2121 180.855C62.2121 182.477 60.8971 183.791 59.2781 183.791C59.0381 183.791 58.8041 183.762 58.5801 183.708C59.0511 181.724 59.5021 179.811 59.9281 177.991C61.2351 178.289 62.2121 179.457 62.2121 180.855Z" fill="#E8311B"/>
<path d="M74.6542 180.855C74.6542 182.476 73.3402 183.79 71.7192 183.79C70.0982 183.79 68.7842 182.476 68.7842 180.855C68.7842 179.234 70.0982 177.92 71.7192 177.92C73.3402 177.92 74.6542 179.234 74.6542 180.855Z" fill="#E8311B"/>
<path d="M84.1616 183.79C85.7825 183.79 87.0966 182.476 87.0966 180.855C87.0966 179.234 85.7825 177.92 84.1616 177.92C82.5406 177.92 81.2266 179.234 81.2266 180.855C81.2266 182.476 82.5406 183.79 84.1616 183.79Z" fill="#E8311B"/>
<path d="M96.6049 183.79C98.2259 183.79 99.5399 182.476 99.5399 180.855C99.5399 179.234 98.2259 177.92 96.6049 177.92C94.984 177.92 93.6699 179.234 93.6699 180.855C93.6699 182.476 94.984 183.79 96.6049 183.79Z" fill="#E8311B"/>
<path d="M109.046 183.79C110.667 183.79 111.981 182.476 111.981 180.855C111.981 179.234 110.667 177.92 109.046 177.92C107.425 177.92 106.111 179.234 106.111 180.855C106.111 182.476 107.425 183.79 109.046 183.79Z" fill="#E8311B"/>
<path d="M62.2118 193.166C62.2118 194.787 60.8978 196.101 59.2768 196.101C57.6558 196.101 56.3418 194.787 56.3418 193.166C56.3418 191.545 57.6558 190.231 59.2768 190.231C60.8978 190.231 62.2118 191.545 62.2118 193.166Z" fill="#E8311B"/>
<path d="M74.6542 193.166C74.6542 194.787 73.3402 196.101 71.7192 196.101C70.0982 196.101 68.7842 194.787 68.7842 193.166C68.7842 191.545 70.0982 190.231 71.7192 190.231C73.3402 190.231 74.6542 191.545 74.6542 193.166Z" fill="#E8311B"/>
<path d="M87.0975 193.166C87.0975 194.787 85.7835 196.101 84.1625 196.101C82.5415 196.101 81.2275 194.787 81.2275 193.166C81.2275 191.545 82.5415 190.231 84.1625 190.231C85.7835 190.231 87.0975 191.545 87.0975 193.166Z" fill="#E8311B"/>
<path d="M99.5389 193.166C99.5389 194.787 98.2249 196.101 96.6039 196.101C94.9829 196.101 93.6689 194.787 93.6689 193.166C93.6689 191.545 94.9829 190.231 96.6039 190.231C98.2249 190.231 99.5389 191.545 99.5389 193.166Z" fill="#E8311B"/>
<path d="M111.982 193.166C111.982 194.787 110.668 196.101 109.047 196.101C107.426 196.101 106.112 194.787 106.112 193.166C106.112 191.545 107.426 190.231 109.047 190.231C110.667 190.231 111.982 191.545 111.982 193.166Z" fill="#E8311B"/>
<path d="M120.393 195.889C119.315 195.457 118.555 194.4 118.555 193.166C118.555 192.505 118.774 191.896 119.143 191.406C119.557 192.903 119.973 194.4 120.393 195.889Z" fill="#E8311B"/>
<path d="M75.1438 98.0947C75.1438 98.0947 79.0318 99.2757 84.3548 101.059C85.2888 101.37 86.2658 101.7 87.2758 102.049C97.3898 105.52 110.607 110.526 113.57 113.893C118.514 119.512 115.279 129.673 96.5398 123.627C90.1778 121.574 83.6948 118.954 77.9028 116.389C77.1368 116.049 76.3838 115.71 75.6458 115.374C65.4948 110.768 62.7598 104.238 62.7598 104.238L75.1438 98.0947Z" fill="#FFB890"/>
<path d="M111.431 124.699C111.431 124.699 135.086 112.906 146.977 94.2707C156.828 78.8317 152.48 77.3747 144.437 83.4827C136.394 89.5897 127.008 97.2827 121.081 100.554C109.364 107.021 102.867 109.631 102.867 109.631L111.431 124.699Z" fill="#FFB890"/>
<path d="M153.6 75.0729C153.6 75.0729 155.431 70.7119 154.841 67.4959C154.25 64.2789 156.484 57.3539 154.14 57.1829C152.163 57.0389 151.875 68.8329 150.255 72.3999C148.547 76.1589 153.6 75.0729 153.6 75.0729Z" fill="#FF8E69"/>
<path d="M149.701 75.2727C149.701 75.2727 154.232 69.7267 154.532 66.3337C154.832 62.9407 157.846 57.3857 157.078 56.3907C156.31 55.3957 153.654 59.2247 152.604 63.3997C151.553 67.5757 149.701 75.2727 149.701 75.2727Z" fill="#FFB890"/>
<path d="M149.671 73.3577C149.671 73.3577 151.126 67.2587 150.124 66.5857C149.122 65.9127 146.334 69.2647 145.656 75.2997C145.448 77.1537 143.801 79.3718 142.956 82.6048C141.957 86.4268 145.497 89.8298 149.268 88.6528C149.282 88.6488 149.295 88.6438 149.309 88.6398C149.925 88.4438 150.441 88.0158 150.754 87.4498C152.2 84.8328 157.285 75.2947 157.1 70.9417C156.885 65.8687 159.909 58.0697 159.32 56.5497C158.732 55.0297 155.909 59.2638 154.486 62.5268C153.064 65.7888 149.671 73.3577 149.671 73.3577Z" fill="#FFB890"/>
<path d="M84.3565 101.059C85.2905 101.37 86.2675 101.7 87.2775 102.049C86.5135 106.953 80.4005 114.413 77.9045 116.39C77.1385 116.05 76.3855 115.711 75.6475 115.375C80.7565 109.911 83.5775 103.113 84.3565 101.059Z" fill="#3B1034"/>
<path d="M63.4473 111.433C67.3183 114.108 70.9793 116.288 75.1793 117.728C75.1793 117.728 82.1483 110.326 86.9453 99.795L63.6463 84.46C63.6463 84.46 57.4973 86.377 56.3533 93.229C55.3723 99.107 57.5853 107.382 63.4473 111.433Z" fill="#00A580"/>
<path d="M24.1174 47.7525C22.8474 57.0035 22.5004 69.6745 22.9254 82.9925C22.9314 83.1905 23.0084 83.3795 23.1404 83.5265C23.6634 84.1045 24.6214 83.7125 24.5924 82.9335C23.3784 51.0375 26.9494 30.7235 35.1134 22.9395C35.4184 22.6485 35.4864 22.1705 35.2284 21.8375C34.9324 21.4565 34.3824 21.4225 34.0414 21.7455C29.1934 26.3415 25.8554 35.0915 24.1174 47.7525Z" fill="#00A580"/>
<path d="M26.6072 36.5946C26.6072 36.5946 19.9082 36.3846 20.7382 24.6216C20.7382 24.6216 30.9002 27.8516 26.6072 36.5946Z" fill="#00CCA1"/>
<path d="M25.8654 42.6377C25.8654 42.6377 25.7024 35.9377 37.4934 36.1107C37.4934 36.1107 34.8344 46.4377 25.8654 42.6377Z" fill="#00CCA1"/>
<path d="M31.4807 26.2697C31.4807 26.2697 29.0927 20.0077 40.2677 16.2397C40.2677 16.2397 41.2037 26.8617 31.4807 26.2697Z" fill="#00CCA1"/>
<path d="M23.9988 54.7477C23.9988 54.7477 17.6238 56.8157 14.4258 45.4657C14.4258 45.4657 25.0818 45.0677 23.9988 54.7477Z" fill="#00CCA1"/>
<path d="M24.1759 61.0176C24.1759 61.0176 22.8569 54.4466 34.4999 52.5786C34.4999 52.5786 33.6669 63.2096 24.1759 61.0176Z" fill="#00CCA1"/>
<path d="M23.5654 69.6268C23.5654 69.6268 17.2304 71.8158 13.8174 60.5278C13.8174 60.5278 24.4644 59.9278 23.5654 69.6268Z" fill="#00CCA1"/>
<path d="M152.245 156.807C147.716 164.973 140.399 175.323 132.075 185.729C131.951 185.883 131.777 185.989 131.583 186.027C130.818 186.177 130.286 185.288 130.777 184.682C150.868 159.879 160.187 141.479 158.319 130.355C158.249 129.94 158.481 129.516 158.888 129.404C159.353 129.277 159.814 129.579 159.893 130.042C161.016 136.626 158.443 145.631 152.245 156.807Z" fill="#00A580"/>
<path d="M156.94 146.384C156.94 146.384 162.428 150.231 168.815 140.319C168.815 140.319 158.745 136.811 156.94 146.384Z" fill="#00CCA1"/>
<path d="M153.912 151.665C153.912 151.665 158.059 146.4 148.517 139.471C148.517 139.471 144.455 149.33 153.912 151.665Z" fill="#00CCA1"/>
<path d="M159.229 135.198C159.229 135.198 164.894 131.617 158.208 121.903C158.208 121.903 151.091 129.844 159.229 135.198Z" fill="#00CCA1"/>
<path d="M148.146 162.477C148.146 162.477 152.009 167.954 161.373 160.786C161.373 160.786 153.082 154.079 148.146 162.477Z" fill="#00CCA1"/>
<path d="M144.246 167.389C144.246 167.389 149.241 162.92 141.041 154.446C141.041 154.446 135.336 163.455 144.246 167.389Z" fill="#00CCA1"/>
<path d="M139.575 174.647C139.575 174.647 143.333 180.196 152.831 173.207C152.831 173.207 144.669 166.344 139.575 174.647Z" fill="#00CCA1"/>
<path d="M11.5272 122.025C11.5272 122.025 7.62919 102.953 14.3082 102.776C20.9872 102.599 11.5272 122.025 11.5272 122.025Z" fill="#00CCA1"/>
<path d="M10.101 129.965C9.89196 129.879 9.76196 129.658 9.79796 129.425L12.555 111.846C12.598 111.573 12.854 111.387 13.126 111.429C13.399 111.471 13.585 111.728 13.543 112L10.786 129.579C10.743 129.852 10.487 130.038 10.215 129.996C10.175 129.991 10.137 129.98 10.101 129.965Z" fill="#00A580"/>
<path d="M12.041 121.163C12.041 121.163 21.248 104.013 26.494 108.15C31.74 112.287 12.041 121.163 12.041 121.163Z" fill="#00CCA1"/>
<path d="M11.4763 121.872C11.4073 121.844 11.3443 121.799 11.2923 121.74C11.1103 121.533 11.1303 121.217 11.3383 121.034L19.3453 113.998C19.5533 113.816 19.8683 113.836 20.0513 114.044C20.2333 114.251 20.2133 114.567 20.0053 114.75L11.9983 121.786C11.8493 121.916 11.6463 121.943 11.4763 121.872Z" fill="#00A580"/>
<path d="M179.747 82.8188C179.747 82.8188 197.383 74.5798 193.544 69.1118C189.705 63.6438 179.747 82.8188 179.747 82.8188Z" fill="#00CCA1"/>
<path d="M174.222 88.6968C174.416 88.8128 174.67 88.7859 174.836 88.6179L187.307 75.9258C187.501 75.7288 187.498 75.4118 187.301 75.2188C187.104 75.0248 186.788 75.0278 186.594 75.2248L174.123 87.9168C173.929 88.1138 173.932 88.4298 174.129 88.6238C174.157 88.6528 174.189 88.6768 174.222 88.6968Z" fill="#00A580"/>
<path d="M180.133 81.8918C180.133 81.8918 188.414 64.2758 181.966 62.5298C175.517 60.7848 180.133 81.8918 180.133 81.8918Z" fill="#00CCA1"/>
<path d="M179.901 82.7686C179.965 82.8066 180.038 82.8316 180.117 82.8376C180.392 82.8606 180.634 82.6556 180.656 82.3806L181.532 71.7576C181.555 71.4826 181.35 71.2416 181.075 71.2186C180.8 71.1956 180.558 71.4006 180.536 71.6756L179.66 82.2986C179.643 82.4956 179.742 82.6746 179.901 82.7686Z" fill="#00A580"/>
<path d="M132.549 53.4299C132.263 53.4299 131.989 53.2659 131.863 52.9879C131.691 52.6089 131.858 52.1629 132.237 51.9909C152.643 42.7159 163.311 30.6149 168.667 22.0959C174.468 12.8699 175.463 5.73992 175.473 5.66892C175.528 5.25692 175.905 4.96791 176.318 5.02091C176.73 5.07491 177.021 5.45291 176.967 5.86491C176.928 6.16491 175.94 13.3279 169.993 22.8179C164.53 31.5359 153.653 43.9119 132.861 53.3629C132.759 53.4079 132.653 53.4299 132.549 53.4299Z" fill="#00A580"/>
<path d="M145.576 45.0718C145.576 45.0718 139.834 50.9278 129.933 40.4298C129.933 40.4298 141.265 33.9588 145.576 45.0718Z" fill="#00CCA1"/>
<path d="M151.772 41.3174C151.772 41.3174 158.812 45.5244 150.932 57.6134C150.932 57.6134 141.982 48.1174 151.772 41.3174Z" fill="#00CCA1"/>
<path d="M167.404 25.7529C167.404 25.7529 159.776 28.7649 165.595 41.9699C165.595 41.9699 175.964 34.0479 167.404 25.7529Z" fill="#00CCA1"/>
<path d="M170.57 20.2069C170.57 20.2069 167.674 12.5339 154.383 18.1529C154.383 18.1529 162.146 28.6409 170.57 20.2069Z" fill="#00CCA1"/>
<path d="M161.169 32.3737C161.169 32.3737 158.27 40.0457 144.981 34.4207C144.981 34.4207 152.749 23.9357 161.169 32.3737Z" fill="#00CCA1"/>
<path d="M12.9295 152.39C13.8635 153 15.1155 152.737 15.7245 151.801C16.3335 150.865 16.0705 149.612 15.1365 149.001C14.2025 148.391 12.9505 148.654 12.3415 149.59C11.7315 150.527 11.9945 151.78 12.9295 152.39Z" fill="#FF6129"/>
<path d="M141.111 19.2068C141.735 20.1318 142.991 20.3748 143.915 19.7488C144.84 19.1228 145.084 17.8658 144.46 16.9408C143.836 16.0158 142.58 15.7728 141.656 16.3988C140.731 17.0248 140.487 18.2818 141.111 19.2068Z" fill="#FF6129"/>
<path d="M164.561 175.333C165.495 175.943 166.747 175.68 167.356 174.744C167.965 173.808 167.702 172.555 166.768 171.945C165.834 171.335 164.582 171.598 163.973 172.534C163.363 173.47 163.626 174.723 164.561 175.333Z" fill="#FF6129"/>
<path d="M53.9708 21.4866C54.9048 22.0966 56.1568 21.8336 56.7658 20.8976C57.3748 19.9616 57.1118 18.7085 56.1778 18.0975C55.2438 17.4875 53.9918 17.7516 53.3828 18.6866C52.7738 19.6226 53.0368 20.8756 53.9708 21.4866Z" fill="#FF6129"/>
<path d="M173.263 121.967C174.197 122.577 175.449 122.314 176.058 121.378C176.667 120.442 176.404 119.189 175.47 118.579C174.536 117.969 173.284 118.232 172.675 119.168C172.065 120.103 172.329 121.356 173.263 121.967Z" fill="#FF6129"/>
<path d="M1.8963 62.1377C2.8303 62.7477 4.0823 62.4847 4.6913 61.5487C5.3003 60.6127 5.0373 59.3597 4.1033 58.7487C3.1693 58.1387 1.9173 58.4017 1.3083 59.3377C0.6983 60.2737 0.961301 61.5267 1.8963 62.1377Z" fill="#FF6129"/>
<path d="M5.45464 87.3066C6.38864 87.9166 7.64064 87.6536 8.24964 86.7176C8.85864 85.7816 8.59564 84.5286 7.66164 83.9176C6.72764 83.3076 5.47564 83.5706 4.86664 84.5066C4.25664 85.4426 4.52064 86.6956 5.45464 87.3066Z" fill="#008661"/>
<path d="M109.497 3.87671C110.121 4.80171 111.377 5.0447 112.301 4.4187C113.226 3.7927 113.47 2.53569 112.846 1.61069C112.222 0.685688 110.966 0.442696 110.042 1.0687C109.116 1.6937 108.873 2.95171 109.497 3.87671Z" fill="#008661"/>
<path d="M183.321 101.811C184.255 102.421 185.507 102.158 186.116 101.222C186.725 100.286 186.462 99.0335 185.528 98.4235C184.594 97.8135 183.342 98.0765 182.733 99.0125C182.123 99.9485 182.387 101.201 183.321 101.811Z" fill="#008661"/>
<path d="M30.5763 182.55C31.5103 183.16 32.7623 182.897 33.3713 181.961C33.9803 181.025 33.7173 179.772 32.7833 179.162C31.8493 178.552 30.5973 178.815 29.9883 179.751C29.3793 180.687 29.6423 181.94 30.5763 182.55Z" fill="#008661"/>
</svg>
