<svg width="190" height="209" viewBox="0 0 190 209" fill="none" xmlns="http://www.w3.org/2000/svg">
<path d="M143.241 162.291C168.754 136.778 168.754 95.4133 143.241 69.9002C117.728 44.3871 76.3629 44.3871 50.8498 69.9002C25.3367 95.4133 25.3367 136.778 50.8498 162.291C76.3629 187.804 117.728 187.804 143.241 162.291Z" fill="#00A580"/>
<path d="M62.7223 136.878C58.7343 140.149 30.5783 119.649 26.4353 114.598C21.6253 108.734 14.2113 114.233 23.5793 124.195C37.1843 138.661 40.5193 146.199 48.6713 147.793C50.2113 148.094 53.0463 147.856 54.2703 146.875C59.3073 143.906 60.7133 140.966 62.7223 136.878Z" fill="#FFB890"/>
<path d="M71.2253 119.633C70.8983 120.408 70.5752 121.158 70.2552 121.89C66.1252 131.353 62.5603 137.432 58.6683 143.44L45.1562 142.665L60.7762 111.965L62.0593 109.445L71.2253 119.633Z" fill="#FFB890"/>
<path d="M71.2254 119.633C70.8984 120.408 70.5754 121.158 70.2554 121.89C67.1334 119.113 62.7004 114.155 60.7754 111.965L62.0584 109.445L71.2254 119.633Z" fill="#3B1034"/>
<path d="M25.743 115.401C26.267 114.434 26.475 113.342 26.181 111.914C25.793 110.031 24.91 107.242 23.865 105.89C22.297 103.859 17.357 98.1377 15.255 97.9757C13.153 97.8127 17.038 103.083 17.814 104.179C18.59 105.276 18.717 106.31 18.717 106.31C18.717 106.31 8.88305 94.9197 7.20205 94.9797C5.52105 95.0397 10.479 102.09 11.716 103.824C11.716 103.824 3.83704 95.6587 2.78304 96.0387C0.668039 96.8017 9.15804 106.124 9.15804 106.124C9.15804 106.124 2.18604 99.5967 1.16604 100.789C0.0850351 102.052 7.57103 109.024 7.57103 109.024C7.57103 109.024 2.41604 105.441 1.07204 106.061C-0.270959 106.681 9.98403 115.048 11.713 116.142C13.442 117.236 18.72 121.067 21.474 120.13C23.19 119.546 24.934 116.897 25.743 115.401Z" fill="#F6B74C"/>
<path d="M22.1725 115.68C22.0965 115.68 22.0195 115.657 21.9535 115.609C21.7755 115.481 17.5986 112.423 18.4426 108.443C18.4856 108.24 18.6845 108.112 18.8875 108.154C19.0895 108.197 19.2195 108.396 19.1765 108.599C18.4335 112.105 22.3526 114.972 22.3916 115C22.5596 115.121 22.5976 115.355 22.4776 115.523C22.4036 115.625 22.2885 115.68 22.1725 115.68Z" fill="#E9981A"/>
<path d="M9.0581 112.289C9.0341 112.289 9.00909 112.287 8.98409 112.282C8.78109 112.242 8.64908 112.044 8.69008 111.841C8.74308 111.576 10.0441 105.335 15.1921 104.603C15.3971 104.575 15.5871 104.716 15.6161 104.922C15.6451 105.127 15.5031 105.317 15.2971 105.346C10.6691 106.004 9.43609 111.928 9.42409 111.987C9.39009 112.166 9.2331 112.289 9.0581 112.289Z" fill="#E9981A"/>
<path d="M18.1816 119.759C18.1816 119.759 18.8896 122.467 21.5566 122.676C21.5566 122.676 27.6246 118.095 28.1816 114.926C28.1816 114.926 27.9287 113.715 26.1807 111.914C26.1807 111.914 23.1816 118.426 18.1816 119.759Z" fill="#E9981A"/>
<path d="M59.8232 109.566C59.8232 109.566 65.3692 114.66 70.8372 119.455C71.1252 119.707 71.5042 119.842 71.8502 120.03C73.7942 121.109 75.9962 122.186 78.4322 123.159L79.3282 99.6817C79.3282 99.6817 78.0022 94.6687 71.4172 92.0947C71.4172 92.0947 63.6882 100.742 59.8232 109.566Z" fill="#FF6129"/>
<path d="M70.4637 100.072C70.4777 100.123 71.7407 105.4 70.7527 111.813C70.2917 114.819 70.4467 117.393 70.8357 119.454C71.1647 119.649 71.5027 119.841 71.8487 120.029C71.3677 117.936 71.1047 115.193 71.6027 111.941C72.6167 105.353 71.3537 100.085 71.2997 99.8647C71.2427 99.6357 71.0107 99.4957 70.7787 99.5497C70.5497 99.6077 70.4097 99.8397 70.4637 100.072Z" fill="#E8311B"/>
<path d="M122.522 144.743C123.237 155.798 127.837 165.651 127.837 165.651C127.837 165.651 96.6069 179.991 75.9219 165.246C75.9219 165.246 80.4219 146.904 79.8149 137.661C79.7519 136.671 79.6269 135.788 79.4349 135.041C79.3269 134.631 79.2069 134.231 79.0699 133.841C78.5919 132.456 77.95 131.194 77.237 129.976C76.46 128.644 75.5999 127.364 74.7869 126.036C74.0269 124.798 73.309 123.516 72.737 122.111C72.255 120.928 71.8749 119.661 71.6569 118.254C71.3939 116.544 71.3719 114.629 71.7039 112.424C74.1389 96.2489 67.9469 98.5389 71.4159 92.0969C75.3339 84.8239 83.7289 82.4189 87.5239 79.3689C91.3209 76.3139 106.312 78.8689 106.312 78.8689C106.312 78.8689 115.317 82.5989 122.617 85.8939C129.917 89.1839 129.394 97.1069 127.102 106.127C126.362 109.047 125.545 112.975 124.802 117.322C124.644 118.242 124.492 119.182 124.342 120.135C124.294 120.44 124.244 120.745 124.199 121.053C124.189 121.125 124.177 121.198 124.166 121.27C123.976 122.527 123.796 123.805 123.629 125.09C123.461 126.385 123.304 127.688 123.164 128.985C123.026 130.27 122.901 131.55 122.796 132.812C122.689 134.117 122.601 135.404 122.536 136.657C122.387 139.588 122.367 142.343 122.522 144.743Z" fill="#FF6129"/>
<path d="M93.3182 131.411C93.3162 131.411 93.3162 131.413 93.3142 131.413C93.3122 131.413 93.3101 131.413 93.3081 131.411C92.8621 131.121 76.9491 120.712 80.7611 112.653C84.5711 104.6 93.0631 113.136 93.3121 113.392C93.3121 113.392 93.3122 113.39 93.3142 113.392C93.5632 113.136 102.055 104.599 105.865 112.653C109.677 120.712 93.7642 131.121 93.3182 131.411Z" fill="#E8311B"/>
<path d="M86.1544 153.139C101.604 153.139 114.859 141.158 115 141.028C115.175 140.868 115.187 140.596 115.026 140.421C114.866 140.246 114.594 140.234 114.419 140.395C114.27 140.532 99.3264 154.029 82.8804 152.09C82.6454 152.062 82.4314 152.231 82.4034 152.466C82.3754 152.702 82.5434 152.915 82.7794 152.943C83.9144 153.076 85.0404 153.139 86.1544 153.139Z" fill="#E8311B"/>
<path d="M108.687 136.871C108.546 136.637 108.224 136.594 108.029 136.786C103.056 141.688 94.3884 148.48 83.9174 149.301C83.6584 149.321 83.4694 149.569 83.5344 149.834C83.5854 150.042 83.7954 150.173 84.0094 150.156C85.1384 150.067 86.2473 149.91 87.3323 149.695C96.5423 147.871 104.094 141.865 108.629 137.398C108.768 137.261 108.793 137.047 108.692 136.88C108.69 136.876 108.688 136.873 108.687 136.871Z" fill="#E8311B"/>
<path d="M91.5635 89.1269C98.9715 89.1269 105.816 84.6609 106.154 84.4379C106.352 84.3069 106.406 84.0409 106.275 83.8429C106.144 83.6449 105.877 83.5909 105.68 83.7219C105.586 83.7849 96.1485 89.9369 87.7735 87.8149C87.5425 87.7569 87.3094 87.8959 87.2514 88.1259C87.1934 88.3559 87.3325 88.5899 87.5625 88.6479C88.8915 88.9839 90.2375 89.1269 91.5635 89.1269Z" fill="#E8311B"/>
<path d="M94.7163 94.029C98.0263 94.029 100.916 93.231 101.098 93.18C101.326 93.116 101.459 92.878 101.395 92.65C101.33 92.422 101.093 92.289 100.865 92.353C100.8 92.371 94.3363 94.155 89.8533 92.368C89.6333 92.281 89.3833 92.388 89.2953 92.608C89.2073 92.828 89.3153 93.078 89.5353 93.166C91.1613 93.814 92.9953 94.029 94.7163 94.029Z" fill="#E8311B"/>
<path d="M111.8 103.834L117.918 121.221C117.975 121.381 118.119 121.493 118.287 121.507C118.673 121.541 119.22 121.587 119.925 121.587C120.99 121.587 122.419 121.478 124.2 121.049C124.246 120.742 124.294 120.436 124.343 120.133C121.586 120.84 119.679 120.757 118.637 120.674L112.611 103.547C112.534 103.324 112.287 103.206 112.064 103.284C111.84 103.365 111.723 103.611 111.8 103.834Z" fill="#E8311B"/>
<path d="M114.581 110.87C114.686 110.87 114.79 110.832 114.873 110.755C115.047 110.594 115.057 110.322 114.896 110.148L110.24 105.133C110.079 104.959 109.807 104.949 109.633 105.11C109.459 105.271 109.449 105.543 109.611 105.717L114.267 110.732C114.351 110.824 114.466 110.87 114.581 110.87Z" fill="#E8311B"/>
<path d="M145 145.438C143.873 153.965 136.96 154.506 132.833 150.525C131.508 149.248 129.996 146.298 128.458 142.538C128.443 142.505 128.431 142.473 128.418 142.438C128.133 141.743 127.848 141.018 127.563 140.273C125.513 134.903 123.475 128.4 121.838 122.81C121.525 121.75 121.23 120.725 120.953 119.745C119.36 114.163 118.325 110.093 118.325 110.093L127.927 92.7656C127.927 92.7656 131.87 100.721 136.15 111.424C136.46 112.204 136.775 112.996 137.09 113.804C139.468 119.906 141.87 126.727 143.69 133.396C145.08 138.488 145.395 142.453 145 145.438Z" fill="#FFB890"/>
<path d="M120.952 119.747C121.23 120.726 121.525 121.751 121.837 122.81C126.939 122.252 134.931 116.288 137.091 113.803C136.776 112.996 136.461 112.203 136.149 111.424C130.265 116.446 123.111 119.04 120.952 119.747Z" fill="#3B1034"/>
<path d="M127.251 90.0317L137.19 111.035C137.19 111.035 132.164 119.844 118.638 120.675L114.104 107.559C114.104 107.559 119.937 91.4227 127.251 90.0317Z" fill="#FF6129"/>
<path d="M136.302 189.199C134.225 181.7 131.478 173.697 127.837 165.65C127.837 165.65 126.713 166.208 124.632 166.942C124.296 167.06 123.935 167.183 123.547 167.312C115.728 169.871 97.9098 173.661 75.9208 165.247C75.9208 165.247 72.1168 175.574 68.1318 189.2L136.302 189.199Z" fill="#00A580"/>
<path d="M76.6433 161.105C75.1043 162.953 75.1963 165.475 74.9883 167.852C74.9883 167.852 99.1393 179.716 130.498 171.903C130.184 169.125 129.542 166.802 128.35 165.244C128.35 165.244 105.56 172.139 76.6433 161.105Z" fill="#008661"/>
<path d="M131.872 189.198C129.275 180.178 126.505 172.126 124.631 166.941C124.295 167.059 123.934 167.182 123.546 167.311C125.393 172.416 128.118 180.328 130.685 189.199L131.872 189.198Z" fill="#008661"/>
<path d="M93.5071 102.665C93.0741 102.665 92.6361 102.63 92.1911 102.561C90.0371 102.224 88.2721 101.122 86.9471 99.2837C82.3691 92.9367 84.5041 79.8227 84.5971 79.2667C84.6661 78.8577 85.0551 78.5827 85.4611 78.6507C85.8691 78.7187 86.1451 79.1057 86.0771 79.5147C86.0551 79.6447 83.9521 92.5687 88.1651 98.4067C89.2631 99.9277 90.6551 100.802 92.4231 101.078C94.3101 101.372 96.0111 100.924 97.6251 99.7047C104.346 94.6247 106.406 78.3147 106.426 78.1507C106.476 77.7397 106.852 77.4457 107.261 77.4977C107.672 77.5477 107.965 77.9217 107.915 78.3327C107.83 79.0287 105.753 95.4417 98.5291 100.902C96.9781 102.075 95.2941 102.665 93.5071 102.665Z" fill="white"/>
<path d="M76.1494 41.9675C76.1494 41.9675 77.8784 47.9195 75.4624 52.9015C73.0454 57.8835 72.1884 67.6335 78.2424 68.1335C78.2424 68.1335 74.2534 66.0355 76.5424 60.4855C78.8324 54.9345 81.8794 49.0505 80.5454 45.3835C79.2124 41.7175 76.1494 41.9675 76.1494 41.9675Z" fill="#3B1034"/>
<path d="M115.542 27.1105C112.63 28.6425 109.405 29.2325 106.865 28.0455C100.55 25.0905 97.4868 23.0805 97.4868 23.0805C97.4868 23.0805 95.4568 20.0755 94.8068 16.3955C94.1138 12.4855 94.9838 7.81254 101.512 5.18354C114.18 0.0785441 122.66 10.5535 123.202 16.7555C123.527 20.4645 119.88 24.8295 115.542 27.1105Z" fill="#3B1034"/>
<path d="M115.542 27.1107C112.63 28.6427 109.405 29.2327 106.865 28.0457C100.55 25.0907 97.4867 23.0807 97.4867 23.0807C97.4867 23.0807 95.4566 20.0757 94.8066 16.3957C98.4436 16.1777 111.365 18.4707 115.542 27.1107Z" fill="#FF6129"/>
<path d="M74.3487 38.8216C74.3487 38.8216 72.3037 23.6646 89.2647 19.3056C106.226 14.9476 119.508 29.4316 117.554 41.3146C115.601 53.1976 108.363 52.9006 108.363 52.9006L74.3487 38.8216Z" fill="#3B1034"/>
<path d="M112.224 30.0306L112.188 29.0316C112.234 29.0296 116.842 28.8166 119.784 25.4716C121.729 23.2596 122.537 20.1716 122.185 16.2936L123.181 16.2036C123.559 20.3696 122.666 23.7126 120.527 26.1406C117.294 29.8086 112.429 30.0236 112.224 30.0306Z" fill="#3B1034"/>
<path d="M87.4189 78.7077C87.4189 78.7077 87.4759 82.6447 93.1079 83.4087C99.8449 84.3277 106.312 78.8677 106.312 78.8677C105.218 74.7597 105.027 69.8667 105.276 66.2507C105.399 64.4217 105.571 63.2217 105.571 63.2217L105.568 63.2247L87.955 70.3967L87.6689 74.8687L87.5259 77.0727L87.4189 78.7077Z" fill="#FFB890"/>
<path d="M87.668 74.8686C96.947 74.3186 103.059 68.9936 105.347 65.2886C105.464 63.5766 105.559 63.2586 105.567 63.2246L87.9539 70.3966L87.668 74.8686Z" fill="#3B1034"/>
<path d="M79.3111 46.6586C79.3111 46.6586 78.2831 43.0406 74.7361 43.6546C71.1891 44.2696 70.8591 58.8476 79.5721 58.0026L79.3111 46.6586Z" fill="#FF8E69"/>
<path d="M74.3573 51.7994C74.3623 51.8744 74.3683 51.9464 74.3733 52.0224C74.4273 52.6924 74.4883 53.3744 74.5693 54.0654C74.5743 54.1034 74.5773 54.1434 74.5823 54.1804C74.6843 55.0734 74.8053 55.9774 74.9493 56.8834C75.0753 57.6614 75.1873 58.4514 75.3833 59.2244C77.7153 68.4024 83.9423 72.1964 91.9593 71.1504C106.702 69.2284 111.719 54.6894 113.363 46.4654C113.953 43.5134 114.103 41.5424 114.103 41.5424C114.162 30.6254 102.063 22.0394 91.9583 22.9774C77.7993 24.2914 75.3563 32.7494 74.5473 39.3774C74.4563 40.1014 74.3863 40.8044 74.3243 41.4714C74.1373 43.4724 74.0143 47.3634 74.3573 51.7994Z" fill="#FFB890"/>
<path d="M86.0185 65.8146C86.8245 65.9916 87.8925 66.0176 89.0205 65.4636C89.2355 65.3576 89.3245 65.0976 89.2185 64.8826C89.1125 64.6676 88.8525 64.5786 88.6375 64.6846C86.7845 65.5946 85.1165 64.5676 85.0465 64.5236C84.8445 64.3966 84.5765 64.4566 84.4485 64.6576C84.3205 64.8596 84.3795 65.1266 84.5805 65.2556C84.6245 65.2846 85.1805 65.6316 86.0185 65.8146Z" fill="#FF8E69"/>
<path d="M91.5608 43.3097C91.3668 43.2447 91.1998 43.1027 91.1058 42.9027C90.9258 42.5147 91.0918 42.0547 91.4788 41.8727C92.9998 41.1587 96.4098 40.6117 98.4258 43.6527C98.6628 44.0107 98.5648 44.4917 98.2078 44.7287C97.8508 44.9667 97.3688 44.8677 97.1318 44.5107C95.3578 41.8337 92.2668 43.2197 92.1358 43.2797C91.9488 43.3667 91.7438 43.3717 91.5608 43.3097Z" fill="#3B1034"/>
<path d="M76.4097 44.8057C76.2067 44.8317 75.9938 44.7767 75.8228 44.6377C75.4908 44.3677 75.4397 43.8807 75.7087 43.5487C76.7657 42.2417 79.5947 40.2617 82.7357 42.1177C83.1047 42.3357 83.2277 42.8117 83.0087 43.1807C82.7917 43.5507 82.3147 43.6717 81.9457 43.4547C79.1807 41.8207 77.0047 44.4167 76.9137 44.5277C76.7827 44.6877 76.6007 44.7817 76.4097 44.8057Z" fill="#3B1034"/>
<path d="M77.2454 38.8218C77.2454 38.8218 77.1224 41.0128 75.6964 42.9398C74.9594 43.9358 74.4624 45.0898 74.3254 46.3218L74.1584 47.8238C74.1584 47.8238 73.2024 41.6638 74.5434 39.3788L77.2454 38.8218Z" fill="#3B1034"/>
<path d="M93.313 58.3706C93.313 58.3706 85.754 58.8346 81.53 58.0386C81.53 58.0386 81.169 63.1976 87.676 62.9226C93.059 62.6956 93.313 58.3706 93.313 58.3706Z" fill="white"/>
<path d="M95.3262 51.7119C95.3252 52.3599 97.0782 52.8879 99.2422 52.8919C101.406 52.8959 103.161 52.3739 103.162 51.7259C103.163 51.0779 101.41 50.5499 99.2462 50.5459C97.0832 50.5419 95.3282 51.0639 95.3262 51.7119Z" fill="#FF8E69"/>
<path d="M74.3574 51.7987C74.3624 51.8737 74.3684 51.9457 74.3734 52.0207C74.4274 52.6907 74.4884 53.3727 74.5694 54.0637C74.8964 54.0797 75.2394 54.0847 75.5964 54.0797C77.9774 54.0367 79.9214 53.4767 79.9354 52.8247C79.9484 52.1757 78.0314 51.6827 75.6504 51.7197C75.1994 51.7287 74.7654 51.7557 74.3574 51.7987Z" fill="#FF8E69"/>
<path d="M93.7734 47.8856C93.7714 49.0466 94.2824 49.9886 94.9164 49.9896C95.5494 49.9906 96.0644 49.0506 96.0664 47.8896C96.0684 46.7286 95.5564 45.7866 94.9234 45.7856C94.2904 45.7846 93.7754 46.7246 93.7734 47.8856Z" fill="#3B1034"/>
<path d="M79.7764 47.9667C79.7744 49.1277 80.2854 50.0697 80.9184 50.0707C81.5514 50.0717 82.0664 49.1317 82.0684 47.9707C82.0704 46.8097 81.5594 45.8677 80.9254 45.8667C80.2934 45.8657 79.7784 46.8057 79.7764 47.9667Z" fill="#3B1034"/>
<path d="M87.5262 56.7486C87.9092 56.7486 88.2252 56.4456 88.2392 56.0596C88.2532 55.6656 87.9452 55.3346 87.5502 55.3216C86.9672 55.3006 86.4902 55.2526 86.1482 55.2066C86.3922 52.9856 87.1892 49.9846 87.1982 49.9516C87.3002 49.5706 87.0742 49.1796 86.6932 49.0776C86.3112 48.9746 85.9212 49.2016 85.8192 49.5836C85.7782 49.7376 84.8092 53.3846 84.6682 55.7596C84.6482 56.1066 84.8802 56.4186 85.2202 56.4976C85.2552 56.5056 86.1072 56.7006 87.5012 56.7496C87.5082 56.7486 87.5172 56.7486 87.5262 56.7486Z" fill="#FF8E69"/>
<path d="M105.571 42.8774C106.225 46.5004 104.289 53.7354 106.528 53.7354C108.767 53.7354 110.269 45.7734 110.269 45.7734L113.364 46.4654C113.954 43.5134 114.104 41.5424 114.104 41.5424C114.163 30.6254 102.064 22.0394 91.9589 22.9774C77.7999 24.2914 75.3569 32.7494 74.5479 39.3774L77.2458 38.8194C83.1859 38.0314 89.9859 29.5464 89.9859 29.5464C89.2909 36.2214 94.3259 38.3214 105.571 42.8774Z" fill="#3B1034"/>
<path d="M107.074 44.4878C96.6469 42.4298 90.3979 39.1248 88.5009 34.6628C87.0519 31.2568 88.7699 28.5198 88.8439 28.4048L89.6849 28.9458C89.6229 29.0438 88.1779 31.3768 89.4279 34.2908C90.6459 37.1298 94.7289 41.0328 107.267 43.5078L107.074 44.4878Z" fill="#3B1034"/>
<path d="M110.032 46.1694C110.032 46.1694 112.115 42.3294 115.979 43.9254C119.842 45.5214 116.519 62.1264 106.86 58.9594L110.032 46.1694Z" fill="#FFB890"/>
<path d="M105.175 41.9675C105.175 41.9675 106.904 47.9195 104.488 52.9015C102.071 57.8835 101.214 67.6335 107.268 68.1335C107.268 68.1335 103.279 66.0355 105.568 60.4855C107.858 54.9345 110.905 49.0505 109.571 45.3835C108.238 41.7175 105.175 41.9675 105.175 41.9675Z" fill="#3B1034"/>
<path d="M110.898 57.7659C110.898 58.6469 111.612 59.3609 112.493 59.3609C113.374 59.3609 114.088 58.6469 114.088 57.7659C114.088 56.8849 113.374 56.1709 112.493 56.1709C111.612 56.1709 110.898 56.8849 110.898 57.7659Z" fill="white"/>
<path d="M111.022 54.5915C111.026 54.5915 111.03 54.5915 111.033 54.5915C111.427 54.5855 111.742 54.2615 111.736 53.8665C111.668 49.3785 115.135 47.3935 115.17 47.3745C115.514 47.1825 115.638 46.7475 115.446 46.4035C115.254 46.0595 114.818 45.9355 114.475 46.1275C114.302 46.2245 110.227 48.5575 110.308 53.8885C110.314 54.2785 110.632 54.5915 111.022 54.5915Z" fill="#FF8E69"/>
<path d="M114.52 51.5257C114.811 51.5257 115.085 51.3467 115.191 51.0567C115.326 50.6867 115.136 50.2767 114.766 50.1407C114.544 50.0597 112.56 49.3718 111.171 50.1908C110.831 50.3908 110.718 50.8287 110.918 51.1687C111.118 51.5087 111.556 51.6208 111.896 51.4218C112.588 51.0138 113.878 51.3368 114.275 51.4828C114.356 51.5118 114.439 51.5257 114.52 51.5257Z" fill="#FF8E69"/>
<path d="M47.4115 153.275C47.4115 153.275 31.3125 109.693 42.8635 105.241C54.2795 100.842 62.4915 152.331 62.4915 152.331C62.4915 152.331 53.5285 157.642 47.4115 153.275Z" fill="#E9981A"/>
<path d="M41.7734 116.095C41.7734 116.095 42.8824 113.16 45.5324 112.857C48.5824 112.508 49.8544 114.854 49.8544 114.854L41.7734 116.095Z" fill="#D27D21"/>
<path d="M43.4639 122.906C43.4639 122.906 44.5729 119.971 47.2229 119.668C50.2729 119.319 51.5449 121.665 51.5449 121.665L43.4639 122.906Z" fill="#D27D21"/>
<path d="M45.1553 129.716C45.1553 129.716 46.2643 126.781 48.9153 126.478C51.9653 126.129 53.2373 128.475 53.2373 128.475L45.1553 129.716Z" fill="#D27D21"/>
<path d="M46.8467 136.526C46.8467 136.526 47.9557 133.591 50.6057 133.288C53.6557 132.939 54.9277 135.285 54.9277 135.285L46.8467 136.526Z" fill="#D27D21"/>
<path d="M48.5381 143.337C48.5381 143.337 49.6471 140.402 52.2971 140.099C55.3471 139.75 56.6191 142.096 56.6191 142.096L48.5381 143.337Z" fill="#D27D21"/>
<path d="M50.2285 150.147C50.2285 150.147 51.3375 147.212 53.9875 146.909C57.0375 146.56 58.3095 148.906 58.3095 148.906L50.2285 150.147Z" fill="#D27D21"/>
<path d="M51.7393 164.924C51.7393 164.924 54.0153 118.519 66.3873 118.953C78.6143 119.381 65.9823 169.968 65.9823 169.968C65.9823 169.968 55.6543 171.34 51.7393 164.924Z" fill="#E9981A"/>
<path d="M61.127 128.51C61.127 128.51 63.298 126.245 65.8549 127.005C68.7979 127.88 69.0479 130.536 69.0479 130.536L61.127 128.51Z" fill="#D27D21"/>
<path d="M60.0137 135.439C60.0137 135.439 62.1847 133.174 64.7417 133.934C67.6847 134.809 67.9347 137.465 67.9347 137.465L60.0137 135.439Z" fill="#D27D21"/>
<path d="M58.8994 142.367C58.8994 142.367 61.0704 140.102 63.6274 140.862C66.5704 141.737 66.8204 144.393 66.8204 144.393L58.8994 142.367Z" fill="#D27D21"/>
<path d="M57.7852 149.296C57.7852 149.296 59.9562 147.031 62.5132 147.791C65.4562 148.666 65.7062 151.322 65.7062 151.322L57.7852 149.296Z" fill="#D27D21"/>
<path d="M56.6699 156.223C56.6699 156.223 58.8409 153.958 61.3979 154.718C64.3409 155.593 64.5909 158.249 64.5909 158.249L56.6699 156.223Z" fill="#D27D21"/>
<path d="M55.5566 163.152C55.5566 163.152 57.7276 160.887 60.2846 161.647C63.2276 162.522 63.4776 165.178 63.4776 165.178L55.5566 163.152Z" fill="#D27D21"/>
<path d="M79.6018 144.516L79.0988 156.566L78.9688 159.681L78.7908 163.911L78.5808 168.931L78.4288 172.598L78.1568 179.12L77.7368 189.197H49.6368C49.6368 189.197 41.8218 161.509 41.9468 143.905C41.9468 143.905 70.9668 145.233 79.6018 144.516Z" fill="#F6B74C"/>
<path d="M57.9829 164.326L56.0869 163.245L62.2109 163.15L65.3769 168.572L63.4809 167.548L60.9459 172.017C60.3239 173.113 59.9669 174.343 59.9379 175.602C59.9369 175.65 59.9359 175.698 59.9359 175.747L56.4849 169.785C56.4849 169.785 54.9869 167.207 57.9829 164.326Z" fill="#E9981A"/>
<path d="M78.4302 172.598L78.1582 179.12C77.3352 179.325 76.2702 179.34 74.9282 178.92L74.8932 181.103L71.8652 175.778L75.0952 170.396L75.1102 172.551L78.4302 172.598Z" fill="#E9981A"/>
<path d="M79.0995 156.566L78.9695 159.681L78.0266 161.361L71.7496 161.376L73.5865 160.251L71.1016 156.019C71.1016 156.019 72.0295 153.629 74.5945 153.132C76.7195 152.718 78.4865 155.471 79.0995 156.566Z" fill="#E9981A"/>
<path d="M69.4155 172.488V178.829H63.8706C63.8706 178.829 61.4436 178.773 61.0556 176.014C60.7336 173.722 62.0225 172.488 62.0225 172.488H69.4155Z" fill="#E9981A"/>
<path d="M78.7925 163.911L78.5825 168.931L76.4375 165.306L78.7925 163.911Z" fill="#E9981A"/>
<path d="M60.7324 159.284L63.5854 154.288C63.5854 154.288 64.4954 152.781 65.9174 152.781H72.6194C72.6194 152.781 71.2354 153.833 69.8424 156.032C68.4244 158.27 66.2594 162.393 66.2594 162.393L60.7324 159.284Z" fill="#E9981A"/>
<path d="M85.9216 80.4806C84.8786 79.7306 83.5516 79.0726 82.0386 78.9856C80.0386 78.8656 78.1866 79.7286 76.5186 81.5406C75.2836 82.8806 74.3066 85.3426 73.5636 89.0036C73.1786 90.9006 72.8536 93.1186 72.5936 95.6686C72.3856 97.6816 72.2186 99.8986 72.0886 102.317C71.9286 105.225 71.8286 108.419 71.7816 111.882C71.7586 113.692 71.7486 115.574 71.7566 117.529C71.7596 117.974 71.7616 118.419 71.7646 118.862C71.8626 133.312 72.7496 146.667 72.7596 146.805C72.8076 147.53 73.4116 148.088 74.1296 148.088C74.1596 148.088 74.1926 148.085 74.2216 148.083C74.9816 148.033 75.5546 147.378 75.5016 146.621C75.4966 146.508 74.8766 137.206 74.6166 125.758C74.5566 123.098 74.5166 120.323 74.5066 117.52C74.4416 97.8346 75.9296 89.2966 77.3246 85.6146C77.7546 84.4746 78.1776 83.7996 78.5416 83.4046C79.6366 82.2146 80.7236 81.6666 81.8696 81.7316C82.3266 81.7566 82.7666 81.8766 83.1796 82.0516L85.9216 80.4806Z" fill="#F6B74C"/>
<path d="M128.594 142.424C128.594 142.424 135.109 136.975 142.114 140.788C149.119 144.602 141.491 154.588 132.477 161.676C123.462 168.763 110.034 178.985 110.034 178.985L104.34 173.905C104.34 173.905 112.094 165.731 116.433 158.426C118.741 154.54 124.039 146.201 128.594 142.424Z" fill="#FFB890"/>
<path d="M137.391 139.563C134.641 140.105 131.446 141.228 128.741 142.308C128.633 142.353 128.526 142.396 128.418 142.438C128.133 141.743 127.847 141.018 127.562 140.273C131.201 139.41 134.375 139.383 136.073 139.46C136.911 139.501 137.391 139.563 137.391 139.563Z" fill="#3B1034"/>
<path d="M112.266 178.343C112.069 180.549 108.21 183.657 107.21 185.462C106.536 186.677 105.993 188.065 105.416 189.447L105.412 189.45C105.412 189.45 105.361 189.577 105.268 189.799C105.249 189.841 105.233 189.886 105.209 189.937C105.189 189.985 105.169 190.036 105.145 190.087C104.45 191.746 102.5 196.142 101.034 197.342C100.283 197.959 99.9861 197.593 100.012 196.639C100.045 195.291 100.723 192.772 101.664 190.202C101.664 190.202 100.452 191.564 99.8311 193.974C99.5031 195.247 99.0881 196.564 98.5051 197.684C97.9881 198.683 97.3371 199.525 96.5041 200.043C95.9701 200.376 95.7401 199.988 95.6981 199.232C95.5961 197.478 96.4911 193.73 96.8821 192.33C97.4421 190.326 97.4201 190.479 98.1151 188.993C98.0141 189.134 96.4271 191.395 95.9011 192.862C95.5101 193.956 95.1551 197.423 94.3671 199.799C94.0661 200.715 93.6991 201.471 93.2421 201.866C92.3131 202.667 91.9851 201.929 91.9591 200.573L91.9601 200.57C91.9391 199.52 92.0971 198.105 92.2981 196.743C92.7591 193.621 92.9141 192.067 93.1731 190.81C93.4491 189.469 94.4361 187.375 94.5241 187.235C94.3661 187.419 92.3661 190.787 91.8271 191.996C91.3511 193.059 90.8221 198.181 89.7211 200.973C89.5321 201.452 89.3571 201.886 89.1041 202.174C88.6451 202.696 87.8671 202.642 87.8721 201.032C87.8731 200.18 87.9411 199.134 87.9971 198.131C88.1601 195.229 88.6861 192.381 89.1711 190.912C89.6531 189.442 91.5751 184.353 93.4181 181.224C93.4181 181.224 94.1211 179.342 96.6831 178.073C99.2461 176.804 104.517 171.202 107.016 170.262C107.016 170.259 112.766 172.728 112.266 178.343Z" fill="#F6B74C"/>
<path d="M104.339 171.661C104.339 171.661 111.004 175.55 111.379 180.363C111.379 180.363 113.788 180.14 113.557 177.918C113.369 176.117 110.463 170.926 106.724 169.843C106.724 169.843 104.974 170.259 104.339 171.661Z" fill="#E9981A"/>
<path d="M163.972 135.1C162.379 144.301 158.871 156.481 154.431 169.045C154.365 169.231 154.235 169.389 154.064 169.489C153.391 169.882 152.596 169.218 152.86 168.484C163.68 138.454 166.432 118.014 161.01 108.122C160.808 107.753 160.887 107.276 161.234 107.037C161.631 106.764 162.166 106.898 162.393 107.309C165.621 113.157 166.152 122.507 163.972 135.1Z" fill="#00A580"/>
<path d="M164.979 123.712C164.979 123.712 171.427 125.541 174.2 114.08C174.2 114.08 163.537 114.079 164.979 123.712Z" fill="#00CCA1"/>
<path d="M163.855 129.696C163.855 129.696 166.04 123.36 154.751 119.953C154.751 119.953 154.156 130.6 163.855 129.696Z" fill="#00CCA1"/>
<path d="M163.464 112.396C163.464 112.396 167.637 107.151 158.129 100.175C158.129 100.175 154.018 110.015 163.464 112.396Z" fill="#00CCA1"/>
<path d="M161.965 141.802C161.965 141.802 167.414 145.705 173.901 135.857C173.901 135.857 163.866 132.248 161.965 141.802Z" fill="#00CCA1"/>
<path d="M159.897 147.724C159.897 147.724 163.145 141.862 152.615 136.554C152.615 136.554 150.188 146.937 159.897 147.724Z" fill="#00CCA1"/>
<path d="M157.871 156.113C157.871 156.113 163.245 160.118 169.917 150.395C169.917 150.395 159.953 146.597 157.871 156.113Z" fill="#00CCA1"/>
<path d="M53.3426 21.6066C46.8396 28.3076 39.0546 38.3116 31.5086 49.2936C31.3966 49.4566 31.3456 49.6546 31.3656 49.8516C31.4436 50.6266 32.4486 50.8786 32.8866 50.2336C50.8026 23.8156 65.7116 9.56463 76.8996 8.12863C77.3176 8.07463 77.6556 7.73063 77.6446 7.30863C77.6316 6.82663 77.2086 6.47363 76.7426 6.53163C70.1146 7.36263 62.2416 12.4346 53.3426 21.6066Z" fill="#00A580"/>
<path d="M61.9556 14.0918C61.9556 14.0918 56.6826 9.95475 64.3186 0.96875C64.3186 0.96875 70.5946 9.58975 61.9556 14.0918Z" fill="#00CCA1"/>
<path d="M57.7803 18.5208C57.7803 18.5208 61.6173 13.0258 71.0153 20.1498C71.0153 20.1498 62.7553 26.8958 57.7803 18.5208Z" fill="#00CCA1"/>
<path d="M71.999 8.65865C71.999 8.65865 73.785 2.19865 85.02 5.78265C85.02 5.78265 79.481 14.8956 71.999 8.65865Z" fill="#00CCA1"/>
<path d="M49.1027 27.1724C49.1027 27.1724 42.7417 25.0624 46.8877 14.0234C46.8877 14.0234 55.7087 20.0134 49.1027 27.1724Z" fill="#00CCA1"/>
<path d="M45.5312 32.3287C45.5312 32.3287 48.3603 26.2527 58.8483 31.6447C58.8483 31.6447 51.8802 39.7167 45.5312 32.3287Z" fill="#00CCA1"/>
<path d="M39.9399 38.9028C39.9399 38.9028 33.54 36.9139 37.476 25.7979C37.476 25.7979 46.4099 31.6208 39.9399 38.9028Z" fill="#00CCA1"/>
<path d="M144.715 76.674C144.715 76.674 140.818 57.602 147.496 57.425C154.174 57.249 144.715 76.674 144.715 76.674Z" fill="#00CCA1"/>
<path d="M143.289 84.6134C143.08 84.5274 142.95 84.3064 142.986 84.0734L145.743 66.4944C145.786 66.2214 146.042 66.0354 146.314 66.0784C146.587 66.1204 146.773 66.3774 146.731 66.6494L143.974 84.2284C143.931 84.5014 143.675 84.6874 143.403 84.6444C143.363 84.6394 143.324 84.6284 143.289 84.6134Z" fill="#00A580"/>
<path d="M145.229 75.8117C145.229 75.8117 154.436 58.6617 159.682 62.7987C164.928 66.9357 145.229 75.8117 145.229 75.8117Z" fill="#00CCA1"/>
<path d="M144.663 76.5208C144.594 76.4928 144.531 76.4478 144.479 76.3888C144.297 76.1808 144.317 75.8658 144.525 75.6828L152.532 68.6468C152.74 68.4648 153.055 68.4848 153.238 68.6928C153.42 68.8998 153.4 69.2158 153.192 69.3988L145.185 76.4348C145.037 76.5648 144.833 76.5918 144.663 76.5208Z" fill="#00A580"/>
<path d="M36.4979 79.6278C36.4979 79.6278 31.0839 60.9298 25.0889 63.8778C19.0929 66.8248 36.4979 79.6278 36.4979 79.6278Z" fill="#00CCA1"/>
<path d="M41.4511 85.9955C41.5961 85.8225 41.6091 85.5665 41.4681 85.3775L30.8561 71.0945C30.6911 70.8725 30.378 70.8266 30.157 70.9916C29.935 71.1556 29.8891 71.4695 30.0541 71.6915L40.6661 85.9745C40.8311 86.1965 41.1441 86.2425 41.3661 86.0775C41.3981 86.0526 41.4261 86.0245 41.4511 85.9955Z" fill="#00A580"/>
<path d="M35.642 79.104C35.642 79.104 19.518 68.199 16.796 74.3C14.075 80.401 35.642 79.104 35.642 79.104Z" fill="#00CCA1"/>
<path d="M36.4727 79.4688C36.5207 79.4118 36.5557 79.3428 36.5747 79.2658C36.6397 78.9978 36.4747 78.7268 36.2067 78.6618L25.8467 76.1538C25.5787 76.0888 25.3077 76.2538 25.2427 76.5218C25.1777 76.7898 25.3427 77.0608 25.6107 77.1258L35.9707 79.6338C36.1617 79.6808 36.3537 79.6108 36.4727 79.4688Z" fill="#00A580"/>
<path d="M32.0417 166.417C32.0417 166.417 31.1937 146.97 24.6717 148.419C18.1497 149.868 32.0417 166.417 32.0417 166.417Z" fill="#00CCA1"/>
<path d="M35.3533 173.773C35.5353 173.639 35.6082 173.393 35.5162 173.176L28.5752 156.792C28.4672 156.538 28.1742 156.419 27.9202 156.527C27.6652 156.634 27.5473 156.928 27.6553 157.183L34.5962 173.567C34.7042 173.821 34.9972 173.94 35.2512 173.832C35.2872 173.816 35.3223 173.796 35.3533 173.773Z" fill="#00A580"/>
<path d="M31.3339 165.705C31.3339 165.705 18.2389 151.302 14.1539 156.589C10.0699 161.876 31.3339 165.705 31.3339 165.705Z" fill="#00CCA1"/>
<path d="M32.0547 166.256C32.1147 166.212 32.1647 166.154 32.2017 166.083C32.3277 165.838 32.2317 165.536 31.9857 165.409L22.5097 160.527C22.2637 160.401 21.9627 160.497 21.8367 160.742C21.7107 160.987 21.8067 161.289 22.0517 161.416L31.5277 166.298C31.7027 166.389 31.9067 166.365 32.0547 166.256Z" fill="#00A580"/>
<path d="M8.39073 134.948C9.32473 135.558 10.5757 135.295 11.1857 134.359C11.7947 133.423 11.5317 132.17 10.5977 131.559C9.66373 130.949 8.41172 131.212 7.80272 132.148C7.19372 133.084 7.45673 134.338 8.39073 134.948Z" fill="#FF6129"/>
<path d="M159.704 36.124C160.638 36.734 161.89 36.47 162.499 35.535C163.108 34.599 162.845 33.346 161.911 32.735C160.977 32.125 159.726 32.388 159.116 33.324C158.506 34.261 158.769 35.514 159.704 36.124Z" fill="#FF6129"/>
<path d="M162.922 180.68C163.856 181.29 165.107 181.026 165.717 180.091C166.326 179.155 166.063 177.902 165.129 177.291C164.195 176.681 162.943 176.944 162.334 177.88C161.725 178.816 161.988 180.069 162.922 180.68Z" fill="#FF6129"/>
<path d="M173.097 92.042C174.031 92.652 175.283 92.389 175.892 91.453C176.501 90.517 176.238 89.264 175.304 88.653C174.37 88.043 173.118 88.306 172.509 89.242C171.899 90.178 172.163 91.432 173.097 92.042Z" fill="#FF6129"/>
<path d="M22.7293 31.7744C23.6633 32.3844 24.9153 32.1214 25.5243 31.1854C26.1333 30.2494 25.8703 28.9964 24.9363 28.3864C24.0023 27.7764 22.7503 28.0394 22.1413 28.9754C21.5313 29.9104 21.7943 31.1634 22.7293 31.7744Z" fill="#FF6129"/>
<path d="M15.6314 94.46C16.5654 95.07 17.8174 94.8069 18.4264 93.8709C19.0354 92.9349 18.7724 91.6819 17.8384 91.0709C16.9044 90.4609 15.6524 90.724 15.0434 91.66C14.4334 92.596 14.6974 93.85 15.6314 94.46Z" fill="#008661"/>
<path d="M135.197 33.4765C136.131 34.0865 137.382 33.8235 137.992 32.8875C138.601 31.9515 138.338 30.6985 137.404 30.0885C136.47 29.4785 135.218 29.7415 134.609 30.6775C134 31.6125 134.263 32.8655 135.197 33.4765Z" fill="#008661"/>
<path d="M14.1407 53.4126C15.0747 54.0226 16.3267 53.7596 16.9357 52.8236C17.5447 51.8876 17.2817 50.6346 16.3477 50.0246C15.4137 49.4146 14.1617 49.6776 13.5527 50.6136C12.9437 51.5496 13.2067 52.8026 14.1407 53.4126Z" fill="#008661"/>
<path d="M172.797 64.917C173.731 65.527 174.983 65.264 175.592 64.328C176.201 63.392 175.938 62.139 175.004 61.529C174.07 60.919 172.818 61.182 172.209 62.118C171.6 63.053 171.863 64.306 172.797 64.917Z" fill="#008661"/>
<path d="M20.9786 178.015C21.9126 178.625 23.1646 178.361 23.7736 177.426C24.3826 176.49 24.1196 175.237 23.1856 174.626C22.2516 174.016 21.0006 174.279 20.3906 175.215C19.7816 176.152 20.0446 177.405 20.9786 178.015Z" fill="#008661"/>
</svg>
