<svg width="120" height="347" viewBox="0 0 120 347" fill="none" xmlns="http://www.w3.org/2000/svg">
<path d="M101.327 64.0685C97.9612 60.2315 96.1532 57.5025 95.1492 55.5525C94.5522 54.3925 94.9162 50.1805 94.6152 48.2575C94.4612 47.2415 94.3482 46.5105 94.3482 46.5105C94.1972 45.7145 93.5152 42.6505 96.4442 42.4755C98.3172 42.3545 100.027 43.5195 100.35 45.3655L101.322 50.6315C101.383 51.0005 101.64 52.7065 102.416 52.6665C102.906 52.6415 103.284 52.4355 103.58 52.0905C105.21 50.1955 103.912 44.1845 103.912 44.1845L101.716 34.6975C101.278 33.0945 101.778 30.7915 104.068 30.2175L104.067 30.2005C103.985 29.9255 103.939 29.5295 103.936 29.1325C103.92 28.6505 103.954 28.1665 104.04 27.8485C104.354 26.6985 105.27 25.7455 106.524 25.4355C108.314 25.0135 110.1 26.1745 110.605 27.9435L111.09 29.6375L111.244 30.1715C111.244 30.1715 111.556 30.4855 112.056 30.9845C113.777 32.6905 116.515 35.2645 117.889 36.9635C118.476 37.6865 119.289 38.0395 118.951 40.4345L117.78 47.7685C117.78 47.7685 118.533 51.0705 118.434 54.1075C118.265 59.2775 117.273 66.2785 117.273 66.2785C117.273 66.2785 113.658 67.9435 107.651 67.0015C103.535 66.3555 101.327 64.0685 101.327 64.0685Z" fill="#FF8E6E"/>
<path d="M104.142 30.1959L105.884 36.1219L105.887 36.1349C106.227 37.8749 106.501 39.6269 106.798 41.3749L106.799 41.3859L107.127 45.7919C107.13 45.8319 107.1 45.8659 107.06 45.8689C107.03 45.8709 107.004 45.8549 106.991 45.8309L106.977 45.8049C106.607 45.0969 106.361 44.3789 106.123 43.6599C105.894 42.9399 105.718 42.2159 105.554 41.4909L105.567 41.5939C105.435 41.1669 105.33 40.7359 105.21 40.3069C105.081 39.8799 105.011 39.4419 104.915 39.0089C104.711 38.1449 104.61 37.2629 104.476 36.3859L104.505 36.5129L104.215 34.9899C104.137 34.4769 104.075 33.9599 104.014 33.4419C103.93 32.3959 103.875 31.3409 103.996 30.2369L103.999 30.2089C104.003 30.1689 104.039 30.1409 104.079 30.1449C104.11 30.1479 104.134 30.1689 104.142 30.1959Z" fill="#CE6042"/>
<path d="M113.901 46.9285C112.604 46.7605 111.307 46.5775 110.004 46.5105C109.354 46.4615 108.703 46.4355 108.055 46.4555C107.413 46.4915 106.752 46.5425 106.178 46.8065C106.143 46.8225 106.101 46.8075 106.085 46.7725C106.076 46.7525 106.077 46.7305 106.086 46.7125L106.103 46.6775C106.496 45.8725 107.314 45.4875 107.994 45.2665C108.703 45.0315 109.413 44.9975 110.104 45.0145C110.445 45.0625 110.788 45.0955 111.123 45.1685C111.455 45.2715 111.789 45.3355 112.108 45.4945C112.752 45.7655 113.375 46.1405 113.93 46.7805L113.962 46.8165C113.986 46.8445 113.983 46.8875 113.955 46.9115C113.939 46.9265 113.919 46.9315 113.901 46.9285Z" fill="#CE6042"/>
<path d="M102.419 52.591C103.224 52.114 104.137 52.047 105.023 52.245C105.919 52.43 106.779 52.992 107.388 53.781C107.953 54.591 108.287 55.574 108.187 56.485C108.193 56.941 108.02 57.368 107.9 57.778C107.699 58.176 107.483 58.553 107.169 58.885L107.142 58.914C107.115 58.942 107.071 58.943 107.043 58.917C107.027 58.902 107.02 58.882 107.021 58.862L107.088 57.757C107.055 57.392 107.089 57.02 107.006 56.663C106.916 55.936 106.61 55.257 106.188 54.68C105.77 54.095 105.181 53.637 104.522 53.326C103.861 53.024 103.14 52.818 102.414 52.742C102.375 52.738 102.347 52.703 102.351 52.665C102.353 52.642 102.367 52.623 102.385 52.612L102.419 52.591Z" fill="#CE6042"/>
<path d="M112.204 46.3775C111.988 45.2365 111.89 44.1115 111.863 42.9955C111.829 42.4345 111.855 41.8825 111.854 41.3265C111.846 40.7695 111.9 40.2205 111.926 39.6675L112.208 40.6315C111.457 39.8895 110.806 39.0775 110.127 38.2745C109.49 37.4275 108.847 36.6315 108.283 35.6205C108.136 35.3795 107.962 35.0185 107.849 34.6725C107.757 34.3205 107.708 33.9695 107.706 33.6275C107.696 32.9435 107.846 32.2825 108.16 31.7015C108.454 31.1175 108.927 30.6165 109.492 30.3175C110.059 30.0145 110.7 29.9635 111.24 30.0965L111.265 30.1025C111.304 30.1125 111.328 30.1515 111.318 30.1905C111.31 30.2225 111.283 30.2445 111.252 30.2455C110.225 30.3055 109.342 31.0545 109.035 32.0175C108.71 32.9635 108.795 34.0745 109.4 34.8855C109.982 35.7295 110.641 36.5345 111.292 37.3365L113.251 39.7475C113.274 39.7745 113.284 39.8135 113.28 39.8465L112.352 46.3955C112.346 46.4355 112.309 46.4635 112.269 46.4575C112.237 46.4525 112.213 46.4285 112.207 46.3985L112.204 46.3775Z" fill="#CE6042"/>
<path d="M117.814 87.0273C117.454 95.4073 117.244 105.517 112.704 112.877C108.494 119.697 99.6442 121.997 92.5142 118.467C88.2942 116.377 84.6742 112.817 81.3542 109.537C78.7042 106.917 76.2442 104.347 73.9042 101.687C69.2242 96.3573 65.4542 90.5673 61.1742 84.8573C53.2742 74.2773 49.9942 56.8073 58.3442 57.0973C70.9142 57.5273 79.3942 61.3273 84.2542 65.7173L84.3942 65.8473C88.3242 69.4073 91.9442 73.3273 95.3942 77.3073C96.7942 73.8673 98.2642 70.4173 99.8842 66.9973C101.734 68.2373 104.694 69.1573 107.744 69.5373C111.664 70.0273 115.704 69.7473 117.564 69.1773C118.064 75.1763 118.064 81.0773 117.814 87.0273Z" fill="#F26419"/>
<path d="M95.444 77.3283C94.387 79.8043 93.39 82.3073 92.455 84.8303C91.497 87.3453 90.591 89.8832 89.891 92.4822C89.884 92.5082 89.857 92.5243 89.83 92.5173C89.808 92.5113 89.793 92.4912 89.793 92.4692V92.4582C89.829 89.6692 90.593 87.0203 91.518 84.4793C92.014 83.2173 92.532 81.9653 93.183 80.7703L94.174 78.9862C94.564 78.4182 94.904 77.8292 95.35 77.2882L95.358 77.2783C95.375 77.2573 95.406 77.2542 95.427 77.2712C95.448 77.2852 95.452 77.3083 95.444 77.3283Z" fill="#B03B09"/>
<path d="M118.89 68.8802C118.89 67.6622 118.893 66.3342 118.552 65.9862C118.199 65.6252 117.367 65.5902 117.367 65.5902L117.302 66.0732C116.049 66.2882 113.331 66.9072 108.896 66.3552C103.768 65.7162 100.835 63.3212 100.682 63.3252C99.9892 63.3442 99.3342 64.4642 98.8242 65.6622C98.2082 67.1102 98.2312 68.3182 98.4352 68.6192C99.7512 70.5632 103.677 72.0242 107.747 72.5352C112.763 73.1652 117.977 72.5232 118.563 71.6432C118.938 71.0822 118.89 70.0582 118.89 68.8802Z" fill="#B03B09"/>
<path d="M87.744 198.007L56.724 201.207L17.274 194.637C16.714 184.037 16.124 173.307 15.624 164.567C14.894 151.667 16.944 138.757 21.654 126.727L25.194 117.677C25.194 117.677 50.764 122.327 84.724 119.667L87.114 144.397C87.114 144.397 87.634 172.267 87.744 198.007Z" fill="#6B2231"/>
<path d="M56.654 201.206L56.627 172.949L56.688 144.692V144.586H56.794L71.5559 144.617V144.767C69.0959 145.005 66.6349 145.126 64.1749 145.294C61.7149 145.477 59.254 145.512 56.794 145.628L57.729 144.694C57.96 149.404 57.989 154.113 58.041 158.823L58.114 165.887L58.014 172.951L57.914 180.015C57.863 182.37 57.736 184.724 57.651 187.079C57.489 191.788 57.204 196.497 56.803 201.206H56.654Z" fill="#601222"/>
<path d="M87.4439 232.417C86.6039 254.667 79.9239 321.177 79.9239 321.177L55.1839 321.167C55.1839 321.167 54.0839 310.427 52.8339 296.897C50.8339 310.447 49.0539 321.167 49.0539 321.167L24.3039 321.207C24.3039 321.207 19.6339 254.647 18.9839 232.417C18.7239 223.717 18.0339 209.287 17.2739 194.637L56.7239 201.207L87.7439 198.007C87.8039 211.507 87.7439 224.417 87.4439 232.417Z" fill="#FF8E6E"/>
<path d="M52.1143 301.24C53.8093 289.819 55.4223 278.383 56.7193 266.911C57.0373 264.043 57.3443 261.173 57.5943 258.298C57.7213 256.861 57.8413 255.423 57.9363 253.984C58.0543 252.542 58.0983 251.114 58.0453 249.673C57.8273 243.913 57.2093 238.165 56.5723 232.431L56.5713 232.423V232.416L56.6533 201.206H56.8033C56.9763 203.807 57.0903 206.408 57.2023 209.009C57.3163 211.61 57.4513 214.211 57.5013 216.812L57.7103 224.615C57.7763 227.216 57.8693 229.817 57.8693 232.418L57.8613 232.277C58.5623 238.04 59.2433 243.76 59.5283 249.628C59.6133 251.084 59.5353 252.673 59.4033 254.086C59.2913 255.537 59.1563 256.982 59.0123 258.425C58.7293 261.312 58.3913 264.187 58.0423 267.06C57.3813 272.81 56.4273 278.517 55.4913 284.22L54.7753 288.495L53.9683 292.756C53.4253 295.595 52.8843 298.434 52.2623 301.26L52.1143 301.24Z" fill="#CE6042"/>
<path d="M49.0999 321.145V342.564H13.5049C13.5739 342.287 13.6869 342.028 13.8419 341.786C15.5449 339.054 17.4719 336.479 18.9329 333.618C19.8229 331.881 22.4769 326.668 22.4769 326.668L24.3269 321.145H49.0999Z" fill="#F26419"/>
<path d="M49.0999 342.563V343.904C49.0999 345.287 47.9849 346.401 46.6109 346.401H16.4089C14.6019 346.401 13.5309 345.053 13.4099 343.626C13.3839 343.272 13.4099 342.909 13.5049 342.563H49.0999Z" fill="#FFEBDB"/>
<path d="M55.144 321.145V342.478H117.043C117.034 341.043 116.256 339.6 114.545 338.96L95.684 332.278L79.918 321.162L55.144 321.145Z" fill="#F26419"/>
<path d="M55.144 342.478V346.402H113.213C115.512 346.402 116.887 344.673 117.025 342.858C117.034 342.728 117.042 342.607 117.042 342.478H55.144Z" fill="#FFEBDB"/>
<path d="M84.724 119.667L84.524 117.627L82.002 91.5161C82.002 91.5161 86.391 85.178 86.301 82.736C86.1 77.273 78.386 69.1871 74.001 64.6561C69.423 59.9271 63.017 56.9771 55.954 56.9771H44.714C40.104 56.9771 27.342 57.374 23.612 59.554C14.402 64.974 18.464 76.847 20.654 87.317L25.164 117.477L25.194 117.677C20.62 119.757 19.152 127.863 19.152 127.863C19.152 127.863 58.335 138.778 87.765 132.012C87.765 132.012 88.853 124.352 84.724 119.667Z" fill="#F26419"/>
<path d="M17.1999 134.967C16.2639 131.868 19.1519 127.863 19.1519 127.863C19.5369 127.97 59.4339 138.525 87.7649 132.012C87.7649 132.012 89.8199 136.632 88.5969 138.548C86.5869 141.697 69.1149 142.693 50.5889 141.299C33.5849 140.02 17.6999 136.625 17.1999 134.967Z" fill="#B03B09"/>
<path d="M82.9973 102.336L81.9273 91.5231C81.9253 91.5051 81.9313 91.4871 81.9403 91.4731C83.4113 89.2541 84.8493 86.9721 85.8203 84.4961C86.0323 83.8721 86.2403 83.2311 86.1843 82.5821C86.1383 82.2561 86.1203 81.9261 86.0563 81.6021L85.8123 80.6401C85.4023 79.3771 84.8003 78.1831 84.1373 77.0291C82.7603 74.7461 81.1263 72.6201 79.3893 70.5931C77.6563 68.5601 75.8213 66.6141 73.9653 64.6901C73.9463 64.6701 73.9463 64.6391 73.9663 64.6191C73.9853 64.6011 74.0173 64.6031 74.0373 64.6201C76.0723 66.3691 78.0573 68.1851 79.8843 70.1681C80.8063 71.1511 81.7043 72.1621 82.5653 73.2131C83.4133 74.2731 84.1833 75.4031 84.9193 76.5651C85.6253 77.7501 86.2783 78.9861 86.7433 80.3481L87.0293 81.4061C87.1103 81.7661 87.1353 82.1501 87.1743 82.5231C87.2283 83.3961 86.9553 84.1651 86.7193 84.8261C86.1913 86.1561 85.5313 87.3521 84.8363 88.5251C84.1313 89.6911 83.4173 90.8321 82.5853 91.9191L82.7083 91.4471L82.9933 96.8781C83.0253 98.6941 83.1163 100.505 83.0963 102.326V102.331C83.0963 102.358 83.0733 102.381 83.0463 102.38C83.0203 102.38 82.9993 102.361 82.9973 102.336Z" fill="#B03B09"/>
<path d="M53.2691 100.4C48.2421 98.3788 40.5171 95.5478 35.5491 93.7298C34.5581 93.3558 33.5751 92.9928 32.6001 92.6308C32.7931 92.3788 32.9821 92.1298 33.1791 91.8758C33.9001 90.9088 34.6511 89.9328 35.4251 88.9588C38.9001 84.4768 43.0701 79.8788 43.0641 73.8678C43.0601 69.6998 41.2851 65.6578 38.2161 62.8368C32.1171 57.2288 22.6281 57.6268 17.0201 63.7258C16.3841 64.4168 15.9451 64.9378 15.4281 65.5338L13.9851 67.2938C13.0441 68.4778 12.1341 69.6868 11.2331 70.9178C10.3511 72.1628 9.47906 73.4308 8.61506 74.7338C7.77106 76.0508 6.94305 77.4108 6.11905 78.8278C5.28405 80.2428 4.50806 81.7488 3.72306 83.3818C1.24806 88.5298 -0.700944 94.3528 0.242056 100.129C1.94406 110.55 12.6841 114.051 21.7481 115.485C24.8091 115.969 27.7441 116.345 30.6771 116.564C36.5441 117.045 42.2161 117.194 48.1311 116.885L53.2691 100.4Z" fill="#F26419"/>
<path d="M31.8722 92.2017C31.2132 90.9837 29.8672 90.2327 28.5032 90.0757C27.1262 89.8737 25.7292 90.1527 24.3992 90.5357C23.0632 90.9317 21.7522 91.4157 20.4992 92.0237C19.2482 92.6267 18.0302 93.3297 16.9412 94.1777L16.8582 94.0127C19.4502 93.4577 22.0602 92.9947 24.6892 92.6577C26.0032 92.4927 27.3232 92.3597 28.6492 92.3067C29.9702 92.2617 31.3142 92.2507 32.6132 92.5837C32.6392 92.5907 32.6552 92.6177 32.6492 92.6437C32.6432 92.6677 32.6192 92.6837 32.5952 92.6807L32.5862 92.6797C31.2762 92.5257 29.9702 92.6247 28.6702 92.7947C27.3712 92.9577 26.0732 93.1357 24.7832 93.3807C23.4942 93.6297 22.2072 93.8897 20.9152 94.1237C19.6292 94.3767 18.3352 94.6517 17.0712 94.9537C16.6052 95.0647 16.1382 94.7777 16.0262 94.3117C15.9482 93.9847 16.0672 93.6557 16.3062 93.4507L16.3152 93.4437C17.5072 92.4287 18.7752 91.7967 20.0992 91.1837C21.4202 90.6007 22.7722 90.0817 24.1792 89.7787C25.5842 89.4697 27.0972 89.2397 28.5792 89.5487C30.0352 89.8587 31.4532 90.7847 31.9622 92.1617C31.9722 92.1877 31.9582 92.2167 31.9322 92.2257C31.9112 92.2347 31.8842 92.2237 31.8722 92.2017Z" fill="#B03B09"/>
<path d="M53.2512 100.447L32.5652 92.7263C32.5132 92.7073 32.4872 92.6503 32.5062 92.5983L32.5212 92.5713L35.8752 88.2433C37.0062 86.8103 38.1512 85.3903 39.2052 83.9043C40.2592 82.4203 41.2022 80.8513 41.9082 79.1743C42.5992 77.4943 43.0002 75.6893 43.0142 73.8703C43.0142 73.8423 43.0372 73.8203 43.0642 73.8213C43.0902 73.8213 43.1112 73.8453 43.1142 73.8703C43.2962 75.7073 42.9752 77.5923 42.3962 79.3743C41.7522 81.1373 40.8452 82.7923 39.8412 84.3513C38.8542 85.9283 37.6832 87.3533 36.5912 88.8063L33.3142 93.1803L32.9132 91.7893L38.0572 93.7963C39.7662 94.4813 41.4962 95.1093 43.1832 95.8543L48.2672 98.0213C49.9402 98.8013 51.6332 99.5273 53.2862 100.354C53.3122 100.364 53.3252 100.393 53.3152 100.419C53.3062 100.442 53.2762 100.453 53.2512 100.447Z" fill="#B03B09"/>
<path d="M21.755 115.436C23.934 115.772 26.12 116.064 28.314 116.28C30.507 116.489 32.709 116.638 34.909 116.754C39.309 117.01 43.724 117.052 48.128 116.836C48.155 116.835 48.179 116.856 48.18 116.883C48.181 116.907 48.164 116.929 48.141 116.934L48.133 116.936C47.041 117.184 45.939 117.31 44.836 117.479C43.731 117.589 42.624 117.673 41.514 117.751C39.295 117.878 37.074 117.805 34.854 117.751C32.638 117.554 30.438 117.41 28.234 117.051C27.137 116.86 26.044 116.657 24.958 116.425C23.88 116.139 22.798 115.896 21.738 115.535L21.73 115.532C21.704 115.523 21.69 115.495 21.699 115.469C21.708 115.446 21.732 115.432 21.755 115.436Z" fill="#B03B09"/>
<path d="M37.7651 116.924C37.7651 116.924 52.7511 116.541 52.8521 96.2432H80.2691C80.2691 96.2432 85.2961 106.296 86.6821 110.413C88.0461 114.463 91.6951 125.987 84.6821 127.466C74.5851 129.594 47.2051 127.763 45.2721 126.56C41.2531 124.057 37.7651 116.924 37.7651 116.924Z" fill="#B03B09"/>
<path d="M43.7041 56.9861C44.0741 56.9761 44.4141 56.9761 44.7141 56.9761H55.9541C58.7941 56.9761 61.5341 57.4561 64.0841 58.3461C64.0841 58.3461 65.4521 66.1151 64.0841 69.2061L43.7041 56.9861Z" fill="#FF8E6E"/>
<path d="M41.2861 33.3101C41.2861 33.3101 38.5511 42.9501 28.5981 42.9501C28.5981 42.9501 34.7081 47.0421 41.2411 46.7111C39.4841 48.4321 37.1721 50.1961 34.1491 51.6131C34.1491 51.6131 48.7101 53.8511 52.9861 43.2881L41.2861 33.3101Z" fill="#6B2231"/>
<path d="M70.4588 37.2578C70.4588 37.2578 71.2749 47.2448 81.0399 49.1728C81.0399 49.1728 74.2529 52.0038 67.9079 50.4138C69.2979 52.4418 71.2248 54.6208 73.9158 56.5958C73.9158 56.5958 59.1979 55.9718 57.0479 44.7798L70.4588 37.2578Z" fill="#6B2231"/>
<path d="M60.7852 54.4792C60.7852 54.4792 63.4422 52.4122 65.5262 53.1212C67.4942 53.7902 67.8412 56.4532 67.8412 56.4532C67.8412 56.4532 71.3012 55.3842 72.4182 56.6132C74.3302 58.7172 71.5242 63.2352 64.0882 69.2032C64.0882 69.2032 65.3972 63.8102 60.7852 54.4792Z" fill="#F26419"/>
<path d="M72.8122 59.4511C72.6841 60.5881 72.1991 61.6731 71.5911 62.6241C70.9921 63.5931 70.2601 64.4571 69.4871 65.2691C67.9101 66.8621 66.1401 68.2411 64.1111 69.2331L64.1041 69.2361C64.0861 69.2451 64.0631 69.2371 64.0541 69.2191C64.0461 69.2031 64.0511 69.1851 64.0641 69.1741C65.7681 67.7831 67.4261 66.3311 68.9491 64.7471C69.7181 63.9631 70.4541 63.1461 71.1171 62.2711C71.7771 61.3971 72.3771 60.4631 72.7401 59.4281C72.7471 59.4091 72.7681 59.3991 72.7871 59.4051C72.8041 59.4111 72.8141 59.4271 72.8122 59.4441V59.4511Z" fill="#B03B09"/>
<path d="M67.8913 56.4475C68.3183 57.3145 68.4343 58.2534 68.4593 59.1664C68.4883 60.0864 68.3573 60.9904 68.1763 61.8774C67.7513 63.6344 67.0573 65.3304 65.7953 66.7324L65.7833 66.7454C65.7653 66.7654 65.7353 66.7664 65.7153 66.7494C65.7003 66.7354 65.6953 66.7144 65.7023 66.6964C66.3173 65.0524 66.8293 63.3694 67.2023 61.6574C67.4013 60.8044 67.5703 59.9444 67.6803 59.0754C67.7833 58.2084 67.8583 57.3265 67.7933 56.4605C67.7913 56.4335 67.8113 56.4094 67.8383 56.4074C67.8593 56.4054 67.8773 56.4175 67.8863 56.4345L67.8913 56.4475Z" fill="#B03B09"/>
<path d="M62.1303 59.9L45.3623 57.182L48.9073 39.207L64.4433 41.724L62.1303 59.9Z" fill="#FF8E6E"/>
<path d="M62.1303 59.9L45.3623 57.182L48.9073 39.207L64.4433 41.724L62.1303 59.9Z" fill="black"/>
<path d="M66.6343 39.9262L64.5143 56.5862C63.5943 56.7162 62.6443 56.7762 61.6943 56.7762C55.0443 56.7762 49.0743 53.6962 45.1543 48.8962L47.5343 36.8262L66.6343 39.9262Z" fill="#CE6042"/>
<path d="M34.0101 33.5379C36.8161 36.5329 41.2281 36.9579 43.8661 34.4879C46.5031 32.0169 46.3671 27.5869 43.5611 24.5909C40.7551 21.5959 36.3431 21.1709 33.7051 23.6409C31.0681 26.1119 31.2051 30.5429 34.0101 33.5379Z" fill="#FF8E6E"/>
<path d="M35.3311 25.9939C35.3311 25.9939 41.1901 25.4199 41.9591 31.5079L35.3311 25.9939Z" fill="#CE6042"/>
<path d="M83.6249 33.5379C80.8189 36.5329 76.4069 36.9579 73.7689 34.4879C71.1319 32.0169 71.2679 27.5869 74.0739 24.5909C76.8799 21.5959 81.2919 21.1709 83.9299 23.6409C86.5669 26.1119 86.4309 30.5429 83.6249 33.5379Z" fill="#FF8E6E"/>
<path d="M82.3043 25.9939C82.3043 25.9939 76.4453 25.4199 75.6763 31.5079L82.3043 25.9939Z" fill="#CE6042"/>
<path d="M58.8181 51.8113C49.2551 51.8113 41.4321 43.9873 41.4321 34.4253V19.6253C41.4321 10.0623 49.2561 2.23926 58.8181 2.23926C68.3811 2.23926 76.2041 10.0633 76.2041 19.6253V34.4253C76.2041 43.9873 68.3801 51.8113 58.8181 51.8113Z" fill="#FF8E6E"/>
<path d="M51.8232 28.2964C51.2392 28.2964 50.7612 27.8184 50.7612 27.2344V23.4194C50.7612 22.8354 51.2392 22.3574 51.8232 22.3574C52.4072 22.3574 52.8852 22.8354 52.8852 23.4194V27.2344C52.8852 27.8184 52.4072 28.2964 51.8232 28.2964Z" fill="#601222"/>
<path d="M65.813 28.2964C65.229 28.2964 64.751 27.8184 64.751 27.2344V23.4194C64.751 22.8354 65.229 22.3574 65.813 22.3574C66.397 22.3574 66.875 22.8354 66.875 23.4194V27.2344C66.875 27.8184 66.397 28.2964 65.813 28.2964Z" fill="#601222"/>
<path d="M60.7832 25.9805C60.7832 25.9805 60.1662 29.7555 62.4482 31.5095L60.4282 33.5305" stroke="#CE6042" stroke-miterlimit="10" stroke-linecap="round" stroke-linejoin="round"/>
<path d="M64.9961 36.8672C64.9961 40.2792 62.2301 43.0452 58.8181 43.0452C55.4061 43.0452 52.6401 40.2792 52.6401 36.8672H64.9961Z" fill="#FFEBDB"/>
<path d="M41.431 22.9521C41.431 22.9521 67.077 19.1601 64.82 11.0541C64.82 11.0541 67.887 16.5431 64.268 18.9691C64.268 18.9691 70.779 19.3521 69.247 11.6921C69.247 11.6921 75.427 14.8071 76.204 22.9521C76.204 22.9521 78.45 16.1601 76.204 10.3521C74.816 6.76214 70.977 7.22914 70.977 7.22914C70.977 7.22914 69.513 -1.00886 57.96 0.778141C50.998 1.85514 37.732 8.10614 41.431 22.9521Z" fill="#6B2231"/>
<path d="M35.1782 57.3392C35.1782 57.3392 36.1152 53.9002 37.9032 52.6162C39.5912 51.4032 41.9602 52.6672 41.9602 52.6672C41.9602 52.6672 41.7352 49.0492 44.7482 49.0342C48.3542 49.0172 61.8542 58.5452 64.0882 69.2042C64.0882 69.2042 48.3312 59.7042 35.1782 57.3392Z" fill="#F26419"/>
<path d="M42.4141 52.9241C44.1571 53.3771 45.8491 53.9951 47.5001 54.7071C49.1491 55.4251 50.7461 56.2631 52.2741 57.2141C53.8051 58.1631 55.2151 59.2971 56.5371 60.5141C57.8671 61.7321 58.9911 63.1501 60.0131 64.6291C60.0281 64.6511 60.0231 64.6821 60.0011 64.6971C59.9821 64.7101 59.9581 64.7081 59.9411 64.6941L59.9291 64.6841C59.2251 64.0791 58.7021 63.3681 57.9861 62.8191C57.3531 62.2031 56.6711 61.6481 55.9981 61.0901C54.6191 60.0161 53.2371 58.9601 51.7391 58.0581C50.2721 57.1111 48.7361 56.2701 47.1871 55.4171C46.4111 54.9931 45.6191 54.5931 44.8131 54.2151C44.0271 53.7791 43.2051 53.4331 42.3901 53.0211L42.3791 53.0151C42.3551 53.0031 42.3451 52.9731 42.3571 52.9491C42.3681 52.9281 42.3921 52.9181 42.4141 52.9241Z" fill="#B03B09"/>
<path d="M64.0689 69.2353L56.9569 65.9263C54.5859 64.8433 52.2309 63.7333 49.8249 62.7453C47.4519 61.6793 45.0259 60.7533 42.5979 59.8223C41.3749 59.3883 40.1589 58.9183 38.9119 58.5493C37.6869 58.0883 36.4219 57.7893 35.1699 57.3753L35.1649 57.3733C35.1449 57.3673 35.1349 57.3453 35.1409 57.3263C35.1469 57.3083 35.1649 57.2983 35.1829 57.3013C37.7569 57.7843 40.2869 58.4693 42.7799 59.2693C45.2619 60.1013 47.7079 61.0383 50.1189 62.0563C54.9159 64.1523 59.5949 66.5153 64.1059 69.1703C64.1239 69.1803 64.1299 69.2033 64.1189 69.2213C64.1109 69.2393 64.0859 69.2433 64.0689 69.2353Z" fill="#B03B09"/>
</svg>
