<svg width="1728" height="610" viewBox="0 0 1728 610" fill="none" xmlns="http://www.w3.org/2000/svg">
<path d="M0 113.214L49.7953 84.658C139.584 33.1671 251.261 39.3197 334.85 100.362L373.145 128.329C449.176 183.852 553.448 179.642 624.754 118.168C696.962 55.9166 802.815 52.4741 878.916 109.902L931.96 149.931C993.937 196.701 1072.32 216.141 1148.97 203.752L1217.81 192.626C1264.94 185.007 1309.78 166.969 1349.06 139.827C1460.49 62.8339 1608.25 64.0611 1718.38 142.894L1728 149.781V508.643L0 523.41V113.214Z" fill="url(#paint0_linear_63032_5286)" fill-opacity="0.5"/>
<path d="M0 241.953L107.447 167.293C177.483 118.628 271.954 125.291 334.465 183.305L364.107 210.814C421.676 264.242 511.758 260.507 564.706 202.497C618.267 143.816 709.649 140.776 766.99 195.768L781.725 209.899C838.442 264.291 928.239 263.353 983.807 207.788C1033.5 158.097 1111.75 151.389 1169.17 191.897L1183.54 202.029C1250.81 249.481 1342.74 240.202 1399.17 180.264L1406.2 172.793C1460.32 115.307 1545.96 100.586 1616.17 136.7L1728 194.22V608.998H0V241.953Z" fill="url(#paint1_linear_63032_5286)"/>
<path d="M0 122L113.914 187.008C184.753 227.435 272.206 225.062 340.749 180.854C398.233 143.779 469.756 135.748 534.03 159.152L560.044 168.625C619.874 190.411 685.548 189.933 745.055 167.28L758.215 162.27C825.085 136.814 899.896 143.104 961.577 179.366C1036.04 223.146 1128.49 222.695 1202.52 178.19L1205.93 176.144C1263.39 141.601 1332.6 132.398 1397.09 150.722L1426.26 159.01C1481.92 174.825 1540.89 174.868 1596.58 159.134L1728 122V609.199H0V122Z" fill="url(#paint2_linear_63032_5286)" fill-opacity="0.8"/>
<defs>
<linearGradient id="paint0_linear_63032_5286" x1="-90.663" y1="257.603" x2="2098.46" y2="257.603" gradientUnits="userSpaceOnUse">
<stop stop-color="#016A70"/>
<stop offset="0.5" stop-color="#016A70"/>
<stop offset="1" stop-color="#89DCE1"/>
</linearGradient>
<linearGradient id="paint1_linear_63032_5286" x1="0" y1="342.355" x2="1728" y2="342.355" gradientUnits="userSpaceOnUse">
<stop stop-color="#9AD2D5"/>
<stop offset="0.5" stop-color="#016A70"/>
<stop offset="1" stop-color="#9AD2D5"/>
</linearGradient>
<linearGradient id="paint2_linear_63032_5286" x1="0" y1="365.6" x2="1728" y2="365.6" gradientUnits="userSpaceOnUse">
<stop stop-color="#016A70"/>
<stop offset="0.5" stop-color="#016A70"/>
<stop offset="1" stop-color="#016A70"/>
</linearGradient>
</defs>
</svg>
