<svg width="484" height="145" viewBox="0 0 484 145" fill="none" xmlns="http://www.w3.org/2000/svg">
<path d="M64.692 87.86C64.692 94.988 62.748 100.46 58.86 104.276C55.044 108.092 49.68 110 42.768 110H32.4C23.904 110 17.856 108.524 14.256 105.572C10.728 102.62 8.964 97.508 8.964 90.236V33.104H41.472C48.816 33.104 54.324 34.94 57.996 38.612C61.74 42.284 63.612 47.468 63.612 54.164C63.612 58.052 62.604 61.364 60.588 64.1C58.644 66.836 56.484 68.78 54.108 69.932C61.164 73.244 64.692 79.22 64.692 87.86ZM40.284 63.128C45.828 63.128 48.6 60.356 48.6 54.812C48.6 49.268 45.828 46.496 40.284 46.496H23.976V63.128H40.284ZM49.68 87.104C49.68 83.648 49.068 81.056 47.844 79.328C46.62 77.528 44.424 76.628 41.256 76.628H23.976V88.724C23.976 91.676 24.696 93.728 26.136 94.88C27.648 96.032 30.096 96.608 33.48 96.608H41.256C46.872 96.608 49.68 93.44 49.68 87.104ZM213.675 110H198.015L193.695 96.716H167.883L163.671 110H148.011L172.635 39.584C173.715 37.136 174.903 35.444 176.199 34.508C177.567 33.572 179.223 33.104 181.167 33.104C183.111 33.104 184.659 33.536 185.811 34.4C187.035 35.264 188.115 36.992 189.051 39.584L213.675 110ZM190.239 84.08L181.167 53.624L171.663 84.08H190.239ZM284.166 33.104V102.224C284.166 104.6 283.446 106.652 282.006 108.38C280.566 110.036 278.874 110.864 276.93 110.864C271.962 110.864 267.894 107.984 264.726 102.224L238.158 60.644V110H223.146V33.104H237.618L269.154 83.432V33.104H284.166ZM294.989 73.82V64.316C294.989 54.308 297.617 46.496 302.873 40.88C308.129 35.264 315.401 32.456 324.689 32.456C333.977 32.456 341.429 35.264 347.045 40.88C351.005 44.84 352.985 50.78 352.985 58.7H338.945C338.945 50.132 334.373 45.848 325.229 45.848C322.493 45.848 320.153 46.388 318.209 47.468C316.337 48.476 314.933 49.664 313.997 51.032C313.061 52.4 312.341 54.416 311.837 57.08C311.333 59.744 311.045 61.976 310.973 63.776C310.901 65.576 310.865 67.988 310.865 71.012C310.865 74.036 310.865 76.088 310.865 77.168C310.937 78.176 311.045 79.868 311.189 82.244C311.405 84.548 311.693 86.204 312.053 87.212C312.485 88.22 313.061 89.516 313.781 91.1C314.573 92.684 315.545 93.8 316.697 94.448C319.649 96.32 322.997 97.256 326.741 97.256C333.005 97.256 337.433 94.592 340.025 89.264V84.08H330.737V71.552H352.877V94.772C350.645 100.028 347.117 103.988 342.293 106.652C337.469 109.316 331.997 110.648 325.877 110.648C315.005 110.648 307.121 107.624 302.225 101.576C297.401 95.456 294.989 86.204 294.989 73.82ZM382.223 95.528C383.375 96.608 383.951 98.948 383.951 102.548C383.951 106.148 383.375 108.524 382.223 109.676C381.143 110.828 378.803 111.404 375.203 111.404C371.603 111.404 369.227 110.828 368.075 109.676C366.923 108.524 366.347 106.148 366.347 102.548C366.347 98.948 366.923 96.608 368.075 95.528C369.227 94.376 371.603 93.8 375.203 93.8C378.803 93.8 381.143 94.376 382.223 95.528ZM406.407 24.788C409.791 24.788 411.987 25.328 412.995 26.408C414.003 27.416 414.507 29.612 414.507 32.996C414.507 36.308 413.967 38.504 412.887 39.584C411.879 40.592 409.683 41.096 406.299 41.096C402.987 41.096 400.791 40.556 399.711 39.476C398.703 38.396 398.199 36.2 398.199 32.888C398.199 29.576 398.703 27.416 399.711 26.408C400.791 25.328 403.023 24.788 406.407 24.788ZM413.319 110H399.279V50.6H413.319V110ZM476.865 110H462.825V70.58C462.825 67.052 462.105 64.64 460.665 63.344C459.225 62.048 457.209 61.4 454.617 61.4L441.981 66.692V110H427.941V48.332H438.417L441.657 55.676L458.937 47.684C463.761 47.684 467.937 49.484 471.465 53.084C475.065 56.612 476.865 61.796 476.865 68.636V110Z" fill="#016A70"/>
<mask id="mask0_63032_5256" style="mask-type:alpha" maskUnits="userSpaceOnUse" x="32" y="124" width="428" height="20">
<rect width="427.2" height="19.2" transform="matrix(-1 0 0 1 459.6 124.8)" fill="#C4C4C4"/>
</mask>
<g mask="url(#mask0_63032_5256)">
<path d="M389.594 122.419L388.318 122.195L390.801 121.875L389.611 121.641C388.417 121.643 386.871 121.994 386.03 121.808C385.927 121.627 387.226 121.569 387.558 121.425C387.851 121.278 388.091 121.131 388.273 120.988C387.624 120.989 386.909 121.024 386.172 121.09C385.181 121.198 384.21 121.25 383.364 121.241C381.635 121.27 379.964 121.241 378.084 121.248L378.709 120.813L376.286 120.915C376.029 120.948 375.723 120.895 375.471 120.936C373.371 121.282 372.482 121.093 371.474 120.937C371.267 120.896 371.018 120.866 370.734 120.847C367.932 120.93 365.406 121.416 362.883 121.665C362.409 121.729 361.953 121.81 361.549 121.904C360.672 122.087 359.696 122.236 358.71 122.338C357.725 122.44 356.762 122.492 355.909 122.488C354.023 122.484 351.892 122.605 349.722 122.839C349.077 122.916 348.431 122.967 347.826 122.988C347.222 123.01 346.671 123.001 346.209 122.963L344.742 123.211C344.106 123.11 343.3 123.055 342.372 123.049C341.445 123.042 340.415 123.085 339.345 123.174C338.205 123.27 337.048 123.335 335.865 123.437C333.423 123.632 331.045 123.751 328.807 123.79C325.474 123.908 322.218 123.999 318.856 124.146C316.752 124.217 314.703 124.256 312.72 124.263C310.344 124.291 307.774 124.425 305.134 124.659C305.259 124.879 306.417 124.814 307.194 124.807C309.7 124.77 312.265 124.676 314.844 124.604C316.005 124.577 317.135 124.566 318.226 124.573C320.05 124.564 321.973 124.505 323.961 124.398C327.103 124.28 330.144 124.224 333.054 124.229C333.282 124.238 333.491 124.253 333.678 124.275C333.717 124.294 333.724 124.318 333.7 124.344C333.676 124.371 333.62 124.399 333.539 124.427C333.458 124.454 333.354 124.48 333.236 124.501C333.119 124.522 332.992 124.538 332.868 124.548C331.712 124.697 330.471 124.857 329.381 124.879C329.339 124.881 329.294 124.885 329.25 124.891C329.205 124.896 329.163 124.904 329.125 124.912C326.685 125.227 324.679 125.174 322.778 125.225C319.623 125.363 316.581 125.428 313.699 125.418C313.263 125.418 312.793 125.436 312.305 125.471C309.286 125.611 306.463 125.627 303.969 125.517C302.942 125.49 301.988 125.427 300.885 125.426C300.205 125.422 299.613 125.382 299.146 125.309C298.678 125.236 298.343 125.132 298.162 125.002C297.696 125.07 297.224 125.131 296.749 125.184C296.466 125.214 296.194 125.222 295.989 125.206C295.784 125.191 295.661 125.152 295.644 125.099C295.559 124.95 296.206 124.875 296.767 124.811C296.428 124.779 296.047 124.76 295.632 124.755C293.295 124.721 290.787 124.761 288.165 124.875C286.129 125.011 284.504 124.9 282.362 125.092C282.105 125.125 281.893 125.076 281.657 125.065C281.041 125.003 280.273 124.989 279.42 125.024C278.567 125.06 277.655 125.142 276.763 125.266C275.652 124.929 273.253 125.314 271.481 125.348C270.935 125.52 271.561 125.49 271.588 125.537C271.615 125.584 271.588 125.537 271.802 125.509C273.571 125.752 275.995 125.805 278.734 125.661C279.241 125.661 279.723 125.672 280.177 125.694C280.865 125.724 281.64 125.721 282.47 125.685C283.375 125.658 284.208 125.671 284.926 125.722C285.339 125.721 285.689 125.747 285.942 125.797C286.195 125.847 286.344 125.919 286.375 126.007C286.099 126.075 285.793 126.137 285.469 126.191C283.777 126.404 282.09 126.493 280.739 126.439C278.389 126.345 275.592 126.436 273.093 126.405C271.404 126.392 269.606 126.428 267.734 126.514C267.734 126.514 267.783 126.6 267.787 126.608C267.566 126.646 267.333 126.676 267.102 126.696C267.102 126.696 267.102 126.696 267.08 126.657C267.183 126.619 267.322 126.584 267.481 126.555L268.038 126.483C267.66 126.464 267.306 126.409 266.912 126.443C266.081 126.506 265.288 126.533 264.579 126.521C263.869 126.51 263.259 126.461 262.785 126.377C261.945 126.269 260.899 126.22 259.717 126.233C258.81 126.221 257.937 126.196 257.101 126.157C257.101 126.157 257.047 126.063 256.651 126.013C257.026 125.951 257.417 125.901 257.806 125.864C259.5 125.772 261.198 125.688 262.862 125.625C263.475 125.618 264.052 125.629 264.58 125.656C266.045 125.689 267.69 125.643 269.42 125.521C269.42 125.521 269.762 125.477 269.933 125.455C269.448 125.248 267.774 125.455 267.097 125.315C266.685 125.318 265.96 125.335 265.985 125.298C266.041 125.249 266.048 125.203 266.004 125.164C265.961 125.125 265.868 125.094 265.733 125.073C265.598 125.052 265.424 125.041 265.223 125.041C265.022 125.042 264.8 125.054 264.571 125.076C262.666 125.196 260.872 125.23 259.298 125.174C258.701 125.175 258.032 125.211 257.44 125.22C257.077 125.231 256.746 125.225 256.465 125.202C255.034 125.038 253.109 125.026 250.978 125.168C249.948 125.219 248.986 125.226 248.141 125.188C247.54 125.182 247.285 125.299 246.857 125.354L245.039 125.47L247.373 125.616C246.874 125.95 246.478 126.06 245.663 126.081C244.473 126.112 243.315 126.126 242.195 126.123C241.366 126.121 240.682 126.049 239.56 126.176C239.362 126.197 239.171 126.204 239.02 126.195C237.706 126.082 236.124 126.056 234.382 126.119C233.48 125.907 231.943 126.113 230.522 126.28C230.063 126.12 230.894 126.046 231.39 125.949C230.201 125.959 229.003 125.953 227.776 125.976C227.407 125.968 226.985 125.982 226.543 126.019C226.102 126.055 225.652 126.113 225.231 126.186C225.025 126.234 224.777 126.27 224.539 126.287C224.3 126.303 224.089 126.299 223.949 126.276C223.312 126.206 222.292 126.27 221.766 126.153C221.579 126.126 221.311 126.122 221.011 126.142C220.711 126.162 220.398 126.205 220.128 126.263C220.424 126.281 220.687 126.309 220.911 126.347C221.717 126.471 221.421 126.677 220.398 126.978C218.826 126.961 217.221 126.966 215.764 126.909C214.952 126.859 213.957 126.874 212.891 126.955C211.825 127.036 210.73 127.179 209.73 127.367C209.368 127.439 208.955 127.49 208.574 127.507C208.192 127.525 207.87 127.51 207.672 127.464C207.548 127.411 207.509 127.343 207.56 127.268L208.587 127.135C208.587 127.135 208.547 127.064 208.538 127.049L207.061 127.037C206.28 127.036 205.464 127.057 204.726 127.051C203.641 127.012 202.403 127.034 201.087 127.116C199.873 127.2 198.681 127.264 197.52 127.306C196.396 127.35 195.581 127.21 194.512 127.188C193.703 127.171 192.814 127.189 191.877 127.241C190.26 127.333 188.775 127.334 187.559 127.242C186.14 127.736 185.451 127.817 184.134 127.683L183.515 127.645L183.346 127.751L182.873 127.728C181.988 127.707 181.103 127.686 180.18 127.679C178.897 127.725 177.511 127.848 176.157 128.037C175.901 128.07 175.551 128.183 175.326 128.271C175.1 128.359 174.608 128.625 174.247 128.797C174.641 128.924 175.077 129.044 175.389 129.19C175.421 129.214 175.418 129.244 175.38 129.276C175.343 129.308 175.273 129.341 175.175 129.374C175.077 129.406 174.955 129.436 174.817 129.462C174.68 129.487 174.531 129.508 174.384 129.521C174.096 129.551 173.812 129.57 173.544 129.579C172.221 129.595 170.954 129.583 169.756 129.545C169.319 129.491 168.72 129.486 168.055 129.53C167.389 129.575 166.695 129.667 166.083 129.791C164.515 129.716 162.694 129.738 160.744 129.855C158.682 129.784 156.191 129.928 154.264 129.772C154.309 129.851 154.11 129.986 153.833 130.064C153.394 130.182 152.898 130.292 152.364 130.388L148.29 130.576C148.137 130.673 147.947 130.771 147.721 130.868C147.566 130.946 147.296 131.021 146.969 131.079C146.642 131.137 146.283 131.173 145.968 131.179C145.157 131.207 144.477 131.143 143.511 131.301C144.999 131.451 147.007 131.431 149.176 131.245C151.214 131.104 153.174 131.033 154.984 131.036C155.581 131.035 156.367 131.043 156.553 131.129C156.966 131.37 158.047 131.332 159.308 131.288C160.299 131.239 161.204 131.244 161.949 131.304C162.693 131.363 163.257 131.474 163.592 131.629C163.677 131.778 163.474 131.905 162.604 131.992L158.989 132.34C158.456 132.295 157.95 132.242 157.474 132.181C156.672 132.1 155.681 132.078 154.579 132.116C153.477 132.155 152.294 132.252 151.121 132.402C150.522 132.479 149.923 132.556 149.488 132.52C149.107 132.478 148.756 132.427 148.437 132.369C148.373 132.33 148.347 132.284 148.361 132.235C148.131 132.258 147.9 132.288 147.677 132.324C145.892 132.739 144.509 132.732 143.253 132.624C142.913 132.592 142.654 132.541 142.31 132.501C141.966 132.461 141.844 132.41 141.531 132.425C139.036 132.561 138.317 132.106 136.214 132.124C136.112 132.106 136.048 132.08 136.029 132.047C136.011 132.014 136.037 131.976 136.107 131.936C136.255 131.9 136.427 131.868 136.607 131.845C136.786 131.822 136.968 131.808 137.134 131.803C138.102 131.745 138.957 131.763 139.552 131.854C139.974 131.891 140.421 131.921 140.889 131.943L142.995 131.284C140.955 131.344 139.026 131.344 137.251 131.282C136.864 131.248 136.209 131.307 135.664 131.319L131.656 131.38C130.831 131.385 130.129 131.282 128.98 131.523C128.98 131.523 128.221 131.562 128.019 131.529C127.816 131.496 126.919 131.291 126.383 131.158C125.762 131.196 124.901 131.299 124.514 131.264C123.838 131.18 123.252 131.072 122.768 130.942L120.347 131.127C120.349 131.292 120.438 131.447 120.61 131.59C120.799 131.728 120.793 131.894 120.592 132.074C120.39 132.253 120 132.442 119.453 132.624L117.062 133.59C116.672 133.655 116.257 133.698 115.871 133.715C115.486 133.731 115.15 133.72 114.91 133.682C113.881 133.57 112.729 133.483 111.7 133.371C110.373 133.542 110.714 133.818 109.749 134.061L106.625 134.463C106.148 134.837 105.663 135.194 107.112 135.319C107.4 135.341 107.206 135.484 107.469 135.543C106.342 135.823 105.103 135.907 103.961 136.079C103.511 136.203 103.134 136.335 102.849 136.467C102.537 136.666 101.903 136.869 101.085 137.033C100.267 137.197 99.3305 137.308 98.4776 137.342C97.0467 137.447 95.5816 137.605 94.148 137.808C93.6582 137.878 93.1549 137.93 92.672 137.958C92.1892 137.987 91.7379 137.993 91.3485 137.975C89.9614 137.943 88.7873 137.833 87.9026 137.652C87.0278 137.499 85.8487 137.425 84.472 137.437C82.1178 137.74 81.643 138.198 80.2183 138.6L82.6791 138.645C82.7685 138.802 82.6056 139 83.6144 138.997C84.6231 138.993 84.1114 139.143 83.7842 139.295C83.669 139.371 83.444 139.45 83.1475 139.517C82.8509 139.585 82.5011 139.637 82.1571 139.665L80.0622 139.859C79.3193 139.933 78.6004 139.965 77.9844 139.95C77.3683 139.936 76.879 139.877 76.5702 139.778C76.2156 139.685 75.7262 139.622 75.1321 139.593C74.375 139.517 73.7523 139.404 73.2872 139.258L70.3299 139.47C70.204 139.324 69.7976 139.221 69.1795 139.179C68.5614 139.138 67.7695 139.16 66.9377 139.242L64.9444 139.372C62.7281 139.515 62.242 139.468 61.593 139.054L64.2508 138.316C63.8643 138.121 63.4913 137.95 63.1182 137.779C63.7804 137.536 64.6638 137.306 65.6788 137.112C66.626 136.904 67.6 136.703 68.5972 136.508C69.6788 136.31 70.8211 136.137 72.164 135.914C72.3985 135.841 72.7391 135.713 73.1741 135.59C73.6096 135.47 74.064 135.352 74.5356 135.237C74.4462 135.08 74.3657 134.939 74.5376 134.757C73.7105 134.815 72.8561 134.917 72.0513 135.053C71.2465 135.189 70.5166 135.355 69.9275 135.536C69.8285 135.569 69.7071 135.599 69.5714 135.625C69.4357 135.651 69.2889 135.673 69.141 135.688C67.6882 135.8 66.9938 136.032 66.2834 136.318C65.805 136.464 65.1883 136.593 64.5188 136.689C63.2347 136.854 61.9773 137.067 60.7494 137.25C60.3736 137.311 59.983 137.362 59.5937 137.399C58.3102 137.518 57.0184 137.685 55.7841 137.89C55.3813 137.943 54.9947 138.012 54.6567 138.092C54.3187 138.172 54.0392 138.261 53.8413 138.351C54.147 138.45 54.3119 138.575 54.3262 138.719C54.3798 138.813 53.4783 139.005 53.0521 139.144C52.626 139.283 53.4617 139.218 53.7453 139.232C54.9093 139.259 55.1253 139.315 54.4282 139.624C54.1954 139.721 54.0408 139.818 53.9742 139.91C53.9076 140.001 53.9303 140.084 54.0409 140.154C54.2063 140.445 54.7096 140.683 55.0552 140.967C54.5186 141.155 53.6217 141.354 53.5239 141.586C53.4769 141.638 53.3776 141.692 53.2333 141.746C53.089 141.799 52.9033 141.851 52.6895 141.896C52.1261 141.994 51.6137 142.111 51.1922 142.239C50.7708 142.366 50.4515 142.5 50.2591 142.631C50.1961 142.685 50.0441 142.742 49.8335 142.791C49.6227 142.84 49.369 142.877 49.1231 142.895C48.8293 142.917 48.5663 142.914 48.3883 142.887C48.2103 142.86 48.1311 142.81 48.1669 142.749C48.1597 142.633 48.1985 142.512 48.2831 142.388C48.234 142.302 48.1848 142.215 48.379 142.072C47.5017 142.125 46.5806 142.229 45.7158 142.375C44.851 142.52 44.0756 142.702 43.4738 142.898C42.8087 143.102 42.1953 143.316 41.4581 143.554C41.6101 143.821 41.6101 143.821 40.041 144.293L31.718 144.523L30.0122 144.836C28.4214 145.108 28.0431 145.09 27.044 144.949L26.3714 144.816C24.9589 144.998 23.3323 145.208 22.4488 144.867C22.1619 145.089 21.9747 145.164 22.0398 145.198C22.4615 145.526 23.1943 145.804 24.2092 146.022C24.4679 146.073 24.6501 146.151 24.9516 146.196C25.9238 146.452 26.1493 146.848 25.5819 147.303C25.3003 147.504 24.8913 147.71 24.368 147.915C25.134 148.198 26.1485 148.433 27.3846 148.613C28.4336 148.752 29.2974 148.938 29.9514 149.167C30.5385 149.397 31.4177 149.57 32.5386 149.676C33.1072 149.721 33.5222 149.81 33.7421 149.934C33.8075 150.269 33.6572 150.628 33.2942 151.003C33.2258 151.117 33.0316 151.24 32.7268 151.363C32.4219 151.485 32.0148 151.604 31.5372 151.71C31.5372 151.71 31.3072 151.79 31.1967 151.838C31.1045 152.244 31.4493 152.602 32.2078 152.887C32.3321 152.968 32.5863 153.027 32.9433 153.056C33.3002 153.086 33.7463 153.086 34.2335 153.056C35.2627 153.007 36.2242 153.001 37.2195 152.974C38.2921 152.936 39.2369 152.966 39.9545 153.062C40.672 153.158 41.1359 153.316 41.2972 153.519C41.3078 153.576 41.3392 153.631 41.3911 153.684C41.4214 153.711 41.4379 153.74 41.4403 153.77L39.1544 154.436L41.7405 154.7C41.8925 154.967 40.6511 155.127 40.0288 155.326L40.4134 155.436C40.9085 155.499 41.5755 155.379 42.1792 155.31L42.7785 155.232L42.85 155.358C43.2231 155.529 44.5838 155.337 45.1147 155.462C45.6456 155.588 45.2667 155.729 44.4713 155.865C43.9183 155.967 43.3246 156.047 42.7347 156.101C42.1448 156.156 41.5741 156.182 41.0655 156.178C40.7618 156.165 40.5099 156.134 40.3251 156.088C39.2516 155.892 38.0658 155.724 36.7764 155.585C35.7878 155.459 34.5499 155.406 33.1496 155.429C32.7387 155.419 32.2431 155.449 31.75 155.512C31.2568 155.576 30.7977 155.669 30.453 155.776L29.7279 155.794C29.7279 155.794 29.3312 155.904 29.3874 155.922C29.6634 156.248 29.3426 156.647 28.4729 157.06L29.2293 157.097C30.3102 157.059 29.6248 157.307 29.7864 157.43C30.5543 157.406 31.5522 157.303 31.9163 157.458L32.4612 157.447L32.2472 157.475L31.9884 157.424L30.972 157.656C31.4537 157.695 31.8025 157.743 32.228 157.764C32.463 157.782 32.65 157.814 32.778 157.859C32.9058 157.903 32.9719 157.958 32.9722 158.022C32.971 158.119 33.0977 158.201 33.3403 158.26C33.5828 158.319 33.9332 158.352 34.3579 158.357C34.8645 158.359 35.1545 158.465 35.4516 158.503L34.1609 159.141C34.1609 159.141 34.803 159.058 34.4535 159.171L34.4088 159.092L33.6268 159.252C33.0633 159.392 32.6692 159.426 32.3364 159.326C32.0035 159.225 32.0794 159.359 31.9197 159.32C31.9778 159.422 32.3401 159.494 32.6505 159.555C33.0095 159.603 33.4147 159.638 33.8592 159.66C33.0581 160.109 33.0197 160.122 34.1901 160.241C35.3604 160.36 34.9566 160.538 35.936 160.564C36.9154 160.589 35.8017 160.893 35.1463 160.952C34.6604 160.991 34.1649 161.052 33.6939 161.13C33.2229 161.208 32.7874 161.302 32.4177 161.405L32.6144 161.75C32.9026 161.722 33.1914 161.685 33.4705 161.64C34.4193 161.45 35.2823 161.272 36.1262 161.382L35.7244 161.644L38.6702 161.492C38.5939 161.689 38.1449 161.913 37.4179 162.117C37.5274 162.229 37.5946 162.347 37.6191 162.47C37.6682 162.557 37.959 162.502 38.1481 162.512C38.8227 162.526 39.3763 162.585 39.7603 162.682C40.1443 162.78 40.3469 162.913 40.3501 163.071C40.4261 163.204 39.3891 163.481 38.7407 163.472C37.1216 163.499 35.3709 163.601 33.5831 163.774C32.4932 163.797 32.3394 163.446 30.5461 163.686C30.5105 163.848 30.7401 163.979 31.2005 164.059C31.6608 164.14 32.3267 164.165 33.0976 164.132C32.6593 164.492 30.2316 164.586 30.1242 164.962C30.7287 164.935 31.3752 164.873 31.9995 164.78C32.6238 164.688 33.2045 164.569 33.684 164.436C33.7875 164.403 33.9174 164.372 34.0618 164.347C34.2061 164.322 34.3603 164.303 34.5099 164.293C34.6595 164.282 34.7997 164.279 34.9175 164.285C35.0354 164.291 35.1271 164.305 35.1841 164.326C34.8481 164.462 34.4781 164.62 34.0564 164.767C33.6347 164.914 33.5332 164.977 33.2291 165.008C30.9605 165.301 29.8819 165.827 27.9193 166.173C27.4056 166.239 27.3417 166.45 27.7876 166.426C28.2119 166.402 28.5959 166.405 28.8968 166.435C29.1977 166.465 29.4036 166.52 29.4914 166.594C29.8206 166.681 30.2306 166.75 30.7109 166.799C28.6981 167.34 26.2982 167.817 23.7364 168.187C23.2513 168.26 22.7452 168.305 22.2926 168.314C20.8625 168.315 19.3451 168.357 17.7707 168.442C17.2124 168.465 16.6964 168.463 16.251 168.435C14.7899 168.371 13.6296 168.512 12.5697 168.91L10.8154 169.541C10.8735 169.643 11.1679 169.756 11.3947 169.913L10.0243 170.249L-0.433573 169.474L-2.53293 170.225L-5.54333 170.183C-5.77406 170.205 -6.00588 170.235 -6.22806 170.271C-6.83695 170.493 -7.313 170.706 -7.97363 170.918C-8.63425 171.129 -9.81414 171.155 -10.637 171.404C-11.4599 171.653 -12.284 171.659 -13.3024 171.807C-13.3982 172 -13.2992 172.173 -13.0118 172.317C-12.9179 172.482 -12.4005 172.584 -12.311 172.741C-12.3209 172.899 -12.1287 173.034 -11.7516 173.133C-11.3746 173.231 -10.8247 173.29 -10.1519 173.305C-8.26774 173.643 -5.99566 173.884 -3.40439 174.02C-3.17677 174.029 -2.98804 174.052 -2.84991 174.087C-2.71178 174.121 -2.62724 174.166 -2.60142 174.219C-2.60498 174.373 -2.43221 174.507 -2.09565 174.609C-1.75909 174.711 -1.26724 174.781 -0.656172 174.811C-0.493456 174.818 -0.370643 174.837 -0.303 174.867C-0.071255 174.886 0.0976979 174.923 0.187282 174.975C0.276866 175.026 0.284076 175.09 0.208418 175.16C0.132729 175.229 -0.0233358 175.303 -0.244761 175.374C-0.466186 175.444 -0.745557 175.509 -1.05568 175.562C-1.50557 175.648 -1.9651 175.729 -2.43243 175.807C-2.40561 175.854 -1.94183 175.862 -2.00958 175.904C-2.19264 176.04 -2.23503 176.167 -2.13346 176.275C-2.03192 176.383 -1.78916 176.47 -1.42441 176.528L-3.92376 177.626C-5.44087 177.778 -6.92903 178.036 -8.10585 178.35C-8.10739 178.402 -8.03971 178.445 -7.90942 178.476C-7.77914 178.506 -7.59095 178.523 -7.36359 178.524C-6.75348 178.547 -6.1772 178.59 -5.51982 178.615C-5.11797 178.634 -4.78365 178.675 -4.53613 178.735C-4.28861 178.796 -4.13289 178.875 -4.07801 178.969L-5.54554 179.377C-5.07536 179.477 -4.72653 179.524 -4.41607 179.585C-4.59197 179.714 -4.89457 179.846 -5.30039 179.973C-5.7062 180.1 -6.20437 180.218 -6.75633 180.317C-6.90433 180.337 -7.05525 180.352 -7.20034 180.361C-7.34539 180.369 -7.48167 180.371 -7.60093 180.367C-8.73743 180.227 -10.0668 180.474 -11.358 180.708C-12.6492 180.942 -13.3501 181.082 -14.3033 181.264L-16.1272 181.289C-16.5888 181.375 -17.0008 181.476 -17.3301 181.584C-17.6593 181.693 -17.8967 181.805 -18.0234 181.912C-17.9251 182.085 -17.0601 181.99 -16.5445 182.008C-15.3214 182.116 -13.7133 182.093 -11.9869 181.943C-11.5589 181.888 -11.12 181.933 -10.7034 181.938C-9.80492 181.959 -8.94139 181.994 -8.11679 182.043C-7.5738 182.088 -7.06633 182.143 -6.59764 182.209C-6.47247 182.429 -8.44338 182.599 -7.32476 182.707C-7.71 182.757 -7.85431 182.826 -8.05235 182.801C-9.32129 182.944 -10.5715 183.015 -11.6581 183.005C-13.7433 182.974 -16.111 183.075 -18.5674 183.297C-21.2188 183.528 -23.7622 183.624 -25.9877 183.579C-26.8353 183.577 -27.7828 183.624 -28.7577 183.717C-29.9092 183.847 -31.0526 183.928 -32.1137 183.956C-32.4651 183.957 -32.8566 183.979 -33.2562 184.02C-33.6559 184.062 -34.0524 184.121 -34.4136 184.194C-34.3824 184.249 -34.0381 184.288 -34.1147 184.315C-35.213 184.726 -35.6583 185.155 -37.3488 185.575C-38.5045 185.724 -39.8314 185.895 -40.5871 185.697C-41.3429 185.5 -41.072 185.33 -39.5681 184.824C-39.8945 184.817 -40.2876 184.841 -40.6787 184.891C-41.0699 184.941 -41.4343 185.015 -41.7083 185.1L-43.009 185.478L-44.1813 185.84C-44.0785 186.021 -43.998 186.162 -43.9131 186.311C-43.7789 186.47 -43.9262 186.663 -44.3342 186.863C-44.5804 186.972 -44.7947 187.081 -44.9751 187.19C-45.708 187.623 -45.9202 188.033 -45.588 188.373C-44.9514 188.861 -44.065 189.311 -42.9389 189.717C-41.7494 190.111 -41.0985 190.609 -40.1185 191.038C-39.6187 191.234 -39.0116 191.41 -38.3037 191.563C-36.9609 191.904 -35.4897 192.228 -34.1424 192.577C-32.7951 192.926 -31.2739 193.176 -29.7778 193.464C-27.55 193.805 -25.1421 194.1 -22.5672 194.346C-20.974 194.562 -19.3379 194.773 -17.8641 195.021C-16.1234 195.301 -14.0785 195.502 -11.7804 195.619C-9.75061 195.759 -7.93704 195.966 -6.3745 196.237C-6.21061 196.266 -6.08126 196.303 -5.99004 196.347C-5.70868 196.623 -4.9202 196.817 -3.74514 196.9C-3.81656 196.981 -3.90782 197.063 -4.01859 197.146C-4.18169 197.245 -4.21566 197.338 -4.11601 197.412C-4.01635 197.487 -3.78775 197.539 -3.45977 197.563C-2.51977 197.631 -1.73851 197.747 -1.15092 197.906C-0.935087 197.946 -0.801251 198.004 -0.760762 198.075C-0.720272 198.146 -0.774336 198.228 -0.918443 198.314C-1.04607 198.403 -1.05549 198.484 -0.945338 198.548C-0.835216 198.612 -0.610644 198.656 -0.300765 198.673C0.494866 198.757 1.34678 198.824 2.2495 198.875C4.17045 198.987 6.4047 198.985 8.81751 198.871C9.07436 198.838 9.33306 198.889 9.63267 198.85C11.3389 198.722 12.9236 198.702 14.1947 198.793C15.6852 198.828 17.2433 198.821 18.8149 198.838C21.0855 198.827 23.1799 198.894 25.0399 199.038C27.1661 198.899 28.3607 199.141 30.1553 199.146C31.8121 199.171 33.3824 199.23 34.8514 199.324C37.2197 199.449 39.5789 199.558 41.9132 199.703C44.1031 199.773 46.1194 199.906 47.928 200.099C48.6212 200.187 49.8758 200.051 50.3479 200.234C50.8199 200.418 51.7725 200.396 52.5424 200.457L54.9713 200.607C55.389 200.643 55.8483 200.666 56.3422 200.675C58.6005 200.687 60.1644 200.932 62.2604 200.982L62.4745 200.955C66.1962 201.319 70.4553 201.519 75.1263 201.549C77.8548 201.66 80.8383 201.655 83.7335 201.737C84.4241 201.901 86.0551 201.699 86.9214 201.848C87.7876 201.998 89.2021 201.9 90.3188 201.924C91.4355 201.949 92.5273 202.011 93.7206 202.008C94.757 202.009 95.632 202.076 96.2664 202.203C97.7141 202.412 99.479 202.536 101.482 202.567C104.132 202.622 106.637 202.745 109.333 202.718C109.294 202.871 109.46 203.001 109.812 203.095C110.164 203.188 110.69 203.243 111.337 203.252C114.219 203.31 116.832 203.462 119.752 203.507L120.534 203.507L129.267 203.595C131.62 203.612 133.888 203.64 136.288 203.659C137.187 203.543 137.208 203.743 137.83 203.705C138.004 203.607 138.209 203.563 138.515 203.617L138.582 203.734L148.549 203.89C152.452 204.005 156.557 204.039 160.829 203.993C161.843 204.005 162.789 204.044 163.652 204.109C164.453 204.133 165.287 204.144 166.152 204.141C167.32 204.112 168.462 204.097 169.572 204.096C172.492 204.141 175.557 204.117 178.754 204.084C181.952 204.051 184.374 204.11 187.22 204.105C189.148 204.101 191.066 204.081 193.061 204.035C194.014 204.013 195.188 203.896 196.174 203.853C197.16 203.81 197.482 203.811 197.613 203.878C198.042 204.067 199.121 203.945 199.983 203.926C201.666 203.895 201.905 203.83 202.361 203.342L200.297 203.186C199.791 203.136 199.155 203.128 198.45 203.161C197.745 203.194 196.994 203.269 196.27 203.377C195.986 203.423 195.688 203.46 195.395 203.485C195.101 203.51 194.818 203.522 194.561 203.521C192.478 203.495 190.425 203.439 188.423 203.394L188.131 203.364L188.112 202.928C188.377 202.886 188.652 202.85 188.926 202.824L198.965 202.541C201.268 202.471 203.66 202.315 205.921 202.251C208.182 202.187 209.401 202.148 211.155 202.082C211.895 202.044 212.65 201.995 213.414 201.934C213.369 201.892 213.344 201.847 213.338 201.801C213.297 201.73 213.244 201.636 213.568 201.56C213.923 201.453 214.396 201.362 214.894 201.305C215.361 201.267 215.815 201.246 216.236 201.242C218.272 201.205 220.597 200.975 222.716 200.6L223.456 200.85C226.638 200.71 229.868 200.571 233.192 200.438C233.857 200.402 234.556 200.332 235.235 200.234C235.962 200.14 236.632 199.944 237.398 199.837C238.155 199.76 238.907 199.7 239.639 199.657C239.441 199.593 239.179 199.542 238.863 199.505C238.552 199.492 238.325 199.452 238.215 199.39C238.106 199.328 238.119 199.248 238.254 199.162C238.491 199.013 238.595 198.873 238.08 198.856C237.603 198.822 237.263 198.748 237.098 198.644C236.932 198.54 236.95 198.41 237.148 198.268C237.235 198.185 237.296 198.104 237.331 198.025L237.545 197.998C238.251 197.704 239.661 197.598 240.673 197.358C241.151 197.289 241.645 197.249 242.079 197.245C243.198 197.193 244.288 197.171 245.445 197.106C245.998 197.076 246.577 197.021 247.146 196.945C247.959 196.841 248.045 196.83 248.517 196.448C247.784 196.455 247.203 196.398 246.872 196.287C246.54 196.176 246.48 196.018 246.7 195.84C247.305 195.45 247.944 195.039 250.681 194.762C249.789 194.749 248.93 194.721 248.108 194.681C247.869 194.672 247.69 194.644 247.595 194.599C247.5 194.554 247.494 194.496 247.577 194.431C247.66 194.366 247.828 194.298 248.06 194.236C248.291 194.175 248.574 194.122 248.872 194.085C250.316 193.865 251.823 193.717 253.223 193.659C254.403 193.634 255.468 193.648 256.846 193.647L258.473 193.438C258.446 193.391 258.685 193.326 258.624 193.3C258.211 193.059 257.755 192.822 257.286 192.563C258.036 192.422 258.685 192.253 259.16 192.074C259.635 191.895 259.916 191.714 259.971 191.551C260.012 191.502 260.001 191.457 259.94 191.419C259.88 191.382 259.77 191.353 259.619 191.335C259.191 191.303 258.86 191.243 258.653 191.159C258.445 191.075 258.367 190.968 258.423 190.849L259.688 190.407C263.496 190.093 267.237 189.868 270.839 189.737L274.09 189.638C274.483 189.52 274.361 189.468 273.992 189.465C273.623 189.462 272.585 189.495 271.86 189.513C271.233 189.536 270.677 189.521 270.245 189.469C269.813 189.417 269.52 189.329 269.393 189.215L270.485 188.712C270.431 188.618 270.355 188.485 269.763 188.494C269.358 188.483 269.06 188.435 268.917 188.359C268.773 188.283 268.793 188.182 268.972 188.073C268.999 187.994 268.959 187.923 268.851 187.861C267.976 187.856 267.104 187.859 266.31 187.835C265.939 187.827 265.627 187.798 265.393 187.749C265.159 187.701 265.01 187.634 264.955 187.554C264.927 187.476 264.996 187.387 265.159 187.295C265.322 187.202 265.573 187.108 265.892 187.021C267.137 186.913 268.277 186.911 269.06 187.017C269.339 187.1 269.788 187.145 270.346 187.146C270.905 187.148 271.548 187.106 272.19 187.026C272.925 186.934 273.658 186.894 274.258 186.912C274.858 186.931 275.285 187.007 275.463 187.127C276.218 187.08 276.886 187.045 277.546 186.993C278.325 186.928 279.061 186.909 279.674 186.938C280.656 186.958 281.714 186.946 282.825 186.903C286.025 186.794 289.229 186.692 292.328 186.647C293.147 186.634 293.857 186.669 294.667 186.64C295.478 186.612 296.119 186.689 297.133 186.533C297.326 186.509 297.521 186.493 297.701 186.488C297.881 186.482 298.042 186.486 298.171 186.5C299.952 186.624 302.039 186.641 304.311 186.552C307.423 186.53 310.65 186.468 313.766 186.454C314.68 186.466 315.544 186.498 316.349 186.551C316.961 186.582 317.602 186.604 318.269 186.615C318.78 186.625 319.269 186.596 319.183 186.767C319.096 186.938 319.862 186.831 320.304 186.799C321.82 186.716 323.371 186.604 324.937 186.463C326.48 186.311 327.992 186.222 329.383 186.202C330.387 186.19 331.422 186.234 332.714 186C332.664 185.914 332.615 185.827 332.334 185.737C333.387 185.489 334.589 185.276 335.839 185.114C337.089 184.953 338.353 184.849 339.525 184.81L341.142 184.341C341.54 184.286 341.946 184.245 342.336 184.223C342.726 184.2 343.091 184.195 343.41 184.208C343.656 184.215 343.956 184.198 344.255 184.159C344.553 184.121 344.831 184.064 345.036 183.999C345.343 183.916 345.718 183.845 346.114 183.794C346.51 183.743 346.909 183.714 347.262 183.712C348.373 183.661 349.558 183.543 350.697 183.37C350.993 183.269 351.178 183.164 351.23 183.069C351.282 182.974 351.198 182.893 350.99 182.835C350.653 182.734 350.464 182.604 350.434 182.454C350.405 182.305 350.534 182.138 350.816 181.965C350.96 181.858 351.008 181.757 350.957 181.668C350.906 181.579 350.758 181.504 350.521 181.446C349.634 181.181 349.872 181.033 351.321 180.593C351.557 180.52 351.841 180.451 352.155 180.392C352.469 180.333 352.807 180.284 353.146 180.248C353.944 180.177 354.73 180.123 355.491 180.089C355.919 180.034 356.358 180.079 356.851 180.057C359.317 179.95 359.678 179.777 360.477 179.405L361.059 179.136C362.138 178.918 363.319 178.737 364.516 178.606C365.712 178.475 366.895 178.398 367.979 178.379C368.41 178.377 368.905 178.34 369.389 178.273C370.964 178.067 372.558 177.925 374.067 177.855C375.008 177.816 376.021 177.715 376.987 177.563C377.952 177.412 378.828 177.217 379.509 177.002C380.121 176.808 380.921 176.634 381.798 176.505C382.826 176.372 382.921 176.217 382.347 176.097C381.774 175.977 380.813 175.823 379.96 175.697C379.663 175.654 379.479 175.584 379.429 175.495C379.378 175.407 379.463 175.302 379.674 175.194C379.809 175.009 379.833 174.833 379.744 174.671C379.696 174.604 379.729 174.527 379.84 174.445C379.951 174.363 380.137 174.278 380.387 174.197C380.637 174.115 380.943 174.038 381.287 173.971C381.63 173.904 382.002 173.849 382.377 173.809C383.961 173.605 385.502 173.406 387.117 173.257C387.794 173.187 388.47 173.1 389.129 172.998C390.477 172.746 391.92 172.537 393.373 172.383C394.063 172.315 394.737 172.194 395.25 172.049C396.868 171.656 398.359 171.244 399.696 170.818C400.018 170.687 400.439 170.558 400.934 170.44C401.428 170.323 401.985 170.219 402.569 170.136C403.04 170.076 403.423 169.942 403.786 169.853C404.05 169.647 404.078 169.457 403.868 169.299C403.658 169.142 403.217 169.024 402.586 168.954C401.987 168.871 401.427 168.775 400.909 168.673C400.285 168.591 399.544 168.541 398.712 168.527C397.727 168.483 396.999 168.356 396.622 168.164C399.319 167.817 401.883 167.317 404.247 167.434L406.043 167.118C405.971 166.993 405.909 166.883 405.85 166.781C405.423 166.595 405.29 166.361 405.462 166.098C405.603 165.971 405.59 165.855 405.425 165.762C405.259 165.67 404.946 165.603 404.518 165.57C401.982 165.232 399.049 165.003 396.671 164.619C395.925 164.546 395.052 164.514 394.088 164.522C393.156 164.498 393.195 164.325 394.268 164.111C394.87 163.999 395.484 163.892 396.107 163.79C398.854 163.773 399.973 164.286 403.108 164.143L404.561 163.467C404.954 163.456 405.335 163.452 405.702 163.454L410.959 163.729C411.396 163.743 411.737 163.79 411.942 163.865C412.147 163.94 412.209 164.039 412.119 164.153C412.083 164.291 412.156 164.418 412.333 164.529C412.448 164.607 412.375 164.711 412.129 164.817C411.577 165.057 412.286 165.092 412.734 165.152C412.848 165.158 412.98 165.157 413.122 165.15C413.264 165.143 413.413 165.13 413.56 165.111C413.707 165.092 413.85 165.067 413.98 165.039C414.11 165.012 414.225 164.98 414.317 164.948C415.106 164.72 415.797 164.479 416.572 164.227C416.022 163.987 416.669 163.591 415.81 163.373C415.714 163.33 415.676 163.277 415.697 163.217C415.719 163.158 415.8 163.094 415.935 163.029C416.285 162.86 416.452 162.695 416.419 162.552C416.385 162.408 416.153 162.29 415.745 162.21L415.696 162.124C416.771 161.834 416.486 161.576 416.909 161.268L417.943 161.068C420.516 160.584 420.521 160.592 422.737 160.61C423.183 160.426 422.616 160.398 422.19 160.377L418.627 160.17C416.297 160.033 413.899 159.937 411.297 159.885C408.694 159.833 405.792 159.659 403.102 159.534C402.966 159.524 402.862 159.505 402.799 159.478C402.735 159.451 402.715 159.417 402.738 159.379C402.845 159.337 402.985 159.297 403.148 159.262C403.31 159.226 403.491 159.196 403.678 159.173C404.534 159.063 405.412 158.992 406.325 158.899L408.025 158.739L408.548 158.529C408.889 158.4 409.122 158.244 409.575 158.152C409.948 158.083 410.353 158.031 410.748 158.001C411.143 157.971 411.513 157.964 411.82 157.98C412.671 158.022 413.441 158.083 414.254 158.139C415.066 158.194 415.514 158.254 416.219 158.281C417.65 158.294 419.034 158.326 420.363 158.379C421.483 158.504 422.519 158.652 423.464 158.822C424.054 158.889 424.605 158.97 425.612 158.882C426.09 158.803 426.502 158.698 426.775 158.588C427.049 158.477 427.166 158.367 427.105 158.277C427.051 158.207 426.898 158.151 426.661 158.115C426.424 158.079 426.11 158.065 425.749 158.073C424.738 158.06 423.803 158.016 422.964 157.943C421.795 157.81 420.372 157.753 418.779 157.774C418.238 157.794 417.876 157.722 417.403 157.699C416.93 157.676 416.53 157.618 416.003 157.66C414.365 157.77 413.58 157.602 412.599 157.492C412.267 157.444 412.061 157.365 412.004 157.266C411.948 157.166 412.042 157.049 412.277 156.927C412.73 156.685 413.284 156.441 413.931 156.2C414.263 156.081 414.69 155.969 415.176 155.871C415.662 155.773 416.196 155.693 416.734 155.636C417.056 155.488 417.228 155.342 417.234 155.212C417.24 155.081 417.08 154.971 416.769 154.89C415.975 154.706 415.271 154.519 413.491 154.622C412.655 154.661 411.868 154.669 411.161 154.644C409.593 154.61 407.785 154.684 405.907 154.858C405.421 154.902 404.943 154.933 404.488 154.948C401.241 155.055 398.147 155.108 395.044 155.146C393.4 155.164 391.743 155.158 390.027 155.211C386.003 155.325 382.339 155.266 378.455 155.304C376.421 155.323 374.6 155.246 373.088 155.077C372.794 155.02 372.541 154.954 372.333 154.879C373.334 154.683 374.435 154.528 375.529 154.428C376.622 154.328 377.673 154.288 378.579 154.31C379.077 154.365 379.721 154.375 380.439 154.339C381.156 154.303 381.92 154.223 382.644 154.106L380.539 154.041C379.143 154.01 377.713 154 376.356 153.956C374.199 153.88 372.2 153.759 369.966 153.71C368.163 153.664 366.55 153.549 365.176 153.366C364.184 153.233 363.051 153.139 361.8 153.085C360.911 153.057 360.911 153.057 360.342 152.784C360.793 152.608 361.377 152.584 361.926 152.58C365.22 152.469 368.355 152.45 371.266 152.522C372.735 152.529 374.038 152.603 375.113 152.743C375.376 152.802 376.05 152.774 376.59 152.755C378.285 152.726 379.904 152.734 381.429 152.78C383.537 152.856 385.885 152.838 388.382 152.726C388.856 152.589 388.311 152.601 388.284 152.554C386.35 152.466 384.455 152.365 382.482 152.29C381.943 152.264 381.367 152.25 380.76 152.251C378.494 152.297 376.606 152.169 375.36 151.885C375.297 151.775 374.478 151.788 374.116 151.717C373.937 151.655 373.819 151.583 373.763 151.501C374.291 151.298 374.887 151.297 375.347 151.297C376.68 151.32 377.962 151.363 379.187 151.426C380.327 151.485 381.588 151.501 382.936 151.473C383.932 151.446 384.783 151.488 385.787 151.477C386.332 151.452 386.895 151.414 387.467 151.361C386.831 151.22 385.966 151.133 384.933 151.106C384.149 151.022 383.17 150.996 383.045 150.777C383.415 150.619 383.827 150.617 384.158 150.633C384.847 150.633 385.512 150.642 386.15 150.663C387.504 150.708 388.97 150.708 390.516 150.665C391.331 150.648 392.104 150.653 392.822 150.679C394.45 150.714 396.01 150.791 397.5 150.826C400.553 150.862 403.338 150.992 406.272 151.061C406.925 151.078 407.51 151.137 408.37 151.035C409.231 150.932 409.269 150.919 409.371 150.855C409.612 150.749 409.685 150.646 409.575 150.568C409.404 150.494 409.071 150.454 408.636 150.453C406.014 150.336 403.526 150.173 401.19 149.963C400.161 149.921 399.26 149.835 398.518 149.709C397.929 149.622 397.231 149.564 396.445 149.538C395.302 149.475 394.11 149.429 392.875 149.4C392.3 149.384 391.811 149.338 391.437 149.263C391.063 149.188 390.811 149.087 390.697 148.964L392.212 148.559C392.45 148.54 392.686 148.523 392.919 148.51L405.491 148.802L406.736 148.81C408.1 148.786 408.434 148.726 409.728 148.256C406.774 148.145 404.452 147.823 402.993 147.32C403.344 147.266 403.703 147.22 404.063 147.183C406.424 147.064 408.656 147.032 410.672 147.089C411.87 147.095 413.102 147.079 414.338 147.072C413.976 146.84 412.591 146.909 411.689 146.857C409.532 146.775 407.624 146.607 406.028 146.356C405.477 146.259 404.789 146.196 403.993 146.172C403.197 146.164 402.532 146.104 402.056 146C401.58 145.895 401.308 145.748 401.262 145.572C401.187 145.412 401.026 145.263 400.78 145.128C401.215 144.937 401.905 144.753 402.722 144.612C403.538 144.471 404.424 144.383 405.214 144.363C406.901 144.284 408.65 144.155 410.417 143.979C411.298 143.89 412.161 143.839 412.951 143.829C413.648 143.822 414.44 143.757 415.206 143.646C415.972 143.535 416.671 143.384 417.196 143.215C417.903 143.005 418.564 142.794 419.225 142.582C419.885 142.371 420.652 142.103 421.423 141.844C422.103 141.803 422.765 141.777 423.4 141.766C423.895 141.775 424.471 141.747 425.062 141.684C425.654 141.622 426.235 141.527 426.737 141.412C426.442 141.298 426.109 141.198 425.759 141.066C426.24 140.892 426.589 140.714 426.784 140.544C426.98 140.374 427.017 140.215 426.895 140.077C426.824 139.951 427.347 139.74 427.528 139.574C427.761 139.43 427.804 139.296 427.653 139.189C427.502 139.082 427.163 139.008 426.681 138.975C426.083 138.914 425.597 138.823 425.241 138.706C425.124 138.675 425.064 138.633 425.067 138.584C425.071 138.534 425.137 138.479 425.261 138.423C425.384 138.367 425.56 138.311 425.774 138.262C425.987 138.213 426.231 138.171 426.482 138.141C427.252 138.055 428.017 138 428.732 137.977C429.965 137.937 431.145 137.911 432.272 137.9C433.519 137.885 434.906 137.787 436.293 137.618C437.534 137.458 438.647 137.315 439.254 137.009C439.861 136.703 440.831 136.713 441.577 136.49C441.158 136.29 440.413 136.15 439.417 136.086C438.766 136.063 438.222 136.003 437.821 135.91C437.419 135.816 437.169 135.692 437.087 135.544L439.352 134.923C441.162 134.631 442.163 134.856 444.118 134.739L442.103 134.51C442.063 134.487 442.048 134.46 442.059 134.431C442.254 133.968 442.565 133.869 444.625 133.612L445.78 133.463L447.609 133.286C447.902 133.191 448.105 133.092 448.197 132.999C448.289 132.905 448.267 132.821 448.134 132.755C447.866 132.643 447.784 132.5 447.897 132.339C448.074 132.232 448.089 132.134 447.938 132.061C447.788 131.988 447.481 131.945 447.072 131.939C446.746 131.931 446.722 131.808 446.544 131.738C446.368 131.642 446.065 131.568 445.658 131.521C445.251 131.475 444.749 131.457 444.185 131.469C442.524 131.478 440.962 131.442 439.53 131.361L439.786 131.328C438.293 131.399 436.897 131.408 435.666 131.353C434.432 131.285 432.849 131.329 431.539 131.287C430.472 131.297 429.66 131.202 429.275 131.023C428.902 130.852 427.546 130.892 426.508 130.924C425.893 130.945 425.298 130.954 424.731 130.951C423.97 130.912 423.017 130.949 422.033 131.054C421.738 131.087 421.447 131.104 421.189 131.104C418.687 131.149 416.19 131.201 413.722 131.224C413.152 131.211 412.484 131.241 411.796 131.312C411.507 131.343 411.226 131.356 410.99 131.349C407.09 131.278 402.69 131.458 398.867 131.361C398.404 131.338 397.891 131.333 397.343 131.347C396.111 131.404 395.042 131.367 394.297 131.242C393.895 131.176 393.379 131.139 392.784 131.135C392.188 131.13 391.524 131.158 390.836 131.216C389.69 131.293 388.632 131.302 387.771 131.24C386.094 131.184 384.33 131.161 382.494 131.171C381.931 131.181 381.436 131.159 381.048 131.106C380.66 131.054 380.388 130.973 380.255 130.869C380.706 130.693 381.199 130.672 381.667 130.687C383.482 130.647 385.293 130.599 387.074 130.58C388.668 130.526 390.198 130.51 391.64 130.531C392.357 130.555 393.251 130.5 394.127 130.379C395.201 130.226 396.307 130.149 397.222 130.166C397.9 130.17 398.616 130.156 399.359 130.126C399.834 130.09 400.322 130.027 400.771 129.944C400.949 129.908 401.144 129.878 401.341 129.855C401.538 129.833 401.735 129.819 401.918 129.813C402.1 129.808 402.266 129.812 402.403 129.824C402.54 129.837 402.646 129.859 402.714 129.887C403.402 130.127 404.941 130.005 406.258 129.978C408.232 129.572 409.702 129.813 411.547 129.583C411.693 129.568 411.836 129.559 411.969 129.556C412.102 129.553 412.221 129.557 412.319 129.568C415.89 129.706 420.051 129.591 423.8 129.639C424.213 129.646 424.693 129.622 425.185 129.57C428.399 129.225 431.488 129.127 433.85 129.295C434.138 129.31 434.465 129.311 434.816 129.297C436.431 129.16 437.975 129.106 439.32 129.138C441.428 129.128 443.454 129.136 445.596 129.104C447.072 129.059 448.367 129.107 449.351 129.244C449.382 129.299 450.038 129.24 450.54 129.234C450.829 129.096 451.079 128.971 451.377 128.848C451.643 128.696 452.042 128.543 452.546 128.398C453.05 128.253 453.647 128.12 454.298 128.008C455.411 127.864 455.523 127.656 454.744 127.58C452.737 127.326 450.213 127.223 447.357 127.276C444.971 127.28 442.541 127.29 440.12 127.316C438.709 127.338 437.22 127.386 435.847 127.395C435.383 127.413 434.907 127.441 434.423 127.477C433.83 127.529 433.253 127.558 432.725 127.561C431.029 127.517 429.137 127.555 427.138 127.675C426.406 127.701 425.703 127.709 425.04 127.701C423.47 127.668 421.768 127.692 419.98 127.771C418.868 127.816 417.79 127.839 416.757 127.841C416.393 127.846 416.096 127.809 415.744 127.837C412.651 128.135 410.462 127.92 407.678 128.034C406.325 128.066 405.033 128.066 403.819 128.034C401.45 128.036 399.014 128.069 396.523 128.132C393.228 128.237 390.175 128.2 387.03 128.243C386.409 128.252 385.809 128.251 385.235 128.239C382.443 128.159 379.411 128.176 376.212 128.289C375.486 128.306 374.834 128.286 374.296 128.23C373.759 128.175 373.348 128.085 373.089 127.967C372.979 127.886 373.05 127.781 373.288 127.672C373.683 127.533 374.129 127.396 374.618 127.265L392.424 126.823C393.172 126.8 393.901 126.788 394.608 126.786C396.687 126.782 398.831 126.748 401.028 126.683C403.199 126.623 405.272 126.633 407.376 126.615C407.995 126.609 408.631 126.595 409.281 126.572C413.672 126.392 417.954 126.282 422.096 126.243C423.839 126.237 425.722 126.155 427.498 126.128C429.275 126.101 431.704 126.092 433.812 126.081L440.337 126.083C441.621 126.077 442.87 126.093 444.115 126.101C445.626 125.527 446.147 125.393 448.163 125.141C448.853 125.049 449.555 124.993 450.186 124.982C452.188 125.027 454.699 124.838 456.597 124.863C457.742 124.851 458.714 124.915 459.413 125.048C460.02 125.153 460.713 125.235 461.484 125.295C463.593 124.804 463.779 124.485 462.192 124.361C461.762 124.332 461.17 124.341 460.859 124.28C460.681 124.243 460.438 124.222 460.149 124.218C459.86 124.214 459.533 124.228 459.193 124.259C458.123 124.339 457.12 124.358 456.284 124.314C455.498 124.255 454.534 124.257 453.485 124.321C452.715 124.42 452.038 124.28 451.371 124.239C450.705 124.199 450.158 124.126 449.117 124.235C448.927 124.256 448.738 124.269 448.564 124.273C448.391 124.276 448.238 124.27 448.118 124.254C447 124.184 445.666 124.191 444.224 124.276C442.013 124.358 439.939 124.362 438.073 124.285C436.956 124.218 436.003 124.098 435.253 123.932C435.048 123.876 434.745 123.843 434.371 123.835C432.493 123.87 430.455 124 428.387 124.219C427.607 124.306 426.829 124.375 426.069 124.425C424.506 124.535 422.994 124.596 421.578 124.608C419.521 124.609 417.379 124.652 415.172 124.734C413.809 124.78 412.497 124.797 411.249 124.784C409.967 124.779 408.598 124.814 407.173 124.888C405.756 124.949 404.508 124.914 403.578 124.787C403.272 124.719 403.025 124.638 402.843 124.545C404.917 124.244 407.063 124.091 408.847 124.117C409.525 124.097 410.088 124.117 410.802 123.999L410.825 124.039C410.967 124.064 411.181 124.07 411.427 124.056C411.673 124.041 411.933 124.007 412.158 123.959C412.073 123.81 411.992 123.669 411.934 123.567C410.575 123.585 409.254 123.583 407.98 123.563C406.906 123.532 405.449 123.796 404.519 123.697C402.706 123.821 401.552 123.65 399.926 123.699C398.3 123.749 396.509 123.912 394.883 123.961C393.464 123.989 392.087 123.994 390.758 123.979C390.299 123.958 389.771 123.963 389.204 123.994C388.408 124.053 387.668 124.063 387.068 124.023C386.468 123.982 386.033 123.893 385.812 123.766C386.02 123.646 386.3 123.492 386.622 123.332C386.029 123.201 385.127 123.146 384.052 123.175L382.532 123.169C382.129 123.172 381.821 123.137 381.672 123.07C381.522 123.003 381.543 122.909 381.729 122.809C384.611 122.302 384.717 122.247 386.833 122.572L389.641 122.421L389.594 122.419ZM351.607 123.809L351.821 123.782L351.607 123.809ZM1.61947 177.678L1.66864 177.765L1.61499 177.67L1.14422 177.731L1.11292 177.676L1.61947 177.678ZM69.9817 139.827C70.6471 139.733 71.3191 139.646 71.9935 139.568C72.17 139.556 72.3353 139.553 72.4752 139.56C72.6151 139.567 72.7256 139.583 72.7972 139.607C72.8509 139.702 72.4745 139.767 72.1321 139.811C71.7003 139.871 71.2591 139.908 70.8541 139.921C70.4492 139.933 70.095 139.919 69.8283 139.881L69.4412 139.846L69.9817 139.827ZM412.766 162.788C412.328 162.804 411.912 162.807 411.53 162.796C409.832 162.72 408.207 162.609 406.467 162.538C404.271 162.359 401.748 162.286 398.993 162.322C397.916 162.34 397.006 162.282 396.37 162.154C395.989 162.086 395.497 162.046 394.925 162.037L387.64 161.83C387.189 161.787 386.8 161.727 386.481 161.651C387.123 161.568 387.551 161.513 387.808 161.48C388.34 161.471 388.798 161.496 389.136 161.553C389.498 161.65 390.11 161.689 390.851 161.661C391.599 161.638 392.328 161.625 393.035 161.624C394.37 161.629 395.715 161.649 397.054 161.662C397.576 161.932 399.114 161.809 400.431 161.783L401.449 161.795C404.776 161.935 407.953 162.127 410.967 162.371C411.549 162.413 412.051 162.478 412.456 162.567C412.609 162.636 412.658 162.722 412.599 162.818L412.813 162.791L412.766 162.788ZM264.215 188.594C263.408 188.612 262.567 188.65 261.706 188.706C261.042 188.764 260.395 188.799 259.789 188.81C256.396 188.871 252.86 189.01 249.23 189.227C248.755 189.26 248.299 189.276 247.878 189.275L244.906 189.22C243.97 189.189 243.952 189.158 244.634 188.741C245.2 188.66 245.772 188.587 246.346 188.521C246.688 188.476 247.245 188.405 247.375 188.472C248.169 188.656 249.617 188.537 250.836 188.498C254.362 188.397 257.999 188.249 261.56 188.127C262.312 188.097 263.041 188.082 263.739 188.082C264.173 188.076 264.567 188.087 264.908 188.117C265.007 188.12 265.091 188.128 265.152 188.142C265.214 188.156 265.252 188.175 265.265 188.197C265.277 188.219 265.264 188.245 265.226 188.271C265.187 188.298 265.125 188.326 265.042 188.352C264.751 188.445 264.414 188.534 264.043 188.616L264.215 188.594ZM238.381 128.14L234.907 128.091C234.491 128.085 234.137 128.03 233.691 128.054C231.313 128.129 229.11 128.108 227.178 127.992C226.519 127.944 225.75 127.935 224.91 127.964C222.34 128.05 219.916 128.053 217.703 127.974C216.272 127.958 214.934 127.905 213.707 127.815C213.612 127.794 213.553 127.766 213.534 127.732C213.515 127.698 213.536 127.66 213.595 127.619C213.61 127.593 213.652 127.565 213.718 127.538C213.784 127.51 213.872 127.483 213.976 127.458C214.08 127.434 214.197 127.412 214.32 127.395C214.443 127.378 214.569 127.366 214.688 127.36C216.238 127.238 217.71 127.196 218.982 127.236C220.162 127.284 221.433 127.299 222.774 127.278C224.058 127.273 224.928 127.43 226.514 127.31C227.185 127.271 227.776 127.284 228.189 127.347C229.02 127.452 230.179 127.458 231.461 127.364C232.227 127.316 232.96 127.295 233.631 127.303C235.259 127.338 236.815 127.407 238.323 127.473C238.798 127.489 239.308 127.491 239.843 127.48L247.396 127.349C249.211 127.309 251.021 127.261 252.802 127.242C254.259 127.201 255.614 127.214 256.821 127.28C258.108 127.35 259.511 127.378 261.004 127.364C263.323 127.403 265.629 127.417 268.153 127.412C269.763 127.415 271.411 127.405 273.093 127.374C273.944 127.333 274.667 127.366 275.122 127.466C275.398 127.548 276.049 127.481 276.59 127.462C279.473 127.278 282.176 127.234 284.512 127.334C284.81 127.351 285.137 127.357 285.487 127.352C287.736 127.349 290.067 127.326 292.226 127.326C292.794 127.334 293.329 127.355 293.824 127.39C293.771 127.446 293.62 127.507 293.402 127.56C293.185 127.613 292.917 127.655 292.654 127.675C290.612 127.833 288.64 127.916 286.822 127.921C283.794 127.901 280.623 127.946 277.342 128.056C274.795 128.167 272.473 128.144 270.549 127.988C269.044 127.872 267.087 127.916 265.014 128.112C264.126 128.205 263.265 128.243 262.548 128.219C261.857 128.188 261.065 128.195 260.217 128.241C258.43 128.329 256.711 128.369 255.094 128.362C253.514 128.33 252.039 128.242 250.416 128.215C248.793 128.189 246.32 128.204 244.319 128.159C242.317 128.113 240.338 128.107 238.381 128.14ZM382.334 123.548C382.151 123.791 381.502 123.942 380.803 124.007C378.396 124.294 376.016 124.416 374.063 124.353C373.008 124.265 371.601 124.299 370.12 124.448C368.395 124.604 366.782 124.63 365.567 124.521C365.269 124.502 365.041 124.462 364.903 124.405C364.876 124.357 364.827 124.271 364.818 124.255C364.946 124.216 365.102 124.179 365.276 124.148C365.449 124.116 365.635 124.092 365.818 124.076L373.793 123.798L375.182 123.737C377.72 123.577 380.139 123.513 382.334 123.548ZM366.649 127.39C365.404 127.787 365.4 127.779 364.763 127.869C361.687 128.246 358.613 128.449 355.907 128.455C355.305 128.453 354.795 128.415 354.419 128.343C354.225 128.333 354.102 128.302 354.076 128.257C354.05 128.211 354.123 128.155 354.28 128.1L355.27 127.82C357.067 127.7 358.838 127.603 360.573 127.533C362.594 127.449 364.384 127.446 366.478 127.412L366.649 127.39ZM264.364 186.838C263.204 187.384 263.2 187.376 261.258 187.517C259.905 187.617 258.593 187.675 257.36 187.691C255.853 187.708 254.309 187.739 252.807 187.764C252.44 187.781 252.129 187.767 251.935 187.723C251.74 187.68 251.676 187.61 251.754 187.529C251.951 187.44 252.259 187.354 252.629 187.285C252.998 187.216 253.407 187.168 253.789 187.148L254.608 187.135C255.604 187.108 256.637 187.068 257.599 187.062C258.223 187.084 258.946 187.067 259.711 187.01C260.476 186.954 261.263 186.861 262.009 186.738L264.364 186.838ZM360.457 124.261C360.147 124.356 359.797 124.446 359.415 124.53C357.938 124.764 356.375 124.896 355.032 124.902C354.397 124.916 353.816 124.865 353.17 124.939C352.01 125.04 350.886 125.093 349.859 125.097C349.859 125.097 349.571 125.075 349.476 125.07L349.28 124.725C349.766 124.645 350.273 124.579 350.778 124.531C352.472 124.44 354.136 124.377 355.796 124.306C357.455 124.235 358.034 124.203 359.119 124.173C359.604 124.189 360.052 124.219 360.457 124.261ZM397.133 167.205L394.916 167.912C394.199 167.973 393.529 167.985 393.008 167.944C392.487 167.903 392.144 167.812 392.031 167.686C391.848 167.626 391.83 167.539 391.98 167.441C392.13 167.343 392.436 167.243 392.834 167.161C393.218 167.064 393.656 166.977 394.121 166.905C394.586 166.834 395.068 166.779 395.538 166.745L397.133 167.205ZM378.679 163.685C380.129 163.565 381.515 163.516 382.733 163.542C383.5 163.612 384.539 163.589 385.638 163.479C387.635 163.259 389.561 163.198 391.009 163.309C391.009 163.309 391.062 163.403 391.308 163.431C391.553 163.458 390.58 163.524 390.366 163.552C388.796 163.619 387.218 163.671 385.853 163.695C385.006 163.694 384.11 163.717 383.18 163.762C381.901 163.832 380.688 163.854 379.588 163.829C379.588 163.829 379.163 163.808 378.684 163.693L378.679 163.685ZM223.868 126.859C224.56 126.726 225.311 126.618 226.064 126.543C226.817 126.468 227.552 126.427 228.215 126.425C228.723 126.418 229.134 126.453 229.383 126.525C229.632 126.597 229.704 126.701 229.59 126.821C229.076 126.887 228.391 126.976 228.006 127.025C226.671 127.02 225.531 126.957 223.868 126.859ZM94.2572 138.08C94.8126 137.973 95.4246 137.891 96.0232 137.844C96.6219 137.796 97.183 137.785 97.6424 137.812C97.8788 137.824 97.7184 137.946 97.7587 138.016C97.7849 138.032 97.7846 138.052 97.7577 138.074C97.7309 138.096 97.6785 138.119 97.6061 138.14C97.5337 138.161 97.444 138.181 97.3463 138.196C97.2486 138.211 97.1465 138.221 97.0508 138.226C96.448 138.272 95.8791 138.285 95.3948 138.266C94.9104 138.246 94.5257 138.193 94.275 138.111L94.2572 138.08ZM85.573 139.612C85.659 139.549 85.8418 139.483 86.0881 139.427C86.3345 139.37 86.6277 139.327 86.914 139.305C87.42 139.302 87.8799 139.319 88.276 139.357C88.706 139.385 88.3967 139.569 87.8153 139.677C87.569 139.721 87.3059 139.755 87.047 139.777C86.788 139.798 86.5402 139.807 86.3234 139.802C86.1066 139.798 85.9267 139.779 85.798 139.749C85.6692 139.719 85.5953 139.677 85.5819 139.628L85.573 139.612ZM337.913 124.934C339.208 124.708 340.205 124.765 341.302 124.674C342.399 124.583 342.67 124.574 342.523 124.719C342.376 124.864 341.624 124.835 341.153 124.896C340.517 124.976 339.877 125.022 339.304 125.029C338.732 125.036 338.25 125.003 337.913 124.934ZM67.93 163.173C68.6163 163.122 69.2885 163.086 69.9366 163.066C70.0219 163.087 70.0753 163.114 70.0937 163.147C70.1121 163.179 70.0952 163.216 70.0439 163.254C70.0439 163.254 69.6044 163.37 69.3476 163.403C68.4014 163.517 68.3548 163.354 67.93 163.173ZM-29.0639 184.229C-29.5283 184.381 -29.7449 184.485 -30.1167 184.558C-30.2875 184.584 -30.4641 184.602 -30.6334 184.612C-30.8026 184.622 -30.96 184.624 -31.0942 184.617C-31.2576 184.573 -31.2959 184.506 -31.2015 184.428C-31.2015 184.428 -30.7282 184.292 -30.548 184.285C-30.034 184.253 -29.5359 184.234 -29.0639 184.229ZM359.966 123.642C360.951 123.515 361.892 123.394 362.574 123.542C361.011 123.701 361.011 123.701 359.966 123.642ZM344.021 125.091C345.015 124.819 345.598 124.795 346.075 124.826C346.177 124.834 346.244 124.851 346.266 124.876C346.289 124.9 346.266 124.93 346.201 124.962C346.136 124.993 346.032 125.024 345.905 125.049C345.778 125.074 345.635 125.093 345.498 125.103C344.979 125.11 344.485 125.106 344.021 125.091ZM292.856 125.205C292.834 125.166 292.807 125.119 293.064 125.086C293.131 125.069 293.21 125.055 293.293 125.044C293.375 125.033 293.459 125.027 293.535 125.025C293.535 125.025 293.561 125.072 293.579 125.104L292.856 125.205ZM257.326 190.375L257.898 190.411L257.641 190.444L256.963 190.464L257.326 190.375ZM56.0024 139C56.2164 138.972 56.4305 138.945 56.4618 139C56.5069 139.008 56.5349 139.02 56.5434 139.035C56.552 139.05 56.5409 139.068 56.5109 139.086C56.5109 139.086 56.2113 139.125 56.0829 139.141L56.0024 139ZM89.334 139.439C89.4748 139.436 89.6018 139.44 89.7076 139.45L89.7345 139.497L89.3064 139.552L89.334 139.439ZM379.81 150.663C379.975 150.634 380.15 150.612 380.323 150.597L380.538 150.569C380.538 150.569 380.308 150.649 380.179 150.666C380.051 150.682 379.947 150.662 379.81 150.663Z" fill="#016A70"/>
</g>
<path d="M106.568 12.0581C105.171 12.6385 104.65 13.7823 104.631 16.2065V17.5382H95.5243H86.4358L85.8212 17.9137C84.5548 18.7161 84.0519 19.8429 84.3685 21.1916C84.5734 22.0964 85.5791 23.1036 86.5475 23.3426C87.5346 23.5987 128.228 23.5816 129.308 23.3256C130.891 22.95 132.009 21.4306 131.711 20.0136C131.562 19.2283 130.947 18.4088 130.165 17.9308L129.532 17.5382H120.443H111.336V16.1212C111.336 13.6799 110.777 12.5873 109.25 11.9898C108.338 11.6483 107.499 11.6654 106.568 12.0581Z" fill="#016A70"/>
<path d="M74.1432 28.4817C73.2679 28.7207 72.3181 29.6596 72.076 30.5132C71.9084 31.1107 72.0015 32.0326 72.5229 35.7031C72.8582 38.1444 73.1934 40.415 73.2493 40.7052L73.361 41.2686H76.6016C79.6373 41.2686 79.8608 41.2515 79.8608 40.9613C79.8608 40.6369 79.2089 35.8567 79.0041 34.8154L78.911 34.269H107.983C123.962 34.269 137.036 34.3203 137.036 34.3886C137.036 34.4739 136.831 35.9421 136.571 37.6664C136.31 39.3906 136.105 40.893 136.105 41.0295C136.105 41.2173 136.701 41.2686 139.364 41.2686C142.586 41.2686 142.624 41.2686 142.698 40.8759C142.754 40.671 143.089 38.4005 143.462 35.8567C144.02 31.9302 144.095 31.0937 143.909 30.4791C143.666 29.6084 142.698 28.7207 141.73 28.4646C140.836 28.2426 74.9999 28.2597 74.1432 28.4817Z" fill="#016A70"/>
<path d="M81.3506 96.6327C81.3506 97.1107 82.6543 105.8 82.7846 106.091C83.0267 106.739 83.6413 107.354 84.349 107.678C85.0568 108.02 85.4292 108.02 108.225 107.986L131.393 107.934L132.064 107.456C132.436 107.2 132.883 106.756 133.032 106.483C133.274 106.074 134.615 97.7424 134.615 96.701C134.615 96.4449 134.336 96.4108 131.375 96.4108C128.171 96.4108 128.134 96.4108 128.041 96.7864C127.985 97.0083 127.799 98.2716 127.613 99.6203L127.277 102.045L108.001 102.01L88.7071 101.959L88.2973 99.2276C88.0738 97.7253 87.8876 96.4791 87.8876 96.4449C87.869 96.4278 86.3977 96.4108 84.6098 96.4108C82.0024 96.4108 81.3506 96.462 81.3506 96.6327Z" fill="#016A70"/>
<path d="M100.584 42.3549C99.0675 42.9732 98.4785 43.621 96.7265 46.5656C95.5193 48.5973 95.1512 49.304 95.2248 49.569C95.2837 49.8193 96.5351 50.7174 99.9655 52.97C103.97 55.5907 104.677 55.9882 104.942 55.8704C105.133 55.7821 105.899 54.5159 106.944 52.543C107.872 50.791 108.696 49.3776 108.755 49.4071C108.873 49.4365 112.539 56.4004 112.524 56.5771C112.524 56.6213 111.759 57.1071 110.831 57.6813C108.961 58.7855 108.593 59.1683 108.858 59.6542C108.946 59.8308 109.167 59.9928 109.344 60.0222C110.286 60.2283 121.431 61.4356 121.667 61.362C121.814 61.3178 122.109 60.9056 122.33 60.4345C125.657 53.4706 127.851 48.6709 127.851 48.3912C127.851 48.1556 127.733 47.979 127.497 47.8759C127.188 47.7287 126.908 47.8317 125.274 48.7004C123.787 49.4954 123.375 49.6574 123.272 49.4954C123.198 49.3776 122.462 48.1115 121.638 46.6686C120.445 44.5927 119.959 43.8713 119.297 43.2529C117.898 41.9573 118.207 42.0015 109.241 42.0015H101.423L100.584 42.3549ZM106.871 45.4908C107.401 46.595 107.828 47.5815 107.828 47.6992C107.828 47.8906 104.692 53.7356 104.471 53.9564C104.382 54.0448 97.4774 49.6426 97.0357 49.2304C96.9327 49.1273 98.9938 45.4908 99.4797 44.9461C100.481 43.783 101.408 43.4885 103.955 43.4738H105.914L106.871 45.4908ZM117.147 43.7094C118.325 44.1069 118.884 44.7694 120.71 48.0379C121.652 49.7015 122.55 51.1885 122.712 51.3505C122.992 51.6449 123.007 51.6449 124.199 51.0266C124.877 50.688 125.436 50.4377 125.465 50.4671C125.51 50.5113 121.387 59.3303 121.093 59.7867C121.004 59.9339 120.106 59.8603 116.691 59.448C114.32 59.1683 112.318 58.9327 112.23 58.9327C111.906 58.9327 112.2 58.6236 113.201 57.9463C113.761 57.5488 114.247 57.1366 114.276 57.0041C114.306 56.8715 112.819 53.8534 110.993 50.2757C109.167 46.7128 107.68 43.7241 107.68 43.6357C107.68 43.518 108.976 43.4738 112.068 43.4738C115.69 43.4738 116.588 43.518 117.147 43.7094Z" fill="#016A70"/>
<path d="M96.2705 55.356C95.9466 55.3855 93.1493 55.5769 90.0428 55.7683C86.2738 56.0038 84.3303 56.1805 84.1831 56.2983C84.0506 56.4013 83.977 56.6664 84.0064 56.9314C84.0506 57.3289 84.2715 57.5056 85.9646 58.6098C87.0246 59.287 87.9669 59.8907 88.0699 59.9495C88.2319 60.0379 87.908 60.8182 86.7154 63.3211C85.8615 65.1173 85.0812 66.9282 84.9929 67.3551C84.7868 68.3121 84.9045 69.7108 85.2873 70.653C85.8026 71.9339 92.7518 84.1686 93.3702 84.8605C94.0621 85.6409 95.4755 86.3917 96.6239 86.6126C97.0509 86.6862 98.1992 86.7598 99.1562 86.7598C101.733 86.7598 101.497 87.437 101.497 80.1345C101.497 74.2896 101.482 74.0834 101.203 73.8037C100.923 73.524 100.717 73.5093 97.8164 73.5093C95.9466 73.5093 94.7247 73.4504 94.7247 73.362C94.7247 73.097 98.5968 66.2951 98.7587 66.2951C98.847 66.2951 99.6715 66.5895 100.599 66.9576C102.174 67.576 102.307 67.6054 102.631 67.3993C102.807 67.2668 102.969 67.0312 102.969 66.8693C102.969 66.4276 98.1403 55.6652 97.8459 55.4296C97.6103 55.253 97.4484 55.253 96.2705 55.356ZM98.9354 61.0538C99.9365 63.3211 100.746 65.2203 100.732 65.2792C100.702 65.3528 100.231 65.2056 99.6568 64.9553C98.3317 64.3958 98.0373 64.4106 97.6692 64.9995C97.5073 65.2645 95.9025 68.1502 94.0916 71.4039C92.2954 74.6724 90.7789 77.3372 90.7348 77.3372C90.6906 77.3372 89.7483 75.7177 88.6441 73.7448C86.4799 69.8727 86.259 69.2396 86.4946 67.7968C86.5535 67.3993 87.3191 65.6031 88.3202 63.5125C89.4833 61.0832 90.0134 59.8318 89.9545 59.6109C89.9103 59.4195 89.3508 58.9631 88.5116 58.4331C87.7608 57.9472 87.2307 57.535 87.3191 57.5056C87.6135 57.4025 95.2988 56.9019 96.2411 56.9314L97.095 56.9461L98.9354 61.0538ZM100.025 80.1345V85.1403H98.214C96.5797 85.1403 96.3294 85.1108 95.6669 84.7722C95.2547 84.5661 94.7541 84.2127 94.5333 83.9919C93.9738 83.403 91.6181 79.2217 91.677 78.942C91.7065 78.8095 92.2218 77.9114 92.796 76.9249L93.856 75.1288H96.9331H100.025V80.1345Z" fill="#016A70"/>
<path d="M122.698 62.5394C118.546 65.0717 117.766 65.587 117.722 65.8962C117.692 66.1465 118.208 67.2654 119.297 69.2677C120.195 70.9167 120.961 72.389 121.02 72.5215C121.108 72.757 120.814 72.7718 117.354 72.7718H113.599L113.54 70.8578C113.496 69.1647 113.467 68.9291 113.202 68.7377C113.04 68.6052 112.804 68.5169 112.687 68.5463C112.495 68.5758 104.751 77.2328 104.191 78.0278C104.059 78.2339 104 78.4989 104.059 78.6903C104.103 78.8817 105.988 81.4729 108.24 84.4764C112.407 90.0416 112.657 90.3066 113.217 89.8502C113.364 89.7177 113.423 89.3055 113.423 88.216V86.7584H116.441C119.562 86.7584 120.607 86.6259 121.579 86.1401C122.772 85.5364 123.405 84.6531 126.143 79.7504C127.601 77.1739 129.309 74.1704 129.956 73.0809C130.604 72.0062 131.281 70.7695 131.473 70.3425C131.915 69.3855 132.062 67.9427 131.841 66.8974C131.753 66.4704 130.958 64.63 130.074 62.8191C128.528 59.6685 128.44 59.5212 128.042 59.536C127.777 59.536 125.922 60.5813 122.698 62.5394ZM128.999 63.8792C129.677 65.3073 130.31 66.8237 130.398 67.2654C130.648 68.458 130.398 69.3855 129.323 71.2259L128.41 72.7718L125.613 72.7423L122.801 72.6981L121.137 69.6064C120.21 67.8985 119.459 66.441 119.459 66.3673C119.474 66.2348 127.498 61.288 127.704 61.288C127.748 61.288 128.322 62.4511 128.999 63.8792ZM112.23 74.0085C112.407 74.2146 113.143 74.244 119.915 74.244C124.038 74.244 127.409 74.3029 127.409 74.3765C127.409 74.4796 122.934 82.4888 122.227 83.6372C122.065 83.9022 121.623 84.3292 121.255 84.5942L120.563 85.0653L116.588 85.1095C112.775 85.1536 112.598 85.1684 112.289 85.4628C112.068 85.6689 111.95 85.9487 111.95 86.2726C111.95 86.5376 111.906 86.7584 111.847 86.7437C111.656 86.729 105.84 78.8081 105.84 78.5726C105.84 78.4548 107.195 76.8058 108.859 74.8918L111.877 71.4173L111.95 72.5951C111.995 73.2576 112.112 73.8612 112.23 74.0085Z" fill="#016A70"/>
</svg>
